<svg version="1.1" xmlns="http://www.w3.org/2000/svg" xmlns:xlink="http://www.w3.org/1999/xlink" width="140px" height="70.56px" viewBox="0,0,256,129.01563"><g transform="translate(12.8,6.45078) scale(0.9,0.9)"><g fill="none" fill-rule="nonzero" stroke="#000000" stroke-width="1" stroke-linecap="round" stroke-linejoin="none" stroke-miterlimit="10" stroke-dasharray="" stroke-dashoffset="0" font-family="none" font-weight="none" font-size="none" text-anchor="none" style="mix-blend-mode: normal"><g transform="translate(-0.91429,-0.00094) scale(1.82857,1.82857)"><path d="M42,10.5c-2.3334,17.5 -6.6001,51.7 -3.0001,42.5c0.9217,-2.3554 1.6773,-4.1383 2.2971,-5.4847c1.2107,-2.6302 3.9657,-5.699 5.703,-8.0153v0l1,-1.5l1.2514,-2.0856c0.1655,-0.2758 0.3086,-0.5644 0.4281,-0.8631l0.6631,-1.6577c0.1016,-0.2541 0.1099,-0.5361 0.0233,-0.7958v0c-0.2021,-0.6063 -0.8575,-0.934 -1.4638,-0.7319l-0.1157,0.0386c-0.1883,0.0628 -0.3595,0.1686 -0.5,0.309l-0.9393,0.9394c-0.2311,0.2311 -0.4455,0.4783 -0.6416,0.7398l-0.3667,0.4888c-0.5581,0.7442 -1.0481,1.537 -1.4641,2.369l-0.8747,1.7495l-1,2.5l-0.2861,1.1444c-0.1411,0.5643 -0.1646,1.1517 -0.0689,1.7256l0.0712,0.4272c0.1783,1.0698 0.8577,1.9898 1.8278,2.4748v0c0.3023,0.1512 0.6254,0.2562 0.9588,0.3118l0.6976,0.1163c1.1848,0.1974 2.3988,0.1287 3.5538,-0.2013l0.724,-0.2069c0.6797,-0.1942 1.3399,-0.451 1.9722,-0.7671l0.142,-0.071c1.2635,-0.6317 2.4168,-1.463 3.4156,-2.4618l1.492,-1.492l2,-2l0.2322,-0.2322c1.177,-1.1771 2.269,-2.4361 3.2678,-3.7678v0l1.6447,-2.0559c0.2166,-0.2707 0.256,-0.6427 0.1009,-0.9528l-0.022,-0.0441c-0.1371,-0.2741 -0.4172,-0.4472 -0.7236,-0.4472v0c-0.3065,0 -0.5866,0.1731 -0.7236,0.4472l-0.1382,0.2764c-0.0909,0.1818 -0.1382,0.3822 -0.1382,0.5854v3.191l0.4579,4.1209c0.0278,0.2508 0.0998,0.4946 0.2126,0.7202l0.2737,0.5473c0.3189,0.6378 1.0583,0.9441 1.7348,0.7186v0c0.2111,-0.0704 0.4029,-0.1889 0.5602,-0.3462l1.7608,-1.7608l2,-2.5l2.5,-3l0.8757,-1.1676c0.3295,-0.4394 0.9717,-0.485 1.36,-0.0967v0c0.1692,0.1692 0.2643,0.3988 0.2643,0.6381v2.1262v4.5l-0.0248,0.3461c-0.3163,4.4292 -0.9767,8.8271 -1.9752,13.1539v0l-2,6.5l-1.3137,3.2841c-0.4563,1.1409 -1.0299,2.2312 -1.7114,3.2536l-0.8904,1.3355c-0.0562,0.0843 -0.1206,0.1629 -0.1923,0.2346v0c-0.5188,0.5188 -1.337,0.5957 -1.9474,0.1887v0c-0.2869,-0.1912 -0.504,-0.4741 -0.613,-0.8011l-0.3318,-0.9954v0c-0.3301,-1.6503 -0.3301,-3.3497 0,-5v0l0.1865,-0.746c0.5407,-2.1629 1.3165,-4.26 2.3135,-6.254v0l2.5,-4.5l0.4629,-0.7275c2.0187,-3.1722 4.3784,-6.1138 7.0371,-8.7725v0l5,-5.5l3,-3.5l2.8374,-2.8374c0.4357,-0.4358 0.9669,-0.764 1.5515,-0.9589v0c0.4047,-0.1349 0.8286,-0.2037 1.2552,-0.2037h0.6933c0.4357,0 0.8655,0.1014 1.2552,0.2963l0.0911,0.0456c0.2095,0.1047 0.4007,0.2425 0.5663,0.4081l0.1047,0.1047c0.0962,0.0962 0.1763,0.2074 0.2372,0.3291l0.3,0.6c0.0645,0.1291 0.0392,0.2851 -0.0629,0.3871v0c-0.1619,0.1619 -0.4348,0.1176 -0.5371,-0.0871l-0.2396,-0.4791c-0.0347,-0.0693 -0.0803,-0.1327 -0.1351,-0.1875l-0.1499,-0.1499c-0.4794,-0.4794 -1.1666,-0.6874 -1.8314,-0.5545l-0.7612,0.1523c-0.4455,0.0891 -0.8692,0.2646 -1.2472,0.5166l-0.4272,0.2847c-0.3327,0.2219 -0.6428,0.476 -0.9256,0.7588l-0.7956,0.7956c-0.5188,0.5188 -1.0001,1.0738 -1.4403,1.6607l-0.468,0.6241c-0.2467,0.3289 -0.4633,0.6794 -0.6472,1.0472l-0.1674,0.3347c-0.3658,0.7316 -0.5562,1.5383 -0.5562,2.3563v0.5913c0,0.7562 0.2452,1.4919 0.6989,2.0968v0c0.5159,0.6878 1.2672,1.1613 2.1103,1.3299l0.1656,0.0332c0.6718,0.1343 1.367,0.091 2.017,-0.1256l1.0799,-0.36c0.6167,-0.2055 1.2068,-0.4835 1.758,-0.828l1.214,-0.7587c1.3,-0.8125 2.5035,-1.7699 3.5875,-2.8539l1.8688,-1.8688v0c0.9983,-0.9983 1.9124,-2.0774 2.733,-3.2262l1.267,-1.7738v0c0.165,-0.2197 0.505,-0.0096 0.382,0.2361l-1.352,2.7042c-0.02,0.0396 -0.034,0.0817 -0.043,0.1251l-0.306,1.5288c-0.119,0.5964 -0.105,1.2119 0.043,1.8019l0.139,0.5541c0.089,0.3598 0.275,0.6883 0.538,0.9505v0c0.383,0.3837 0.904,0.5993 1.446,0.5993h0.026c0.704,0 1.362,-0.352 1.752,-0.9381l0.375,-0.5619l1,-2l0.434,-1.084c0.374,-0.9354 0.566,-1.9336 0.566,-2.9411v-0.3406c0,-0.4213 -0.052,-0.841 -0.154,-1.2497l-0.161,-0.6439c-0.121,-0.4847 -0.372,-0.9273 -0.725,-1.2806l-0.151,-0.1511c-0.203,-0.2032 -0.451,-0.3563 -0.724,-0.4472l-0.114,-0.0382c-0.595,-0.1983 -1.251,-0.0435 -1.695,0.4v0c-0.181,0.1818 -0.318,0.4034 -0.4,0.6472l-0.058,0.1737c-0.203,0.6118 -0.156,1.2795 0.132,1.8563l0.55,1.0992v0c0.648,0.9722 1.619,1.7064 2.727,2.0758v0c0.828,0.2758 1.723,0.3493 2.583,0.2059l0.629,-0.1049c0.703,-0.1172 1.385,-0.3389 2.023,-0.6578v0c0.687,-0.3437 1.315,-0.7961 1.859,-1.3397l0.679,-0.6793v0c1.295,-1.6183 2,-3.6291 2,-5.7016v-10.6569l0.5,-10.6415l0.441,-3.08863c0.034,-0.23605 0.236,-0.41137 0.475,-0.41137v0c0.302,0 0.529,0.27662 0.469,0.5731l-0.385,1.9269l-0.5,6.5v4.5v9.5v1.5l-0.5,12.5v1.5v0c0,0.3629 0.518,0.4267 0.606,0.0746l1.394,-5.5746l0.145,-0.4339c0.564,-1.6946 1.453,-3.2636 2.615,-4.6198l0.276,-0.3216c0.64,-0.7463 1.379,-1.4012 2.196,-1.9464l0.713,-0.4751c0.697,-0.4643 1.477,-0.7877 2.298,-0.9518l0.443,-0.0886c0.537,-0.1075 1.091,-0.1075 1.628,0l0.439,0.0879c0.799,0.1596 1.501,0.6298 1.952,1.307v0c0.195,0.2927 0.339,0.6167 0.424,0.958l0.163,0.6534c0.138,0.5519 0.208,1.1185 0.208,1.6874v0.7285c0,0.6092 -0.043,1.2177 -0.129,1.8208l-0.007,0.0437c-0.24,1.6851 -0.798,3.3095 -1.642,4.7874l-0.722,1.2631l-0.455,0.6827c-0.361,0.5416 -0.804,1.0243 -1.312,1.4309l-0.932,0.7457c-0.519,0.4148 -1.163,0.6407 -1.827,0.6407h-0.238c-0.156,0 -0.312,-0.0252 -0.46,-0.0746v0c-0.72,-0.24 -1.134,-0.9941 -0.95,-1.7306l0.027,-0.1057c0.094,-0.3791 0.327,-0.7092 0.652,-0.9259l0.995,-0.6632l2,-1l2.5,-1.5l0.647,-0.4311c1.565,-1.0434 3.023,-2.2388 4.353,-3.5689v0l1.5,-1.5l3,-3.5l1.5,-2" stroke-linejoin="miter"></path><path d="M1,25l0.90656,-1.0879c1.06065,-1.2728 2.21977,-2.4601 3.46663,-3.5511v0c1.41505,-1.2382 2.9378,-2.3476 4.55012,-3.315l0.07669,-0.046l1.858,-1.0617c1.0893,-0.6225 2.2605,-1.0891 3.4793,-1.3864v0l-0.3373,0.8916l-2,5.5565v0c-0.9976,2.9927 -1.6978,6.0765 -2.0905,9.2065l-0.8108,6.4618v0c-0.22131,3.5477 -0.13219,7.1079 0.2663,10.64l0.435,3.8552l1.4791,8.6717l1.2141,4.6388c0.0045,0.0173 0.0108,0.034 0.0188,0.05l0.0604,0.1208c0.1065,0.213 0.4276,0.1372 0.4276,-0.101v0c0,-0.0289 -0.0056,-0.0576 -0.0164,-0.0844l-0.9726,-2.4118c-0.3398,-0.8425 -0.5945,-1.7169 -0.7603,-2.6101l-0.4869,-2.6233l-1.0607,-6.5944c-0.6231,-3.8735 -0.85864,-7.7995 -0.7031,-11.7198v0l0.7064,-6.8917l1.0286,-6.0495c0.1764,-1.0377 0.4322,-2.0603 0.765,-3.0588v0l2.7476,-7.9369l2.5024,-0.3131h1.0788c0.7779,0 1.5528,0.0954 2.3074,0.284l0.9115,0.2279c0.6285,0.1572 1.2193,0.4383 1.7376,0.8271v0c0.7909,0.5932 1.3822,1.4135 1.6949,2.3515l0.1779,0.5338c0.2265,0.6794 0.3419,1.3908 0.3419,2.1068v0.1689c0,0.8279 -0.1335,1.6504 -0.3953,2.4359l-0.3001,0.9004c-0.2028,0.6084 -0.4485,1.2016 -0.7353,1.7751l-0.2822,0.5644c-0.5239,1.0479 -1.1291,2.053 -1.8101,3.0063l-1.477,2.0679l-2.5,3l-2.5,2.5l-2.5,2.5v0c-0.2232,0.2232 0.02,0.592 0.3131,0.4748l3.6869,-1.4748l1.8473,-0.4618c1.4297,-0.3575 2.8979,-0.5382 4.3717,-0.5382h0.3607c0.6127,0 1.2248,0.0435 1.8314,0.1302l1.2993,0.1856c0.8511,0.1216 1.6694,0.4121 2.4067,0.8544v0c0.908,0.5448 1.6679,1.3047 2.2127,2.2127l0.0227,0.038c0.4279,0.713 0.7177,1.5002 0.8544,2.3204l0.1413,0.848c0.101,0.6061 0.1518,1.2195 0.1518,1.834v0.2828c0,1.1914 -0.1461,2.3784 -0.4351,3.5343l-0.1513,0.6051c-0.2752,1.1009 -0.6454,2.1759 -1.1062,3.213l-0.139,0.3126c-0.7761,1.7461 -1.7615,3.3914 -2.9346,4.8997l-0.2309,0.297c-0.9998,1.2854 -2.1153,2.4766 -3.3325,3.5585l-0.5831,0.5183c-1.3873,1.2332 -2.906,2.3102 -4.5286,3.2117l-0.5487,0.3048c-1.0045,0.5581 -2.0586,1.0218 -3.1487,1.3851l-0.9639,0.3213c-1.2567,0.4189 -2.5727,0.6325 -3.8974,0.6325h-0.5536c-0.95802,0 -1.90972,-0.1544 -2.81853,-0.4574l-1.15543,-0.3851c-1.27281,-0.4243 -2.35187,-1.2899 -3.04214,-2.4403l-0.20956,-0.3493c-0.14635,-0.2439 -0.25581,-0.5082 -0.3248,-0.7841l-0.33394,-1.3358c-0.03847,-0.1539 0.00661,-0.3166 0.11875,-0.4288v0c0.17632,-0.1763 0.46218,-0.1763 0.6385,0l0.0343,0.0344c0.09377,0.0937 0.14645,0.2209 0.14645,0.3535v0.8707c0,0.2796 0.04509,0.5575 0.13352,0.8228l0.2142,0.6426c0.10139,0.3041 0.22425,0.6007 0.36764,0.8875l0.28464,0.5693" stroke-linejoin="round"></path></g></g></g></svg>