<svg width="14" height="14" viewBox="0 0 14 14" fill="none" xmlns="http://www.w3.org/2000/svg">
<path fill-rule="evenodd" clip-rule="evenodd" d="M0.707078 2.39339C0.316554 2.00286 0.316553 1.3697 0.707078 0.979172C1.0976 0.588648 1.73077 0.588648 2.12129 0.979173L7.07104 5.92893L12.0208 0.979184C12.4113 0.58866 13.0445 0.58866 13.435 0.979184C13.8255 1.36971 13.8255 2.00287 13.435 2.3934L8.48526 7.34314L13.435 12.2929C13.8255 12.6834 13.8255 13.3166 13.435 13.7071C13.0445 14.0976 12.4113 14.0976 12.0208 13.7071L7.07104 8.75735L2.12129 13.7071C1.73077 14.0976 1.0976 14.0976 0.707078 13.7071C0.316553 13.3166 0.316554 12.6834 0.707078 12.2929L5.65683 7.34314L0.707078 2.39339Z" fill="white"/>
</svg>
