<svg width="255" height="383" viewBox="0 0 255 383" fill="none" xmlns="http://www.w3.org/2000/svg">
<path d="M50.4551 0.219357C59.799 0.219357 69.1429 0.219357 78.77 0.219357C78.77 0.592463 78.77 0.965569 78.77 1.34998C79.7413 1.43743 79.7413 1.43743 80.7322 1.52664C83.3669 1.85953 85.689 2.63609 88.1493 3.61123C88.8126 3.87391 88.8126 3.87391 89.4893 4.1419C105.956 10.893 117.836 24.1109 124.737 40.2966C125.905 43.2567 126.726 46.3113 127.472 49.4015C127.699 48.6968 127.926 47.9922 128.16 47.2661C133.683 30.5712 143.099 16.4847 158.618 7.56842C158.947 7.37922 159.276 7.19003 159.615 6.9951C167.083 2.8012 175.168 0.157532 183.743 0.084654C184.518 0.0778095 184.518 0.0778095 185.308 0.0708266C186.402 0.06302 187.496 0.0569507 188.589 0.0524964C189.693 0.0460229 190.797 0.0345237 191.9 0.0177165C198.759 -0.0865739 204.77 0.212122 211.284 2.48061C212.004 2.72471 212.004 2.72471 212.738 2.97374C213.923 3.40007 215.08 3.86076 216.239 4.3532C216.641 4.52195 217.043 4.69069 217.457 4.86455C223.214 7.35408 228.005 10.927 232.803 14.9175C233.152 15.1886 233.5 15.4596 233.858 15.7389C237.005 18.2514 239.413 21.3566 241.864 24.5278C242.382 25.1913 242.382 25.1913 242.91 25.8682C253.08 39.5819 256.729 57.2198 254.252 73.9573C251.54 90.3228 242.688 105.413 229.406 115.543C220.792 121.597 211.896 125.131 201.657 127.415C202.322 127.607 202.987 127.799 203.672 127.998C221.549 133.308 236.172 142.959 245.395 159.469C253.248 174.026 256.227 192.161 251.491 208.254C245.922 226.275 234.766 240.147 218.057 249.057C212.976 251.627 207.28 253.645 201.657 254.61C201.97 254.689 202.282 254.768 202.605 254.849C209.732 256.683 216.217 258.863 222.61 262.524C223.185 262.851 223.76 263.177 224.353 263.513C228.13 265.788 231.326 268.526 234.502 271.569C234.981 272.024 235.46 272.479 235.953 272.947C236.409 273.425 236.864 273.903 237.334 274.396C237.704 274.768 238.074 275.141 238.455 275.524C250.74 288.379 254.698 305.292 254.46 322.56C253.99 339.534 245.677 355.08 233.469 366.63C220.519 378.426 203.582 383.558 186.261 382.865C171.105 381.984 157.244 375.633 146.16 365.411C145.749 365.047 145.339 364.684 144.916 364.309C136.032 356.033 130.121 344.365 127.472 332.623C127.375 332.938 127.279 333.253 127.18 333.578C121.437 352.13 110.927 366.915 93.5579 376.13C78.6973 383.676 61.1395 384.935 45.1637 380.255C28.874 374.661 14.9086 363.408 7.05318 347.978C-1.02312 331.371 -1.90509 313.235 3.99978 295.774C9.69836 279.953 21.9725 267.026 37.0763 259.804C41.5547 257.744 46.267 256.436 51.0214 255.175C51.0214 254.989 51.0214 254.802 51.0214 254.61C50.487 254.479 49.9527 254.349 49.4021 254.215C31.8509 249.815 17.2828 239.741 7.94092 224.202C-0.931695 209.126 -3.13197 191.317 1.03404 174.398C3.49829 165.322 7.80999 156.42 14.212 149.462C14.5857 149.01 14.9595 148.558 15.3446 148.093C24.7642 136.961 38.1043 130.511 52.154 127.415C51.659 127.304 51.1641 127.193 50.6542 127.079C33.8914 123.01 19.2578 113.086 10.1483 98.3209C1.07815 83.132 -2.00427 65.2976 2.1759 48.0302C4.86968 37.8849 9.51102 29.0207 16.4772 21.1359C16.7597 20.7796 17.0422 20.4232 17.3332 20.0561C24.2719 11.3433 37.2086 3.54242 48.1899 1.34998C48.9374 1.34998 49.6849 1.34998 50.4551 1.34998C50.4551 0.976876 50.4551 0.60377 50.4551 0.219357ZM35.165 10.395C36.0414 10.9963 36.9284 11.5823 37.8195 12.1616C38.5587 12.6535 38.5587 12.6535 39.3127 13.1553C40.8045 13.962 40.8045 13.962 42.3256 13.3584C42.7658 13.1267 43.206 12.895 43.6595 12.6562C46.6877 11.6486 50.3157 11.5123 53.3817 12.4774C55.7111 13.7145 57.7932 15.3624 58.9496 17.744C59.4574 19.8835 59.834 21.9812 60.1552 24.1568C60.7885 26.8104 61.7972 28.7561 63.9865 30.4415C66.5505 31.6613 68.5188 32.3404 71.4081 31.8768C74.5123 30.6105 76.4524 28.9057 77.7923 25.8351C78.2605 24.3473 78.5228 22.8874 78.77 21.3479C79.3591 17.7396 80.6113 15.5142 83.5482 13.2922C86.68 11.4924 89.9954 11.5503 93.4938 12.0909C96.8019 13.3221 98.5485 15.2608 100.289 18.3093C100.783 20.3763 100.783 20.3763 101.103 22.5492C101.674 25.8572 102.189 27.9818 104.82 30.1809C107.324 31.8115 109.211 32.1946 112.182 31.8768C114.08 31.0955 114.08 31.0955 115.579 30.1809C112.116 22.8041 104.863 16.3139 98.0242 12.0909C97.4643 11.7266 96.9044 11.3622 96.3275 10.9868C80.3738 1.15739 50.4551 -3.52261 35.165 10.395ZM157.486 11.5256C160.196 14.5809 164.673 15.7864 168.654 16.0658C174.228 15.9894 180.128 13.7961 184.102 9.82966C186.681 6.44374 186.681 6.44374 188.066 2.48061C177.304 1.64534 166.577 6.20467 157.486 11.5256ZM193.729 2.48061C195.309 7.31879 198.769 11.3483 203.25 13.7868C208.511 16.0714 213.706 16.5959 219.212 14.9175C220.804 14.2527 222.237 13.5071 223.743 12.6562C223.743 12.2831 223.743 11.91 223.743 11.5256C214.542 6.18829 204.533 2.06756 193.729 2.48061ZM190.897 4.17654C190.547 4.78102 190.547 4.78102 190.189 5.39771C186.54 11.4402 182.128 15.7679 175.12 17.6027C173.775 17.8759 172.436 18.1159 171.077 18.3093C171.206 23.9371 173.159 27.9788 176.937 32.1242C180.762 35.735 185.664 37.5536 190.897 37.742C197.208 37.5053 202.36 34.8579 206.647 30.2869C209.639 26.6493 210.945 22.9647 211.284 18.3093C210.907 18.2671 210.529 18.2248 210.14 18.1813C204.686 17.4045 200.112 15.2031 195.994 11.5256C194.89 9.98424 194.89 9.98424 193.906 8.34572C192.574 6.12611 192.574 6.12611 190.897 4.17654ZM19.2556 22.3129C7.3642 35.0079 2.8134 51.5604 3.35081 68.6075C4.3181 84.9123 12.6736 99.8122 24.5613 110.74C27.1518 112.983 29.9994 114.856 32.8998 116.674C33.4101 116.998 33.9204 117.322 34.4461 117.656C35.6772 118.469 35.6772 118.469 37.0409 118.405C41.823 116.518 47.0774 111.838 49.8888 107.629C49.3249 107.423 49.3249 107.423 48.7496 107.214C44.1685 105.478 41.4948 103.835 39.1689 99.4471C38.1979 97.1583 37.7738 94.8174 37.4302 92.3652C38.3646 92.3652 39.299 92.3652 40.2617 92.3652C40.2763 92.6932 40.2909 93.0211 40.306 93.3589C40.6039 97.4554 41.9285 99.8276 44.8983 102.682C47.0985 104.506 49.3637 105.001 52.154 105.367C54.7 102.041 56.8529 98.5505 58.8434 94.8738C59.1702 94.2842 59.1702 94.2842 59.5036 93.6826C61.0126 90.8381 61.7581 88.1813 62.3474 85.0162C65.5243 84.8296 68.7012 84.6431 71.9744 84.4509C70.8471 79.8592 69.7155 75.2687 68.577 70.6798C68.0483 68.5482 67.5213 66.4161 66.9985 64.2831C66.4923 62.2183 65.9813 60.1549 65.4673 58.0921C65.2735 57.3112 65.0814 56.53 64.8911 55.7483C60.6058 38.1707 51.7371 23.6563 36.3997 13.682C29.7611 9.66302 23.8207 17.7812 19.2556 22.3129ZM146.443 20.6413C144.359 22.7733 142.564 25.0538 140.815 27.4603C140.574 27.7894 140.333 28.1186 140.085 28.4576C138.671 30.4652 137.756 32.3403 137.099 34.7034C143.083 37.5017 148.475 38.6243 154.928 36.4567C161.212 33.7099 164.791 29.3278 167.303 23.1101C167.742 21.4667 167.743 20.0027 167.679 18.3093C167.2 18.2197 166.721 18.1301 166.228 18.0377C162.602 17.2932 159.645 16.5308 156.629 14.3455C153.637 12.3618 148.532 18.66 146.443 20.6413ZM43.6595 16.0481C43.9274 16.2747 44.1953 16.5014 44.4713 16.7349C56.1999 26.7998 63.4915 38.8661 66.8778 53.924C69.5321 54.136 71.4358 54.198 73.8503 52.97C76.8203 50.4189 77.8783 48.5576 78.4515 44.667C79.1293 40.7697 79.8438 38.1186 83.1588 35.6662C86.1144 33.9293 88.9977 33.6882 92.3612 34.1381C96.0564 35.2871 98.2703 37.0218 100.112 40.4272C100.807 42.1718 101.056 43.8723 101.316 45.727C101.825 48.8329 102.945 50.7942 105.386 52.7934C107.792 54.24 110.006 54.2939 112.748 53.924C114.938 53.1726 116.448 51.9479 118.022 50.2495C119.389 47.4191 119.702 44.5795 120.11 41.4871C120.316 40.6367 120.316 40.6367 120.526 39.7691C120.717 37.6454 120.178 36.8142 119.013 35.0567C118.692 34.5626 118.372 34.0686 118.042 33.5595C117.664 33.0064 117.664 33.0064 117.278 32.4422C116.636 32.722 115.994 33.0018 115.332 33.2901C111.841 34.5744 108.682 34.7609 105.244 33.2195C102.215 31.5145 100.103 29.0435 99.1568 25.6584C99.0926 24.8462 99.0342 24.0335 98.9798 23.2205C98.6985 20.3205 97.665 18.2447 95.759 16.0481C93.1162 14.1294 90.4323 13.8674 87.2645 14.3522C84.5503 15.2447 82.7886 16.7536 81.4666 19.3318C80.7399 21.4187 80.5281 23.5865 80.2145 25.7666C79.5557 29.1204 77.5558 31.1328 74.8059 33.0075C71.942 34.5958 68.7868 34.5438 65.6412 33.8753C62.8669 32.9906 60.9799 31.6106 59.5159 29.0503C58.4261 26.5386 57.8147 23.996 57.3215 21.3126C56.7694 18.6857 55.7731 17.354 53.8529 15.4828C52.1229 14.4189 50.778 14.1847 48.7562 14.1755C48.2773 14.166 47.7984 14.1566 47.305 14.1468C45.668 14.3904 44.8894 14.971 43.6595 16.0481ZM222.822 15.6948C219.979 17.1856 217.279 17.8591 214.115 18.3093C214.601 24.9677 217.48 29.1976 222.256 33.7141C226.974 36.8538 231.702 38.061 237.334 37.53C239.673 36.9557 241.937 36.2715 244.129 35.2687C244.41 34.709 244.41 34.709 244.696 34.1381C241.103 27.0289 234.539 18.5996 227.707 14.3522C225.374 14.3522 224.768 14.6004 222.822 15.6948ZM212.417 25.6584C211.558 27.0162 210.766 28.4079 209.963 29.7989C205.863 36.365 199.819 38.6618 192.596 40.3565C192.804 45.7476 195.067 50.5312 199.038 54.2067C204.583 58.6964 209.92 59.6131 216.947 59.0118C222.753 57.5141 227.001 54.4353 230.184 49.4015C231.883 46.3697 232.803 43.874 232.803 40.3565C232.297 40.2326 231.79 40.1088 231.268 39.9811C224.648 38.2479 219.287 35.9348 215.248 30.1809C214.393 28.6962 213.684 27.2258 212.983 25.6584C212.796 25.6584 212.609 25.6584 212.417 25.6584ZM168.812 26.2237C168.293 27.0512 167.817 27.9049 167.36 28.7676C163.969 34.5487 158.985 37.8745 152.559 39.6477C151.377 39.9164 150.185 40.1417 148.991 40.3565C150.286 46.6622 152.318 51.5502 157.486 55.6199C163.16 58.9568 168.578 59.9039 175.087 58.685C180.341 57.0343 184.789 53.1882 187.522 48.4188C188.622 45.8331 189.201 43.1007 189.765 40.3565C189.327 40.2603 188.889 40.1641 188.437 40.065C181.563 38.4683 175.896 35.9246 171.787 29.8497C171.122 28.6573 170.504 27.4682 169.944 26.2237C169.57 26.2237 169.197 26.2237 168.812 26.2237ZM82.5925 39.8619C81.4101 41.8011 81.1263 43.4762 80.7432 45.6917C80.0403 49.4037 78.9408 52.0499 75.9385 54.4893C73.2953 56.1312 71.0526 56.4888 68.0104 56.7506C68.6452 60.8747 69.5707 64.924 70.5587 68.9754C70.7401 69.7398 70.7401 69.7398 70.9252 70.5196C71.0437 70.9967 71.1622 71.4738 71.2843 71.9654C71.4425 72.6121 71.4425 72.6121 71.6039 73.2719C71.8877 74.3932 71.8877 74.3932 73.107 74.8406C76.8919 72.0698 78.0108 69.4637 78.7346 64.9123C79.3326 61.3697 80.4204 59.3368 83.3358 57.1392C86.4859 55.3327 89.3693 55.2798 92.9275 55.6199C95.8171 56.4247 98.0502 57.9467 99.7187 60.4891C100.629 62.6407 100.91 64.9184 101.292 67.2088C101.869 70.3453 102.839 72.342 105.386 74.2753C107.649 75.6426 110.159 75.8666 112.748 75.4059C116.031 74.0423 117.602 72.4926 118.977 69.1874C119.26 67.8872 119.507 66.5788 119.721 65.2656C120.443 61.6373 121.351 59.8023 124.074 57.3159C124.448 57.1293 124.821 56.9428 125.207 56.7506C125.334 53.6955 124.917 51.2033 124.074 48.3062C123.966 47.9196 123.858 47.533 123.747 47.1347C123.483 46.1931 123.213 45.2532 122.941 44.3137C122.568 44.3137 122.194 44.3137 121.809 44.3137C121.753 44.6824 121.698 45.0512 121.641 45.4311C120.951 49.4527 120.057 52.118 116.677 54.666C113.531 56.4696 110.639 56.5342 107.085 56.1853C104.075 55.2698 101.963 53.7968 100.289 51.0975C99.5975 49.4859 99.1945 47.9825 98.9577 46.2459C98.4279 42.4558 97.6266 40.0245 94.6264 37.53C90.0271 34.751 86.1452 36.5125 82.5925 39.8619ZM135.4 36.9646C132.353 43.0734 129.582 50.028 129.702 56.9626C129.713 57.6388 129.725 58.3151 129.737 59.0118C135.213 57.5385 140.215 54.8527 143.328 49.9668C145.646 45.3797 145.646 45.3797 146.16 40.3565C145.525 40.159 144.891 39.9616 144.237 39.7581C143.403 39.4983 142.569 39.2384 141.735 38.9786C141.317 38.8485 140.9 38.7184 140.469 38.5844C138.775 38.0564 137.084 37.5249 135.4 36.9646ZM241.893 38.7732C239.872 39.5608 237.759 39.9477 235.635 40.3565C236.362 45.5436 238.151 50.1147 241.864 53.924C246.253 57.2683 246.253 57.2683 251.491 58.4465C251.349 51.0524 249.402 44.2545 246.394 37.53C244.577 37.53 243.522 38.0386 241.893 38.7732ZM233.936 47.1403C233.667 47.7699 233.399 48.3995 233.122 49.0482C230.184 54.8117 225.817 58.4775 219.778 60.7078C217.9 61.2127 216.044 61.5913 214.115 61.8384C214.31 66.8806 216.453 71.5874 219.849 75.3352C224.153 79.2476 229.612 81.2664 235.374 81.1805C241.197 80.673 246.159 77.8323 250.126 73.6371C252.676 70.2595 252.191 65.8619 252.057 61.8384C251.585 61.6802 251.113 61.5221 250.626 61.3592C243.446 58.8057 238.754 55.2885 235.139 48.5535C234.929 48.0872 234.719 47.6208 234.502 47.1403C234.315 47.1403 234.128 47.1403 233.936 47.1403ZM147.292 47.7056C146.781 48.5563 146.289 49.4184 145.806 50.2848C142.234 56.2465 137.453 59.5338 130.728 61.4851C130.214 61.6017 129.7 61.7183 129.171 61.8384C128.988 66.871 129.219 70.3477 132.568 74.3459C136.755 78.7598 141.773 80.7514 147.788 81.2357C153.253 81.0545 158.744 78.6668 162.607 74.8185C165.806 70.9645 167.862 66.8981 167.679 61.8384C167.241 61.7422 166.803 61.646 166.352 61.5469C158.911 59.8187 153.759 57.1711 149.593 50.5675C149.272 50.026 148.952 49.4846 148.622 48.9267C148.37 48.5238 148.118 48.1208 147.858 47.7056C147.672 47.7056 147.485 47.7056 147.292 47.7056ZM190.897 47.7056C190.238 48.7358 189.592 49.7738 188.951 50.8148C184.792 57.0794 179.709 60.2102 172.386 61.6971C171.954 61.7437 171.522 61.7903 171.077 61.8384C171.346 67.3973 173.321 71.993 177.306 75.9712C181.409 79.3458 186.486 81.5114 191.901 81.2555C196.919 80.4735 201.347 78.9205 205.055 75.4059C205.368 75.1093 205.681 74.8127 206.004 74.5071C209.335 71.0003 210.87 66.5961 211.284 61.8384C210.818 61.7553 210.352 61.6722 209.873 61.5866C203.565 60.3216 198.357 57.9187 194.295 52.7934C193.254 51.1416 192.326 49.4564 191.463 47.7056C191.277 47.7056 191.09 47.7056 190.897 47.7056ZM81.9908 61.8384C80.7839 64.1922 80.5868 66.7069 80.2145 69.2956C79.5474 72.6918 77.53 74.5841 74.8059 76.5365C74.2453 76.9096 73.6847 77.2827 73.107 77.6671C73.8545 80.8385 74.6021 84.0099 75.3722 87.2774C72.0084 87.2774 68.6446 87.2774 65.1789 87.2774C63.5146 90.5975 63.5146 90.5975 61.9005 93.9419C56.8722 104.523 49.8793 113.243 40.2617 120.066C42.0803 121.276 43.8721 121.929 45.9247 122.609C46.6255 122.848 47.3263 123.087 48.0483 123.334C53.489 124.982 58.8062 125.357 64.471 125.33C65.1723 125.327 65.8737 125.324 66.5963 125.32C80.8348 125.132 93.1961 119.896 104.253 111.021C104.667 110.696 105.08 110.371 105.506 110.036C116.164 101.246 122.466 88.1083 125.207 74.8406C125.318 74.3217 125.43 73.8029 125.545 73.2683C125.878 70.6111 125.832 67.9756 125.808 65.3009C125.804 64.4745 125.804 64.4745 125.8 63.6315C125.794 62.28 125.785 60.9286 125.773 59.5771C123.219 62.0276 122.184 63.6488 121.572 67.1492C120.879 71.0911 120.002 73.6412 116.677 76.1479C113.524 77.9559 110.644 77.9475 107.085 77.6671C103.737 76.4912 101.582 74.4872 99.9 71.378C99.2056 69.6334 98.9563 67.9329 98.6967 66.0782C98.1874 62.9723 97.067 61.011 94.6264 59.0118C90.0244 56.2442 85.1074 57.8024 81.9908 61.8384ZM168.812 69.1874C168.531 69.8287 168.251 70.47 167.962 71.1307C165.087 76.7617 161.07 79.9094 155.22 82.1896C153.161 82.8489 151.101 83.413 148.991 83.8856C150.32 90.7626 152.861 95.5711 158.618 99.7143C163.414 102.578 167.769 102.979 173.342 102.541C179.1 101.062 183.453 97.6785 186.933 92.9305C188.478 89.9926 189.276 87.1599 189.765 83.8856C189.258 83.7617 188.751 83.6378 188.229 83.5102C180.234 81.4168 174.985 78.2549 170.581 71.166C170.251 70.5976 170.251 70.5976 169.913 70.0177C169.737 69.7437 169.56 69.4697 169.378 69.1874C169.191 69.1874 169.004 69.1874 168.812 69.1874ZM212.417 69.1874C212.224 69.5431 212.031 69.8987 211.833 70.2651C207.851 77.284 203.15 81.0572 195.357 83.2142C194.438 83.4442 193.518 83.6703 192.596 83.8856C192.879 88.961 194.924 93.3604 198.374 97.1152C203.116 101.324 208.231 102.837 214.487 102.715C220.206 102.188 225.015 99.4853 228.718 95.1344C231.103 91.8226 232.803 88.0161 232.803 83.8856C232.221 83.734 231.64 83.5824 231.04 83.4262C223.56 81.3644 218.282 78.5943 214.308 71.6298C213.594 70.2658 213.594 70.2658 212.417 69.1874ZM127.472 76.5365C127.279 77.2477 127.086 77.959 126.888 78.6917C121.938 96.3719 111.92 110.839 95.759 120.066C89.0358 123.773 81.779 126.016 74.2396 127.415C74.2396 127.601 74.2396 127.788 74.2396 127.98C75.247 128.217 75.247 128.217 76.2748 128.459C93.5794 132.677 108.361 141.976 117.845 157.376C121.508 163.667 124.484 170.535 125.773 177.727C127.114 177.223 127.114 177.223 127.516 175.406C127.74 174.638 127.961 173.869 128.18 173.099C131.359 162.572 136.217 153.958 143.894 146.07C144.422 145.491 144.422 145.491 144.961 144.9C153.914 135.363 167.065 130.227 179.571 127.415C179.571 127.228 179.571 127.041 179.571 126.849C178.886 126.685 178.202 126.52 177.496 126.35C160.27 122.096 145.678 112.929 136.307 97.5237C132.383 90.8598 129.717 84.0993 128.038 76.5365C127.851 76.5365 127.664 76.5365 127.472 76.5365ZM130.87 76.5365C131.996 83.974 135.116 90.416 138.798 96.8877C140.478 97.0803 140.478 97.0803 141.326 96.1171C144.072 92.4888 146.16 88.5082 146.16 83.8856C145.558 83.7209 144.957 83.5562 144.337 83.3865C139.803 82.0925 136.134 80.8694 132.568 77.6671C132.008 77.294 131.447 76.9209 130.87 76.5365ZM249.792 77.6671C249.398 77.9852 249.398 77.9852 248.996 78.3097C244.908 81.3323 240.469 82.5473 235.635 83.8856C236.285 88.524 237.416 92.7822 241.11 95.9029C241.763 96.3904 241.763 96.3904 242.43 96.8877C245.697 91.0836 248.814 85.3265 250.359 78.7977C250.172 78.4246 249.985 78.0515 249.792 77.6671ZM147.292 90.6693C147.127 91.0315 146.962 91.3937 146.792 91.7668C146.56 92.2558 146.328 92.7448 146.089 93.2485C145.865 93.7273 145.642 94.2061 145.412 94.6994C144.193 96.7799 142.678 98.4965 141.063 100.28C145.04 105.151 148.967 109.556 154.088 113.282C154.689 113.722 155.289 114.162 155.908 114.616C158.745 116.892 158.745 116.892 162.102 117.789C164.746 116.4 166.187 112.983 167.325 110.349C167.705 108.642 167.703 107.111 167.679 105.367C167.248 105.278 166.816 105.188 166.372 105.096C159.454 103.535 154.12 100.876 150.265 94.8031C149.941 94.2646 149.617 93.7261 149.283 93.1712C148.474 91.7645 148.474 91.7645 147.292 90.6693ZM190.897 90.6693C190.359 91.5293 189.844 92.4038 189.34 93.2839C185.582 99.5663 180.997 102.936 173.908 104.802C172.969 105.013 172.027 105.214 171.077 105.367C171.379 111.6 173.702 115.857 178.255 120.116C182.446 123.554 187.225 124.796 192.596 124.517C198.19 123.901 203.036 121.359 206.725 117.093C209.352 113.586 211.284 109.828 211.284 105.367C210.647 105.233 210.647 105.233 209.997 105.096C203.642 103.65 198.391 101.59 194.295 96.3224C193.218 94.4887 192.298 92.624 191.463 90.6693C191.277 90.6693 191.09 90.6693 190.897 90.6693ZM233.936 90.6693C233.75 91.0657 233.564 91.4622 233.372 91.8706C230.621 97.348 226.799 101.57 220.911 103.671C218.661 104.311 216.4 104.866 214.115 105.367C214.278 109.584 215.76 113.149 218.08 116.674C219.25 117.45 219.25 117.45 220.345 117.804C228.124 112.921 234.537 107.547 240.165 100.28C239.356 98.5791 238.422 97.0358 237.369 95.4745C237.084 95.0489 236.798 94.6233 236.504 94.1848C235.676 92.9898 234.818 91.8254 233.936 90.6693ZM212.417 112.151C212.217 112.554 212.018 112.957 211.813 113.372C209.967 116.947 208.069 119.667 205.055 122.327C204.681 122.7 204.307 123.073 203.922 123.457C207.24 123.165 209.93 122.467 212.983 121.161C213.368 121.002 213.752 120.842 214.149 120.678C215.083 120.291 216.016 119.896 216.947 119.5C216.405 118.593 215.862 117.686 215.319 116.78C215.017 116.275 214.714 115.77 214.403 115.249C213.765 114.202 213.098 113.171 212.417 112.151ZM168.812 112.716C168.456 113.411 168.103 114.106 167.75 114.801C167.553 115.188 167.356 115.575 167.152 115.974C166.509 117.316 165.954 118.679 165.414 120.066C169.905 121.933 174.173 123.375 179.005 124.023C178.619 123.743 178.234 123.463 177.837 123.175C174.277 120.15 171.847 116.971 169.944 112.716C169.57 112.716 169.197 112.716 168.812 112.716ZM15.9109 151.723C8.62099 160.814 1.68885 174.242 2.31969 186.207C3.63868 184.932 4.91147 183.667 6.08912 182.259C15.1931 171.399 29.7009 164.44 43.7635 163.122C60.2241 162.165 75.4226 165.954 88.3971 176.597C89.1307 177.189 89.1307 177.189 89.8792 177.794C93.7722 181.099 96.7363 184.929 99.7231 189.034C101.56 187.225 103.323 185.38 105.032 183.451C105.904 182.485 106.777 181.519 107.651 180.554C108.122 180.026 108.122 180.026 108.602 179.487C111.624 176.269 115.316 173.934 118.977 171.509C119.538 171.136 120.099 170.763 120.676 170.378C119.726 163.543 114.782 156.885 110.483 151.723C110.081 151.236 109.68 150.749 109.266 150.248C99.2306 138.602 84.9671 131.394 69.7092 129.676C48.5967 128.129 29.9231 135.86 15.9109 151.723ZM163.149 135.329C162.528 135.619 161.908 135.909 161.268 136.208C146.932 143.415 136.286 156.22 130.94 171.226C126.161 186.924 126.653 204.213 134.279 218.984C142.483 234.026 155.161 245.032 171.537 250.264C188.299 255.045 205.199 252.924 220.433 244.481C223.248 242.831 225.775 240.87 228.273 238.781C228.844 238.304 229.415 237.826 230.003 237.335C241.193 227.685 248.482 213.87 250.359 199.209C251.435 183.583 249.072 168.554 239.599 155.68C239.264 155.221 238.929 154.762 238.584 154.289C234.094 148.43 228.895 143.194 222.61 139.286C222.12 138.963 221.63 138.641 221.126 138.308C203.761 127.417 181.555 126.704 163.149 135.329ZM37.9965 166.421C38.7304 168.711 39.577 170.899 40.5449 173.099C45.041 183.884 44.4125 196.064 40.5073 206.938C39.3976 209.51 38 211.695 36.2976 213.907C35.9239 214.467 35.5501 215.027 35.165 215.603C49.4615 219.038 63.3931 217.758 76.5048 211.081C77.1034 210.778 77.702 210.476 78.3188 210.164C85.1277 206.454 90.8564 201.217 95.759 195.252C96.0408 194.92 96.3225 194.587 96.6129 194.245C97.3731 193.32 97.3731 193.32 98.0242 191.86C97.3677 189.48 96.1145 187.995 94.4494 186.207C93.9902 185.713 93.5311 185.219 93.058 184.71C91.7146 183.296 90.379 181.896 88.9634 180.554C88.6188 180.219 88.2743 179.885 87.9193 179.54C76.8174 169.16 62.0671 164.823 47.1165 165.228C44.0483 165.389 41.0202 165.893 37.9965 166.421ZM10.6814 181.247C5.83723 186.067 5.83723 186.067 2.31969 191.86C3.42174 193.248 4.52783 194.632 5.64006 196.012C6.32895 196.867 7.01432 197.724 7.68847 198.591C13.4648 205.761 23.2513 212.483 32.3335 214.473C39.1482 207.631 41.3845 198.497 41.3943 189.034C41.0944 181.496 39.7453 173.384 34.5987 167.552C26.2354 167.552 16.3781 175.741 10.6814 181.247ZM108.218 183.38C104.219 187.336 104.219 187.336 102.555 192.425C103.939 194.739 105.834 196.659 107.651 198.644C108.316 199.377 108.316 199.377 108.994 200.126C112.428 203.734 116.283 206.992 120.676 209.385C121.237 209.198 121.797 209.012 122.375 208.82C122.945 207.265 122.945 207.265 123.295 205.392C123.431 204.768 123.567 204.143 123.707 203.5C125.299 194.699 126.622 181.227 121.809 173.205C117.706 173.205 110.944 180.659 108.218 183.38ZM99.7231 194.121C98.9356 195.013 98.1874 195.938 97.4579 196.877C88.5048 207.978 77.1992 214.865 63.48 218.43C62.9449 218.569 62.4098 218.708 61.8585 218.852C47.0335 221.957 30.9023 218.711 18.1479 210.757C12.3649 206.965 7.21167 202.346 2.88599 196.948C2.12497 199.432 2.66347 201.505 3.23993 203.979C3.34486 204.434 3.4498 204.889 3.55792 205.358C5.82405 214.808 10.0351 223.563 16.4772 230.867C16.8531 231.323 17.2291 231.779 17.6164 232.249C27.6723 244.087 42.3483 251.161 57.7108 252.737C58.6894 252.805 59.6687 252.865 60.6485 252.914C61.0376 252.937 61.4266 252.961 61.8275 252.985C77.9148 253.476 93.3161 247.171 105.101 236.434C112.116 229.838 117.1 222.267 120.676 213.342C120.676 212.969 120.676 212.596 120.676 212.211C119.827 211.633 118.947 211.1 118.057 210.586C111.955 206.792 106.733 202.261 102.565 196.39C102.017 195.618 101.439 194.867 100.856 194.121C100.482 194.121 100.108 194.121 99.7231 194.121ZM125.773 204.862C125.621 205.451 125.469 206.04 125.313 206.647C120.821 223.322 110.689 237.792 95.6856 246.615C89.12 250.302 82.0845 252.756 74.8059 254.61C74.8059 254.796 74.8059 254.983 74.8059 255.175C75.3892 255.292 75.9725 255.41 76.5734 255.531C93.5235 259.115 108.112 268.278 117.711 282.906C122.151 289.883 124.799 296.947 126.905 304.923C127.279 304.736 127.653 304.549 128.038 304.357C128.479 302.935 128.869 301.523 129.241 300.082C132.09 289.819 137.66 280.93 145.027 273.265C145.587 272.663 145.587 272.663 146.157 272.048C154.951 262.846 167.246 257.577 179.571 255.175C179.571 254.989 179.571 254.802 179.571 254.61C178.503 254.373 178.503 254.373 177.412 254.131C159.628 250.037 144.94 240.801 135.015 225.147C131.113 218.76 128.822 212.064 126.905 204.862C126.532 204.862 126.158 204.862 125.773 204.862ZM20.6558 274.901C19.7409 276.054 19.7409 276.054 19.8949 277.52C20.5447 279.183 21.2648 279.905 22.6357 281.038C23.0313 281.373 23.427 281.709 23.8346 282.054C26.3821 283.894 29.3174 283.77 32.3335 283.441C35.6593 282.288 37.7526 280.011 39.2707 276.904C39.8064 275.406 39.8064 275.406 39.6954 273.265C40.6298 273.265 41.5642 273.265 42.5269 273.265C42.5503 273.825 42.5736 274.384 42.5977 274.961C43.0056 277.783 44.5529 279.724 46.491 281.745C49.304 283.787 52.1926 283.83 55.5518 283.441C58.6783 282.42 60.4397 280.362 62.3474 277.788C63.1144 276.256 62.9505 274.956 62.9137 273.265C64.0349 273.265 65.1562 273.265 66.3115 273.265C66.2647 273.755 66.218 274.245 66.1699 274.749C66.3987 277.833 68.042 279.673 70.3109 281.639C73.1444 283.745 75.907 283.887 79.3363 283.441C82.4885 282.197 84.6087 280.263 86.1319 277.222C86.5832 275.112 86.5832 275.112 86.6982 273.265C87.6326 273.265 88.567 273.265 89.5297 273.265C89.5764 273.848 89.6231 274.431 89.6713 275.032C90.373 278.651 92.1939 280.803 95.1927 282.875C98.2302 283.886 101.358 283.831 104.395 282.84C106.359 281.459 108.175 279.91 109.35 277.788C109.306 276.119 108.778 275.52 107.665 274.268C94.2745 262.163 78.4537 256.1 60.3612 256.785C45.2533 257.707 31.5009 264.579 20.6558 274.901ZM151.256 271.004C150.574 271.571 149.89 272.137 149.203 272.7C148.538 273.259 148.538 273.259 147.858 273.83C148.232 274.017 148.606 274.204 148.991 274.396C150.198 273.991 151.388 273.535 152.566 273.053C159.479 270.236 168.661 269.648 175.828 272.075C181.023 274.272 185.766 276.535 189.765 280.614C191.846 279.683 193.559 278.391 195.392 277.046C203.668 271.229 213.008 269.532 222.913 271.125C225.354 271.678 227.626 272.458 229.93 273.431C230.317 273.563 230.705 273.695 231.104 273.83C231.665 273.551 231.665 273.551 232.237 273.265C220.17 261.562 204.167 256.541 187.637 256.75C174.356 257.14 161.201 262.205 151.256 271.004ZM140.073 284.808C133.834 292.676 132.231 301.307 133.135 311.141C133.607 313.577 134.344 315.684 135.4 317.925C135.74 318.683 135.74 318.683 136.088 319.457C139.401 326.149 144.852 331.471 150.168 336.609C151.421 337.839 152.578 339.126 153.725 340.456C155.81 342.863 158.042 345.094 160.317 347.321C162.932 349.882 165.432 352.482 167.823 355.253C169.483 357.122 171.272 358.859 173.059 360.606C175.202 362.701 177.297 364.802 179.255 367.072C181.403 369.559 183.709 371.866 186.048 374.173C186.463 374.584 186.877 374.995 187.304 375.419C188.311 376.418 189.321 377.416 190.331 378.413C192.564 376.559 194.667 374.721 196.56 372.513C199.173 369.55 201.952 366.777 204.776 364.014C206.532 362.285 208.219 360.534 209.828 358.667C212.361 355.736 215.135 353.059 217.9 350.349C220.185 348.092 222.349 345.785 224.445 343.354C226.554 340.982 228.86 338.799 231.127 336.58C233.372 334.364 235.511 332.097 237.565 329.703C238.501 328.626 239.471 327.586 240.448 326.546C246.929 319.1 248.752 311.302 248.211 301.699C247.441 293.168 242.968 285.709 236.53 280.191C228.63 273.949 220.017 272.397 210.151 273.265C202.35 274.625 196.119 278.766 190.897 284.571C190.337 284.082 189.776 283.592 189.198 283.087C180.607 275.783 172.374 272.505 161.025 273.148C152.796 273.904 145.367 278.652 140.073 284.808ZM16.5988 280.422C11.3592 285.94 5.15118 295.297 5.15118 303.227C8.89301 303.287 11.1334 302.465 13.8359 299.859C15.6328 297.657 16.4772 295.352 16.4772 292.486C17.4116 292.486 18.3459 292.486 19.3087 292.486C19.3108 292.968 19.3108 292.968 19.3131 293.46C19.4713 296.613 20.1037 298.449 22.3326 300.716C24.9931 303.022 27.453 303.575 30.9001 303.461C34.0996 302.938 36.1687 301.201 38.2443 298.81C39.3267 296.606 39.5269 294.924 39.6954 292.486C40.6298 292.486 41.5642 292.486 42.5269 292.486C42.5619 293.15 42.597 293.815 42.6331 294.5C42.9904 297.223 43.9616 299.045 45.9247 300.965C48.9001 303.159 51.9135 303.768 55.5518 303.227C58.6147 302.207 60.6397 300.263 62.3474 297.574C62.9077 296.05 63.1972 294.66 63.48 293.051C64.2275 293.051 64.975 293.051 65.7452 293.051C65.8503 293.704 65.9554 294.357 66.0637 295.03C66.923 298.473 69.2101 301.067 72.1868 302.944C75.8682 303.644 78.9685 303.597 82.2851 301.714C84.4074 300.149 85.8208 298.332 86.4283 295.747C86.5702 294.666 86.6408 293.575 86.6982 292.486C87.6326 292.486 88.567 292.486 89.5297 292.486C89.5764 293.162 89.6231 293.838 89.6713 294.535C90.0546 297.427 91.0905 299.29 93.319 301.237C95.8488 303.058 98.0483 303.678 101.163 303.496C104.58 302.834 106.843 301.002 108.784 298.174C109.89 296.228 110.199 294.746 109.916 292.486C110.851 292.486 111.785 292.486 112.748 292.486C112.81 292.82 112.872 293.155 112.936 293.499C113.633 296.968 114.298 299.329 117.101 301.672C119.363 302.865 120.973 303.052 123.508 303.227C123.188 300.102 122.39 297.495 121.172 294.606C120.996 294.185 120.82 293.765 120.639 293.332C118.395 288.12 115.439 283.672 111.615 279.484C111.195 280.096 111.195 280.096 110.766 280.72C108.385 283.394 105.269 285.508 101.628 285.837C97.8468 285.929 94.8614 285.801 91.7949 283.441C90.551 282.196 89.4456 280.895 88.3971 279.484C87.9883 279.903 87.5795 280.323 87.1583 280.756C83.752 284.08 81.183 285.856 76.3279 285.914C72.56 285.846 69.8085 285.245 67.1078 282.535C66.4263 281.738 65.7965 280.897 65.1789 280.049C63.3996 280.459 63.3996 280.459 62.5243 281.921C60.3569 284.436 58.2215 285.512 54.9125 285.921C51.0966 286.049 47.8634 285.853 44.7921 283.441C43.5497 282.195 42.4427 280.895 41.3943 279.484C40.9855 279.903 40.5767 280.323 40.1555 280.756C36.9133 283.92 34.3177 285.844 29.679 285.949C26.093 285.883 23.3424 284.994 20.4412 282.875C19.4712 281.779 18.8729 280.784 18.1761 279.484C17.4488 279.419 17.4488 279.419 16.5988 280.422ZM17.6098 299.269C17.4236 299.529 17.2375 299.788 17.0457 300.056C14.2455 303.661 11.0573 305.32 6.53154 305.912C5.56794 305.982 5.56794 305.982 4.58488 306.053C3.62599 309.019 3.21508 311.745 3.06296 314.851C3.03631 315.263 3.00967 315.675 2.98221 316.1C2.85045 318.495 2.95442 320.647 3.45229 323.013C7.2167 323.238 9.90939 323.116 12.8692 320.502C15.2624 318.021 16.0323 315.648 16.4772 312.272C17.4116 312.272 18.3459 312.272 19.3087 312.272C19.2503 312.738 19.1919 313.204 19.1317 313.685C19.3734 316.388 20.4338 318.106 22.1401 320.186C24.8649 322.308 27.0377 323.231 30.5284 323.167C33.6135 322.782 36.0353 321.328 37.9611 318.914C39.3589 316.755 39.5616 314.81 39.6954 312.272C40.6298 312.272 41.5642 312.272 42.5269 312.272C42.5736 312.948 42.6203 313.624 42.6685 314.321C42.9848 316.769 43.7456 318.271 45.3584 320.186C48.4623 322.526 51.0843 323.506 54.9855 323.013C58.2355 321.969 60.5254 320.281 62.3474 317.359C62.7204 315.661 62.8712 314.008 62.9137 312.272C63.8481 312.458 64.7824 312.645 65.7452 312.837C65.8218 313.206 65.8985 313.574 65.9774 313.954C66.9091 317.73 68.1073 319.783 71.4081 321.882C73.7468 323.199 76.1326 323.344 78.77 323.013C82.2302 321.726 84.3558 319.753 86.0257 316.476C86.8215 314.519 86.8215 314.519 86.6982 312.272C87.6326 312.272 88.567 312.272 89.5297 312.272C89.5647 312.936 89.5998 313.601 89.6359 314.286C89.993 317.007 90.9628 318.834 92.9275 320.751C95.3614 322.511 97.8305 323.403 100.847 323.231C103.703 322.684 105.874 321.428 107.864 319.338C109.525 316.786 110.058 315.381 109.916 312.272C110.851 312.272 111.785 312.272 112.748 312.272C112.802 312.744 112.802 312.744 112.856 313.226C113.468 317.03 114.979 319.322 117.845 321.882C120.283 323.419 122.975 323.122 125.773 323.013C125.898 317.216 125.755 311.765 124.64 306.053C124.237 305.998 123.833 305.942 123.417 305.885C118.072 305.052 114.905 303.648 111.615 299.269C110.836 299.999 110.082 300.754 109.35 301.531C109.35 301.904 109.35 302.277 109.35 302.661C108.601 303.05 107.844 303.423 107.085 303.792C106.524 304.095 105.964 304.398 105.386 304.711C102.141 306.069 98.3635 306.059 95.0002 305.117C92.1014 303.828 90.2641 301.783 88.3971 299.269C88.0117 299.678 87.6262 300.086 87.2291 300.506C83.9472 303.773 81.1188 305.523 76.434 305.7C72.9316 305.667 70.3172 304.63 67.4441 302.661C65.9575 301.071 65.9575 301.071 65.1789 299.835C63.6112 300.472 62.7881 301.097 61.6041 302.343C58.8348 304.979 56.4901 305.594 52.7557 305.735C49.0398 305.624 46.412 304.847 43.7613 302.195C42.9307 301.245 42.1467 300.282 41.3943 299.269C40.9855 299.689 40.5767 300.109 40.1555 300.541C36.8757 303.743 34.2997 305.639 29.6082 305.7C26.3586 305.656 24.3098 304.865 21.5738 303.227C21.0132 303.04 20.4526 302.854 19.875 302.661C19.2733 301.566 19.2733 301.566 18.7424 300.4C18.3686 300.027 17.9948 299.654 17.6098 299.269ZM129.737 307.749C126.995 323.488 130.573 339.701 139.364 352.974C140.79 354.939 142.306 356.791 143.894 358.627C144.229 359.043 144.563 359.458 144.908 359.886C153.812 370.59 167.564 377.601 181.27 379.544C183.17 379.652 185.034 379.662 186.933 379.544C186.131 378.606 185.328 377.669 184.522 376.735C183.918 376.032 183.319 375.327 182.726 374.615C180.076 371.49 177.171 368.632 174.245 365.768C172.462 364.013 170.747 362.235 169.112 360.341C167.05 357.953 164.836 355.746 162.582 353.539C159.973 350.984 157.48 348.39 155.094 345.625C153.338 343.652 151.444 341.819 149.557 339.972C146.586 337.063 143.771 334.082 141.063 330.927C140.661 330.478 140.258 330.029 139.844 329.567C134.362 323.149 131.449 316.042 130.303 307.749C130.116 307.749 129.929 307.749 129.737 307.749ZM250.925 311.141C250.738 311.794 250.551 312.447 250.359 313.12C246.785 323.625 240.489 330.796 232.66 338.428C230.48 340.556 228.442 342.748 226.453 345.054C224.339 347.43 222.028 349.619 219.756 351.844C217.906 353.669 216.114 355.51 214.416 357.479C211.892 360.404 209.124 363.072 206.366 365.775C204.053 368.059 201.855 370.394 199.733 372.856C198.463 374.304 197.119 375.649 195.746 377C195.256 377.484 194.766 377.968 194.262 378.466C193.899 378.822 193.536 379.177 193.162 379.544C197.251 381.585 206.056 378.291 210.258 376.929C225.961 371.536 238.495 359.955 245.844 345.21C247.522 341.682 248.758 338.088 249.792 334.319C249.973 333.693 250.153 333.067 250.339 332.422C252.053 325.441 251.65 318.278 251.491 311.141C251.304 311.141 251.117 311.141 250.925 311.141ZM17.6098 319.055C17.2477 319.557 16.8856 320.058 16.5126 320.575C13.8286 323.824 10.0531 325.313 5.92984 325.733C5.10457 325.78 4.27867 325.82 3.45229 325.839C4.61065 334.012 4.61065 334.012 7.41638 341.668C8.48906 342.262 8.48906 342.262 9.68157 342.233C12.1119 340.919 13.8829 339.49 15.3446 337.145C15.8428 335.467 16.1908 333.784 16.4772 332.058C17.4116 332.058 18.3459 332.058 19.3087 332.058C19.2503 332.524 19.1919 332.99 19.1317 333.471C19.3734 336.174 20.4338 337.892 22.1401 339.972C24.8649 342.094 27.0377 343.017 30.5284 342.953C33.6135 342.568 36.0353 341.114 37.9611 338.7C39.3589 336.541 39.5616 334.596 39.6954 332.058C40.6298 332.058 41.5642 332.058 42.5269 332.058C42.5736 332.641 42.6203 333.224 42.6685 333.824C43.4293 337.748 45.6331 339.96 48.7562 342.233C49.8362 342.75 49.8362 342.75 51.0214 342.798C51.6287 342.857 52.2361 342.915 52.8619 342.975C56.3606 342.684 58.611 341.364 61.1794 339.018C62.6382 336.679 62.8473 334.769 62.9137 332.058C64.0349 332.058 65.1562 332.058 66.3115 332.058C66.3136 332.54 66.3136 332.54 66.3159 333.031C66.4728 336.159 67.0895 338.027 69.2912 340.288C71.4345 342.062 73.4877 342.718 76.2217 343.01C79.5421 342.655 81.8161 341.672 84.0437 339.195C85.9133 336.831 86.6982 335.112 86.6982 332.058C87.6326 332.058 88.567 332.058 89.5297 332.058C89.5647 332.722 89.5998 333.387 89.6359 334.072C89.993 336.793 90.9628 338.62 92.9275 340.537C95.3614 342.297 97.8305 343.189 100.847 343.017C103.703 342.47 105.874 341.214 107.864 339.124C109.525 336.572 110.058 335.167 109.916 332.058C110.851 332.058 111.785 332.058 112.748 332.058C112.811 332.54 112.811 332.54 112.876 333.031C113.466 336.489 114.596 338.79 117.278 341.103C118.796 342.002 119.438 342.233 121.242 342.233C124.159 334.229 124.159 334.229 125.207 325.839C124.775 325.797 124.344 325.755 123.899 325.711C118.498 325.024 114.688 323.161 111.049 319.055C110.815 319.362 110.582 319.669 110.341 319.985C107.627 323.342 105.483 324.9 101.187 325.448C97.671 325.628 94.7483 324.961 91.7949 323.013C90.5186 321.786 89.4281 320.492 88.3971 319.055C88.0233 319.463 87.6496 319.872 87.2645 320.292C84.2507 323.309 80.7704 325.325 76.4694 325.486C72.9658 325.449 70.2855 324.491 67.4441 322.447C66.5014 321.358 65.8862 320.32 65.1789 319.055C64.8051 319.055 64.4313 319.055 64.0463 319.055C63.7659 319.557 63.4856 320.058 63.1968 320.575C61.5136 323.185 59.0036 324.318 56.1181 325.274C51.6186 326.066 47.9518 325.036 44.2258 322.447C43.1023 321.369 42.2917 320.339 41.3943 319.055C40.9855 319.475 40.5767 319.895 40.1555 320.327C36.8396 323.564 34.2886 325.285 29.5728 325.451C26.1834 325.354 23.4786 324.891 20.9987 322.458C20.2934 321.65 19.6055 320.826 18.9392 319.985C18.6874 319.678 18.4355 319.371 18.1761 319.055C17.9892 319.055 17.8023 319.055 17.6098 319.055ZM17.6098 338.841C17.2477 339.343 16.8856 339.844 16.5126 340.361C14.5674 342.779 11.9058 343.837 9.11528 345.06C10.9115 348.86 12.9236 352.362 15.3446 355.801C16.1717 354.304 16.4772 353.599 16.4772 351.844C17.4116 351.844 18.3459 351.844 19.3087 351.844C19.2386 352.298 19.1685 352.753 19.0963 353.221C19.4542 356.616 21.4578 359.215 23.9806 361.454C27.1856 362.617 30.0758 362.916 33.3599 361.948C36.483 360.115 38.3578 358.043 39.6954 354.67C39.8386 353.115 39.8386 353.115 39.6954 351.844C40.6298 351.844 41.5642 351.844 42.5269 351.844C42.5736 352.426 42.6203 353.009 42.6685 353.61C43.368 357.218 45.1851 359.405 48.1899 361.454C50.4936 362.834 52.636 362.725 55.2288 362.397C58.4273 361.567 60.5465 359.628 62.3474 356.931C62.9492 355.129 63.0487 353.73 62.9137 351.844C64.0349 351.844 65.1562 351.844 66.3115 351.844C66.3136 352.326 66.3136 352.326 66.3159 352.817C66.4714 355.918 67.0655 357.831 69.258 360.071C71.7612 362.081 74.2339 362.758 77.4251 362.549C80.5162 362.055 82.465 360.661 84.5746 358.38C86.133 356.102 86.6982 354.62 86.6982 351.844C87.6326 351.844 88.567 351.844 89.5297 351.844C89.5764 352.52 89.6231 353.196 89.6713 353.893C89.9929 356.348 90.714 357.854 92.3612 359.758C95.2184 361.827 97.8644 362.742 101.422 362.584C105.108 361.481 107.268 359.632 109.244 356.366C109.906 354.696 110.073 353.615 109.916 351.844C110.851 351.844 111.785 351.844 112.748 351.844C112.935 352.963 113.122 354.082 113.314 355.235C115.88 352.28 118.298 348.788 119.544 345.06C119.168 344.848 118.792 344.636 118.404 344.417C115.593 342.791 113.203 341.278 111.049 338.841C110.77 339.23 110.77 339.23 110.485 339.627C107.945 342.899 105.283 344.599 101.168 345.294C97.355 345.521 94.3572 344.372 91.2286 342.233C90.1033 341.155 89.295 340.126 88.3971 338.841C88.0233 339.249 87.6496 339.658 87.2645 340.078C84.1792 343.158 80.76 345.106 76.3633 345.201C73.0732 345.136 70.4071 344.623 68.0192 342.244C67.3257 341.436 66.6502 340.612 65.9973 339.771C65.7272 339.464 65.4571 339.157 65.1789 338.841C64.8051 338.841 64.4313 338.841 64.0463 338.841C63.432 339.539 62.8465 340.262 62.2766 340.997C59.9253 343.737 57.8519 344.778 54.2909 345.214C50.5091 345.383 47.452 344.438 44.3674 342.269C43.1522 341.157 41.9722 340.026 40.828 338.841C40.6419 339.101 40.4557 339.36 40.2639 339.627C37.7312 342.889 35.053 344.646 30.9266 345.274C27.4452 345.441 24.4923 344.728 21.5738 342.798C20.5474 341.793 19.6623 340.772 18.7954 339.627C18.591 339.368 18.3866 339.109 18.1761 338.841C17.9892 338.841 17.8023 338.841 17.6098 338.841ZM40.828 358.062C40.5477 358.563 40.2674 359.065 39.9786 359.581C38.3165 362.082 35.7519 363.743 32.8954 364.636C29.8639 365.2 26.8361 364.879 23.839 364.28C33.4093 374.789 48.9168 379.289 62.6703 380.25C77.6332 380.544 92.1822 375.499 103.687 365.976C103.874 365.603 104.061 365.23 104.253 364.846C103.616 364.885 103.616 364.885 102.966 364.925C98.5628 365.08 94.2535 364.848 90.8548 361.719C90.096 360.818 90.096 360.818 88.9634 359.193C88.4028 358.633 88.4028 358.633 87.8308 358.062C87.4454 358.668 87.0599 359.275 86.6628 359.899C84.8545 362.433 82.8468 363.58 79.938 364.704C75.6635 365.222 72.1143 364.888 68.5634 362.322C65.9304 360.128 65.9304 360.128 65.1789 358.627C64.8051 358.627 64.4313 358.627 64.0463 358.627C63.2716 359.455 63.2716 359.455 62.4889 360.5C60.4826 362.918 58.1331 364.384 54.9855 364.846C50.8658 365.12 47.801 364.427 44.3674 362.09C43.0378 360.836 41.9245 359.521 40.828 358.062Z" fill="#8B734B" fill-opacity="0.1"/>
</svg>
