<svg width="64" height="64" viewBox="0 0 64 64" fill="none" xmlns="http://www.w3.org/2000/svg">
<path d="M50.5448 5.74994C57.0376 10.6876 62.2897 17.5699 63.6609 25.8146C64.7659 35.1714 63.2801 44.0544 57.5819 51.7114C57.1065 52.2753 56.6191 52.8292 56.1219 53.3739C55.6687 53.8758 55.6687 53.8758 55.2063 54.3878C49.8198 60.0672 42.5809 63.6471 34.7463 63.9803C25.7214 64.2132 17.7238 62.423 10.7937 56.329C4.27222 50.125 0.298041 42.2842 0.004947 33.2078C-0.124733 24.8671 2.29058 17.4128 7.79199 11.0555C8.03704 10.7313 8.28208 10.4071 8.53456 10.0731C12.6114 5.22474 19.358 1.77483 25.513 0.576635C26.0534 0.466754 26.0534 0.466754 26.6048 0.354652C35.0334 -0.797337 43.5426 0.82008 50.5448 5.74994ZM12.2222 9.04032C13.4367 9.57229 13.4367 9.57229 14.7079 9.07496C18.8857 7.88901 23.6789 8.21928 27.5267 10.2494C28.5123 10.8524 29.4616 11.4768 30.3963 12.156C31.183 12.7386 31.183 12.7386 32.3597 13.0707C33.234 12.5426 33.234 12.5426 34.1469 11.786C38.8107 8.42355 43.8505 8.04947 49.3994 8.82306C50.3091 9.00124 51.201 9.19734 52.0944 9.44336C47.842 4.88738 40.7739 1.94441 34.5669 1.6897C26.0466 1.50935 18.8011 3.31023 12.2222 9.04032ZM6.9566 15.6605C4.24307 19.3209 2.94626 23.3989 3.50963 27.975C4.96147 34.9075 10.5697 39.7172 15.4302 44.4786C16.6048 45.6356 17.7245 46.8135 18.7984 48.0652C20.4691 50.0011 22.2825 51.7821 24.1033 53.5755C26.2005 55.6409 28.2461 57.6968 30.1092 59.9791C30.805 60.6857 31.4548 61.0431 32.3597 61.4346C33.7434 60.06 35.1256 58.6841 36.5067 57.3069C36.9754 56.8398 37.4445 56.3731 37.9139 55.9069C40.2001 53.6358 42.4609 51.3753 44.5514 48.9201C46.3692 46.8691 48.3785 44.9881 50.3292 43.0651C52.3498 41.0616 54.2855 39.0234 56.1219 36.8496C56.3976 36.5306 56.6733 36.2116 56.9573 35.8829C60.217 31.8864 61.0142 28.1869 60.6438 23.1229C60.4339 21.3308 59.8258 19.8649 58.9411 18.3101C58.775 18.0015 58.6089 17.6929 58.4377 17.3749C56.3724 13.9107 53.2033 11.3186 49.3475 10.0999C44.2253 9.08602 39.687 9.66327 35.2859 12.5952C34.3948 13.2571 33.5462 13.8964 32.7624 14.6828C32.7624 14.9488 32.7624 15.2148 32.7624 15.4888C31.5126 14.8067 30.4811 14.0554 29.4398 13.0958C25.8575 9.94249 21.6217 9.56477 17.0483 9.77771C12.9294 10.1319 9.57661 12.5942 6.9566 15.6605ZM1.75075 27.9829C1.40924 37.2481 3.01709 45.241 9.29129 52.4104C14.0065 57.3636 20.5547 61.9316 27.6321 62.2863C28.4026 62.2903 29.1732 62.2682 29.9432 62.2407C29.3739 61.5737 28.8043 60.9072 28.233 60.242C27.7903 59.7264 27.3488 59.2097 26.9093 58.6913C25.0054 56.4724 22.9634 54.417 20.8813 52.3664C18.8166 50.3328 16.8134 48.2897 14.927 46.0892C13.9624 45.0061 12.9245 44.009 11.8804 43.0032C7.93366 39.1912 4.50557 35.4578 2.85988 30.0956C2.56719 29.0946 2.56719 29.0946 1.75075 27.9829ZM61.7604 29.192C61.6721 29.4699 61.5839 29.7479 61.4929 30.0342C60.1192 34.1081 58.2094 36.9514 55.0914 39.8991C54.2938 40.6947 53.5669 41.4977 52.8354 42.3519C50.7568 44.7535 48.4677 46.9454 46.2073 49.1736C44.4368 50.9292 42.7365 52.7055 41.1146 54.599C39.8176 56.0632 38.4112 57.4195 37.0165 58.7897C36.4372 59.3592 35.8587 59.9296 35.2812 60.501C35.0292 60.7485 34.7772 60.9961 34.5175 61.2511C33.9249 61.753 33.9249 61.753 33.9707 62.2407C40.0034 62.7236 46.6746 59.5771 51.2307 55.7622C51.5157 55.5061 51.8007 55.25 52.0944 54.9861C52.4251 54.6925 52.7558 54.399 53.0966 54.0966C59.1987 48.3608 62.0338 40.9255 62.6666 32.7232C62.7046 31.3541 62.7046 31.3541 62.5659 29.998C62.1672 29.599 62.1672 29.599 61.7604 29.192Z" fill="#8B734B"/>
</svg>
