<svg width="64" height="64" viewBox="0 0 64 64" fill="none" xmlns="http://www.w3.org/2000/svg">
<path d="M50.7897 5.6971C51.691 6.3671 52.5227 7.06853 53.3522 7.82504C53.6876 8.12755 54.0229 8.43006 54.3684 8.74174C60.0606 14.1346 63.6486 21.3819 63.9826 29.2257C64.2446 39.4004 61.5747 47.6494 54.4899 55.1264C48.0441 61.183 39.3453 64.2176 30.5579 63.9879C21.2227 63.2436 13.2853 59.2544 7.09771 52.2409C3.66401 47.9245 1.47263 43.0784 0.435817 37.6635C0.344173 37.2144 0.252528 36.7653 0.158107 36.3026C-0.646005 26.9915 1.59546 18.6465 7.37857 11.2272C18.3447 -1.75127 36.8661 -3.31668 50.7897 5.6971ZM18.6132 4.59927C18.0102 4.90412 18.0102 4.90412 17.3951 5.21513C10.3661 9.03821 5.37714 15.1881 2.85947 22.7442C0.463811 31.246 1.41426 39.3967 5.62868 47.0982C6.79001 49.1052 8.16313 50.8721 9.72649 52.5827C9.93529 52.828 10.1441 53.0733 10.3592 53.3261C14.9863 58.4195 22.0358 61.2968 28.7118 62.26C29.6449 62.26 30.578 62.26 31.5394 62.26C31.5394 57.2036 31.5394 52.1472 31.5394 46.9376C29.9398 46.5384 28.3401 46.1392 26.6921 45.7279C23.4898 44.0067 21.5104 41.9868 20.2094 38.5658C19.5394 36.1462 19.6793 33.6036 19.6578 31.1127C19.6502 30.5562 19.6423 29.9997 19.6341 29.4433C19.6134 27.987 19.5974 26.5306 19.5823 25.0743C19.5661 23.5848 19.5455 22.0955 19.5252 20.6061C19.4863 17.6898 19.4521 14.7736 19.4211 11.8573C19.9543 11.8573 20.4875 11.8573 21.0369 11.8573C21.0315 12.1597 21.0261 12.4622 21.0206 12.7738C20.9717 15.6442 20.935 18.5145 20.9113 21.3852C20.8987 22.8607 20.8817 24.3357 20.854 25.8109C20.8274 27.2385 20.8131 28.6657 20.8069 30.0934C20.8004 30.8948 20.7815 31.696 20.7623 32.4972C20.7609 36.3382 21.5753 39.5815 24.1903 42.5141C26.3236 44.5156 28.6773 45.2517 31.5394 45.7279C31.5394 34.5506 31.5394 23.3733 31.5394 11.8573C31.9393 11.8573 32.3392 11.8573 32.7512 11.8573C32.7512 23.0346 32.7512 34.2119 32.7512 45.7279C37.0134 44.7824 39.4031 43.6298 41.9646 40.1332C43.0371 38.2236 43.3543 36.4579 43.3454 34.2875C43.3454 33.7871 43.3453 33.2868 43.3452 32.7713C43.3411 32.2316 43.3369 31.6918 43.3326 31.1521C43.3311 30.595 43.3299 30.038 43.3291 29.4809C43.3261 28.0212 43.3181 26.5616 43.3092 25.102C43.3009 23.6099 43.2972 22.1178 43.2931 20.6258C43.2845 17.7029 43.2707 14.7801 43.2537 11.8573C43.7869 11.8573 44.3201 11.8573 44.8695 11.8573C44.854 15.0999 44.83 18.3423 44.7952 21.5848C44.7793 23.0907 44.7663 24.5967 44.76 26.1027C44.7538 27.5591 44.7399 29.0152 44.7207 30.4715C44.7147 31.0241 44.7115 31.5767 44.7112 32.1294C44.7058 36.4488 44.2023 40.2434 41.1346 43.4976C38.5066 45.7878 36.257 46.2377 32.7512 46.9376C32.7512 51.994 32.7512 57.0504 32.7512 62.26C42.0333 61.5473 49.4393 58.4773 55.6497 51.3226C60.7647 44.7526 63.4111 36.8262 62.4709 28.4744C61.3002 20.1089 57.3581 13.361 50.9286 7.82504C41.3754 0.931295 29.2959 -0.806174 18.6132 4.59927Z" fill="#8B734B"/>
</svg>
