<svg width="64" height="64" viewBox="0 0 64 64" fill="none" xmlns="http://www.w3.org/2000/svg">
<path d="M50.4449 5.74027C52.1925 7.10303 53.8389 8.53978 55.3495 10.1608C55.5992 10.4212 55.8489 10.6815 56.1062 10.9497C62.7843 18.1044 64.2981 26.5667 63.9547 36.0071C63.4735 43.5403 59.638 50.3191 54.1313 55.3952C53.8696 55.6435 53.6078 55.8919 53.3382 56.1477C46.0173 62.907 37.3986 64.2897 27.7588 63.9537C20.3823 63.4953 13.5964 59.4911 8.65046 54.1835C8.40077 53.9232 8.15108 53.6629 7.89382 53.3947C1.21573 46.24 -0.29809 37.7776 0.0452782 28.3373C0.526517 20.8041 4.36203 14.0253 9.8687 8.94921C10.2613 8.5767 10.2613 8.5767 10.6618 8.19667C14.4331 4.7147 18.3609 2.78265 23.2693 1.27553C23.7535 1.12663 24.2377 0.977731 24.7366 0.82432C33.4131 -1.25539 43.2076 0.678552 50.4449 5.74027ZM9.12634 11.8158C3.89521 17.9762 0.731564 25.8234 1.34104 33.9896C2.11005 40.796 4.27951 46.4091 8.65046 51.7603C8.89754 52.0888 9.14461 52.4173 9.39917 52.7558C14.5301 58.7556 22.4089 62.0321 30.1726 62.665C38.488 63.1901 46.3418 59.9878 52.6783 54.7657C59.0671 48.7484 62.2068 41.0729 62.7605 32.3994C62.6186 24.9313 60.0629 18.3545 55.3495 12.5841C55.1025 12.2556 54.8554 11.9271 54.6008 11.5886C49.4699 5.5888 41.5911 2.31233 33.8274 1.67941C24.7093 1.10362 15.1922 5.01946 9.12634 11.8158Z" fill="#8B734B"/>
<path d="M34.6395 6.92974C36.1803 7.81193 37.2207 8.92157 37.8882 10.5646C38.1759 12.5812 38.1121 14.1659 37.1775 15.9917C35.7466 17.6126 34.781 18.3422 32.6091 18.6422C32.6091 19.042 32.6091 19.4419 32.6091 19.8538C34.7532 19.8538 36.8973 19.8538 39.1064 19.8538C39.1064 20.387 39.1064 20.9201 39.1064 21.4693C36.9623 21.4693 34.8182 21.4693 32.6091 21.4693C32.6091 30.1325 32.6091 38.7957 32.6091 47.7214C39.9523 45.8956 45.1259 44.0887 49.0395 37.6103C50.6556 34.5139 51.4625 31.3975 51.6949 27.9314C52.2309 27.9314 52.7669 27.9314 53.3192 27.9314C53.7053 33.5955 51.3288 38.408 47.8117 42.7234C43.6707 47.1649 38.506 48.918 32.6091 49.3369C32.7431 51.8692 32.8772 54.4016 33.0152 57.0106C34.6233 55.4113 36.2314 53.8119 37.8882 52.1641C38.4912 52.5639 38.4912 52.5639 39.1064 52.9718C38.2549 54.8461 36.9427 56.0951 35.5025 57.5407C35.2486 57.8065 34.9947 58.0723 34.7331 58.3461C34.3617 58.7198 34.3617 58.7198 33.9828 59.101C33.7583 59.3297 33.5338 59.5584 33.3025 59.7941C32.6091 60.2416 32.6091 60.2416 31.8043 60.1963C30.8145 59.7633 30.2483 59.2429 29.4938 58.4731C29.2242 58.2011 28.9546 57.929 28.6768 57.6488C28.3999 57.3632 28.123 57.0776 27.8377 56.7834C27.5545 56.4963 27.2713 56.2092 26.9796 55.9134C26.2814 55.2047 25.5863 54.4935 24.8936 53.7796C25.1617 53.2465 25.4297 52.7133 25.7058 52.1641C26.13 52.5161 26.5527 52.8698 26.9748 53.2243C27.2104 53.421 27.4459 53.6178 27.6886 53.8206C28.83 54.8385 29.9008 55.9324 30.9848 57.0106C31.1188 54.4783 31.2528 51.946 31.3909 49.3369C30.1095 49.187 30.1095 49.187 28.8022 49.034C22.7108 48.1399 17.9253 45.2512 14.2071 40.2923C11.6973 36.4293 10.5136 32.506 10.6809 27.9314C11.2169 27.9314 11.7529 27.9314 12.3052 27.9314C12.3649 28.3416 12.4245 28.7519 12.486 29.1746C13.3674 34.7378 15.1549 39.7148 19.8192 43.2393C23.497 45.7004 27.0793 46.7685 31.3909 47.7214C31.3909 39.0582 31.3909 30.395 31.3909 21.4693C29.3808 21.4693 27.3707 21.4693 25.2997 21.4693C25.2997 20.9362 25.2997 20.4031 25.2997 19.8538C27.3098 19.8538 29.3199 19.8538 31.3909 19.8538C31.3909 19.454 31.3909 19.0542 31.3909 18.6422C30.9638 18.5589 30.5366 18.4756 30.0965 18.3898C28.2766 17.8831 27.5923 16.9196 26.518 15.4112C25.7627 13.9088 25.9369 12.2042 26.1119 10.5646C26.9842 8.61262 28.162 7.62931 30.0854 6.78144C31.6805 6.32817 33.0675 6.42686 34.6395 6.92974ZM28.5484 9.75688C27.5488 11.248 27.4574 12.4683 27.7362 14.1995C28.5766 15.5728 29.4033 16.5897 30.9848 17.0267C33.0819 17.0267 33.8424 16.955 35.4517 15.5879C36.5093 13.78 36.56 13.0306 36.2639 10.9685C35.4113 9.57552 34.5853 8.66191 33.0152 8.14137C31.0769 7.83698 30.0559 8.59074 28.5484 9.75688Z" fill="#8B734B"/>
</svg>
