<svg width="246" height="258" viewBox="0 0 246 258" fill="none" xmlns="http://www.w3.org/2000/svg">
<path d="M123.726 55.5997C99.5143 55.5997 79.817 75.297 79.817 99.509C79.817 123.721 99.5143 143.42 123.726 143.42C147.938 143.42 167.637 123.721 167.637 99.509C167.637 75.297 147.938 55.5997 123.726 55.5997Z" fill="#1D1D1B"/>
<path d="M61.2993 97.7282C61.2993 63.9549 88.7766 36.4776 122.551 36.4776C156.325 36.4776 183.802 63.9549 183.802 97.7282C183.802 131.503 156.325 158.98 122.551 158.98C88.7766 158.98 61.2993 131.503 61.2993 97.7282Z" fill="#8C734B"/>
<path d="M175.745 97.7285C175.745 126.768 152.204 150.31 123.164 150.31C94.1253 150.31 70.584 126.768 70.584 97.7285C70.584 68.6885 94.1253 45.1471 123.164 45.1471C152.204 45.1471 175.745 68.6885 175.745 97.7285Z" fill="#282B2C"/>
<mask id="mask0_238_5167" style="mask-type:luminance" maskUnits="userSpaceOnUse" x="70" y="24" width="106" height="127">
<path d="M70.584 24.2427V97.7293C70.584 126.768 94.1253 150.309 123.164 150.309C152.204 150.309 175.745 126.768 175.745 97.7293V24.2427H70.584Z" fill="white"/>
</mask>
<g mask="url(#mask0_238_5167)">
<path d="M104.673 126.82C104.785 126.528 104.774 126.288 104.625 126.032C104.241 126.466 104.251 126.66 104.673 126.82Z" fill="black"/>
<path d="M105.211 122.239C104.971 122.309 104.939 122.451 105.021 122.627C105.035 122.655 105.144 122.673 105.176 122.65C105.324 122.545 105.335 122.409 105.211 122.239Z" fill="black"/>
<path d="M104.806 123.928C104.793 123.997 104.77 124.067 104.768 124.137C104.766 124.192 104.792 124.247 104.896 124.305C104.906 124.181 104.917 124.057 104.928 123.935C104.888 123.932 104.846 123.931 104.806 123.928Z" fill="black"/>
<path d="M112.008 124.309H112.007L112.006 124.306L112.008 124.309Z" fill="black"/>
<path fill-rule="evenodd" clip-rule="evenodd" d="M44.6918 128.522L60.7532 123.626C60.7532 123.626 83.2785 116.966 87.7825 115.007C92.2878 113.048 97.8878 105.198 100.866 105.206C103.148 105.211 113.92 108.204 118.828 109.602C123.736 108.204 134.508 105.211 136.789 105.206C139.768 105.198 145.368 113.048 149.873 115.007C154.378 116.966 178.078 122.646 178.078 122.646L191.201 134.006L191.789 152.222H45.8665L44.6918 128.522Z" fill="white"/>
<path fill-rule="evenodd" clip-rule="evenodd" d="M145.564 112.069C145.564 112.069 153.791 144.779 154.377 147.717C154.965 150.655 156.728 151.634 157.12 150.655C157.512 149.675 150.42 116.661 149.285 115.203C147.915 113.439 145.564 112.069 145.564 112.069Z" fill="#BBBBBB"/>
<path fill-rule="evenodd" clip-rule="evenodd" d="M91.9125 112.264C91.9125 112.264 83.7845 145.171 83.1965 148.108C82.6085 151.046 80.8458 152.026 80.4538 151.046C80.0631 150.067 87.2565 117.127 88.2885 115.594C89.7418 113.44 91.9125 112.264 91.9125 112.264Z" fill="#BBBBBB"/>
<path fill-rule="evenodd" clip-rule="evenodd" d="M136.75 105.213C139.493 106.584 141.059 117.945 133.615 133.419C126.173 148.892 126.761 149.088 125.39 149.48C124.018 149.871 131.657 135.964 131.266 134.005C130.874 132.047 126.173 124.996 125.194 126.563C124.214 128.129 123.489 129.796 122.481 130.432C121.473 131.068 119.611 133.011 119.073 130.864C118.534 128.717 118.73 120.687 118.73 120.687C118.73 120.687 126.957 124.408 129.894 119.512C132.833 114.615 136.75 105.213 136.75 105.213Z" fill="#BBBBBB"/>
<path fill-rule="evenodd" clip-rule="evenodd" d="M99.5348 105.605C97.1841 107.368 94.6188 117.945 102.061 133.418C109.504 148.892 108.917 149.088 110.288 149.48C111.66 149.872 104.432 136.748 104.823 134.789C105.215 132.83 110.895 125.584 111.875 127.15C112.853 128.717 112.189 129.796 113.197 130.432C114.205 131.068 116.067 133.01 116.605 130.864C117.144 128.717 116.948 120.686 116.948 120.686C116.948 120.686 108.721 124.409 105.783 119.512C102.845 114.614 99.5348 105.605 99.5348 105.605Z" fill="#BBBBBB"/>
<path fill-rule="evenodd" clip-rule="evenodd" d="M136.198 104.623C136.358 104.429 142.234 109.327 132.244 133.419L121.864 118.532C121.864 118.532 127.955 114.552 136.198 104.623Z" fill="white"/>
<path fill-rule="evenodd" clip-rule="evenodd" d="M121.864 118.532C120.297 118.336 113.833 118.924 113.833 118.924L110.504 124.408L115.009 129.892C115.009 129.892 111.482 134.398 110.504 150.655C109.524 166.912 126.957 159.86 126.173 149.675C125.389 139.49 122.256 129.696 122.256 129.696L125.977 124.408L121.864 118.532Z" fill="black"/>
<path fill-rule="evenodd" clip-rule="evenodd" d="M119.905 130.872C117.358 130.872 117.75 130.676 116.968 131.068C116.184 131.46 113.05 151.439 114.421 152.417C115.792 153.397 118.926 153.397 119.513 153.005C120.101 152.613 119.905 130.872 119.905 130.872Z" fill="#2A2A2A"/>
<path fill-rule="evenodd" clip-rule="evenodd" d="M100.122 105.017C99.9623 104.824 93.8543 110.305 103.844 134.397L113.968 119.12C113.968 119.12 108.365 114.947 100.122 105.017Z" fill="white"/>
<path fill-rule="evenodd" clip-rule="evenodd" d="M138.904 66.6272C140.471 68.2059 138.708 69.0112 138.904 73.4832C139.1 77.9539 137.534 90.8352 135.771 93.7285C134.008 96.6219 130.896 98.8299 129.503 98.9459C127.152 99.1419 106.586 99.7779 105.019 98.4632C103.452 97.1472 98.1643 91.1659 97.7723 83.2765C97.3803 75.3859 95.8137 68.6645 97.5763 66.8232C99.339 64.9819 122.255 65.0605 125.978 65.0605C129.699 65.0605 138.904 66.6272 138.904 66.6272Z" fill="#F9CFA6"/>
<path fill-rule="evenodd" clip-rule="evenodd" d="M92.0919 76.029C92.2879 78.3797 92.2879 79.9464 92.8759 81.709C93.4626 83.4717 93.4626 83.6677 93.8546 85.4304C94.2373 87.1517 94.4426 88.565 95.0293 88.9557C95.6173 89.3477 95.9999 89.5157 96.4013 89.7397C96.8013 89.9637 97.3799 85.6264 96.9879 82.689C96.5973 79.7504 96.7706 77.1824 95.8026 74.4517C94.8346 71.7197 94.4426 70.153 93.6586 70.153C92.8759 70.153 91.5813 69.8997 92.0919 76.029Z" fill="#DD9F78"/>
<path fill-rule="evenodd" clip-rule="evenodd" d="M95.8872 77.7254C94.8338 77.9881 94.6378 78.1841 94.6378 79.1628C94.6378 80.1428 94.8338 82.1014 95.8138 82.8841C96.7925 83.6681 97.7725 84.4521 97.5765 83.4721C97.3805 82.4934 95.8872 77.7254 95.8872 77.7254Z" fill="#B46E4B"/>
<path fill-rule="evenodd" clip-rule="evenodd" d="M95.9729 76.6498C95.8062 77.3791 94.6382 77.0085 94.2462 77.7911C93.8542 78.5751 93.6582 79.7498 93.8542 80.5338C94.0502 81.3178 95.6169 82.8845 95.6169 84.2551C95.6169 85.6271 95.2262 85.2351 95.6169 86.0178C96.0089 86.8018 97.7716 88.1725 96.9889 88.9565C96.2049 89.7391 95.6169 90.1311 95.2262 88.3685C94.8342 86.6058 94.6382 84.6471 94.0502 83.4725C93.4636 82.2965 93.2676 81.5138 93.2676 79.9458C93.2676 78.3791 92.8756 76.0285 93.4636 75.0498C94.0502 74.0698 94.8342 74.2658 94.8342 73.4831C94.8342 72.6991 94.4422 71.7205 93.8542 72.6991C93.2676 73.6791 93.2676 75.6378 93.0716 74.8538C92.8756 74.0698 92.6796 70.9365 94.0502 70.9365C95.4222 70.9365 96.2049 75.6378 95.9729 76.6498Z" fill="#B46E4B"/>
<path fill-rule="evenodd" clip-rule="evenodd" d="M144.599 76.029C144.403 78.3797 144.403 79.9464 143.815 81.709C143.228 83.4717 143.228 83.6677 142.836 85.4304C142.453 87.1517 142.248 88.565 141.661 88.9557C141.073 89.3477 140.689 89.5157 140.289 89.7397C139.889 89.9637 139.311 85.6264 139.701 82.689C140.093 79.7504 139.92 77.1824 140.888 74.4517C141.856 71.7197 142.248 70.153 143.032 70.153C143.815 70.153 145.109 69.8997 144.599 76.029Z" fill="#DD9F78"/>
<path fill-rule="evenodd" clip-rule="evenodd" d="M141.01 77.7254C142.064 77.9881 142.26 78.1841 142.26 79.1628C142.26 80.1428 142.064 82.1014 141.084 82.8841C140.105 83.6681 139.125 84.4521 139.321 83.4721C139.517 82.4934 141.01 77.7254 141.01 77.7254Z" fill="#B46E4B"/>
<path fill-rule="evenodd" clip-rule="evenodd" d="M140.763 76.6498C140.93 77.3791 142.098 77.0085 142.49 77.7911C142.882 78.5751 143.078 79.7498 142.882 80.5338C142.686 81.3178 141.119 82.8845 141.119 84.2551C141.119 85.6271 141.51 85.2351 141.119 86.0178C140.727 86.8018 138.965 88.1725 139.747 88.9565C140.531 89.7391 141.119 90.1311 141.51 88.3685C141.902 86.6058 142.098 84.6471 142.686 83.4725C143.274 82.2965 143.469 81.5138 143.469 79.9458C143.469 78.3791 143.801 76.8125 143.213 75.8338C142.626 74.8538 141.902 74.2658 141.902 73.4831C141.902 72.6991 142.294 71.7205 142.882 72.6991C143.469 73.6791 143.469 75.6378 143.665 74.8538C143.861 74.0698 144.057 70.9365 142.686 70.9365C141.314 70.9365 140.531 75.6378 140.763 76.6498Z" fill="#B46E4B"/>
<path fill-rule="evenodd" clip-rule="evenodd" d="M100.477 101.665C101.224 102.748 102.14 103.637 103.648 104.822C106.39 106.977 107.565 109.132 109.133 110.502C110.7 111.873 110.504 111.873 112.07 112.853C113.637 113.832 116.576 114.028 119.709 113.636C122.844 113.244 123.517 112.204 124.802 111.285C126.173 110.306 126.761 109.328 129.502 107.564C132.082 105.906 134.792 102.472 135.966 101.492C136.122 101.362 136.249 101.233 136.357 101.1L136.162 105.409C136.162 105.409 137.518 109.286 132.462 113.493C130.33 115.268 127.057 117.102 122.06 118.729C109.858 122.701 100.122 110.306 99.9262 108.152C99.7302 105.997 100.477 101.665 100.477 101.665Z" fill="#DD9F78"/>
<mask id="mask1_238_5167" style="mask-type:luminance" maskUnits="userSpaceOnUse" x="101" y="102" width="17" height="13">
<path d="M101.366 102.599H117.772V114.909H101.366V102.599Z" fill="white"/>
</mask>
<g mask="url(#mask1_238_5167)">
<g opacity="0.619995">
<path fill-rule="evenodd" clip-rule="evenodd" d="M117.751 113.832C115.792 116.769 110.112 112.853 108.545 112.069C107.553 111.573 107.277 115.45 106.148 114.445C105.019 113.44 102.62 112.497 102.057 110.325C101.493 108.152 100.699 102.184 102.369 102.621C104.04 103.058 118.403 112.854 117.751 113.832Z" fill="#B46E4B"/>
</g>
</g>
<mask id="mask2_238_5167" style="mask-type:luminance" maskUnits="userSpaceOnUse" x="120" y="103" width="16" height="13">
<path d="M120.477 103.187H135.183V115.26H120.477V103.187Z" fill="white"/>
</mask>
<g mask="url(#mask2_238_5167)">
<g opacity="0.619995">
<path fill-rule="evenodd" clip-rule="evenodd" d="M120.493 110.893C121.471 112.852 127.221 111.872 128.005 112.656C128.787 113.44 129.271 116.037 130.401 115.032C131.53 114.028 133.929 113.085 134.491 110.912C135.055 108.739 135.85 102.772 134.179 103.209C132.509 103.647 119.967 109.843 120.493 110.893Z" fill="#B46E4B"/>
</g>
</g>
<path d="M82.1777 51.939C82.6684 48.5297 83.799 45.339 85.5177 42.3643C88.0777 37.9323 91.5804 34.4163 95.855 31.6763C101.596 27.995 107.908 26.087 114.679 25.783C117.506 25.655 120.343 25.651 123.176 25.8297C124.504 25.9137 125.82 26.0857 127.128 26.3177C130.307 26.8817 133.379 27.8083 136.324 29.1483C141.223 31.3777 145.462 34.4937 148.836 38.7417C152.014 42.7377 154.03 47.251 154.696 52.3537C155.19 56.1283 154.826 59.8217 153.702 63.4457C153.668 63.5523 153.088 64.9097 153.023 65.0603C152.404 66.211 151.092 70.1777 144.755 77.1257C144.13 77.8123 146.096 69.759 142.962 70.1123C142.384 70.1777 142.152 71.4097 141.976 71.3817C141.976 71.1843 139.352 67.9977 139.1 67.9977C139.032 67.883 139.748 58.1257 139.688 58.0083C138.975 56.6337 136.342 50.3083 131.462 46.6483C130.678 46.0617 125.724 45.4737 125.724 45.4737C125.959 44.4897 126.056 43.4843 126.012 42.4603C125.899 39.795 125.046 37.4217 123.139 35.491C122.219 34.5603 121.122 33.911 119.86 33.5817C118.943 33.3417 118 33.3003 117.06 33.483C114.758 33.9323 113.127 35.3043 111.92 37.2497C111.18 38.443 110.76 39.7563 110.534 41.1297C110.438 41.707 110.438 42.3017 110.408 42.6883C110.415 43.1923 110.483 43.679 110.499 44.1563C110.503 44.2977 110.522 44.707 110.503 44.6897C110.324 44.739 109.886 44.8403 109.72 44.8857C109.03 45.075 106.707 45.575 105.999 45.8657C104.826 46.3457 103.962 47.1217 103.06 48.0203C102.407 48.6697 97.095 57.9803 96.7924 58.5963C96.727 58.7297 95.563 59.119 95.4217 59.1843C94.211 59.747 92.5164 61.5337 92.4844 61.535C92.103 63.0963 92.5524 63.4857 93.267 65.2563C93.491 65.8123 93.1297 69.751 93.267 70.1523C93.267 70.1523 92.4844 70.7403 92.2884 71.1323C91.539 72.6297 92.2284 76.9417 92.0924 76.8123C91.0524 75.823 90.0857 74.9963 89.1524 73.895C88.3097 72.9017 87.419 71.9523 86.719 70.843C86.2817 70.1497 85.7564 69.5057 85.383 68.7803C84.799 67.647 84.2617 66.4817 83.7884 65.2963C82.071 60.9937 81.5164 56.535 82.1777 51.939Z" fill="white"/>
<path d="M92.6133 63.7335C92.6493 64.4001 92.9293 64.9255 93.3333 65.8628C93.3239 65.5868 93.3066 65.3561 93.2666 65.2561C93.0026 64.6028 92.7759 64.1388 92.6133 63.7335Z" fill="#BBBBBB"/>
<path d="M82.4351 52.9998C82.9257 49.5904 84.0564 46.3998 85.7751 43.4251C88.3351 38.9931 91.8377 35.4771 96.1124 32.7371C101.854 29.0558 108.166 27.1478 114.936 26.8438C117.763 26.7158 120.6 26.7118 123.434 26.8904C124.762 26.9744 126.078 27.1464 127.386 27.3784C130.564 27.9424 133.636 28.8691 136.582 30.2091C141.48 32.4384 145.719 35.5544 149.094 39.8024C151.464 42.7838 153.186 46.0531 154.186 49.6411C153.244 45.6371 151.436 42.0131 148.836 38.7411C145.462 34.4944 141.223 31.3771 136.324 29.1478C133.379 27.8078 130.307 26.8811 127.128 26.3171C125.82 26.0851 124.504 25.9131 123.176 25.8291C120.343 25.6518 117.506 25.6544 114.679 25.7824C107.908 26.0878 101.596 27.9944 95.8551 31.6758C91.5804 34.4171 88.0777 37.9318 85.5177 42.3651C83.7991 45.3398 82.6684 48.5291 82.1777 51.9384C81.6604 55.5304 81.9111 59.0331 82.8524 62.4478C82.1404 59.3678 81.9711 56.2198 82.4351 52.9998Z" fill="#BBBBBB"/>
<path d="M126.15 45.5276C126.243 44.8663 126.299 44.1996 126.27 43.5209C126.23 42.5796 126.059 41.6916 125.82 40.8303C125.912 41.3623 125.988 41.9009 126.012 42.4596C126.056 43.4849 125.959 44.4903 125.724 45.4743C125.724 45.4743 125.906 45.4956 126.15 45.5276Z" fill="#BBBBBB"/>
<path d="M139.945 59.0698C139.877 58.9392 139.776 58.7272 139.675 58.5152C139.573 60.5245 139.041 67.8992 139.1 67.9978C139.14 67.9978 139.249 68.0938 139.385 68.2258C139.515 65.8552 139.995 59.1658 139.945 59.0698Z" fill="#BBBBBB"/>
<path d="M144.713 72.1754C145.017 74.4021 144.353 77.5674 144.755 77.1261C144.825 77.0501 144.874 76.9861 144.942 76.9114C145.05 75.5394 145.215 73.4234 144.713 72.1754Z" fill="#BBBBBB"/>
<path d="M110.113 37.5088C110.113 37.5088 109.524 39.9888 106.587 41.9475C103.648 43.9061 97.184 51.9368 95.8133 53.3088C94.4427 54.6795 94.0507 53.8955 94.8347 50.9581C95.6173 48.0195 97.576 45.6688 95.8133 46.6488C94.0507 47.6275 91.504 54.6795 91.308 59.1848C91.112 63.6888 92.484 69.9568 92.68 70.1528C92.876 70.3488 91.7 72.6995 94.6387 64.8648C97.576 57.0301 102.381 47.3261 106.443 45.7141C110.504 44.1021 109.253 47.1128 110.467 43.4528C111.679 39.7928 110.113 37.5088 110.113 37.5088Z" fill="#BBBBBB"/>
<path d="M125.988 37.5088C125.988 37.5088 126.577 39.9888 129.515 41.9475C132.453 43.9061 138.917 51.9368 140.288 53.3088C141.659 54.6795 142.051 53.8955 141.267 50.9581C140.484 48.0195 138.525 45.6688 140.288 46.6488C142.051 47.6275 144.597 54.6795 144.793 59.1848C144.989 63.6888 143.617 69.9568 143.421 70.1528C143.227 70.3488 144.401 72.6995 141.463 64.8648C138.525 57.0301 133.72 47.3261 129.659 45.7141C125.597 44.1021 126.848 47.1128 125.635 43.4528C124.423 39.7928 125.988 37.5088 125.988 37.5088Z" fill="#BBBBBB"/>
<path fill-rule="evenodd" clip-rule="evenodd" d="M120.884 78.771C121.08 80.1417 120.884 80.7297 121.863 81.7097C122.843 82.6883 122.891 82.751 123.235 83.6683C123.823 85.235 122.647 86.9977 122.255 87.1937C121.59 87.5257 121.45 87.1377 121.104 86.9897C120.896 86.9017 120.615 86.9003 120.1 87.1937C118.73 87.9763 119.132 87.9763 117.359 87.9763C115.792 87.9763 115.204 86.4097 114.42 86.8017C113.638 87.1937 113.05 87.3897 112.462 86.4097C111.875 85.431 112.028 85.0097 112.266 84.059C112.658 82.4923 113.392 82.687 113.834 81.5137C114.42 79.9457 114.812 76.6163 115.204 76.8123C115.596 77.0083 116.183 79.163 115.988 80.7297C115.792 82.2963 114.944 84.147 115.988 84.843C117.163 85.627 117.163 85.8217 118.926 85.431C119.882 85.2177 120.492 84.647 120.296 82.8843C120.1 81.1217 119.71 78.183 120.296 78.183C120.884 78.183 120.884 78.771 120.884 78.771Z" fill="#DD9F78"/>
<path fill-rule="evenodd" clip-rule="evenodd" d="M121.276 86.0182C120.884 86.0182 120.688 86.0182 120.297 86.4102C119.797 86.9089 119.609 87.0809 119.121 87.5849C118.773 87.9449 120.375 86.9822 120.688 86.9969C121.003 87.0129 120.884 87.1929 121.276 86.9969C121.772 86.7502 121.525 86.0182 121.276 86.0182Z" fill="#B46E4B"/>
<path fill-rule="evenodd" clip-rule="evenodd" d="M114.267 86.2143C114.659 86.2143 114.855 86.2143 115.245 86.6063C115.745 87.1049 115.933 87.2769 116.421 87.7809C116.769 88.1409 115.168 87.1783 114.855 87.1929C114.54 87.2089 114.659 87.3889 114.267 87.1929C113.771 86.9463 114.017 86.2143 114.267 86.2143Z" fill="#B46E4B"/>
<path fill-rule="evenodd" clip-rule="evenodd" d="M134.204 68.5859C131.461 67.0193 129.11 66.8233 127.153 66.6273C125.194 66.4313 120.297 67.2153 117.358 67.4113C114.421 67.6073 111.124 67.0193 108.741 67.0193C106.194 67.0193 102.277 67.4113 101.493 68.1939C101.078 68.6099 98.5556 66.6273 99.7302 66.4313C100.906 66.2353 115.205 64.0806 119.122 64.2766C123.038 64.4726 126.369 65.0606 129.502 65.6486C132.637 66.2353 134.204 68.5859 134.204 68.5859Z" fill="#DD9F78"/>
<path fill-rule="evenodd" clip-rule="evenodd" d="M139.1 67.9983L141.976 71.3823C141.976 71.3823 141.255 73.6783 141.059 75.245C140.863 76.813 140.863 77.9877 140.863 80.5343C140.863 83.0797 139.296 83.6677 139.492 85.0383C139.688 86.4103 140.643 87.513 140.471 89.7397C140.275 92.2863 139.492 95.2237 138.512 97.3783C137.534 99.533 137.142 100.513 135.967 101.492C134.791 102.472 132.082 105.906 129.503 107.564C126.76 109.326 126.174 110.306 124.802 111.285C123.516 112.204 122.843 113.244 119.71 113.636C116.575 114.028 113.638 113.832 112.071 112.852C110.503 111.873 110.699 111.873 109.132 110.502C107.566 109.13 106.391 106.976 103.648 104.821C100.906 102.668 100.123 101.492 98.7509 98.3583C97.3802 95.2237 97.3802 95.4197 96.5962 91.1103C95.8135 86.8023 97.3802 83.4717 96.9882 82.689C96.5962 81.905 95.8135 79.9463 95.8135 78.7717C95.8135 77.5957 96.4015 75.245 95.4215 73.4823C94.4429 71.7197 93.2669 70.349 93.2669 69.957C93.2669 69.565 92.4842 64.669 94.6389 64.865C96.7922 65.061 98.3602 64.277 98.1642 65.6477C97.9682 67.0197 96.5962 87.585 104.432 90.3277C106.86 91.177 110.574 88.0783 114.422 88.173C118.87 88.2823 125.194 87.193 128.719 90.3277C131.638 92.921 132.636 90.1317 134.008 87.977C137.51 82.4743 137.73 77.0077 139.1 67.9983Z" fill="#674841"/>
<mask id="mask3_238_5167" style="mask-type:luminance" maskUnits="userSpaceOnUse" x="127" y="66" width="13" height="26">
<path d="M127.067 66.1961H139.124V91.7415H127.067V66.1961Z" fill="white"/>
</mask>
<g mask="url(#mask3_238_5167)">
<g opacity="0.820007">
<path fill-rule="evenodd" clip-rule="evenodd" d="M139.1 66.6274C139.296 68.5861 138.222 76.0328 138.122 77.4008C137.73 82.6888 135.967 87.7808 134.987 88.9568C134.008 90.1314 132.636 91.6981 131.658 91.6981C130.678 91.6981 130.482 92.0901 128.915 90.5234C127.523 89.1314 126.564 87.5848 127.348 87.5848C128.132 87.5848 131.07 88.5648 132.636 86.8021C134.204 85.0394 136.75 80.1421 136.75 77.7914C136.75 75.4421 136.92 73.6888 136.358 72.1114C135.81 70.5741 134.668 68.9794 133.224 68.1941C132.07 67.5661 129.895 66.4314 131.07 66.2354C132.244 66.0394 139.1 66.6274 139.1 66.6274Z" fill="#DD9F78"/>
</g>
</g>
<mask id="mask4_238_5167" style="mask-type:luminance" maskUnits="userSpaceOnUse" x="97" y="66" width="13" height="26">
<path d="M97.8356 66.4066H109.285V91.3186H97.8356V66.4066Z" fill="white"/>
</mask>
<g mask="url(#mask4_238_5167)">
<g opacity="0.820007">
<path fill-rule="evenodd" clip-rule="evenodd" d="M97.968 66.4314C97.772 68.3901 97.812 75.4501 97.968 76.8127C98.56 81.9874 98.7907 84.2701 100.515 88.5648C101.34 90.6208 102.669 91.3061 103.648 91.3061C104.628 91.3061 104.669 91.4794 106.391 90.5234C108.153 89.5434 109.873 87.0954 109.091 87.0954C108.307 87.0954 105.369 88.0754 103.801 86.3114C102.235 84.5487 99.6893 79.6528 99.6893 77.3021C99.6893 74.9514 99.4933 73.1887 100.08 71.6221C100.668 70.0554 102.039 68.2927 103.215 67.7048C104.389 67.1167 105.565 66.7247 104.389 66.5301C103.215 66.3341 97.968 66.4314 97.968 66.4314Z" fill="#DD9F78"/>
</g>
</g>
<path d="M141.451 65.2562C141.059 66.0402 140.315 66.4309 138.317 66.4309C135.379 66.4309 124.215 64.0816 120.297 64.2776C116.38 64.4722 112.071 64.2776 108.936 64.8642C105.803 65.4522 100.711 66.4309 98.164 66.4309C95.6173 66.4309 94.8906 65.8936 94.372 65.5749C93.8546 65.2562 92.8173 64.9402 92.6506 63.8256C92.484 62.7096 91.704 61.8642 93.5626 60.5242C95.4213 59.1842 96.2053 59.1842 96.988 58.0096C97.772 56.8336 100.612 51.8389 101.444 50.4189C102.277 48.9989 105.019 45.0816 109.328 44.6896C113.637 44.2989 127.152 42.4376 132.245 47.3829C137.337 52.3296 138.513 57.8136 139.1 58.2056C139.688 58.5962 141.843 59.8042 141.94 60.2776C142.039 60.7509 142.429 61.9269 142.039 62.9056C141.647 63.8856 141.451 65.2562 141.451 65.2562Z" fill="black"/>
<path d="M117.409 60.5245C116.859 60.5405 115.525 61.1858 115.439 61.4165C115.222 62.0098 115.003 62.6031 114.79 63.1991C114.706 63.4325 114.625 63.6685 114.562 63.9085C114.505 64.1298 114.359 64.2205 114.153 64.2391C113.642 64.2845 111.686 64.4365 111.198 64.4738C110.783 63.2605 110.569 62.0125 109.829 60.8951C109.503 60.9698 109.141 61.0191 108.799 61.1351C107.766 61.4831 107.783 61.5005 107.283 62.4911C107.026 63.0005 106.141 64.4818 106.013 64.7405C105.879 65.0111 105.637 65.1071 105.371 65.1498C104.705 65.2565 104.034 65.3391 103.367 65.4458C102.993 65.5058 101.077 65.7858 100.49 65.7938C99.1193 65.8111 97.7486 65.7991 96.3779 65.7991C96.2606 65.7991 96.1419 65.7938 96.0246 65.8031C95.6433 65.8325 95.5739 65.9205 95.5913 66.3898C95.7606 66.4271 95.9406 66.4751 96.1233 66.5031C96.9953 66.6391 97.8633 66.8298 98.7406 66.8831C99.6193 66.9365 100.506 66.8685 101.387 66.8165C101.735 66.7951 105.974 66.1325 106.201 66.1191C106.739 66.0871 107.287 66.0391 107.81 65.9111C108.569 65.7245 109.323 65.5645 110.107 65.5045C111.382 65.4071 112.649 65.2071 113.923 65.1138C114.891 65.0418 115.867 65.0631 116.839 65.0565C117.899 65.0485 118.961 65.0645 120.022 65.0538C121.453 65.0391 122.877 65.1205 124.297 65.2831C125.275 65.3965 126.257 65.4911 127.234 65.6125C128.311 65.7471 129.39 65.8845 130.461 66.0565C131.229 66.1805 131.983 66.3885 132.751 66.5165C133.779 66.6898 137.182 66.9018 137.845 66.9191C137.959 66.9218 138.946 66.8325 139.101 66.8231C139.118 66.5818 139.101 66.0391 138.287 66.1325C138.051 66.1325 137.851 66.1231 137.653 66.1338C137.199 66.1565 134.307 66.0205 133.323 65.8591C132.919 65.7925 128.969 64.9805 128.63 64.9405C127.933 64.8551 127.245 64.6898 126.551 64.5685C126.119 64.4925 125.683 64.4311 125.249 64.3725C124.682 64.2965 122.583 64.0658 122.103 64.0085C121.681 63.9591 118.707 63.8085 117.87 63.8085C117.802 62.6845 117.699 61.5938 117.409 60.5245Z" fill="white"/>
<path d="M108.999 42.6005C108.999 48.4951 113.125 53.2725 118.216 53.2725C123.305 53.2725 127.432 48.4951 127.432 42.6005C127.432 36.7058 123.305 31.9285 118.216 31.9285C113.125 31.9285 108.999 36.7058 108.999 42.6005Z" fill="#FFCB00"/>
<path d="M114.04 44.9295C114.111 45.0268 114.186 45.0988 114.226 45.1868C114.635 46.0935 115.368 46.6668 116.214 47.1202C116.872 47.4748 117.538 47.8162 118.218 48.1722C119.035 47.7228 119.892 47.2735 120.728 46.7882C121.367 46.4175 121.846 45.8828 122.159 45.2068C122.202 45.1175 122.268 45.0388 122.343 44.9268C122.559 45.0468 122.76 45.1588 122.991 45.2882C123.406 44.4615 123.34 43.6642 122.979 42.7708C122.583 43.4788 122.072 44.0028 121.388 44.4282C121.57 44.5188 121.684 44.5735 121.796 44.6322C121.966 44.7175 121.992 44.8362 121.876 44.9882C121.24 45.8255 120.307 46.2322 119.278 46.0108C118.903 45.9295 118.676 45.6268 118.675 45.2442C118.67 43.8588 118.67 42.4722 118.675 41.0868C118.676 40.7255 118.719 40.6828 119.09 40.6842C119.45 40.6868 119.815 40.6228 120.155 40.8548C120.392 41.0175 120.624 40.9348 120.811 40.7068C121.006 40.4668 121 40.1868 120.795 39.9428C120.62 39.7335 120.334 39.6402 120.13 39.8068C119.756 40.1122 119.34 39.9655 118.942 39.9922C118.758 40.0042 118.69 39.8828 118.675 39.7108C118.651 39.4188 118.711 39.1922 118.951 38.9695C119.614 38.3535 119.423 37.3415 118.635 36.9442C118.027 36.6375 117.255 37.0962 117.11 37.7108C117.011 38.1335 117.01 38.6028 117.384 38.8988C117.764 39.1988 117.703 39.5442 117.666 39.9695C117.184 39.9628 116.73 40.1375 116.292 39.8148C116.066 39.6468 115.755 39.7348 115.586 39.9535C115.438 40.1442 115.436 40.5042 115.583 40.6988C115.759 40.9335 116.027 41.0135 116.28 40.8428C116.71 40.5548 117.159 40.7322 117.643 40.6828C117.662 40.8815 117.69 41.0375 117.69 41.1935C117.694 42.5495 117.694 43.9055 117.69 45.2615C117.69 45.6695 117.484 45.9322 117.091 46.0175C116.024 46.2495 114.978 45.7135 114.468 44.8842C114.455 44.8602 114.455 44.8282 114.438 44.7508C114.596 44.6588 114.767 44.5588 114.996 44.4255C114.362 44.0028 113.815 43.5255 113.447 42.7748C113.027 43.6535 113.019 44.4442 113.404 45.2948C113.642 45.1588 113.83 45.0508 114.04 44.9295ZM110.534 40.7615C110.76 39.3882 111.18 38.0735 111.92 36.8815C113.127 34.9362 114.758 33.5642 117.06 33.1148C118 32.9322 118.943 32.9735 119.86 33.2135C121.122 33.5428 122.219 34.1922 123.138 35.1228C125.046 37.0535 125.899 39.4268 126.012 42.0922C126.078 43.6362 125.831 45.1388 125.26 46.5855C124.676 48.0655 123.832 49.3628 122.584 50.3562C120.44 52.0615 118.082 52.4948 115.522 51.3975C114.364 50.9002 113.415 50.1135 112.636 49.1295C111.104 47.1948 110.444 44.9642 110.408 42.3202C110.438 41.9335 110.438 41.3388 110.534 40.7615Z" fill="black"/>
<path d="M118.112 53.8095C116.344 53.8269 110.024 54.0869 108.654 54.3962C107.25 54.7135 103.561 55.5775 103.117 55.6682C102.018 55.8895 99.6329 57.1322 99.5703 57.3975C99.4943 57.7122 99.3836 58.0189 99.3249 58.3362C99.2729 58.6109 99.3503 58.6962 99.6249 58.6882C99.7956 58.6829 101.534 57.9722 102.257 57.7242C102.534 57.6295 104.73 57.0962 105.548 56.9149C106.322 56.7429 109.721 56.2295 110.616 56.0002C112.148 55.6095 116.556 55.6149 117.202 55.6215C118.16 55.6322 120.72 55.6122 121.042 55.6162C121.926 55.6282 125.046 55.9402 125.724 56.0749C126.53 56.2349 130.657 57.0055 131.914 57.2295C133.106 57.4415 136.053 58.6629 136.194 58.6842C136.632 58.7495 137.337 57.2255 135.516 56.6655C134.746 56.2949 130.385 55.0015 128.98 54.7509C128.388 54.6455 125.241 54.0522 124.248 53.9549C122.208 53.7575 120.158 53.7669 118.112 53.8095Z" fill="#FFCB00"/>
<path d="M101.349 60.3809C102.385 59.9502 106.183 59.0315 106.989 58.8062C108.028 58.5155 116.652 58.0889 117.388 58.0582C118.905 57.9982 120.415 58.1235 121.927 58.2129C122.352 58.2369 122.781 58.2329 123.207 58.2022C123.825 58.1569 128.444 58.6769 129.355 58.9022C130.139 59.0969 130.911 59.3422 131.699 59.5182C132.704 59.7422 133.701 59.9835 134.655 60.3835C134.775 60.4355 136.553 61.3395 136.391 60.7742C136.595 60.4902 136.616 60.1049 136.681 59.7329C136.715 59.5489 135.379 58.9022 134.839 58.6689C133.675 58.1649 132.464 57.8222 131.217 57.5702C129.801 57.2835 125.816 56.7555 125.251 56.6662C124.931 56.6155 122.639 56.4662 121.816 56.4489C120.876 56.4289 118.097 56.3649 117.648 56.3649C117.12 56.3662 114.864 56.4702 114.261 56.4582C113.409 56.4422 112.553 56.4915 111.704 56.5715C110.931 56.6449 110.165 56.8009 109.395 56.9142C108.885 56.9889 105.392 57.4449 104.167 57.6982C102.564 58.0302 101.087 58.6715 99.6281 59.3755C99.2774 59.5435 99.2654 59.5795 99.3468 59.9595C99.4094 60.2555 99.7308 60.7515 101.349 60.3809Z" fill="#FFCB00"/>
<path d="M98.9974 61.5499C98.3374 60.2752 98.0108 58.9806 98.5695 57.6006C98.4135 57.3606 98.1948 57.3392 97.9868 57.4472C97.7108 57.5899 97.4521 57.7966 97.3935 58.1192C97.1655 59.3766 97.0828 60.6272 97.6935 61.8192C97.8868 62.1992 97.9748 62.2352 98.3254 62.0126C98.5454 61.8726 98.7561 61.7166 98.9974 61.5499Z" fill="#FFCB00"/>
<path d="M95.0445 62.7429C94.9898 62.2189 94.8992 61.7002 94.5832 61.2509C94.3138 60.8669 93.8445 60.7362 93.4378 60.9602C93.0872 61.1549 92.8205 61.4309 92.7205 61.8429C92.5472 62.5602 92.6992 63.2082 93.1458 63.7842C93.5312 64.2789 94.0178 64.2989 94.4685 63.8549C94.5912 63.7349 94.7018 63.6029 94.8152 63.4735C94.9965 63.2655 95.1365 63.0429 95.0445 62.7429Z" fill="#FFCB00"/>
<path d="M95.6974 61.446C95.9334 61.2327 96.1428 61.0487 96.3428 60.8554C96.3948 60.806 96.4401 60.7234 96.4414 60.654C96.4494 60.1567 96.4468 59.658 96.4468 59.1647C96.2454 59.0394 96.1134 59.154 95.9734 59.2567C95.6854 59.47 95.3988 59.6847 95.1028 59.8874C94.7054 60.1607 94.6908 60.3007 95.0174 60.658C95.2468 60.9074 95.4614 61.17 95.6974 61.446Z" fill="#FFCB00"/>
<path d="M97.1957 62.7355C97.0063 62.3768 96.825 62.0328 96.6237 61.6542C96.4383 61.7848 96.265 61.8875 96.1143 62.0168C95.9037 62.1982 95.7823 62.4208 95.833 62.7208C95.8703 62.9355 95.865 63.1582 95.8917 63.3755C95.9237 63.6395 96.009 63.6862 96.2743 63.6075C96.6317 63.4982 96.9263 63.2262 97.1957 62.7355Z" fill="#FFCB00"/>
<path d="M136.899 61.5499C137.559 60.2752 137.885 58.9806 137.327 57.6006C137.483 57.3606 137.701 57.3392 137.909 57.4472C138.185 57.5899 138.444 57.7966 138.503 58.1192C138.731 59.3766 138.813 60.6272 138.203 61.8192C138.009 62.1992 137.921 62.2352 137.571 62.0126C137.351 61.8726 137.14 61.7166 136.899 61.5499Z" fill="#FFCB00"/>
<path d="M140.199 61.446C139.963 61.2327 139.754 61.0487 139.554 60.8554C139.502 60.806 139.456 60.7234 139.455 60.654C139.447 60.1567 139.45 59.658 139.45 59.1647C139.651 59.0394 139.783 59.154 139.923 59.2567C140.211 59.47 140.498 59.6847 140.794 59.8874C141.191 60.1607 141.206 60.3007 140.879 60.658C140.65 60.9074 140.435 61.17 140.199 61.446Z" fill="#FFCB00"/>
<path d="M138.701 62.7355C138.89 62.3768 139.071 62.0328 139.273 61.6542C139.458 61.7848 139.631 61.8875 139.782 62.0168C139.993 62.1982 140.114 62.4208 140.063 62.7208C140.026 62.9355 140.031 63.1582 140.005 63.3755C139.973 63.6395 139.887 63.6862 139.622 63.6075C139.265 63.4982 138.97 63.2262 138.701 62.7355Z" fill="#FFCB00"/>
<path fill-rule="evenodd" clip-rule="evenodd" d="M137.142 74.658C135.904 76.4646 134.399 74.658 134.008 75.05C133.616 75.442 132.44 76.6166 130.874 76.8126C129.307 77.0086 125.39 76.4206 124.41 76.0286C123.5 75.666 121.668 75.05 121.08 76.0286C120.492 77.0086 120.492 77.0086 120.296 75.6366C120.102 74.266 119.514 71.1326 120.296 70.1526C121.08 69.174 124.802 67.4113 127.348 67.4113C129.895 67.4113 132.754 67.9126 133.812 68.586C135.967 69.9566 138.156 73.1766 137.142 74.658Z" fill="#DD9F78"/>
<path fill-rule="evenodd" clip-rule="evenodd" d="M98.4153 74.6579C99.6526 76.4645 101.158 74.6579 101.549 75.0499C101.941 75.4419 103.117 76.6165 104.683 76.8125C106.25 77.0085 110.111 76.4205 111.091 76.4205C112.07 76.4205 113.889 75.0499 114.477 76.0285C115.063 77.0085 115.063 77.0085 115.261 75.6365C115.455 74.2659 116.043 71.1325 115.261 70.1525C114.477 69.1739 110.755 67.4112 108.209 67.4112C105.662 67.4112 102.803 67.9125 101.745 68.5859C99.59 69.9565 97.4006 73.1765 98.4153 74.6579Z" fill="#DD9F78"/>
<mask id="mask5_238_5167" style="mask-type:luminance" maskUnits="userSpaceOnUse" x="124" y="71" width="8" height="3">
<path d="M124.625 71.7199H131.657V73.9519H124.625V71.7199Z" fill="white"/>
</mask>
<g mask="url(#mask5_238_5167)">
<g opacity="0.559998">
<path fill-rule="evenodd" clip-rule="evenodd" d="M131.657 73.2868C131.43 73.4375 130.417 73.7681 129.306 73.8748C127.538 74.0428 125.434 73.9188 125.193 73.6788C124.802 73.2868 124.332 73.1161 124.861 73.0055C125.389 72.8948 126.173 72.1121 127.348 71.9161C128.524 71.7201 129.698 71.5241 130.678 72.1121C131.657 72.6988 131.657 73.2868 131.657 73.2868Z" fill="white"/>
</g>
</g>
<mask id="mask6_238_5167" style="mask-type:luminance" maskUnits="userSpaceOnUse" x="104" y="71" width="8" height="3">
<path d="M104.627 71.7986H111.483V73.9519H104.627V71.7986Z" fill="white"/>
</mask>
<g mask="url(#mask6_238_5167)">
<g opacity="0.559998">
<path fill-rule="evenodd" clip-rule="evenodd" d="M104.627 73.2868C104.854 73.4375 105.69 73.7681 106.801 73.8748C108.569 74.0428 110.673 73.9188 110.914 73.6788C111.306 73.2868 111.775 73.1161 111.246 73.0055C110.718 72.8948 109.934 72.1121 108.759 71.9161C107.585 71.7201 106.586 71.7201 105.606 72.3081C104.627 72.8948 104.627 73.2868 104.627 73.2868Z" fill="white"/>
</g>
</g>
<path fill-rule="evenodd" clip-rule="evenodd" d="M126.369 72.7753C126.369 73.5753 127.246 74.2219 128.328 74.2219C129.409 74.2219 130.286 73.5753 130.286 72.7753C130.286 71.9766 129.409 71.3286 128.328 71.3286C127.246 71.3286 126.369 71.9766 126.369 72.7753Z" fill="#543933"/>
<mask id="mask7_238_5167" style="mask-type:luminance" maskUnits="userSpaceOnUse" x="126" y="71" width="5" height="4">
<path d="M126.565 71.3279H130.09V74.0706H126.565V71.3279Z" fill="white"/>
</mask>
<g mask="url(#mask7_238_5167)">
<g opacity="0.509995">
<path fill-rule="evenodd" clip-rule="evenodd" d="M126.565 72.6992C126.565 73.4565 127.354 74.0698 128.327 74.0698C129.301 74.0698 130.09 73.4565 130.09 72.6992C130.09 71.9418 129.301 71.3285 128.327 71.3285C127.354 71.3285 126.565 71.9418 126.565 72.6992Z" fill="#137A96"/>
</g>
</g>
<path fill-rule="evenodd" clip-rule="evenodd" d="M105.803 72.823C105.803 73.6203 106.68 74.2656 107.761 74.2656C108.843 74.2656 109.72 73.6203 109.72 72.823C109.72 72.0256 108.843 71.3803 107.761 71.3803C106.68 71.3803 105.803 72.0256 105.803 72.823Z" fill="#543933"/>
<mask id="mask8_238_5167" style="mask-type:luminance" maskUnits="userSpaceOnUse" x="105" y="71" width="5" height="4">
<path d="M105.998 71.3279H109.524V74.0706H105.998V71.3279Z" fill="white"/>
</mask>
<g mask="url(#mask8_238_5167)">
<g opacity="0.509995">
<path fill-rule="evenodd" clip-rule="evenodd" d="M105.998 72.6992C105.998 73.4565 106.788 74.0698 107.761 74.0698C108.734 74.0698 109.524 73.4565 109.524 72.6992C109.524 71.9418 108.734 71.3285 107.761 71.3285C106.788 71.3285 105.998 71.9418 105.998 72.6992Z" fill="#137A96"/>
</g>
</g>
<mask id="mask9_238_5167" style="mask-type:luminance" maskUnits="userSpaceOnUse" x="127" y="71" width="2" height="2">
<path d="M127.841 71.8294H128.915V72.3081H127.841V71.8294Z" fill="white"/>
</mask>
<g mask="url(#mask9_238_5167)">
<g opacity="0.889999">
<path fill-rule="evenodd" clip-rule="evenodd" d="M128.915 71.9159C128.915 72.1119 128.327 72.3079 128.131 72.3079C127.936 72.3079 127.63 72.0959 128.058 71.9159C128.523 71.7199 128.915 71.9159 128.915 71.9159Z" fill="white"/>
</g>
</g>
<mask id="mask10_238_5167" style="mask-type:luminance" maskUnits="userSpaceOnUse" x="126" y="72" width="2" height="2">
<path d="M126.904 72.6986H127.936V73.5359H126.904V72.6986Z" fill="white"/>
</mask>
<g mask="url(#mask10_238_5167)">
<g opacity="0.889999">
<path fill-rule="evenodd" clip-rule="evenodd" d="M127.348 72.6992C127.74 72.6992 127.936 72.8952 127.936 73.0912C127.936 73.2872 127.936 73.6779 127.544 73.4832C127.152 73.2872 126.76 73.0912 126.956 72.8952C127.152 72.6992 127.348 72.6992 127.348 72.6992Z" fill="white"/>
</g>
</g>
<mask id="mask11_238_5167" style="mask-type:luminance" maskUnits="userSpaceOnUse" x="107" y="71" width="2" height="2">
<path d="M107.471 71.8294H108.545V72.3081H107.471V71.8294Z" fill="white"/>
</mask>
<g mask="url(#mask11_238_5167)">
<g opacity="0.889999">
<path fill-rule="evenodd" clip-rule="evenodd" d="M108.545 71.9159C108.545 72.1119 107.957 72.3079 107.761 72.3079C107.566 72.3079 107.259 72.0959 107.687 71.9159C108.153 71.7199 108.545 71.9159 108.545 71.9159Z" fill="white"/>
</g>
</g>
<mask id="mask12_238_5167" style="mask-type:luminance" maskUnits="userSpaceOnUse" x="106" y="72" width="2" height="2">
<path d="M106.338 72.8946H107.37V73.7319H106.338V72.8946Z" fill="white"/>
</mask>
<g mask="url(#mask12_238_5167)">
<g opacity="0.889999">
<path fill-rule="evenodd" clip-rule="evenodd" d="M106.782 72.895C107.174 72.895 107.37 73.091 107.37 73.287C107.37 73.483 107.37 73.8737 106.978 73.679C106.586 73.483 106.194 73.287 106.39 73.091C106.586 72.895 106.782 72.895 106.782 72.895Z" fill="white"/>
</g>
</g>
<path fill-rule="evenodd" clip-rule="evenodd" d="M127.74 72.6991C127.74 72.9698 128.003 73.1885 128.328 73.1885C128.652 73.1885 128.915 72.9698 128.915 72.6991C128.915 72.4285 128.652 72.2098 128.328 72.2098C128.003 72.2098 127.74 72.4285 127.74 72.6991Z" fill="#543933"/>
<mask id="mask13_238_5167" style="mask-type:luminance" maskUnits="userSpaceOnUse" x="126" y="80" width="8" height="5">
<path d="M126.103 80.3906H133.921V84.6572H126.103V80.3906Z" fill="white"/>
</mask>
<g mask="url(#mask13_238_5167)">
<g opacity="0.419998">
<path fill-rule="evenodd" clip-rule="evenodd" d="M133.812 80.7297C134.204 82.1003 133.616 84.843 130.873 84.647C128.132 84.451 125.193 83.6683 126.369 83.0803C127.544 82.4923 130.761 82.3483 131.461 81.1217C132.245 79.751 133.812 80.7297 133.812 80.7297Z" fill="#FDEECE"/>
</g>
</g>
<mask id="mask14_238_5167" style="mask-type:luminance" maskUnits="userSpaceOnUse" x="102" y="80" width="9" height="5">
<path d="M102.403 80.3906H110.221V84.6572H102.403V80.3906Z" fill="white"/>
</mask>
<g mask="url(#mask14_238_5167)">
<g opacity="0.419998">
<path fill-rule="evenodd" clip-rule="evenodd" d="M102.512 80.7297C102.12 82.1003 102.708 84.843 105.45 84.647C108.192 84.451 111.131 83.6683 109.955 83.0803C108.78 82.4923 105.563 82.3483 104.863 81.1217C104.079 79.751 102.512 80.7297 102.512 80.7297Z" fill="#FDEECE"/>
</g>
</g>
<mask id="mask15_238_5167" style="mask-type:luminance" maskUnits="userSpaceOnUse" x="116" y="79" width="4" height="7">
<path d="M116.575 79.5173H119.129V85.0386H116.575V79.5173Z" fill="white"/>
</mask>
<g mask="url(#mask15_238_5167)">
<g opacity="0.419998">
<path fill-rule="evenodd" clip-rule="evenodd" d="M119.122 83.5907C118.951 85.0627 118.143 85.2427 117.359 84.876C116.575 84.508 116.379 83.04 116.771 81.204C117.163 79.3693 117.751 79.1853 117.947 79.9187C118.143 80.6533 119.232 82.6387 119.122 83.5907Z" fill="#FDEECE"/>
</g>
</g>
<mask id="mask16_238_5167" style="mask-type:luminance" maskUnits="userSpaceOnUse" x="121" y="73" width="14" height="5">
<path d="M121.472 73.2866H134.008V77.3999H121.472V73.2866Z" fill="white"/>
</mask>
<g mask="url(#mask16_238_5167)">
<g opacity="0.380005">
<path fill-rule="evenodd" clip-rule="evenodd" d="M134.008 75.2598C133.249 74.1678 133.136 73.9491 132.529 74.1678C131.924 74.3864 130.976 75.4784 129.838 75.2598C128.702 75.0411 126.238 75.2598 125.292 74.6051C124.344 73.9491 123.06 73.3544 122.565 73.3238C122.07 73.2944 121.312 73.0758 121.502 74.1678C121.692 75.2598 121.502 75.6971 122.26 75.6971C123.017 75.6971 123.781 75.8211 125.2 76.5224C126.618 77.2251 130.408 77.6624 131.544 77.2251C132.681 76.7878 134.008 75.2598 134.008 75.2598Z" fill="#F9CFA6"/>
</g>
</g>
<mask id="mask17_238_5167" style="mask-type:luminance" maskUnits="userSpaceOnUse" x="101" y="73" width="14" height="5">
<path d="M101.885 73.2866H114.421V77.3826H101.885V73.2866Z" fill="white"/>
</mask>
<g mask="url(#mask17_238_5167)">
<g opacity="0.380005">
<path fill-rule="evenodd" clip-rule="evenodd" d="M101.885 75.2597C102.644 74.1677 102.757 73.9491 103.364 74.1677C103.969 74.3864 104.917 75.4784 106.055 75.2597C107.191 75.0411 109.655 75.2597 110.601 74.6051C111.549 73.9491 112.833 73.3544 113.328 73.3237C113.823 73.2944 114.581 73.0757 114.391 74.1677C114.201 75.2597 114.391 75.6971 113.633 75.6971C112.876 75.6971 113.685 75.7184 112.267 76.4211C110.848 77.1224 105.485 77.6624 104.349 77.2251C103.212 76.7877 101.885 75.2597 101.885 75.2597Z" fill="#F9CFA6"/>
</g>
</g>
<mask id="mask18_238_5167" style="mask-type:luminance" maskUnits="userSpaceOnUse" x="120" y="82" width="3" height="5">
<path d="M120.7 82.2841H122.949V86.0481H120.7V82.2841Z" fill="white"/>
</mask>
<g mask="url(#mask18_238_5167)">
<g opacity="0.380005">
<path fill-rule="evenodd" clip-rule="evenodd" d="M121.864 82.6887C122.452 82.8847 123.234 83.4727 122.842 84.4514C122.452 85.4314 122.256 86.2141 121.864 86.0181C121.472 85.8221 121.472 85.6261 121.08 85.2354C120.11 84.2661 121.276 82.1007 121.472 82.2967L121.864 82.6887Z" fill="#F9CFA6"/>
</g>
</g>
<mask id="mask19_238_5167" style="mask-type:luminance" maskUnits="userSpaceOnUse" x="112" y="82" width="3" height="5">
<path d="M112.669 82.2841H114.918V86.0481H112.669V82.2841Z" fill="white"/>
</mask>
<g mask="url(#mask19_238_5167)">
<g opacity="0.380005">
<path fill-rule="evenodd" clip-rule="evenodd" d="M113.754 82.6887C113.166 82.8847 112.383 83.4727 112.775 84.4514C113.166 85.4314 113.362 86.2141 113.754 86.0181C114.146 85.8221 114.146 85.6261 114.538 85.2354C115.507 84.2661 114.342 82.1007 114.146 82.2967C113.95 82.4927 113.754 82.6887 113.754 82.6887Z" fill="#F9CFA6"/>
</g>
</g>
<path fill-rule="evenodd" clip-rule="evenodd" d="M125.977 94.6363C126.177 94.7443 127.717 94.3256 127.74 94.6363C127.796 95.387 125.633 97.607 124.802 98.1616C123.626 98.9456 123.038 99.7283 121.864 99.3376C120.689 98.9456 119.444 97.9243 120.066 97.2603C120.689 96.595 125.977 94.6363 125.977 94.6363Z" fill="#F9CFA6"/>
<path fill-rule="evenodd" clip-rule="evenodd" d="M109.814 94.3426C109.614 94.4506 108.074 94.0319 108.051 94.3426C107.995 95.0933 110.158 97.3146 110.988 97.8679C112.164 98.6519 112.752 99.4359 113.927 99.0439C115.102 98.6519 116.347 97.6306 115.724 96.9666C115.102 96.3013 109.814 94.3426 109.814 94.3426Z" fill="#F9CFA6"/>
<path fill-rule="evenodd" clip-rule="evenodd" d="M108.153 94.4405C107.734 93.9619 114.617 92.0899 117.277 92.8552C118.389 93.1739 119.481 92.7605 120.493 92.6779C122.934 92.4792 128.409 94.3059 127.74 94.6365C127.072 94.9672 108.153 94.4405 108.153 94.4405Z" fill="#F9CFA6"/>
<path fill-rule="evenodd" clip-rule="evenodd" d="M125.585 94.8322C124.607 95.4202 122.06 96.9869 120.884 97.1829C119.709 97.3789 117.573 97.1829 116.576 97.1829C115.596 97.1829 114.421 96.9869 113.833 96.7909C113.245 96.5949 110.112 94.8322 110.112 94.4402C110.112 94.0482 109.545 94.6949 110.895 94.4402C112.245 94.1869 117.947 94.4402 119.513 94.4402C121.08 94.4402 124.997 94.6362 125.977 94.6362C126.956 94.6362 125.585 94.8322 125.585 94.8322Z" fill="#DD9F78"/>
<path fill-rule="evenodd" clip-rule="evenodd" d="M127.74 94.6364C127.74 94.8031 127.519 94.8751 127.188 94.8937C126.354 94.9377 124.83 94.6364 124.41 94.6364C123.823 94.6364 121.668 94.6364 120.689 94.8324C119.709 95.0284 119.317 95.4204 118.339 95.2244C117.358 95.0284 116.576 95.0284 115.4 94.8324C114.225 94.6364 112.07 94.4404 111.286 94.6364C110.504 94.8324 109.012 94.5817 108.741 94.6364C107.761 94.8324 107.761 94.4404 108.153 94.4404C108.545 94.4404 112.463 93.0697 114.225 93.0697C115.988 93.0697 116.576 93.2657 117.75 93.4617C118.925 93.6577 119.317 93.0697 120.884 93.0697C122.452 93.0697 127.74 94.4404 127.74 94.6364Z" fill="#B46E4B"/>
<path fill-rule="evenodd" clip-rule="evenodd" d="M114.029 70.9366C114.617 71.3286 115.204 72.6993 114.813 73.2873C114.421 73.874 113.05 73.4833 112.266 73.4833C111.482 73.4833 110.961 72.8313 110.112 72.3073C109.144 71.7113 106.39 71.5246 105.41 72.3073C104.545 72.9993 104.824 73.4833 103.844 73.874C102.865 74.266 103.256 73.874 103.061 73.6793C102.865 73.4833 103.256 72.3073 105.214 71.7206C106.19 71.4273 107.961 71.0846 109.328 71.3286C110.705 71.574 111.678 72.3073 112.266 72.5033C113.032 72.7593 113.637 72.6993 113.441 71.7206C113.245 70.7406 112.462 70.1526 113.245 70.5446L114.029 70.9366Z" fill="#B46E4B"/>
<path fill-rule="evenodd" clip-rule="evenodd" d="M103.648 73.9522C103.958 74.0708 103.958 74.2655 104.339 73.8748C104.72 73.4828 104.751 72.9868 105.307 72.5482C105.863 72.1122 106.572 71.6815 107.838 71.7988C109.103 71.9162 109.751 72.2375 110.308 72.5028C110.994 72.8295 111.776 73.5735 111.679 73.4828C111.514 73.3268 110.406 72.1455 109.564 72.0308C108.722 71.9162 108.151 71.5242 107.007 71.7202C105.863 71.9162 104.72 72.5028 104.53 72.8948C104.339 73.2868 103.648 73.9522 103.648 73.9522Z" fill="#543933"/>
<path fill-rule="evenodd" clip-rule="evenodd" d="M133.616 73.6786C133.812 74.0706 134.008 74.2666 133.224 74.0706C132.441 73.8746 131.657 72.3079 130.678 72.1119C129.698 71.9159 129.11 71.3279 127.74 71.9159C126.369 72.5039 125.193 72.8946 124.606 73.0906C124.018 73.2866 124.214 73.8746 123.43 73.6786C122.648 73.4826 121.864 73.2866 121.472 72.8946C121.08 72.5039 120.689 72.6999 120.884 71.7199C121.08 70.7399 121.08 69.9572 121.668 70.1532C122.256 70.3492 121.668 70.7399 122.06 71.5239C122.452 72.3079 122.256 72.6999 123.43 72.1119C124.606 71.5239 125.193 71.3279 126.565 71.3279C127.936 71.3279 130.482 71.1319 131.657 71.7199C132.832 72.3079 133.616 73.6786 133.616 73.6786Z" fill="#B46E4B"/>
<path fill-rule="evenodd" clip-rule="evenodd" d="M132.954 73.9522C132.637 74.0708 132.637 74.2655 132.245 73.8748C131.853 73.4828 131.821 72.9868 131.25 72.5482C130.678 72.1122 129.95 71.6815 128.649 71.7988C127.348 71.9162 126.63 72.4375 126.01 72.5682C125.39 72.6988 124.192 73.3002 124.398 73.1948C124.606 73.0908 126.01 72.1455 126.876 72.0308C127.74 71.9162 128.328 71.5242 129.502 71.7202C130.678 71.9162 131.853 72.5028 132.049 72.8948C132.245 73.2868 132.954 73.9522 132.954 73.9522Z" fill="#543933"/>
<path fill-rule="evenodd" clip-rule="evenodd" d="M107.174 72.797C107.174 73.0677 107.436 73.2864 107.762 73.2864C108.086 73.2864 108.348 73.0677 108.348 72.797C108.348 72.5264 108.086 72.3077 107.762 72.3077C107.436 72.3077 107.174 72.5264 107.174 72.797Z" fill="#543933"/>
<mask id="mask20_238_5167" style="mask-type:luminance" maskUnits="userSpaceOnUse" x="117" y="93" width="3" height="3">
<path d="M117.27 93.3747H119.759V95.0454H117.27V93.3747Z" fill="white"/>
</mask>
<g mask="url(#mask20_238_5167)">
<g opacity="0.380005">
<path fill-rule="evenodd" clip-rule="evenodd" d="M119.709 93.4613C119.905 94.0493 119.513 94.832 118.731 95.028C117.947 95.224 116.967 93.6573 117.359 93.6573C117.751 93.6573 118.925 93.6573 119.317 93.4613C119.709 93.2653 119.709 93.4613 119.709 93.4613Z" fill="#F9CFA6"/>
</g>
</g>
<path fill-rule="evenodd" clip-rule="evenodd" d="M119.709 120.687C121.08 121.862 122.647 124.212 121.472 125.78C120.297 127.347 119.513 128.522 118.143 127.738C116.772 126.955 114.617 122.254 115.988 121.862C117.359 121.471 119.709 120.687 119.709 120.687Z" fill="#2A2A2A"/>
<path fill-rule="evenodd" clip-rule="evenodd" d="M87.9786 115.986C86.9319 115.602 84.7813 115.463 83.4959 115.587L59.9919 122.638L60.5573 128.718L84.8453 121.078C86.5093 119.573 87.4386 117.839 87.9786 115.986Z" fill="black"/>
<path d="M83.8654 117.749L79.7521 122.058L75.4427 121.666L74.6601 122.45V123.821L72.3094 124.409L71.9174 122.841L73.4841 121.078L71.5254 120.882L71.3294 119.315L73.4841 118.727L73.9094 119.638L75.2467 119.707L77.5974 117.357L83.8654 117.749Z" fill="#FFCB00"/>
<path d="M70.5462 119.511L71.3302 124.799L68.9796 125.583L68.1956 120.295L70.5462 119.511Z" fill="#FFCB00"/>
<path d="M80.1438 118.924L78.9692 120.295H77.0105L78.3812 118.924H80.1438Z" fill="black"/>
<path fill-rule="evenodd" clip-rule="evenodd" d="M149.504 115.986C150.55 115.602 152.701 115.463 153.986 115.587L177.49 122.638L176.925 128.718L152.637 121.078C150.973 119.573 150.044 117.839 149.504 115.986Z" fill="black"/>
<path d="M153.617 117.749L157.73 122.058L162.04 121.666L162.822 122.45V123.821L165.173 124.409L165.565 122.841L163.998 121.078L165.957 120.882L166.153 119.315L163.998 118.727L163.573 119.638L162.236 119.707L159.885 117.357L153.617 117.749Z" fill="#FFCB00"/>
<path d="M166.936 119.511L166.152 124.799L168.503 125.583L169.287 120.295L166.936 119.511Z" fill="#FFCB00"/>
<path d="M170.07 120.491L169.091 125.779L171.832 126.563L172.616 121.275L170.07 120.491Z" fill="#FFCB00"/>
<path d="M173.204 121.47L172.42 126.758L174.966 127.542L175.554 122.254L173.204 121.47Z" fill="#FFCB00"/>
<path d="M157.339 118.924L158.513 120.295H160.472L159.101 118.924H157.339Z" fill="black"/>
<path fill-rule="evenodd" clip-rule="evenodd" d="M139.296 83.8638C136.523 86.6371 140.08 89.7398 138.121 92.2864C136.163 94.8318 135.771 99.5331 133.028 100.708C130.287 101.884 128.523 104.234 127.348 105.997C126.173 107.76 122.256 110.501 120.688 109.914C119.121 109.326 119.317 108.542 118.925 107.76C118.533 106.976 118.925 103.058 117.947 102.668C116.967 102.276 116.771 100.708 116.184 102.668C115.596 104.626 115.988 107.368 114.029 108.152C112.071 108.934 111.679 110.501 110.699 108.348C109.72 106.193 110.504 105.409 108.153 104.234C105.803 103.058 103.06 102.668 102.277 99.7291C101.493 96.7904 99.1428 95.2238 98.7508 92.2864C98.3601 89.3478 98.5561 83.2758 97.7721 83.8638C96.9881 84.4518 96.2054 88.9558 96.9881 92.4824C97.7721 96.0078 98.3401 98.6211 99.7308 100.708C101.297 103.058 106.195 106.78 106.391 107.564C106.587 108.348 107.957 109.914 109.916 111.285C111.875 112.656 113.245 113.44 115.204 113.832C117.163 114.224 121.08 113.832 123.235 112.656C125.389 111.481 129.973 107.485 132.245 105.213C134.791 102.668 135.771 102.276 136.945 100.317C138.121 98.3584 140.471 92.2864 140.471 90.1318C140.471 87.9771 139.884 83.2758 139.296 83.8638Z" fill="#543933"/>
<path fill-rule="evenodd" clip-rule="evenodd" d="M120.884 97.5743C120.884 96.7903 115.204 96.7903 114.616 97.3783C114.03 97.9663 116.183 99.533 117.751 99.533C119.318 99.533 120.884 98.573 120.884 97.5743Z" fill="#543933"/>
<path fill-rule="evenodd" clip-rule="evenodd" d="M126.956 93.0697C124.802 91.111 121.276 91.307 119.906 91.111C118.534 90.915 118.73 88.5643 117.555 88.9563C116.379 89.3483 116.771 90.523 115.008 91.111C113.246 91.699 111.091 91.895 109.916 92.6777C108.74 93.4617 106.978 94.0483 108.152 94.0483C109.328 94.0483 112.854 92.8737 114.812 92.6777C116.771 92.4817 119.318 92.6777 120.492 92.6777C121.668 92.6777 124.606 93.0697 125.782 93.2657C126.956 93.4617 126.956 93.0697 126.956 93.0697Z" fill="#543933"/>
<path fill-rule="evenodd" clip-rule="evenodd" d="M136.652 73.3846C136.358 74.0699 134.986 72.8952 134.596 72.5032C134.204 72.1112 134.596 71.1326 133.42 70.5446C132.245 69.9566 132.637 69.3699 130.482 69.5646C128.328 69.7606 124.606 69.9566 123.43 70.3486C122.256 70.7406 121.668 70.9366 121.472 70.1526C121.276 69.3699 121.08 68.9779 121.864 68.3899C122.648 67.8019 128.132 67.0192 130.09 67.4112C132.049 67.8019 132.97 68.1672 134.402 69.0072C136.358 70.1526 136.652 73.3846 136.652 73.3846Z" fill="#543933"/>
<path fill-rule="evenodd" clip-rule="evenodd" d="M98.9678 73.3846C99.2612 74.07 100.515 72.5033 100.905 72.1113C101.297 71.7193 101.101 70.9366 102.277 70.3486C103.452 69.7606 103.452 69.5646 105.137 69.5646C107.301 69.5646 111.013 69.9566 112.189 70.3486C113.364 70.7406 113.952 70.9366 114.148 70.1526C114.344 69.37 114.54 68.978 113.756 68.39C112.972 67.802 107.488 67.0193 105.529 67.4113C103.571 67.802 102.649 68.1673 101.217 69.0073C99.2612 70.1526 98.9678 73.3846 98.9678 73.3846Z" fill="#543933"/>
</g>
<path d="M180.535 43.8347L179.408 42.0974H180.396L181.524 43.8347H180.535ZM178.603 41.6841H179.453C179.776 41.6841 180.024 41.6121 180.201 41.4707C180.377 41.3294 180.465 41.1307 180.465 40.8787C180.465 40.6254 180.377 40.4307 180.201 40.2921C180.024 40.1547 179.776 40.0854 179.453 40.0854H178.603V41.6841ZM177.624 43.8347V39.3027H179.511C180.109 39.3027 180.577 39.4441 180.915 39.7281C181.252 40.0121 181.42 40.3961 181.42 40.8787C181.42 41.3774 181.252 41.7641 180.915 42.0401C180.577 42.3161 180.109 42.4534 179.511 42.4534H178.613V43.8347H177.624ZM179.304 44.9961C179.795 44.9961 180.247 44.9081 180.661 44.7321C181.075 44.5561 181.437 44.3121 181.748 44.0014C182.059 43.6907 182.299 43.3241 182.467 42.9027C182.636 42.4814 182.72 42.0294 182.72 41.5454C182.72 41.0627 182.636 40.6134 182.467 40.2001C182.299 39.7867 182.063 39.4254 181.76 39.1187C181.457 38.8121 181.1 38.5721 180.691 38.4001C180.28 38.2281 179.829 38.1401 179.339 38.1401C178.848 38.1401 178.393 38.2281 177.976 38.4001C177.557 38.5721 177.197 38.8161 176.895 39.1307C176.591 39.4441 176.353 39.8081 176.181 40.2241C176.008 40.6374 175.923 41.0854 175.923 41.5681C175.923 42.0521 176.007 42.5014 176.176 42.9147C176.344 43.3281 176.581 43.6921 176.889 44.0067C177.195 44.3214 177.556 44.5654 177.969 44.7374C178.384 44.9107 178.828 44.9961 179.304 44.9961ZM179.316 45.6294C178.74 45.6294 178.207 45.5254 177.716 45.3187C177.225 45.1121 176.796 44.8227 176.428 44.4494C176.06 44.0787 175.775 43.6467 175.572 43.1561C175.368 42.6654 175.267 42.1361 175.267 41.5681C175.267 41.0014 175.371 40.4721 175.577 39.9814C175.784 39.4907 176.072 39.0587 176.44 38.6867C176.808 38.3161 177.239 38.0254 177.733 37.8187C178.228 37.6121 178.763 37.5094 179.339 37.5094C179.913 37.5094 180.448 37.6094 180.943 37.8134C181.437 38.0161 181.867 38.3014 182.231 38.6707C182.596 39.0387 182.879 39.4667 183.083 39.9534C183.285 40.4401 183.387 40.9707 183.387 41.5454C183.387 42.1214 183.284 42.6547 183.076 43.1507C182.869 43.6441 182.58 44.0787 182.208 44.4494C181.836 44.8227 181.405 45.1121 180.915 45.3187C180.423 45.5254 179.891 45.6294 179.316 45.6294Z" fill="#8C734B"/>
<path d="M73.8899 187.526L69.8365 182.147L71.9792 180.825L76.9779 187.526H73.8899ZM72.2312 182.231L69.7725 181.938L73.8899 176.307H76.7059L72.2312 182.231ZM67.6925 180.846H71.4939V183.03H67.6925V180.846ZM65.8445 176.307H68.4699V187.526H65.8445V176.307Z" fill="white"/>
<path d="M89.6255 187.526V185.256L89.4775 184.774V180.803C89.4775 180.032 89.2468 179.435 88.7855 179.007C88.3228 178.58 87.6215 178.366 86.6841 178.366C86.0548 178.366 85.4335 178.464 84.8255 178.66C84.2161 178.856 83.7015 179.13 83.2815 179.48L82.2521 177.568C82.8535 177.106 83.5721 176.759 84.4055 176.528C85.2375 176.296 86.1028 176.182 87.0001 176.182C88.6241 176.182 89.8815 176.57 90.7708 177.348C91.6588 178.124 92.1041 179.326 92.1041 180.95V187.526H89.6255ZM86.0961 187.674C85.2561 187.674 84.5201 187.53 83.8908 187.243C83.2601 186.955 82.7735 186.556 82.4295 186.046C82.0868 185.534 81.9148 184.956 81.9148 184.311C81.9148 183.682 82.0655 183.114 82.3668 182.61C82.6681 182.106 83.1615 181.706 83.8481 181.412C84.5335 181.119 85.4441 180.971 86.5788 180.971H89.8361V182.715H86.7681C85.8721 182.715 85.2695 182.858 84.9615 183.146C84.6535 183.432 84.4988 183.786 84.4988 184.207C84.4988 184.683 84.6881 185.06 85.0668 185.342C85.4441 185.62 85.9695 185.76 86.6415 185.76C87.2868 185.76 87.8641 185.614 88.3761 185.32C88.8868 185.026 89.2548 184.592 89.4775 184.018L89.9188 185.594C89.6668 186.251 89.2148 186.762 88.5641 187.126C87.9135 187.491 87.0908 187.674 86.0961 187.674Z" fill="white"/>
<path d="M99.5612 187.526V176.307H110.317V187.526H107.713V177.925L108.321 178.535H101.579L102.187 177.925V187.526H99.5612Z" fill="white"/>
<path d="M118.069 187.526V176.307H120.694V183.703L126.893 176.307H129.288V187.526H126.661V180.131L120.485 187.526H118.069Z" fill="white"/>
<path d="M139.351 187.526V177.905L139.96 178.535H135.401V176.307H145.905V178.535H141.368L141.976 177.905V187.526H139.351Z" fill="white"/>
<path d="M158.824 187.526V185.256L158.676 184.774V180.803C158.676 180.032 158.446 179.435 157.984 179.007C157.522 178.58 156.82 178.366 155.883 178.366C155.254 178.366 154.632 178.464 154.024 178.66C153.415 178.856 152.9 179.13 152.48 179.48L151.451 177.568C152.052 177.106 152.771 176.759 153.604 176.528C154.436 176.296 155.302 176.182 156.199 176.182C157.823 176.182 159.08 176.57 159.97 177.348C160.858 178.124 161.303 179.326 161.303 180.95V187.526H158.824ZM155.295 187.674C154.455 187.674 153.719 187.53 153.09 187.243C152.459 186.955 151.972 186.556 151.628 186.046C151.286 185.534 151.114 184.956 151.114 184.311C151.114 183.682 151.264 183.114 151.566 182.61C151.867 182.106 152.36 181.706 153.047 181.412C153.732 181.119 154.643 180.971 155.778 180.971H159.035V182.715H155.967C155.071 182.715 154.468 182.858 154.16 183.146C153.852 183.432 153.698 183.786 153.698 184.207C153.698 184.683 153.887 185.06 154.266 185.342C154.643 185.62 155.168 185.76 155.84 185.76C156.486 185.76 157.063 185.614 157.575 185.32C158.086 185.026 158.454 184.592 158.676 184.018L159.118 185.594C158.866 186.251 158.414 186.762 157.763 187.126C157.112 187.491 156.29 187.674 155.295 187.674Z" fill="white"/>
<path d="M168.761 187.526V176.307H171.386V180.867H177.038V176.307H179.664V187.526H177.038V183.093H171.386V187.526H168.761Z" fill="white"/>
<path d="M33.1125 225.049H41.6539C43.4445 225.049 44.8045 224.676 45.7325 223.929C46.6592 223.183 47.1245 222.029 47.1245 220.468C47.1245 218.975 46.6592 217.864 45.7325 217.133C44.8045 216.405 43.4445 216.04 41.6539 216.04H33.1125V225.049ZM33.1125 210.288H40.3579C42.0525 210.288 43.3325 209.924 44.1965 209.193C45.0605 208.464 45.4925 207.387 45.4925 205.961C45.4925 204.536 45.0605 203.459 44.1965 202.729C43.3325 202 42.0525 201.635 40.3579 201.635H33.1125V210.288ZM25.3872 231.157V195.525H41.0299C44.9325 195.525 47.9712 196.324 50.1472 197.919C52.3219 199.515 53.4099 201.787 53.4099 204.739C53.4099 207.659 52.3859 209.924 50.3392 211.535C48.2912 213.147 45.5725 213.952 42.1819 213.952L43.0939 211.815C46.8672 211.815 49.7952 212.612 51.8739 214.208C53.9539 215.803 54.9939 218.109 54.9939 221.129C54.9939 224.252 53.8805 226.704 51.6579 228.485C49.4352 230.267 46.1952 231.157 41.9419 231.157H25.3872Z" fill="white"/>
<path d="M79.9343 231.157L69.473 214.004L75.7596 209.983L88.7636 231.157H79.9343ZM76.4796 214.257L69.3303 213.341L80.2223 195.527H88.4263L76.4796 214.257ZM63.5716 209.931H75.2796V216.803H63.5716V209.931ZM58.1023 195.527H65.8276V231.157H58.1023V195.527Z" fill="white"/>
<path d="M93.187 224.438C95.0416 225.016 96.6016 225.177 97.8656 224.921C99.1283 224.668 100.256 223.726 101.248 222.097L102.879 219.501L103.599 218.636L114.731 195.526H122.36L108.062 223.726C106.782 226.27 105.27 228.222 103.527 229.58C101.783 230.937 99.8723 231.708 97.7936 231.896C95.7136 232.082 93.5536 231.682 91.315 230.698L93.187 224.438ZM103.455 225.508L88.2923 195.526H96.5936L107.726 219.45L103.455 225.508Z" fill="white"/>
<path d="M136.513 231.768C133.923 231.768 131.515 231.317 129.292 230.419C127.069 229.52 125.141 228.239 123.511 226.576C121.879 224.913 120.607 222.961 119.695 220.723C118.784 218.483 118.328 216.023 118.328 213.341C118.328 210.661 118.784 208.2 119.695 205.961C120.607 203.721 121.885 201.771 123.533 200.107C125.181 198.445 127.109 197.163 129.316 196.264C131.523 195.365 133.939 194.916 136.561 194.916C139.472 194.916 142.104 195.449 144.455 196.519C146.805 197.587 148.781 199.157 150.38 201.227L145.391 206.113C144.239 204.723 142.959 203.679 141.552 202.983C140.144 202.288 138.609 201.94 136.945 201.94C135.377 201.94 133.939 202.212 132.627 202.755C131.315 203.297 130.18 204.077 129.22 205.095C128.26 206.113 127.517 207.319 126.989 208.709C126.461 210.101 126.197 211.645 126.197 213.341C126.197 215.039 126.461 216.583 126.989 217.973C127.517 219.365 128.26 220.569 129.22 221.588C130.18 222.605 131.315 223.387 132.627 223.929C133.939 224.472 135.377 224.743 136.945 224.743C138.609 224.743 140.144 224.396 141.552 223.7C142.959 223.005 144.239 221.944 145.391 220.519L150.38 225.405C148.781 227.475 146.805 229.053 144.455 230.139C142.104 231.224 139.456 231.768 136.513 231.768Z" fill="white"/>
<path d="M169.577 224.743C171.079 224.743 172.463 224.473 173.727 223.93C174.991 223.387 176.102 222.606 177.062 221.587C178.022 220.57 178.765 219.365 179.293 217.973C179.821 216.583 180.085 215.039 180.085 213.342C180.085 211.645 179.821 210.102 179.293 208.71C178.765 207.318 178.029 206.114 177.086 205.095C176.142 204.078 175.03 203.298 173.751 202.754C172.471 202.211 171.079 201.939 169.577 201.939C168.073 201.939 166.69 202.211 165.426 202.754C164.162 203.298 163.051 204.078 162.091 205.095C161.131 206.114 160.389 207.318 159.861 208.71C159.331 210.102 159.069 211.645 159.069 213.342C159.069 215.005 159.331 216.541 159.861 217.949C160.389 219.357 161.123 220.57 162.067 221.587C163.01 222.606 164.122 223.387 165.402 223.93C166.681 224.473 168.073 224.743 169.577 224.743ZM169.625 231.769C166.969 231.769 164.515 231.31 162.259 230.394C160.005 229.478 158.053 228.189 156.405 226.525C154.757 224.863 153.478 222.911 152.567 220.671C151.655 218.431 151.199 215.989 151.199 213.342C151.199 210.694 151.655 208.251 152.567 206.011C153.478 203.771 154.766 201.821 156.43 200.158C158.091 198.495 160.043 197.206 162.283 196.29C164.522 195.373 166.953 194.915 169.577 194.915C172.231 194.915 174.67 195.373 176.894 196.29C179.117 197.206 181.053 198.495 182.701 200.158C184.347 201.821 185.634 203.765 186.562 205.986C187.49 208.209 187.954 210.661 187.954 213.342C187.954 215.989 187.49 218.441 186.562 220.697C185.634 222.954 184.347 224.905 182.701 226.551C181.053 228.197 179.117 229.478 176.894 230.394C174.67 231.31 172.247 231.769 169.625 231.769Z" fill="white"/>
<path d="M198.619 225.049H207.16C208.951 225.049 210.311 224.676 211.239 223.929C212.166 223.183 212.631 222.029 212.631 220.468C212.631 218.975 212.166 217.864 211.239 217.133C210.311 216.405 208.951 216.04 207.16 216.04H198.619V225.049ZM198.619 210.288H205.864C207.559 210.288 208.839 209.924 209.703 209.193C210.567 208.464 210.999 207.387 210.999 205.961C210.999 204.536 210.567 203.459 209.703 202.729C208.839 202 207.559 201.635 205.864 201.635H198.619V210.288ZM190.894 231.157V195.525H206.536C210.439 195.525 213.478 196.324 215.654 197.919C217.828 199.515 218.916 201.787 218.916 204.739C218.916 207.659 217.892 209.924 215.846 211.535C213.798 213.147 211.079 213.952 207.688 213.952L208.6 211.815C212.374 211.815 215.302 212.612 217.38 214.208C219.46 215.803 220.5 218.109 220.5 221.129C220.5 224.252 219.387 226.704 217.164 228.485C214.942 230.267 211.702 231.157 207.448 231.157H190.894Z" fill="white"/>
</svg>
