<svg width="142" height="55" viewBox="0 0 142 55" fill="none" xmlns="http://www.w3.org/2000/svg">
<path d="M25.378 12.771C15.5352 12.771 7.52783 20.7932 7.52783 30.6541C7.52783 40.515 15.5352 48.5377 25.378 48.5377C35.2207 48.5377 43.2287 40.515 43.2287 30.6541C43.2287 20.7932 35.2207 12.771 25.378 12.771Z" fill="#1D1D1B"/>
<path d="M0 29.9289C0 16.1739 11.1702 4.98312 24.9003 4.98312C38.63 4.98312 49.8001 16.1739 49.8001 29.9289C49.8001 43.6844 38.63 54.8751 24.9003 54.8751C11.1702 54.8751 0 43.6844 0 29.9289Z" fill="#8C734B"/>
<path d="M46.5249 29.9289C46.5249 41.7561 36.9548 51.3439 25.1494 51.3439C13.3445 51.3439 3.77441 41.7561 3.77441 29.9289C3.77441 18.1017 13.3445 8.51398 25.1494 8.51398C36.9548 8.51398 46.5249 18.1017 46.5249 29.9289Z" fill="#282B2C"/>
<mask id="mask0_238_1372" style="mask-type:luminance" maskUnits="userSpaceOnUse" x="3" y="0" width="44" height="52">
<path d="M3.77423 -1.90735e-05V29.9291C3.77423 41.7558 13.3443 51.3435 25.1497 51.3435C36.9546 51.3435 46.5247 41.7558 46.5247 29.9291V-1.90735e-05H3.77423Z" fill="white"/>
</mask>
<g mask="url(#mask0_238_1372)">
<path d="M17.6322 41.7772C17.6777 41.6583 17.6734 41.5606 17.6127 41.4563C17.4566 41.6328 17.4609 41.7121 17.6322 41.7772Z" fill="black"/>
<path d="M17.8511 39.9116C17.7535 39.9399 17.7405 39.998 17.7741 40.0696C17.7795 40.0811 17.824 40.0881 17.837 40.0789C17.8971 40.036 17.9015 39.9806 17.8511 39.9116Z" fill="black"/>
<path d="M17.6866 40.5993C17.6812 40.6275 17.6719 40.6557 17.6709 40.6845C17.6703 40.7068 17.6806 40.729 17.7229 40.7529C17.7272 40.7024 17.7316 40.6519 17.7359 40.602C17.7196 40.6009 17.7028 40.6003 17.6866 40.5993Z" fill="black"/>
<path d="M20.6147 40.7545H20.614L20.6133 40.7525L20.6147 40.7545Z" fill="black"/>
<path fill-rule="evenodd" clip-rule="evenodd" d="M-6.75128 42.4701L-0.221982 40.4761C-0.221982 40.4761 8.93508 37.7636 10.7661 36.9659C12.5976 36.1682 14.8747 32.9708 16.085 32.9741C17.0124 32.9763 21.3915 34.1954 23.3867 34.7645C25.3819 34.1954 29.761 32.9763 30.6884 32.9741C31.8993 32.9708 34.1758 36.1682 36.0073 36.9659C37.8389 37.7636 47.4734 40.0769 47.4734 40.0769L52.8081 44.7036L53.0471 52.1224H-6.27375L-6.75128 42.4701Z" fill="white"/>
<path fill-rule="evenodd" clip-rule="evenodd" d="M34.2556 35.7693C34.2556 35.7693 37.5999 49.0914 37.8384 50.2877C38.0775 51.4846 38.794 51.8832 38.9534 51.4846C39.1128 51.0855 36.2297 37.6395 35.7684 37.0459C35.2112 36.3275 34.2556 35.7693 34.2556 35.7693Z" fill="#BBBBBB"/>
<path fill-rule="evenodd" clip-rule="evenodd" d="M12.445 35.8491C12.445 35.8491 9.14081 49.2511 8.90177 50.4473C8.66273 51.6436 7.94617 52.0428 7.78681 51.6436C7.628 51.2451 10.5523 37.8295 10.9718 37.205C11.5626 36.328 12.445 35.8491 12.445 35.8491Z" fill="#BBBBBB"/>
<path fill-rule="evenodd" clip-rule="evenodd" d="M30.6724 32.9773C31.7874 33.5355 32.4243 38.1627 29.3981 44.4645C26.3725 50.7664 26.6115 50.8462 26.0543 51.0059C25.4966 51.165 28.6019 45.5012 28.4431 44.704C28.2837 43.9057 26.3725 41.0342 25.9747 41.6723C25.5763 42.3103 25.2814 42.9891 24.8716 43.2481C24.4619 43.5072 23.7052 44.2984 23.4862 43.4241C23.2672 42.5498 23.3469 39.2791 23.3469 39.2791C23.3469 39.2791 26.6912 40.7947 27.8853 38.8007C29.08 36.8062 30.6724 32.9773 30.6724 32.9773Z" fill="#BBBBBB"/>
<path fill-rule="evenodd" clip-rule="evenodd" d="M15.5436 33.1368C14.588 33.8547 13.5451 38.1626 16.5707 44.4644C19.5964 50.7663 19.3579 50.8461 19.9151 51.0058C20.4728 51.1654 17.5345 45.8204 17.6933 45.0227C17.8526 44.225 20.1617 41.2736 20.5601 41.9116C20.9579 42.5497 20.688 42.989 21.0978 43.248C21.5076 43.5071 22.2642 44.2983 22.4832 43.424C22.7022 42.5497 22.6225 39.279 22.6225 39.279C22.6225 39.279 19.2782 40.7952 18.0836 38.8006C16.8895 36.8061 15.5436 33.1368 15.5436 33.1368Z" fill="#BBBBBB"/>
<path fill-rule="evenodd" clip-rule="evenodd" d="M30.448 32.7368C30.513 32.658 32.9018 34.6526 28.8409 44.4646L24.6212 38.4017C24.6212 38.4017 27.0972 36.7807 30.448 32.7368Z" fill="white"/>
<path fill-rule="evenodd" clip-rule="evenodd" d="M24.6208 38.4017C23.9839 38.3219 21.3562 38.5614 21.3562 38.5614L20.0027 40.7949L21.8342 43.0283C21.8342 43.0283 20.4006 44.8632 20.0027 51.4844C19.6043 58.1056 26.6914 55.2335 26.3726 51.0853C26.0539 46.9371 24.7802 42.9485 24.7802 42.9485L26.293 40.7949L24.6208 38.4017Z" fill="black"/>
<path fill-rule="evenodd" clip-rule="evenodd" d="M23.8245 43.4275C22.7893 43.4275 22.9486 43.3476 22.6305 43.5073C22.3117 43.6669 21.038 51.8037 21.5952 52.2023C22.1524 52.6014 23.4267 52.6014 23.6652 52.4418C23.9042 52.2821 23.8245 43.4275 23.8245 43.4275Z" fill="#2A2A2A"/>
<path fill-rule="evenodd" clip-rule="evenodd" d="M15.7825 32.8975C15.7175 32.8187 13.2344 35.0511 17.2953 44.8632L21.411 38.6411C21.411 38.6411 19.1334 36.9414 15.7825 32.8975Z" fill="white"/>
<path fill-rule="evenodd" clip-rule="evenodd" d="M31.5483 17.2622C32.1852 17.9052 31.4686 18.2332 31.5483 20.0545C31.6279 21.8753 30.9911 27.1215 30.2745 28.2999C29.5579 29.4782 28.2928 30.3775 27.7264 30.4247C26.7708 30.5046 18.41 30.7636 17.7731 30.2282C17.1362 29.6927 14.9865 27.2561 14.8272 24.043C14.6678 20.8294 14.0309 18.092 14.7475 17.342C15.4641 16.5921 24.7799 16.6242 26.2933 16.6242C27.8061 16.6242 31.5483 17.2622 31.5483 17.2622Z" fill="#F9CFA6"/>
<path fill-rule="evenodd" clip-rule="evenodd" d="M12.5179 21.0912C12.5976 22.0486 12.5976 22.6866 12.8366 23.4045C13.0751 24.1224 13.0751 24.2022 13.2345 24.9201C13.39 25.6212 13.4735 26.1968 13.712 26.3559C13.951 26.5155 14.1066 26.584 14.2698 26.6752C14.4324 26.7664 14.6676 24.9999 14.5083 23.8036C14.3494 22.6068 14.4199 21.5609 14.0264 20.4488C13.6329 19.3361 13.4735 18.6981 13.1548 18.6981C12.8366 18.6981 12.3103 18.5949 12.5179 21.0912Z" fill="#DD9F78"/>
<path fill-rule="evenodd" clip-rule="evenodd" d="M14.0608 21.7822C13.6326 21.8892 13.5529 21.969 13.5529 22.3676C13.5529 22.7668 13.6326 23.5645 14.031 23.8832C14.4288 24.2025 14.8272 24.5213 14.7476 24.1227C14.6679 23.7241 14.0608 21.7822 14.0608 21.7822Z" fill="#B46E4B"/>
<path fill-rule="evenodd" clip-rule="evenodd" d="M14.0956 21.3441C14.0279 21.6411 13.5531 21.4902 13.3937 21.8089C13.2343 22.1282 13.1547 22.6066 13.2343 22.9259C13.314 23.2452 13.9509 23.8833 13.9509 24.4415C13.9509 25.0003 13.7921 24.8407 13.9509 25.1594C14.1103 25.4787 14.8268 26.037 14.5087 26.3563C14.1899 26.675 13.9509 26.8347 13.7921 26.1168C13.6327 25.3989 13.5531 24.6012 13.314 24.1228C13.0755 23.6438 12.9958 23.3251 12.9958 22.6865C12.9958 22.0484 12.8365 21.091 13.0755 20.6925C13.314 20.2933 13.6327 20.3732 13.6327 20.0544C13.6327 19.7351 13.4734 19.3365 13.2343 19.7351C12.9958 20.1342 12.9958 20.9319 12.9162 20.6126C12.8365 20.2933 12.7568 19.0172 13.314 19.0172C13.8718 19.0172 14.1899 20.9319 14.0956 21.3441Z" fill="#B46E4B"/>
<path fill-rule="evenodd" clip-rule="evenodd" d="M33.8632 21.0912C33.7835 22.0486 33.7835 22.6866 33.5445 23.4045C33.306 24.1224 33.306 24.2022 33.1466 24.9201C32.9911 25.6212 32.9076 26.1968 32.6691 26.3559C32.4301 26.5155 32.274 26.584 32.1114 26.6752C31.9487 26.7664 31.7135 24.9999 31.8723 23.8036C32.0317 22.6068 31.9612 21.5609 32.3547 20.4488C32.7482 19.3361 32.9076 18.6981 33.2263 18.6981C33.5445 18.6981 34.0708 18.5949 33.8632 21.0912Z" fill="#DD9F78"/>
<path fill-rule="evenodd" clip-rule="evenodd" d="M32.4045 21.7822C32.8327 21.8892 32.9123 21.969 32.9123 22.3676C32.9123 22.7668 32.8327 23.5645 32.4343 23.8832C32.0364 24.2025 31.638 24.5213 31.7177 24.1227C31.7974 23.7241 32.4045 21.7822 32.4045 21.7822Z" fill="#B46E4B"/>
<path fill-rule="evenodd" clip-rule="evenodd" d="M32.304 21.3441C32.3717 21.6411 32.8466 21.4902 33.0059 21.8089C33.1653 22.1282 33.2449 22.6066 33.1653 22.9259C33.0856 23.2452 32.4487 23.8833 32.4487 24.4415C32.4487 25.0003 32.6075 24.8407 32.4487 25.1594C32.2893 25.4787 31.5728 26.037 31.891 26.3563C32.2097 26.675 32.4487 26.8347 32.6075 26.1168C32.7669 25.3989 32.8466 24.6012 33.0856 24.1228C33.3246 23.6438 33.4038 23.3251 33.4038 22.6865C33.4038 22.0484 33.5387 21.4103 33.2997 21.0118C33.0612 20.6126 32.7669 20.3732 32.7669 20.0544C32.7669 19.7351 32.9262 19.3365 33.1653 19.7351C33.4038 20.1342 33.4038 20.9319 33.4834 20.6126C33.5631 20.2933 33.6428 19.0172 33.0856 19.0172C32.5278 19.0172 32.2097 20.9319 32.304 21.3441Z" fill="#B46E4B"/>
<path fill-rule="evenodd" clip-rule="evenodd" d="M15.9266 31.5323C16.2302 31.9733 16.6026 32.3355 17.2156 32.8182C18.3305 33.6958 18.8081 34.5733 19.4455 35.1315C20.0824 35.6898 20.0027 35.6898 20.6396 36.0889C21.2765 36.4875 22.4711 36.5673 23.7449 36.4077C25.0192 36.248 25.2929 35.8244 25.8154 35.4503C26.3727 35.0517 26.6117 34.6531 27.7261 33.9347C28.7749 33.2597 29.8763 31.8609 30.3539 31.4617C30.4173 31.4091 30.4688 31.3564 30.5127 31.3021L30.4335 33.0572C30.4335 33.0572 30.9848 34.6363 28.9294 36.3495C28.0627 37.0723 26.732 37.8195 24.7005 38.482C19.7404 40.0997 15.7825 35.0517 15.7028 34.1742C15.6231 33.2966 15.9266 31.5323 15.9266 31.5323Z" fill="#DD9F78"/>
<mask id="mask1_238_1372" style="mask-type:luminance" maskUnits="userSpaceOnUse" x="16" y="31" width="7" height="6">
<path d="M16.288 31.9123H22.9575V36.926H16.288V31.9123Z" fill="white"/>
</mask>
<g mask="url(#mask1_238_1372)">
<g opacity="0.619995">
<path fill-rule="evenodd" clip-rule="evenodd" d="M22.9486 36.4872C22.1524 37.6835 19.8433 36.0886 19.2064 35.7693C18.8032 35.5673 18.691 37.1464 18.2319 36.737C17.7728 36.3275 16.7976 35.9436 16.5689 35.059C16.3396 34.1739 16.0166 31.7433 16.6957 31.9214C17.3749 32.0995 23.2137 36.0892 22.9486 36.4872Z" fill="#B46E4B"/>
</g>
</g>
<mask id="mask2_238_1372" style="mask-type:luminance" maskUnits="userSpaceOnUse" x="24" y="32" width="7" height="6">
<path d="M24.0569 32.1517H30.0355V37.0692H24.0569V32.1517Z" fill="white"/>
</mask>
<g mask="url(#mask2_238_1372)">
<g opacity="0.619995">
<path fill-rule="evenodd" clip-rule="evenodd" d="M24.0633 35.2906C24.4612 36.0883 26.7984 35.6892 27.1171 36.0085C27.4353 36.3278 27.6321 37.3856 28.0912 36.9762C28.5503 36.5673 29.5254 36.1834 29.7541 35.2982C29.9834 34.4131 30.3065 31.983 29.6273 32.1612C28.9481 32.3393 23.8498 34.8627 24.0633 35.2906Z" fill="#B46E4B"/>
</g>
</g>
<path d="M8.48754 11.2802C8.68701 9.89163 9.14665 8.59216 9.84533 7.38066C10.886 5.57562 12.3099 4.14366 14.0477 3.02773C16.3817 1.52842 18.9476 0.751343 21.7001 0.627533C22.8492 0.575401 24.0026 0.573772 25.1544 0.646538C25.6943 0.68075 26.2293 0.750801 26.761 0.845287C28.0532 1.07499 29.3021 1.45239 30.4994 1.99814C32.4908 2.90609 34.2139 4.17515 35.5858 5.90524C36.8775 7.53271 37.697 9.37086 37.968 11.449C38.1686 12.9864 38.0206 14.4906 37.5637 15.9665C37.5501 16.01 37.3144 16.5628 37.2878 16.6241C37.0363 17.0928 36.5029 18.7083 33.9267 21.538C33.6724 21.8177 34.4719 18.5378 33.1976 18.6817C32.9629 18.7083 32.8686 19.21 32.7971 19.1986C32.7971 19.1183 31.7304 17.8204 31.6279 17.8204C31.6003 17.7737 31.8913 13.7998 31.8669 13.752C31.577 13.1922 30.5064 10.616 28.5226 9.12541C28.2039 8.88648 26.1903 8.64701 26.1903 8.64701C26.2857 8.24625 26.3252 7.8368 26.3073 7.41976C26.2613 6.33424 25.9144 5.36765 25.1393 4.58134C24.7653 4.2023 24.3192 3.93785 23.8064 3.80372C23.4335 3.70597 23.0503 3.68914 22.6681 3.76353C21.7321 3.94654 21.0692 4.50531 20.5786 5.29759C20.2778 5.78361 20.1071 6.31849 20.0149 6.87781C19.9759 7.11294 19.9759 7.35513 19.964 7.51261C19.9667 7.71788 19.9943 7.91609 20.0008 8.11049C20.0024 8.16805 20.01 8.33476 20.0024 8.3277C19.9298 8.3478 19.7515 8.38907 19.6843 8.40753C19.4035 8.48464 18.4593 8.68828 18.1715 8.80666C17.6945 9.00215 17.3432 9.31819 16.9768 9.68419C16.7112 9.94865 14.5518 13.7406 14.4287 13.9915C14.4022 14.0458 13.929 14.2044 13.8715 14.231C13.3794 14.4601 12.6904 15.1878 12.6774 15.1883C12.5224 15.8242 12.7051 15.9828 12.9956 16.7039C13.0867 16.9304 12.9398 18.5345 12.9956 18.698C12.9956 18.698 12.6774 18.9374 12.5978 19.0971C12.2931 19.7069 12.5734 21.4631 12.5181 21.4104C12.0953 21.0075 11.7023 20.6708 11.3229 20.2222C10.9803 19.8177 10.6183 19.431 10.3337 18.9792C10.1559 18.6969 9.94235 18.4346 9.79058 18.1392C9.55317 17.6776 9.33474 17.203 9.14232 16.7202C8.44418 14.9679 8.2187 13.152 8.48754 11.2802Z" fill="white"/>
<path d="M12.7299 16.0837C12.7445 16.3552 12.8583 16.5692 13.0226 16.9509C13.0188 16.8385 13.0117 16.7446 12.9955 16.7038C12.8881 16.4378 12.796 16.2488 12.7299 16.0837Z" fill="#BBBBBB"/>
<path d="M8.59222 11.7121C8.79169 10.3236 9.25133 9.02414 9.95001 7.81264C10.9907 6.00761 12.4146 4.57564 14.1524 3.45971C16.4864 1.96041 19.0523 1.18333 21.8048 1.05952C22.9539 1.00739 24.1073 1.00576 25.2591 1.07852C25.799 1.11273 26.334 1.18279 26.8657 1.27727C28.1579 1.50698 29.4067 1.88438 30.6041 2.43013C32.5955 3.33807 34.3186 4.60714 35.6905 6.33723C36.6542 7.55145 37.354 8.88296 37.7605 10.3443C37.3778 8.71353 36.6428 7.23757 35.5859 5.90498C34.214 4.17543 32.4909 2.90582 30.4995 1.99787C29.3021 1.45213 28.0533 1.07472 26.7611 0.845021C26.2294 0.750534 25.6944 0.680483 25.1545 0.646272C24.0027 0.574049 22.8492 0.575135 21.7001 0.627266C18.9477 0.751619 16.3817 1.52815 14.0478 3.02746C12.31 4.14393 10.8861 5.57536 9.8454 7.38093C9.14672 8.59244 8.68708 9.89136 8.48761 11.2799C8.2773 12.7428 8.3792 14.1694 8.76188 15.5601C8.47243 14.3057 8.40359 13.0236 8.59222 11.7121Z" fill="#BBBBBB"/>
<path d="M26.3631 8.66882C26.401 8.39948 26.4238 8.12796 26.4119 7.85156C26.3956 7.46818 26.3262 7.10652 26.2292 6.75573C26.2666 6.9724 26.2975 7.19178 26.3073 7.41931C26.3252 7.8369 26.2856 8.24635 26.1902 8.6471C26.1902 8.6471 26.2639 8.65579 26.3631 8.66882Z" fill="#BBBBBB"/>
<path d="M31.9715 14.1843C31.9438 14.1311 31.9026 14.0448 31.8614 13.9584C31.8202 14.7768 31.604 17.7803 31.6278 17.8205C31.6441 17.8205 31.6885 17.8596 31.7438 17.9133C31.7964 16.9478 31.9915 14.2234 31.9715 14.1843Z" fill="#BBBBBB"/>
<path d="M33.9095 19.522C34.0331 20.4288 33.7631 21.718 33.9268 21.5382C33.955 21.5073 33.9751 21.4812 34.0027 21.4508C34.0466 20.892 34.1138 20.0302 33.9095 19.522Z" fill="#BBBBBB"/>
<path d="M19.844 5.40309C19.844 5.40309 19.6045 6.41313 18.4104 7.21084C17.2157 8.00855 14.588 11.2792 14.0308 11.838C13.4735 12.3962 13.3142 12.0769 13.6329 10.8806C13.9511 9.6838 14.7473 8.72644 14.0308 9.12557C13.3142 9.52415 12.2789 12.3962 12.1992 14.2311C12.1196 16.0655 12.6773 18.6183 12.757 18.6981C12.8367 18.7779 12.3586 19.7353 13.5532 16.5444C14.7473 13.3536 16.7008 9.40143 18.3518 8.7449C20.0028 8.08838 19.4944 9.31454 19.9877 7.82392C20.4804 6.3333 19.844 5.40309 19.844 5.40309Z" fill="#BBBBBB"/>
<path d="M26.2974 5.40309C26.2974 5.40309 26.537 6.41313 27.7311 7.21084C28.9258 8.00855 31.5535 11.2792 32.1107 11.838C32.6679 12.3962 32.8273 12.0769 32.5086 10.8806C32.1904 9.6838 31.3942 8.72644 32.1107 9.12557C32.8273 9.52415 33.8626 12.3962 33.9422 14.2311C34.0219 16.0655 33.4642 18.6183 33.3845 18.6981C33.3054 18.7779 33.7829 19.7353 32.5883 16.5444C31.3942 13.3536 29.4407 9.40143 27.7897 8.7449C26.1386 8.08838 26.6471 9.31454 26.1538 7.82392C25.6611 6.3333 26.2974 5.40309 26.2974 5.40309Z" fill="#BBBBBB"/>
<path fill-rule="evenodd" clip-rule="evenodd" d="M24.2227 22.2079C24.3024 22.7662 24.2227 23.0057 24.6206 23.4048C25.019 23.8034 25.0385 23.8289 25.1783 24.2025C25.4174 24.8406 24.9393 25.5584 24.7799 25.6383C24.5095 25.7735 24.4525 25.6155 24.3122 25.5552C24.2276 25.5193 24.1132 25.5188 23.904 25.6383C23.3468 25.957 23.5105 25.957 22.7896 25.957C22.1527 25.957 21.9137 25.319 21.595 25.4786C21.2768 25.6383 21.0378 25.7181 20.7987 25.319C20.5602 24.9204 20.6226 24.7488 20.719 24.3616C20.8784 23.7235 21.1771 23.8028 21.3565 23.325C21.595 22.6864 21.7543 21.3304 21.9137 21.4102C22.073 21.4901 22.3115 22.3676 22.2324 23.0057C22.1527 23.6437 21.808 24.3974 22.2324 24.6809C22.7099 25.0002 22.7099 25.0795 23.4265 24.9204C23.8151 24.8335 24.0634 24.6011 23.9837 23.8832C23.904 23.1653 23.7452 21.9685 23.9837 21.9685C24.2227 21.9685 24.2227 22.2079 24.2227 22.2079Z" fill="#DD9F78"/>
<path fill-rule="evenodd" clip-rule="evenodd" d="M24.382 25.1597C24.2226 25.1597 24.143 25.1597 23.9842 25.3193C23.7809 25.5224 23.7045 25.5925 23.5061 25.7977C23.3646 25.9443 24.0156 25.5523 24.143 25.5582C24.2709 25.5648 24.2226 25.6381 24.382 25.5582C24.5836 25.4578 24.4834 25.1597 24.382 25.1597Z" fill="#B46E4B"/>
<path fill-rule="evenodd" clip-rule="evenodd" d="M21.5324 25.2394C21.6918 25.2394 21.7715 25.2394 21.9303 25.399C22.1335 25.6021 22.21 25.6722 22.4083 25.8774C22.5498 26.024 21.8988 25.632 21.7715 25.638C21.6435 25.6445 21.6918 25.7178 21.5324 25.638C21.3308 25.5375 21.4311 25.2394 21.5324 25.2394Z" fill="#B46E4B"/>
<path fill-rule="evenodd" clip-rule="evenodd" d="M29.6373 18.0598C28.5224 17.4218 27.5668 17.3419 26.7711 17.2621C25.9748 17.1823 23.984 17.5016 22.7893 17.5814C21.5952 17.6612 20.2548 17.4218 19.2862 17.4218C18.2509 17.4218 16.6584 17.5814 16.3397 17.9002C16.1711 18.0696 15.1456 17.2621 15.6231 17.1823C16.1012 17.1025 21.914 16.2249 23.5064 16.3047C25.0984 16.3846 26.4524 16.624 27.7261 16.8635C29.0005 17.1025 29.6373 18.0598 29.6373 18.0598Z" fill="#DD9F78"/>
<path fill-rule="evenodd" clip-rule="evenodd" d="M31.6278 17.8206L32.797 19.1988C32.797 19.1988 32.5037 20.1339 32.4241 20.7719C32.3444 21.4105 32.3444 21.8889 32.3444 22.9261C32.3444 23.9628 31.7075 24.2023 31.7872 24.7605C31.8669 25.3193 32.255 25.7684 32.185 26.6752C32.1054 27.7124 31.7872 28.9087 31.3888 29.7862C30.9909 30.6638 30.8316 31.0629 30.3541 31.4615C29.876 31.8606 28.7746 33.2595 27.7263 33.9344C26.6113 34.6523 26.3728 35.0515 25.8151 35.45C25.2926 35.8236 25.0188 36.2478 23.7451 36.4074C22.4708 36.5671 21.2767 36.4872 20.6398 36.0881C20.0024 35.6895 20.082 35.6895 19.4451 35.1313C18.8083 34.5725 18.3307 33.695 17.2158 32.8174C16.1008 31.9404 15.7826 31.4615 15.2249 30.1854C14.6677 28.9087 14.6677 28.9885 14.349 27.2335C14.0308 25.4789 14.6677 24.1224 14.5083 23.8037C14.349 23.4844 14.0308 22.6867 14.0308 22.2082C14.0308 21.7293 14.2698 20.7719 13.8714 20.054C13.4736 19.3362 12.9955 18.7779 12.9955 18.6183C12.9955 18.4586 12.6774 16.4646 13.5527 16.5444C14.4287 16.6243 15.0661 16.305 14.9864 16.8632C14.9067 17.422 14.349 25.7977 17.5345 26.9147C18.5215 27.2606 20.0311 25.9986 21.5954 26.0372C23.4036 26.0817 25.9744 25.638 27.4076 26.9147C28.5941 27.9709 29.0001 26.8349 29.5578 25.9573C30.9812 23.7162 31.0706 21.4898 31.6278 17.8206Z" fill="#674841"/>
<mask id="mask3_238_1372" style="mask-type:luminance" maskUnits="userSpaceOnUse" x="26" y="17" width="6" height="11">
<path d="M26.736 17.0864H31.6373V27.4908H26.736V17.0864Z" fill="white"/>
</mask>
<g mask="url(#mask3_238_1372)">
<g opacity="0.820007">
<path fill-rule="evenodd" clip-rule="evenodd" d="M31.6279 17.2622C31.7076 18.06 31.2707 21.0928 31.23 21.6499C31.0707 23.8036 30.3541 25.8774 29.9557 26.3564C29.5579 26.8348 29.0001 27.4728 28.6023 27.4728C28.2039 27.4728 28.1242 27.6325 27.4873 26.9944C26.9214 26.4275 26.5317 25.7976 26.8504 25.7976C27.1691 25.7976 28.3632 26.1967 29.0001 25.4788C29.6375 24.7609 30.6723 22.7664 30.6723 21.809C30.6723 20.8522 30.7417 20.1381 30.5129 19.4957C30.2902 18.8696 29.8262 18.2201 29.2392 17.9003C28.7698 17.6445 27.8857 17.1824 28.3632 17.1026C28.8408 17.0228 31.6279 17.2622 31.6279 17.2622Z" fill="#DD9F78"/>
</g>
</g>
<mask id="mask4_238_1372" style="mask-type:luminance" maskUnits="userSpaceOnUse" x="14" y="17" width="6" height="11">
<path d="M14.8528 17.1727H19.5073V27.3181H14.8528V17.1727Z" fill="white"/>
</mask>
<g mask="url(#mask4_238_1372)">
<g opacity="0.820007">
<path fill-rule="evenodd" clip-rule="evenodd" d="M14.9065 17.1826C14.8268 17.9803 14.8431 20.8556 14.9065 21.4106C15.1472 23.5181 15.2409 24.4478 15.9418 26.1969C16.2773 27.0342 16.8177 27.3134 17.2155 27.3134C17.6139 27.3134 17.6307 27.384 18.3305 26.9946C19.0471 26.5955 19.7463 25.5985 19.4281 25.5985C19.1094 25.5985 17.9153 25.9976 17.2779 25.2792C16.641 24.5613 15.6063 22.5673 15.6063 21.6099C15.6063 20.6525 15.5266 19.9347 15.7651 19.2966C16.0041 18.6585 16.5613 17.9407 17.0394 17.7012C17.5169 17.4617 17.995 17.3021 17.5169 17.2228C17.0394 17.1429 14.9065 17.1826 14.9065 17.1826Z" fill="#DD9F78"/>
</g>
</g>
<path d="M32.5834 16.7037C32.424 17.023 32.1216 17.1821 31.3096 17.1821C30.115 17.1821 25.5765 16.2253 23.9841 16.3051C22.3916 16.3844 20.6397 16.3051 19.3654 16.5441C18.0916 16.7835 16.0216 17.1821 14.9863 17.1821C13.9511 17.1821 13.6557 16.9633 13.4448 16.8335C13.2345 16.7037 12.8128 16.575 12.7451 16.121C12.6773 15.6665 12.3602 15.3222 13.1158 14.7765C13.8714 14.2308 14.1901 14.2308 14.5083 13.7523C14.827 13.2734 15.9815 11.2392 16.3197 10.6609C16.6585 10.0825 17.7729 8.48713 19.5248 8.32748C21.2766 8.16837 26.7706 7.4103 28.8412 9.4244C30.9112 11.439 31.3893 13.6725 31.6278 13.8322C31.8668 13.9913 32.7427 14.4833 32.7823 14.676C32.8224 14.8688 32.9812 15.3478 32.8224 15.7464C32.663 16.1455 32.5834 16.7037 32.5834 16.7037Z" fill="black"/>
<path d="M22.8098 14.7767C22.5865 14.7832 22.0439 15.046 22.0092 15.14C21.9209 15.3816 21.832 15.6233 21.7453 15.866C21.7111 15.9611 21.678 16.0572 21.6526 16.1549C21.6293 16.2451 21.5702 16.282 21.4862 16.2896C21.2786 16.3081 20.4834 16.37 20.285 16.3852C20.1165 15.891 20.0292 15.3827 19.7284 14.9277C19.5961 14.9581 19.4487 14.9782 19.3099 15.0254C18.8898 15.1671 18.8969 15.1742 18.6936 15.5777C18.589 15.7851 18.2291 16.3884 18.1771 16.4938C18.1229 16.604 18.0242 16.6431 17.9163 16.6605C17.6453 16.7039 17.3727 16.7376 17.1017 16.781C16.9494 16.8055 16.1705 16.9195 15.932 16.9228C15.3748 16.9298 14.8176 16.9249 14.2604 16.9249C14.2127 16.9249 14.1644 16.9228 14.1167 16.9266C13.9617 16.9385 13.9335 16.9744 13.9406 17.1655C14.0094 17.1807 14.0826 17.2003 14.1568 17.2117C14.5113 17.267 14.8642 17.3447 15.2208 17.3664C15.578 17.3881 15.9385 17.3604 16.2968 17.3393C16.4382 17.3306 18.1613 17.0607 18.2535 17.0553C18.4725 17.0422 18.6952 17.0227 18.9077 16.9705C19.2161 16.8945 19.5229 16.8294 19.8416 16.8049C20.3598 16.7653 20.8748 16.6838 21.3929 16.6458C21.7864 16.6165 22.1832 16.6252 22.5784 16.6225C23.0093 16.6192 23.4407 16.6257 23.8722 16.6214C24.4538 16.6154 25.0327 16.6485 25.6099 16.7148C26.0078 16.7609 26.4067 16.7995 26.804 16.8489C27.242 16.9038 27.6805 16.9597 28.1157 17.0297C28.4279 17.0802 28.7347 17.165 29.0469 17.2171C29.4649 17.2877 30.8481 17.374 31.1175 17.3811C31.1641 17.3822 31.5652 17.3458 31.6281 17.342C31.6351 17.2437 31.6281 17.0227 31.2975 17.0607C31.2015 17.0607 31.1202 17.0569 31.0394 17.0612C30.8552 17.0705 29.6795 17.0151 29.2795 16.9494C29.1152 16.9222 27.5092 16.5915 27.3715 16.5752C27.088 16.5405 26.8084 16.4731 26.5265 16.4237C26.3509 16.3928 26.1736 16.3678 25.9969 16.3439C25.7666 16.3129 24.9134 16.219 24.7183 16.1956C24.5465 16.1756 23.3377 16.1142 22.9973 16.1142C22.9697 15.6564 22.928 15.2122 22.8098 14.7767Z" fill="white"/>
<path d="M19.3909 7.47671C19.3909 9.87744 21.0685 11.8231 23.138 11.8231C25.2069 11.8231 26.8845 9.87744 26.8845 7.47671C26.8845 5.07597 25.2069 3.13029 23.138 3.13029C21.0685 3.13029 19.3909 5.07597 19.3909 7.47671Z" fill="#FFCB00"/>
<path d="M21.4405 8.42531C21.4692 8.46495 21.4996 8.49428 21.5158 8.53012C21.6822 8.89938 21.9803 9.13288 22.324 9.31751C22.5918 9.46196 22.8622 9.60097 23.1387 9.74596C23.4709 9.56296 23.8195 9.37996 24.1593 9.18229C24.4189 9.03133 24.6135 8.81358 24.7409 8.53826C24.7582 8.50188 24.7854 8.46984 24.8157 8.42422C24.9035 8.4731 24.9854 8.51871 25.0791 8.57139C25.2477 8.23525 25.2211 7.90997 25.0743 7.54614C24.9133 7.83449 24.7057 8.0479 24.4276 8.22113C24.5013 8.25806 24.5479 8.28032 24.5935 8.30421C24.6623 8.33897 24.6732 8.3873 24.626 8.4492C24.3674 8.79023 23.988 8.95585 23.5696 8.86571C23.4173 8.83258 23.3251 8.70932 23.3246 8.55347C23.3224 7.98926 23.3224 7.42451 23.3246 6.8603C23.3251 6.71314 23.3425 6.69576 23.4931 6.6963C23.6395 6.69739 23.788 6.67132 23.9262 6.76581C24.0227 6.83206 24.117 6.79839 24.1929 6.70553C24.272 6.60779 24.2699 6.49375 24.1864 6.39438C24.1154 6.30912 23.9989 6.27111 23.9159 6.33899C23.7642 6.46334 23.5951 6.40361 23.433 6.41447C23.3582 6.41936 23.3305 6.36994 23.3246 6.29989C23.3148 6.18097 23.3392 6.08865 23.4368 5.99796C23.7062 5.74708 23.6287 5.33492 23.3083 5.1731C23.0612 5.0482 22.7473 5.23501 22.6882 5.48534C22.6481 5.65748 22.6476 5.84863 22.7999 5.96918C22.9544 6.09137 22.9294 6.23201 22.9143 6.40524C22.7186 6.40252 22.5338 6.47366 22.356 6.34225C22.2638 6.27382 22.1375 6.30966 22.0687 6.39872C22.0085 6.47637 22.008 6.62299 22.0676 6.70228C22.1392 6.79785 22.2481 6.83043 22.3511 6.76092C22.5256 6.64363 22.7083 6.71585 22.905 6.69576C22.9126 6.77667 22.924 6.84021 22.924 6.90374C22.9256 7.456 22.9256 8.00826 22.924 8.56052C22.924 8.72669 22.8405 8.83367 22.6806 8.86842C22.247 8.96291 21.8215 8.74461 21.6145 8.40685C21.6091 8.39707 21.6091 8.38404 21.602 8.35254C21.6665 8.31508 21.7359 8.27435 21.8291 8.22005C21.5711 8.0479 21.3489 7.8535 21.1993 7.54777C21.0285 7.90563 21.0253 8.22765 21.1819 8.5741C21.2784 8.51871 21.3548 8.47473 21.4405 8.42531ZM20.0149 6.7278C20.1071 6.16848 20.2778 5.63305 20.5787 5.14758C21.0692 4.3553 21.7321 3.79652 22.6682 3.61352C23.0503 3.53912 23.4335 3.55596 23.8064 3.6537C24.3192 3.78783 24.7653 4.05229 25.1388 4.43132C25.9144 5.21763 26.2613 6.18422 26.3074 7.26974C26.3339 7.89857 26.2337 8.51057 26.0017 9.09975C25.7643 9.70252 25.4212 10.2309 24.9138 10.6354C24.0422 11.33 23.0834 11.5065 22.0427 11.0596C21.5722 10.857 21.1863 10.5366 20.8697 10.1359C20.2469 9.34792 19.9786 8.43943 19.964 7.3626C19.9759 7.20512 19.9759 6.96293 20.0149 6.7278Z" fill="black"/>
<path d="M23.0955 12.0419C22.3768 12.049 19.8076 12.1548 19.2509 12.2808C18.6801 12.4101 17.1803 12.762 16.9998 12.7989C16.5532 12.889 15.5835 13.3951 15.558 13.5032C15.5272 13.6313 15.4822 13.7562 15.4583 13.8855C15.4372 13.9974 15.4686 14.0321 15.5803 14.0288C15.6497 14.0267 16.3565 13.7372 16.6502 13.6362C16.763 13.5977 17.6557 13.3805 17.988 13.3066C18.3029 13.2366 19.6845 13.0275 20.0482 12.9341C20.671 12.775 22.463 12.7772 22.7259 12.7799C23.115 12.7842 24.1557 12.7761 24.2869 12.7777C24.6463 12.7826 25.9146 12.9097 26.19 12.9645C26.5179 13.0297 28.1955 13.3435 28.7066 13.4348C29.1912 13.5211 30.3891 14.0185 30.4465 14.0272C30.6243 14.0538 30.9111 13.4331 30.1706 13.2051C29.8579 13.0541 28.0849 12.5274 27.5136 12.4253C27.273 12.3824 25.9938 12.1407 25.5899 12.1011C24.7606 12.0207 23.9275 12.0245 23.0955 12.0419Z" fill="#FFCB00"/>
<path d="M16.2813 14.7182C16.7025 14.5428 18.2462 14.1686 18.5741 14.0769C18.9964 13.9585 22.5022 13.7847 22.8014 13.7722C23.4183 13.7478 24.0318 13.7988 24.6465 13.8352C24.8194 13.845 24.9939 13.8434 25.1669 13.8309C25.4184 13.8124 27.2959 14.0242 27.6662 14.116C27.9849 14.1953 28.2987 14.2952 28.619 14.3669C29.0277 14.4581 29.4332 14.5564 29.8207 14.7193C29.8695 14.7405 30.5926 15.1081 30.5265 14.8784C30.6094 14.7627 30.6181 14.6058 30.6446 14.4543C30.6582 14.3793 30.1151 14.116 29.8955 14.0209C29.4223 13.8157 28.9302 13.6761 28.4234 13.5735C27.8477 13.4567 26.2276 13.2417 25.9978 13.2053C25.8677 13.1847 24.9359 13.1239 24.6015 13.1168C24.2194 13.1087 23.0898 13.0826 22.9071 13.0826C22.6925 13.0826 21.7754 13.1255 21.5304 13.1206C21.184 13.1141 20.836 13.1342 20.4908 13.1668C20.1764 13.1966 19.8653 13.2602 19.552 13.3063C19.3449 13.3367 17.9248 13.5224 17.4267 13.6256C16.7757 13.7608 16.1746 14.022 15.5816 14.3087C15.439 14.3772 15.4342 14.3918 15.4672 14.5466C15.4927 14.6671 15.6233 14.8692 16.2813 14.7182Z" fill="#FFCB00"/>
<path d="M15.3252 15.1944C15.0568 14.6752 14.924 14.148 15.1512 13.5859C15.0877 13.4882 14.9988 13.4795 14.9143 13.5235C14.8021 13.5816 14.6969 13.6657 14.6731 13.7972C14.5804 14.3092 14.5468 14.8186 14.795 15.3041C14.8736 15.4588 14.9094 15.4735 15.052 15.3828C15.1414 15.3258 15.227 15.2623 15.3252 15.1944Z" fill="#FFCB00"/>
<path d="M13.7182 15.6803C13.696 15.4668 13.6591 15.2556 13.5307 15.0726C13.4212 14.9162 13.2304 14.863 13.0651 14.9542C12.9225 15.0335 12.8141 15.1459 12.7735 15.3137C12.703 15.6059 12.7648 15.8698 12.9464 16.1044C13.103 16.3058 13.3008 16.314 13.4841 16.1331C13.5339 16.0843 13.5789 16.0305 13.625 15.9778C13.6987 15.8931 13.7556 15.8024 13.7182 15.6803Z" fill="#FFCB00"/>
<path d="M13.9836 15.1521C14.0796 15.0652 14.1647 14.9903 14.246 14.9115C14.2671 14.8914 14.2855 14.8578 14.2861 14.8295C14.2893 14.627 14.2883 14.4239 14.2883 14.223C14.2064 14.1719 14.1527 14.2186 14.0958 14.2604C13.9788 14.3473 13.8622 14.4348 13.7419 14.5173C13.5804 14.6286 13.5744 14.6856 13.7072 14.8312C13.8004 14.9327 13.8877 15.0397 13.9836 15.1521Z" fill="#FFCB00"/>
<path d="M14.5927 15.6773C14.5157 15.5312 14.442 15.3911 14.3601 15.2369C14.2848 15.2901 14.2143 15.3319 14.1531 15.3846C14.0674 15.4584 14.0181 15.5491 14.0387 15.6713C14.0539 15.7587 14.0517 15.8494 14.0626 15.9379C14.0756 16.0455 14.1103 16.0645 14.2181 16.0324C14.3634 15.9879 14.4832 15.8771 14.5927 15.6773Z" fill="#FFCB00"/>
<path d="M30.733 15.1944C31.0013 14.6752 31.1341 14.148 30.907 13.5859C30.9704 13.4882 31.0593 13.4795 31.1438 13.5235C31.256 13.5816 31.3612 13.6657 31.385 13.7972C31.4777 14.3092 31.5113 14.8186 31.2631 15.3041C31.1845 15.4588 31.1487 15.4735 31.0062 15.3828C30.9167 15.3258 30.8311 15.2623 30.733 15.1944Z" fill="#FFCB00"/>
<path d="M32.0745 15.1521C31.9786 15.0652 31.8935 14.9903 31.8122 14.9115C31.791 14.8914 31.7726 14.8578 31.7721 14.8295C31.7688 14.627 31.7699 14.4239 31.7699 14.223C31.8517 14.1719 31.9054 14.2186 31.9623 14.2604C32.0794 14.3473 32.1959 14.4348 32.3163 14.5173C32.4778 14.6286 32.4837 14.6856 32.3509 14.8312C32.2577 14.9327 32.1704 15.0397 32.0745 15.1521Z" fill="#FFCB00"/>
<path d="M31.4655 15.6773C31.5424 15.5312 31.6161 15.3911 31.698 15.2369C31.7733 15.2901 31.8438 15.3319 31.905 15.3846C31.9907 15.4584 32.04 15.5491 32.0194 15.6713C32.0042 15.7587 32.0064 15.8494 31.9956 15.9379C31.9826 16.0455 31.9479 16.0645 31.84 16.0324C31.6947 15.9879 31.5749 15.8771 31.4655 15.6773Z" fill="#FFCB00"/>
<path fill-rule="evenodd" clip-rule="evenodd" d="M30.8316 20.5329C30.3286 21.2687 29.7167 20.5329 29.5579 20.6925C29.3985 20.8522 28.9204 21.3306 28.2836 21.4104C27.6467 21.4902 26.0542 21.2508 25.6558 21.0911C25.2861 20.9434 24.5414 20.6925 24.3023 21.0911C24.0633 21.4902 24.0633 21.4902 23.9836 20.9315C23.9045 20.3732 23.6655 19.0971 23.9836 18.698C24.3023 18.2994 25.8151 17.5815 26.8504 17.5815C27.8857 17.5815 29.0478 17.7857 29.4782 18.0599C30.3541 18.6182 31.2441 19.9296 30.8316 20.5329Z" fill="#DD9F78"/>
<path fill-rule="evenodd" clip-rule="evenodd" d="M15.0886 20.5329C15.5916 21.2687 16.2035 20.5329 16.3623 20.6926C16.5217 20.8522 16.9998 21.3306 17.6367 21.4105C18.2735 21.4903 19.8433 21.2508 20.2417 21.2508C20.6395 21.2508 21.3788 20.6926 21.6179 21.0912C21.8564 21.4903 21.8564 21.4903 21.9366 20.9315C22.0157 20.3733 22.2548 19.0972 21.9366 18.698C21.6179 18.2994 20.1051 17.5816 19.0698 17.5816C18.0345 17.5816 16.8724 17.7857 16.442 18.06C15.5661 18.6182 14.6761 19.9296 15.0886 20.5329Z" fill="#DD9F78"/>
<mask id="mask5_238_1372" style="mask-type:luminance" maskUnits="userSpaceOnUse" x="25" y="19" width="4" height="2">
<path d="M25.7433 19.3362H28.6022V20.2457H25.7433V19.3362Z" fill="white"/>
</mask>
<g mask="url(#mask5_238_1372)">
<g opacity="0.559998">
<path fill-rule="evenodd" clip-rule="evenodd" d="M28.6022 19.9745C28.5101 20.0359 28.0981 20.1705 27.6466 20.214C26.9279 20.2824 26.0726 20.2319 25.9745 20.1342C25.8156 19.9745 25.6243 19.905 25.8395 19.8599C26.0541 19.8149 26.3728 19.4961 26.8504 19.4163C27.3284 19.3364 27.806 19.2566 28.2044 19.4961C28.6022 19.735 28.6022 19.9745 28.6022 19.9745Z" fill="white"/>
</g>
</g>
<mask id="mask6_238_1372" style="mask-type:luminance" maskUnits="userSpaceOnUse" x="17" y="19" width="4" height="2">
<path d="M17.614 19.3682H20.4008V20.2457H17.614V19.3682Z" fill="white"/>
</mask>
<g mask="url(#mask6_238_1372)">
<g opacity="0.559998">
<path fill-rule="evenodd" clip-rule="evenodd" d="M17.614 19.9745C17.7061 20.0359 18.046 20.1705 18.4975 20.214C19.2162 20.2824 20.0715 20.2319 20.1696 20.1342C20.329 19.9745 20.5198 19.905 20.3046 19.8599C20.0899 19.8149 19.7712 19.4961 19.2937 19.4163C18.8162 19.3364 18.4102 19.3364 18.0118 19.5759C17.614 19.8149 17.614 19.9745 17.614 19.9745Z" fill="white"/>
</g>
</g>
<path fill-rule="evenodd" clip-rule="evenodd" d="M26.4523 19.7662C26.4523 20.092 26.8089 20.3553 27.2485 20.3553C27.6881 20.3553 28.0448 20.092 28.0448 19.7662C28.0448 19.4409 27.6881 19.177 27.2485 19.177C26.8089 19.177 26.4523 19.4409 26.4523 19.7662Z" fill="#543933"/>
<mask id="mask7_238_1372" style="mask-type:luminance" maskUnits="userSpaceOnUse" x="26" y="19" width="2" height="2">
<path d="M26.5318 19.1771H27.965V20.2936H26.5318V19.1771Z" fill="white"/>
</mask>
<g mask="url(#mask7_238_1372)">
<g opacity="0.509995">
<path fill-rule="evenodd" clip-rule="evenodd" d="M26.5318 19.7352C26.5318 20.0437 26.8527 20.2935 27.2484 20.2935C27.644 20.2935 27.9649 20.0437 27.9649 19.7352C27.9649 19.4268 27.644 19.177 27.2484 19.177C26.8527 19.177 26.5318 19.4268 26.5318 19.7352Z" fill="#137A96"/>
</g>
</g>
<path fill-rule="evenodd" clip-rule="evenodd" d="M18.0917 19.7855C18.0917 20.1102 18.4483 20.373 18.8879 20.373C19.3275 20.373 19.6842 20.1102 19.6842 19.7855C19.6842 19.4608 19.3275 19.1979 18.8879 19.1979C18.4483 19.1979 18.0917 19.4608 18.0917 19.7855Z" fill="#543933"/>
<mask id="mask8_238_1372" style="mask-type:luminance" maskUnits="userSpaceOnUse" x="18" y="19" width="2" height="2">
<path d="M18.1713 19.1771H19.6045V20.2936H18.1713V19.1771Z" fill="white"/>
</mask>
<g mask="url(#mask8_238_1372)">
<g opacity="0.509995">
<path fill-rule="evenodd" clip-rule="evenodd" d="M18.1713 19.7352C18.1713 20.0437 18.4921 20.2935 18.8878 20.2935C19.2835 20.2935 19.6044 20.0437 19.6044 19.7352C19.6044 19.4268 19.2835 19.177 18.8878 19.177C18.4921 19.177 18.1713 19.4268 18.1713 19.7352Z" fill="#137A96"/>
</g>
</g>
<mask id="mask9_238_1372" style="mask-type:luminance" maskUnits="userSpaceOnUse" x="27" y="19" width="1" height="1">
<path d="M27.0509 19.3807H27.4874V19.5757H27.0509V19.3807Z" fill="white"/>
</mask>
<g mask="url(#mask9_238_1372)">
<g opacity="0.889999">
<path fill-rule="evenodd" clip-rule="evenodd" d="M27.4874 19.4162C27.4874 19.496 27.2484 19.5758 27.1687 19.5758C27.0895 19.5758 26.9649 19.4895 27.1389 19.4162C27.328 19.3363 27.4874 19.4162 27.4874 19.4162Z" fill="white"/>
</g>
</g>
<mask id="mask10_238_1372" style="mask-type:luminance" maskUnits="userSpaceOnUse" x="26" y="19" width="2" height="2">
<path d="M26.6699 19.7353H27.0892V20.0758H26.6699V19.7353Z" fill="white"/>
</mask>
<g mask="url(#mask10_238_1372)">
<g opacity="0.889999">
<path fill-rule="evenodd" clip-rule="evenodd" d="M26.8503 19.7354C27.0096 19.7354 27.0893 19.8153 27.0893 19.8951C27.0893 19.9749 27.0893 20.134 26.93 20.0547C26.7706 19.9749 26.6113 19.8951 26.6909 19.8153C26.7706 19.7354 26.8503 19.7354 26.8503 19.7354Z" fill="white"/>
</g>
</g>
<mask id="mask11_238_1372" style="mask-type:luminance" maskUnits="userSpaceOnUse" x="18" y="19" width="2" height="1">
<path d="M18.77 19.3807H19.2065V19.5757H18.77V19.3807Z" fill="white"/>
</mask>
<g mask="url(#mask11_238_1372)">
<g opacity="0.889999">
<path fill-rule="evenodd" clip-rule="evenodd" d="M19.2065 19.4162C19.2065 19.496 18.9674 19.5758 18.8877 19.5758C18.8086 19.5758 18.6839 19.4895 18.8579 19.4162C19.0471 19.3363 19.2065 19.4162 19.2065 19.4162Z" fill="white"/>
</g>
</g>
<mask id="mask12_238_1372" style="mask-type:luminance" maskUnits="userSpaceOnUse" x="18" y="19" width="1" height="2">
<path d="M18.3093 19.8152H18.7286V20.1556H18.3093V19.8152Z" fill="white"/>
</mask>
<g mask="url(#mask12_238_1372)">
<g opacity="0.889999">
<path fill-rule="evenodd" clip-rule="evenodd" d="M18.4897 19.8152C18.6491 19.8152 18.7287 19.895 18.7287 19.9748C18.7287 20.0546 18.7287 20.2137 18.5694 20.1345C18.41 20.0546 18.2507 19.9748 18.3303 19.895C18.41 19.8152 18.4897 19.8152 18.4897 19.8152Z" fill="white"/>
</g>
</g>
<path fill-rule="evenodd" clip-rule="evenodd" d="M27.0096 19.7352C27.0096 19.8454 27.1164 19.9344 27.2487 19.9344C27.3804 19.9344 27.4872 19.8454 27.4872 19.7352C27.4872 19.6249 27.3804 19.5359 27.2487 19.5359C27.1164 19.5359 27.0096 19.6249 27.0096 19.7352Z" fill="#543933"/>
<mask id="mask13_238_1372" style="mask-type:luminance" maskUnits="userSpaceOnUse" x="26" y="22" width="4" height="3">
<path d="M26.3441 22.8681H29.5223V24.6052H26.3441V22.8681Z" fill="white"/>
</mask>
<g mask="url(#mask13_238_1372)">
<g opacity="0.419998">
<path fill-rule="evenodd" clip-rule="evenodd" d="M29.4781 23.006C29.6374 23.5642 29.3984 24.6812 28.2834 24.6014C27.169 24.5216 25.9744 24.2028 26.4524 23.9633C26.93 23.7239 28.2379 23.6652 28.5225 23.1656C28.8412 22.6074 29.4781 23.006 29.4781 23.006Z" fill="#FDEECE"/>
</g>
</g>
<mask id="mask14_238_1372" style="mask-type:luminance" maskUnits="userSpaceOnUse" x="16" y="22" width="4" height="3">
<path d="M16.7096 22.8681H19.888V24.6052H16.7096V22.8681Z" fill="white"/>
</mask>
<g mask="url(#mask14_238_1372)">
<g opacity="0.419998">
<path fill-rule="evenodd" clip-rule="evenodd" d="M16.754 23.006C16.5947 23.5642 16.8337 24.6812 17.9481 24.6014C19.0631 24.5216 20.2577 24.2028 19.7796 23.9633C19.3021 23.7239 17.9942 23.6652 17.7096 23.1656C17.3909 22.6074 16.754 23.006 16.754 23.006Z" fill="#FDEECE"/>
</g>
</g>
<mask id="mask15_238_1372" style="mask-type:luminance" maskUnits="userSpaceOnUse" x="22" y="22" width="2" height="3">
<path d="M22.4711 22.5118H23.5093V24.761H22.4711V22.5118Z" fill="white"/>
</mask>
<g mask="url(#mask15_238_1372)">
<g opacity="0.419998">
<path fill-rule="evenodd" clip-rule="evenodd" d="M23.506 24.1708C23.4367 24.7704 23.1082 24.8437 22.7895 24.6943C22.4708 24.5445 22.3911 23.9466 22.5504 23.1988C22.7098 22.4516 22.9488 22.3767 23.0285 22.6753C23.1082 22.9746 23.551 23.7831 23.506 24.1708Z" fill="#FDEECE"/>
</g>
</g>
<mask id="mask16_238_1372" style="mask-type:luminance" maskUnits="userSpaceOnUse" x="24" y="19" width="6" height="3">
<path d="M24.4617 19.9747H29.5576V21.6494H24.4617V19.9747Z" fill="white"/>
</mask>
<g mask="url(#mask16_238_1372)">
<g opacity="0.380005">
<path fill-rule="evenodd" clip-rule="evenodd" d="M29.5577 20.7779C29.2492 20.3332 29.2032 20.2441 28.9566 20.3332C28.7105 20.4223 28.3251 20.867 27.8627 20.7779C27.4009 20.6889 26.3993 20.7779 26.0144 20.5113C25.629 20.2441 25.1071 20.002 24.906 19.9895C24.7049 19.9775 24.3965 19.8885 24.474 20.3332C24.5509 20.7779 24.474 20.9561 24.7818 20.9561C25.0897 20.9561 25.4003 21.0066 25.977 21.2922C26.5537 21.5784 28.0942 21.7565 28.556 21.5784C29.0183 21.4003 29.5577 20.7779 29.5577 20.7779Z" fill="#F9CFA6"/>
</g>
</g>
<mask id="mask17_238_1372" style="mask-type:luminance" maskUnits="userSpaceOnUse" x="16" y="19" width="6" height="3">
<path d="M16.4991 19.9747H21.5951V21.6423H16.4991V19.9747Z" fill="white"/>
</mask>
<g mask="url(#mask17_238_1372)">
<g opacity="0.380005">
<path fill-rule="evenodd" clip-rule="evenodd" d="M16.4991 20.7781C16.8075 20.3334 16.8536 20.2443 17.1002 20.3334C17.3463 20.4224 17.7317 20.8672 18.194 20.7781C18.6558 20.6891 19.6575 20.7781 20.0423 20.5115C20.4277 20.2443 20.9497 20.0021 21.1508 19.9896C21.3519 19.9777 21.6603 19.8886 21.5828 20.3334C21.5058 20.7781 21.5828 20.9562 21.2749 20.9562C20.967 20.9562 21.2961 20.9649 20.7193 21.2511C20.1426 21.5367 17.9626 21.7567 17.5008 21.5786C17.0384 21.4004 16.4991 20.7781 16.4991 20.7781Z" fill="#F9CFA6"/>
</g>
</g>
<mask id="mask18_238_1372" style="mask-type:luminance" maskUnits="userSpaceOnUse" x="24" y="23" width="2" height="3">
<path d="M24.1476 23.6391H25.0618V25.1721H24.1476V23.6391Z" fill="white"/>
</mask>
<g mask="url(#mask18_238_1372)">
<g opacity="0.380005">
<path fill-rule="evenodd" clip-rule="evenodd" d="M24.6207 23.8035C24.8598 23.8833 25.1779 24.1228 25.0186 24.5214C24.8598 24.9205 24.7801 25.2392 24.6207 25.1594C24.4614 25.0796 24.4614 24.9998 24.302 24.8407C23.908 24.4459 24.3817 23.564 24.4614 23.6438L24.6207 23.8035Z" fill="#F9CFA6"/>
</g>
</g>
<mask id="mask19_238_1372" style="mask-type:luminance" maskUnits="userSpaceOnUse" x="20" y="23" width="2" height="3">
<path d="M20.8831 23.6391H21.7972V25.1721H20.8831V23.6391Z" fill="white"/>
</mask>
<g mask="url(#mask19_238_1372)">
<g opacity="0.380005">
<path fill-rule="evenodd" clip-rule="evenodd" d="M21.3241 23.8035C21.0851 23.8833 20.7669 24.1228 20.9262 24.5214C21.0851 24.9205 21.1647 25.2392 21.3241 25.1594C21.4835 25.0796 21.4835 24.9998 21.6428 24.8407C22.0369 24.4459 21.5631 23.564 21.4835 23.6438C21.4038 23.7237 21.3241 23.8035 21.3241 23.8035Z" fill="#F9CFA6"/>
</g>
</g>
<path fill-rule="evenodd" clip-rule="evenodd" d="M26.293 28.6696C26.3743 28.7136 27.0004 28.5431 27.0096 28.6696C27.0324 28.9753 26.1532 29.8795 25.8155 30.1054C25.3374 30.4247 25.0984 30.7434 24.6209 30.5843C24.1433 30.4247 23.6371 30.0087 23.8902 29.7383C24.1433 29.4673 26.293 28.6696 26.293 28.6696Z" fill="#F9CFA6"/>
<path fill-rule="evenodd" clip-rule="evenodd" d="M19.7222 28.5499C19.6409 28.5939 19.0149 28.4234 19.0057 28.5499C18.9829 28.8556 19.8621 29.7603 20.1998 29.9857C20.6778 30.305 20.9169 30.6243 21.3944 30.4646C21.8719 30.305 22.3782 29.889 22.1251 29.6186C21.8719 29.3476 19.7222 28.5499 19.7222 28.5499Z" fill="#F9CFA6"/>
<path fill-rule="evenodd" clip-rule="evenodd" d="M19.0472 28.5899C18.877 28.3949 21.6749 27.6325 22.7563 27.9442C23.2083 28.074 23.6523 27.9056 24.0637 27.872C25.0561 27.7905 27.2817 28.535 27.0096 28.6697C26.738 28.8044 19.0472 28.5899 19.0472 28.5899Z" fill="#F9CFA6"/>
<path fill-rule="evenodd" clip-rule="evenodd" d="M26.1337 28.7495C25.7359 28.9889 24.7006 29.627 24.2225 29.7068C23.745 29.7867 22.8772 29.7068 22.4712 29.7068C22.0728 29.7068 21.5953 29.627 21.3563 29.5472C21.1172 29.4674 19.8435 28.7495 19.8435 28.5898C19.8435 28.4302 19.6131 28.6935 20.1616 28.5898C20.7107 28.4866 23.0284 28.5898 23.6653 28.5898C24.3022 28.5898 25.8947 28.6696 26.2931 28.6696C26.6909 28.6696 26.1337 28.7495 26.1337 28.7495Z" fill="#DD9F78"/>
<path fill-rule="evenodd" clip-rule="evenodd" d="M27.0097 28.6696C27.0097 28.7374 26.9197 28.7668 26.7853 28.7738C26.4465 28.7923 25.827 28.6696 25.6562 28.6696C25.4172 28.6696 24.5413 28.6696 24.1434 28.7494C23.745 28.8292 23.5857 28.9889 23.1878 28.909C22.7894 28.8292 22.4713 28.8292 21.9932 28.7494C21.5157 28.6696 20.6397 28.5897 20.321 28.6696C20.0029 28.7494 19.3963 28.6473 19.2863 28.6696C18.8879 28.7494 18.8879 28.5897 19.0473 28.5897C19.2066 28.5897 20.7991 28.0315 21.5157 28.0315C22.2322 28.0315 22.4713 28.1113 22.9488 28.1911C23.4263 28.271 23.5857 28.0315 24.2226 28.0315C24.86 28.0315 27.0097 28.5897 27.0097 28.6696Z" fill="#B46E4B"/>
<path fill-rule="evenodd" clip-rule="evenodd" d="M21.4359 19.0172C21.6749 19.1769 21.9134 19.7351 21.7546 19.9746C21.5953 20.2135 21.038 20.0544 20.7193 20.0544C20.4006 20.0544 20.1887 19.7889 19.8434 19.5755C19.4499 19.3327 18.3306 19.2567 17.9322 19.5755C17.5804 19.8573 17.6937 20.0544 17.2953 20.2135C16.8975 20.3732 17.0563 20.2135 16.9772 20.1343C16.8975 20.0544 17.0563 19.5755 17.8525 19.3365C18.2493 19.2171 18.9691 19.0775 19.5247 19.1769C20.0846 19.2768 20.4803 19.5755 20.7193 19.6553C21.0305 19.7596 21.2765 19.7351 21.1969 19.3365C21.1172 18.9374 20.799 18.6979 21.1172 18.8576L21.4359 19.0172Z" fill="#B46E4B"/>
<path fill-rule="evenodd" clip-rule="evenodd" d="M17.2158 20.2456C17.3416 20.2939 17.3416 20.3732 17.4966 20.2141C17.6516 20.0544 17.6641 19.8524 17.8901 19.6738C18.1161 19.4962 18.4045 19.3208 18.9189 19.3686C19.4333 19.4164 19.6967 19.5472 19.9233 19.6553C20.2019 19.7883 20.52 20.0913 20.4805 20.0544C20.4133 19.9909 19.9628 19.5098 19.6208 19.4631C19.2782 19.4164 19.0463 19.2567 18.5812 19.3365C18.1161 19.4164 17.6516 19.6553 17.5741 19.8149C17.4966 19.9746 17.2158 20.2456 17.2158 20.2456Z" fill="#543933"/>
<path fill-rule="evenodd" clip-rule="evenodd" d="M29.3984 20.1341C29.4781 20.2938 29.5577 20.3736 29.239 20.2938C28.9209 20.2139 28.6021 19.5759 28.2043 19.496C27.8059 19.4162 27.5669 19.1767 27.0097 19.4162C26.4524 19.6557 25.9744 19.8148 25.7359 19.8946C25.4968 19.9745 25.5765 20.2139 25.2578 20.1341C24.9396 20.0543 24.6209 19.9745 24.4616 19.8148C24.3022 19.6557 24.1434 19.7355 24.2225 19.3364C24.3022 18.9373 24.3022 18.6185 24.5412 18.6983C24.7803 18.7782 24.5412 18.9373 24.7006 19.2566C24.86 19.5759 24.7803 19.7355 25.2578 19.496C25.7359 19.2566 25.9744 19.1767 26.5321 19.1767C27.0893 19.1767 28.1246 19.0969 28.6021 19.3364C29.0797 19.5759 29.3984 20.1341 29.3984 20.1341Z" fill="#B46E4B"/>
<path fill-rule="evenodd" clip-rule="evenodd" d="M29.1294 20.2456C29.0004 20.2939 29.0004 20.3732 28.841 20.2141C28.6816 20.0544 28.6686 19.8524 28.4366 19.6738C28.2041 19.4962 27.9082 19.3208 27.3791 19.3686C26.8501 19.4164 26.5585 19.6287 26.3065 19.6819C26.0544 19.7351 25.5671 19.98 25.6512 19.9371C25.7357 19.8948 26.3065 19.5098 26.6582 19.4631C27.0095 19.4164 27.2485 19.2567 27.726 19.3365C28.2041 19.4164 28.6816 19.6553 28.7613 19.8149C28.841 19.9746 29.1294 20.2456 29.1294 20.2456Z" fill="#543933"/>
<path fill-rule="evenodd" clip-rule="evenodd" d="M18.649 19.775C18.649 19.8852 18.7558 19.9742 18.888 19.9742C19.0197 19.9742 19.1265 19.8852 19.1265 19.775C19.1265 19.6647 19.0197 19.5757 18.888 19.5757C18.7558 19.5757 18.649 19.6647 18.649 19.775Z" fill="#543933"/>
<mask id="mask20_238_1372" style="mask-type:luminance" maskUnits="userSpaceOnUse" x="22" y="28" width="2" height="1">
<path d="M22.7533 28.1555H23.7653V28.8359H22.7533V28.1555Z" fill="white"/>
</mask>
<g mask="url(#mask20_238_1372)">
<g opacity="0.380005">
<path fill-rule="evenodd" clip-rule="evenodd" d="M23.745 28.1911C23.8247 28.4306 23.6653 28.7493 23.3471 28.8291C23.0284 28.909 22.63 28.2709 22.7894 28.2709C22.9487 28.2709 23.4263 28.2709 23.5856 28.1911C23.745 28.1113 23.745 28.1911 23.745 28.1911Z" fill="#F9CFA6"/>
</g>
</g>
<path fill-rule="evenodd" clip-rule="evenodd" d="M23.7449 39.2792C24.3021 39.7576 24.939 40.715 24.4615 41.3536C23.984 41.9916 23.6653 42.47 23.108 42.1507C22.5508 41.832 21.6749 39.9173 22.2321 39.7576C22.7893 39.5985 23.7449 39.2792 23.7449 39.2792Z" fill="#2A2A2A"/>
<path fill-rule="evenodd" clip-rule="evenodd" d="M10.8457 37.3648C10.4202 37.2084 9.54594 37.1519 9.02342 37.2024L-0.531494 40.074L-0.301673 42.5502L9.57195 39.4386C10.2484 38.8255 10.6262 38.1196 10.8457 37.3648Z" fill="black"/>
<path d="M9.17362 38.0827L7.50146 39.8378L5.74962 39.6782L5.43145 39.9975V40.5557L4.47585 40.7952L4.31649 40.1566L4.95338 39.4387L4.15713 39.3589L4.07745 38.7208L4.95338 38.4813L5.12628 38.8522L5.66994 38.8804L6.62554 37.9231L9.17362 38.0827Z" fill="#FFCB00"/>
<path d="M3.75913 38.8006L4.07784 40.9543L3.12224 41.2736L2.80353 39.1199L3.75913 38.8006Z" fill="#FFCB00"/>
<path d="M7.6608 38.5614L7.18327 39.1196H6.38702L6.94423 38.5614H7.6608Z" fill="black"/>
<path fill-rule="evenodd" clip-rule="evenodd" d="M35.8572 37.3648C36.2827 37.2084 37.157 37.1519 37.6795 37.2024L47.2344 40.074L47.0046 42.5502L37.1309 39.4386C36.4545 38.8255 36.0767 38.1196 35.8572 37.3648Z" fill="black"/>
<path d="M37.5293 38.0827L39.2015 39.8378L40.9533 39.6782L41.2715 39.9975V40.5557L42.2271 40.7952L42.3864 40.1566L41.7495 39.4387L42.5458 39.3589L42.6255 38.7208L41.7495 38.4813L41.5766 38.8522L41.033 38.8804L40.0774 37.9231L37.5293 38.0827Z" fill="#FFCB00"/>
<path d="M42.9438 38.8006L42.6251 40.9543L43.5807 41.2736L43.8994 39.1199L42.9438 38.8006Z" fill="#FFCB00"/>
<path d="M44.2177 39.1994L43.8199 41.3531L44.9343 41.6724L45.253 39.5187L44.2177 39.1994Z" fill="#FFCB00"/>
<path d="M45.4917 39.5983L45.173 41.752L46.2083 42.0713L46.4473 39.9176L45.4917 39.5983Z" fill="#FFCB00"/>
<path d="M39.0422 38.5614L39.5197 39.1196H40.3159L39.7587 38.5614H39.0422Z" fill="black"/>
<path fill-rule="evenodd" clip-rule="evenodd" d="M31.7075 24.2822C30.5801 25.4117 32.0262 26.6754 31.2299 27.7125C30.4337 28.7492 30.2743 30.6639 29.1594 31.1423C28.045 31.6213 27.3279 32.5786 26.8503 33.2965C26.3728 34.0144 24.7803 35.1309 24.1429 34.8919C23.506 34.6525 23.5857 34.3332 23.4263 34.0144C23.267 33.6951 23.4263 32.0997 23.0285 31.9406C22.6301 31.7809 22.5504 31.1423 22.3119 31.9406C22.0729 32.7383 22.2322 33.8548 21.436 34.1741C20.6398 34.4928 20.4804 35.1309 20.082 34.2539C19.6842 33.3764 20.0023 33.057 19.0473 32.5786C18.0917 32.0997 16.9767 31.9406 16.6585 30.7437C16.3398 29.5469 15.3842 28.9088 15.2249 27.7125C15.0661 26.5157 15.1457 24.0427 14.827 24.2822C14.5083 24.5217 14.1901 26.3561 14.5083 27.7924C14.827 29.2281 15.0579 30.2925 15.6233 31.1423C16.2601 32.0997 18.251 33.6153 18.3307 33.9346C18.4104 34.2539 18.9676 34.8919 19.7638 35.4502C20.5601 36.0084 21.1173 36.3277 21.9135 36.4874C22.7098 36.647 24.3023 36.4874 25.1782 36.0084C26.0541 35.53 27.9176 33.9025 28.8412 32.9772C29.876 31.9406 30.2743 31.7809 30.7519 30.9832C31.2299 30.1855 32.185 27.7125 32.185 26.835C32.185 25.9575 31.9465 24.0427 31.7075 24.2822Z" fill="#543933"/>
<path fill-rule="evenodd" clip-rule="evenodd" d="M24.2228 29.866C24.2228 29.5467 21.9137 29.5467 21.6747 29.7862C21.4362 30.0256 22.3116 30.6637 22.949 30.6637C23.5859 30.6637 24.2228 30.2727 24.2228 29.866Z" fill="#543933"/>
<path fill-rule="evenodd" clip-rule="evenodd" d="M26.6911 28.0316C25.8152 27.2339 24.382 27.3137 23.8248 27.2339C23.2671 27.1541 23.3468 26.1967 22.8692 26.3563C22.3912 26.516 22.5505 26.9944 21.834 27.2339C21.1174 27.4734 20.2415 27.5532 19.7639 27.8719C19.2859 28.1912 18.5693 28.4302 19.0468 28.4302C19.5249 28.4302 20.958 27.9518 21.7543 27.8719C22.5505 27.7921 23.5858 27.8719 24.0633 27.8719C24.5414 27.8719 25.7355 28.0316 26.2136 28.1114C26.6911 28.1912 26.6911 28.0316 26.6911 28.0316Z" fill="#543933"/>
<path fill-rule="evenodd" clip-rule="evenodd" d="M30.6326 20.0144C30.5134 20.2935 29.9556 19.8151 29.7968 19.6555C29.6374 19.4958 29.7968 19.0972 29.3187 18.8578C28.8412 18.6183 29.0006 18.3788 28.1246 18.4586C27.2487 18.5384 25.7359 18.6183 25.2578 18.7779C24.7803 18.9376 24.5413 19.0174 24.4616 18.6981C24.3819 18.3788 24.3022 18.2197 24.6209 17.9802C24.9397 17.7407 27.169 17.422 27.9653 17.5816C28.7615 17.7407 29.1361 17.8895 29.7182 18.2316C30.5134 18.6981 30.6326 20.0144 30.6326 20.0144Z" fill="#543933"/>
<path fill-rule="evenodd" clip-rule="evenodd" d="M15.3132 20.0142C15.4324 20.2934 15.9419 19.6553 16.1007 19.4956C16.2601 19.336 16.1804 19.0172 16.6585 18.7778C17.136 18.5383 17.136 18.4585 17.8211 18.4585C18.7009 18.4585 20.2099 18.6181 20.6879 18.7778C21.1655 18.9374 21.4045 19.0172 21.4842 18.6979C21.5639 18.3786 21.6435 18.2195 21.3248 17.98C21.0061 17.7406 18.7767 17.4218 17.9805 17.5815C17.1843 17.7406 16.8097 17.8894 16.2276 18.2315C15.4324 18.6979 15.3132 20.0142 15.3132 20.0142Z" fill="#543933"/>
</g>
<path d="M48.4719 7.97965L48.0139 7.27208H48.4156L48.8741 7.97965H48.4719ZM47.6865 7.10374H48.0324C48.1635 7.10374 48.2643 7.07442 48.3364 7.01686C48.408 6.9593 48.4438 6.87839 48.4438 6.77575C48.4438 6.67258 48.408 6.5933 48.3364 6.53682C48.2643 6.48089 48.1635 6.45265 48.0324 6.45265H47.6865V7.10374ZM47.2887 7.97965V6.13389H48.0557C48.299 6.13389 48.4893 6.19145 48.6264 6.30712C48.7636 6.42278 48.8319 6.57918 48.8319 6.77575C48.8319 6.97885 48.7636 7.13633 48.6264 7.24873C48.4893 7.36114 48.299 7.41707 48.0557 7.41707H47.6909V7.97965H47.2887ZM47.9717 8.45263C48.1711 8.45263 48.3549 8.41679 48.5234 8.34511C48.6915 8.27343 48.8389 8.17406 48.9652 8.04753C49.0915 7.92101 49.1891 7.77167 49.2573 7.60007C49.3262 7.42848 49.3603 7.24439 49.3603 7.04781C49.3603 6.85069 49.3262 6.66769 49.2573 6.49935C49.1891 6.33101 49.0931 6.18385 48.9701 6.05895C48.847 5.93406 48.7018 5.83631 48.5354 5.76626C48.3684 5.69621 48.1852 5.66037 47.9857 5.66037C47.7863 5.66037 47.6014 5.69621 47.4318 5.76626C47.2616 5.83631 47.1152 5.93569 46.9922 6.06384C46.8686 6.19145 46.7721 6.3397 46.7022 6.50913C46.6318 6.67747 46.5971 6.85992 46.5971 7.0565C46.5971 7.25362 46.6312 7.43662 46.7 7.60496C46.7683 7.7733 46.8648 7.92155 46.99 8.0497C47.1142 8.17786 47.261 8.27723 47.4291 8.34728C47.5977 8.41788 47.7781 8.45263 47.9717 8.45263ZM47.9765 8.71057C47.7424 8.71057 47.5256 8.66821 47.3261 8.58405C47.1266 8.49988 46.9521 8.38204 46.8025 8.22999C46.6529 8.07903 46.5369 7.90309 46.4545 7.70325C46.3716 7.50341 46.3304 7.28783 46.3304 7.0565C46.3304 6.82571 46.3727 6.61013 46.4567 6.41029C46.5407 6.21046 46.6578 6.03452 46.8074 5.88301C46.957 5.73205 47.132 5.61367 47.3331 5.5295C47.5348 5.44533 47.7516 5.40352 47.9857 5.40352C48.2194 5.40352 48.4367 5.44424 48.6378 5.52733C48.8389 5.60987 49.0134 5.72608 49.1614 5.8765C49.3099 6.02637 49.4248 6.20068 49.5078 6.39889C49.5902 6.5971 49.6313 6.81322 49.6313 7.04781C49.6313 7.28186 49.5896 7.49907 49.5051 7.70108C49.421 7.902 49.3034 8.07903 49.1522 8.22999C49.001 8.38204 48.8259 8.49988 48.6264 8.58405C48.4264 8.66821 48.2101 8.71057 47.9765 8.71057Z" fill="#8C734B"/>
<path d="M81.4806 23.1951L79.8329 21.0045L80.7039 20.4658L82.736 23.1951H81.4806ZM80.8063 21.0387L79.8068 20.9192L81.4806 18.626H82.6254L80.8063 21.0387ZM78.9613 20.4745H80.5066V21.364H78.9613V20.4745ZM78.21 18.626H79.2773V23.1951H78.21V18.626Z" fill="white"/>
<path d="M87.8775 23.195V22.2707L87.8174 22.0742V20.457C87.8174 20.1431 87.7236 19.8999 87.5361 19.7256C87.348 19.5518 87.0629 19.4644 86.6818 19.4644C86.426 19.4644 86.1734 19.5045 85.9262 19.5844C85.6785 19.6642 85.4693 19.7755 85.2986 19.9183L84.8801 19.1396C85.1246 18.9512 85.4167 18.81 85.7555 18.7161C86.0937 18.6216 86.4455 18.5749 86.8103 18.5749C87.4705 18.5749 87.9816 18.7329 88.3431 19.05C88.7041 19.3661 88.8852 19.8553 88.8852 20.5167V23.195H87.8775ZM86.4428 23.2552C86.1013 23.2552 85.8021 23.1966 85.5463 23.0799C85.2899 22.9626 85.092 22.8002 84.9522 22.5922C84.8129 22.3837 84.743 22.1486 84.743 21.8857C84.743 21.6294 84.8042 21.3981 84.9267 21.1928C85.0492 20.9876 85.2498 20.8246 85.5289 20.7052C85.8075 20.5857 86.1777 20.5254 86.639 20.5254H87.9632V21.2357H86.716C86.3517 21.2357 86.1067 21.2938 85.9815 21.4111C85.8563 21.5279 85.7934 21.6718 85.7934 21.8434C85.7934 22.0372 85.8704 22.1909 86.0243 22.3055C86.1777 22.419 86.3913 22.476 86.6645 22.476C86.9268 22.476 87.1615 22.4163 87.3697 22.2968C87.5773 22.1768 87.7269 22.0003 87.8174 21.7663L87.9968 22.4081C87.8943 22.6758 87.7106 22.8838 87.4461 23.0321C87.1816 23.1809 86.8471 23.2552 86.4428 23.2552Z" fill="white"/>
<path d="M91.9166 23.1951V18.626H96.2892V23.1951H95.2306V19.2847L95.4778 19.5334H92.7367L92.9839 19.2847V23.1951H91.9166Z" fill="white"/>
<path d="M99.4406 23.1951V18.626H100.508V21.6382L103.028 18.626H104.001V23.1951H102.933V20.1834L100.423 23.1951H99.4406Z" fill="white"/>
<path d="M108.092 23.1951V19.2766L108.34 19.5334H106.487V18.626H110.757V19.5334H108.912L109.159 19.2766V23.1951H108.092Z" fill="white"/>
<path d="M116.009 23.195V22.2707L115.948 22.0742V20.457C115.948 20.1431 115.855 19.8999 115.667 19.7256C115.479 19.5518 115.194 19.4644 114.813 19.4644C114.557 19.4644 114.304 19.5045 114.057 19.5844C113.81 19.6642 113.6 19.7755 113.43 19.9183L113.011 19.1396C113.256 18.9512 113.548 18.81 113.886 18.7161C114.225 18.6216 114.576 18.5749 114.941 18.5749C115.601 18.5749 116.113 18.7329 116.474 19.05C116.835 19.3661 117.016 19.8553 117.016 20.5167V23.195H116.009ZM114.574 23.2552C114.232 23.2552 113.933 23.1966 113.677 23.0799C113.421 22.9626 113.223 22.8002 113.083 22.5922C112.944 22.3837 112.874 22.1486 112.874 21.8857C112.874 21.6294 112.935 21.3981 113.058 21.1928C113.18 20.9876 113.381 20.8246 113.66 20.7052C113.939 20.5857 114.309 20.5254 114.77 20.5254H116.094V21.2357H114.847C114.483 21.2357 114.238 21.2938 114.113 21.4111C113.987 21.5279 113.924 21.6718 113.924 21.8434C113.924 22.0372 114.001 22.1909 114.155 22.3055C114.309 22.419 114.522 22.476 114.795 22.476C115.058 22.476 115.293 22.4163 115.501 22.2968C115.708 22.1768 115.858 22.0003 115.948 21.7663L116.128 22.4081C116.025 22.6758 115.842 22.8838 115.577 23.0321C115.313 23.1809 114.978 23.2552 114.574 23.2552Z" fill="white"/>
<path d="M120.048 23.1951V18.626H121.115V20.4832H123.413V18.626H124.48V23.1951H123.413V21.3895H121.115V23.1951H120.048Z" fill="white"/>
<path d="M64.9038 38.4772H68.376C69.104 38.4772 69.6568 38.3252 70.0341 38.0211C70.4108 37.717 70.6 37.2473 70.6 36.6114C70.6 36.0032 70.4108 35.5508 70.0341 35.2533C69.6568 34.9568 69.104 34.808 68.376 34.808H64.9038V38.4772ZM64.9038 32.4653H67.8492C68.5381 32.4653 69.0584 32.3171 69.4097 32.0195C69.7609 31.7225 69.9365 31.2837 69.9365 30.7032C69.9365 30.1227 69.7609 29.6839 69.4097 29.3869C69.0584 29.0899 68.5381 28.9411 67.8492 28.9411H64.9038V32.4653ZM61.7632 40.9648V26.4529H68.1223C69.7089 26.4529 70.9442 26.7782 71.8288 27.4276C72.7128 28.0776 73.1551 29.003 73.1551 30.2052C73.1551 31.3945 72.7388 32.3171 71.9068 32.9731C71.0742 33.6296 69.969 33.9576 68.5907 33.9576L68.9614 33.0871C70.4954 33.0871 71.6857 33.4118 72.5307 34.0618C73.3762 34.7113 73.799 35.6507 73.799 36.8807C73.799 38.1525 73.3464 39.1511 72.4429 39.8766C71.5393 40.6021 70.2222 40.9648 68.4931 40.9648H61.7632Z" fill="white"/>
<path d="M83.9378 40.9648L79.6851 33.9788L82.2407 32.341L87.5272 40.9648H83.9378ZM82.5334 34.0819L79.6271 33.7089L84.0549 26.4534H87.39L82.5334 34.0819ZM77.286 32.3198H82.0456V35.1186H77.286V32.3198ZM75.0626 26.4534H78.2031V40.9648H75.0626V26.4534Z" fill="white"/>
<path d="M89.3253 38.2284C90.0793 38.4635 90.7134 38.5292 91.2273 38.425C91.7406 38.3218 92.1992 37.9384 92.6024 37.2748L93.2653 36.2175L93.558 35.8651L98.0834 26.4533H101.185L95.3722 37.9384C94.8518 38.9745 94.2372 39.7695 93.5288 40.3223C92.8198 40.8751 92.043 41.189 91.198 41.2655C90.3525 41.3416 89.4744 41.1787 88.5643 40.7779L89.3253 38.2284ZM93.4995 38.6639L87.3355 26.4533H90.7102L95.2356 36.1969L93.4995 38.6639Z" fill="white"/>
<path d="M106.939 41.2136C105.885 41.2136 104.906 41.0301 104.003 40.6641C103.099 40.2981 102.316 39.7762 101.653 39.0991C100.989 38.4219 100.472 37.6275 100.101 36.7152C99.7312 35.8029 99.5458 34.801 99.5458 33.7089C99.5458 32.6175 99.7312 31.615 100.101 30.7033C100.472 29.791 100.992 28.9965 101.662 28.3188C102.332 27.6422 103.116 27.1198 104.013 26.7538C104.91 26.3878 105.892 26.2048 106.958 26.2048C108.141 26.2048 109.211 26.422 110.167 26.8575C111.122 27.2925 111.926 27.9322 112.576 28.775L110.547 30.7652C110.079 30.1988 109.559 29.7736 108.987 29.4907C108.414 29.2072 107.791 29.0655 107.114 29.0655C106.477 29.0655 105.892 29.1763 105.359 29.3973C104.825 29.6183 104.364 29.936 103.974 30.3503C103.583 30.7652 103.281 31.2561 103.067 31.8225C102.852 32.3894 102.745 33.0182 102.745 33.7089C102.745 34.4002 102.852 35.0291 103.067 35.5954C103.281 36.1624 103.583 36.6527 103.974 37.0676C104.364 37.4819 104.825 37.8001 105.359 38.0211C105.892 38.2422 106.477 38.3524 107.114 38.3524C107.791 38.3524 108.414 38.2112 108.987 37.9277C109.559 37.6448 110.079 37.2126 110.547 36.6321L112.576 38.6223C111.926 39.4651 111.122 40.108 110.167 40.55C109.211 40.9921 108.135 41.2136 106.939 41.2136Z" fill="white"/>
<path d="M120.38 38.3528C120.99 38.3528 121.553 38.242 122.067 38.0215C122.581 37.8005 123.032 37.4823 123.423 37.0674C123.813 36.6531 124.115 36.1622 124.329 35.5953C124.544 35.0294 124.651 34.4006 124.651 33.7093C124.651 33.018 124.544 32.3897 124.329 31.8228C124.115 31.2559 123.815 30.7655 123.432 30.3507C123.049 29.9363 122.596 29.6187 122.077 29.3971C121.556 29.1761 120.99 29.0653 120.38 29.0653C119.768 29.0653 119.206 29.1761 118.692 29.3971C118.178 29.6187 117.727 29.9363 117.337 30.3507C116.946 30.7655 116.644 31.2559 116.43 31.8228C116.215 32.3897 116.108 33.018 116.108 33.7093C116.108 34.3865 116.215 35.012 116.43 35.5855C116.644 36.1589 116.943 36.6531 117.327 37.0674C117.71 37.4823 118.162 37.8005 118.682 38.0215C119.202 38.242 119.768 38.3528 120.38 38.3528ZM120.399 41.214C119.319 41.214 118.322 41.0272 117.405 40.6541C116.488 40.2811 115.695 39.756 115.025 39.0783C114.355 38.4016 113.835 37.6066 113.465 36.6943C113.094 35.7821 112.909 34.7872 112.909 33.7093C112.909 32.6308 113.094 31.636 113.465 30.7237C113.835 29.8114 114.359 29.017 115.035 28.3398C115.711 27.6627 116.504 27.1376 117.415 26.7645C118.325 26.3909 119.313 26.2046 120.38 26.2046C121.459 26.2046 122.45 26.3909 123.354 26.7645C124.258 27.1376 125.045 27.6627 125.715 28.3398C126.384 29.017 126.907 29.8087 127.284 30.7134C127.662 31.6186 127.85 32.6173 127.85 33.7093C127.85 34.7872 127.662 35.7859 127.284 36.7047C126.907 37.624 126.384 38.4185 125.715 39.0891C125.045 39.7592 124.258 40.2811 123.354 40.6541C122.45 41.0272 121.465 41.214 120.399 41.214Z" fill="white"/>
<path d="M132.186 38.4772H135.658C136.386 38.4772 136.939 38.3252 137.316 38.0211C137.693 37.717 137.882 37.2473 137.882 36.6114C137.882 36.0032 137.693 35.5508 137.316 35.2533C136.939 34.9568 136.386 34.808 135.658 34.808H132.186V38.4772ZM132.186 32.4653H135.131C135.82 32.4653 136.341 32.3171 136.692 32.0195C137.043 31.7225 137.219 31.2837 137.219 30.7032C137.219 30.1227 137.043 29.6839 136.692 29.3869C136.341 29.0899 135.82 28.9411 135.131 28.9411H132.186V32.4653ZM129.045 40.9648V26.4529H135.405C136.991 26.4529 138.226 26.7782 139.111 27.4276C139.995 28.0776 140.437 29.003 140.437 30.2052C140.437 31.3945 140.021 32.3171 139.189 32.9731C138.356 33.6296 137.251 33.9576 135.873 33.9576L136.244 33.0871C137.778 33.0871 138.968 33.4118 139.813 34.0618C140.658 34.7113 141.081 35.6507 141.081 36.8807C141.081 38.1525 140.629 39.1511 139.725 39.8766C138.821 40.6021 137.504 40.9648 135.775 40.9648H129.045Z" fill="white"/>
</svg>
