<svg width="245" height="492" viewBox="0 0 245 492" fill="none" xmlns="http://www.w3.org/2000/svg">
<path d="M69.5448 -26.7028C82.1737 -26.7028 94.8026 -26.7028 107.814 -26.7028C107.814 -26.1972 107.814 -25.6916 107.814 -25.1707C109.127 -25.0522 109.127 -25.0522 110.466 -24.9313C114.027 -24.4802 117.166 -23.4279 120.491 -22.1065C121.387 -21.7505 121.387 -21.7505 122.302 -21.3873C144.557 -12.239 160.614 5.67244 169.941 27.6056C171.52 31.6168 172.63 35.756 173.638 39.9436C173.944 38.9887 174.251 38.0338 174.567 37.0499C182.032 14.4268 194.758 -4.66177 215.734 -16.7441C216.179 -17.0005 216.623 -17.2569 217.082 -17.521C227.174 -23.2041 238.102 -26.7865 249.692 -26.8853C250.739 -26.8946 250.739 -26.8946 251.807 -26.904C253.285 -26.9146 254.764 -26.9228 256.242 -26.9289C257.734 -26.9376 259.225 -26.9532 260.717 -26.976C269.987 -27.1173 278.111 -26.7126 286.915 -23.6386C287.888 -23.3078 287.888 -23.3078 288.88 -22.9703C290.482 -22.3926 292.046 -21.7683 293.612 -21.101C294.155 -20.8723 294.699 -20.6437 295.258 -20.4081C303.039 -17.0346 309.514 -12.1929 316 -6.78546C316.47 -6.41812 316.941 -6.05077 317.426 -5.6723C321.678 -2.26772 324.933 1.94009 328.246 6.23738C328.946 7.13649 328.946 7.13649 329.66 8.05375C343.406 26.6371 348.337 50.538 344.989 73.2188C341.323 95.3957 329.36 115.844 311.407 129.571C299.765 137.775 287.742 142.564 273.903 145.658C274.802 145.919 275.701 146.18 276.627 146.448C300.789 153.645 320.553 166.722 333.018 189.096C343.632 208.821 347.658 233.396 341.258 255.203C333.73 279.623 318.652 298.421 296.069 310.495C289.202 313.978 281.504 316.712 273.903 318.02C274.326 318.127 274.749 318.234 275.185 318.344C284.818 320.828 293.582 323.783 302.223 328.744C303 329.187 303.778 329.629 304.579 330.085C309.683 333.167 314.003 336.878 318.296 341.001C318.943 341.617 319.59 342.233 320.257 342.868C320.873 343.516 321.489 344.164 322.123 344.831C322.623 345.336 323.123 345.841 323.639 346.36C340.243 363.78 345.591 386.699 345.27 410.098C344.635 433.1 333.399 454.166 316.9 469.817C299.397 485.802 276.506 492.756 253.094 491.817C232.611 490.623 213.876 482.017 198.895 468.165C198.341 467.672 197.786 467.18 197.215 466.672C185.208 455.457 177.218 439.646 173.638 423.734C173.507 424.162 173.377 424.589 173.243 425.029C165.482 450.168 151.276 470.203 127.801 482.69C107.716 492.916 83.9854 494.622 62.3932 488.28C40.3766 480.699 21.5015 465.451 10.8844 444.542C-0.0312418 422.038 -1.22328 397.462 6.75752 373.801C14.4595 352.362 31.0488 334.845 51.4625 325.058C57.5153 322.267 63.8842 320.494 70.3102 318.786C70.3102 318.533 70.3102 318.28 70.3102 318.02C69.5879 317.843 68.8657 317.666 68.1216 317.484C44.4 311.522 24.7103 297.87 12.0842 276.814C0.092318 256.385 -2.8815 232.252 2.74914 209.326C6.07972 197.027 11.9073 184.963 20.5599 175.534C21.0651 174.922 21.5702 174.31 22.0907 173.679C34.822 158.594 52.8519 149.854 71.8409 145.658C71.172 145.508 70.5031 145.358 69.8139 145.204C47.1579 139.689 27.3797 126.242 15.0677 106.234C2.80875 85.6515 -1.35733 61.4842 4.29243 38.0853C7.93323 24.3375 14.2063 12.3256 23.6215 1.64108C24.0033 1.1582 24.3851 0.675322 24.7785 0.177807C34.1565 -11.6287 51.6413 -22.1997 66.4832 -25.1707C67.4935 -25.1707 68.5038 -25.1707 69.5448 -25.1707C69.5448 -25.6762 69.5448 -26.1818 69.5448 -26.7028ZM48.8793 -12.9139C50.0638 -12.099 51.2625 -11.3049 52.467 -10.52C53.466 -9.8534 53.466 -9.8534 54.4852 -9.17338C56.5014 -8.08026 56.5014 -8.08026 58.5573 -8.89808C59.1522 -9.2121 59.7471 -9.52612 60.3601 -9.84966C64.4529 -11.2151 69.3564 -11.3998 73.5003 -10.092C76.6486 -8.41566 79.4627 -6.18257 81.0256 -2.95521C81.7119 -0.055994 82.221 2.78651 82.655 5.73466C83.511 9.33052 84.8743 11.9672 87.8334 14.251C91.2987 15.9039 93.9591 16.8242 97.8641 16.196C102.06 14.48 104.682 12.1698 106.493 8.00887C107.126 5.99275 107.48 4.01445 107.814 1.92835C108.61 -2.96129 110.303 -5.97686 114.272 -8.98785C118.505 -11.4268 122.986 -11.3483 127.714 -10.6157C132.185 -8.94729 134.546 -6.32018 136.899 -2.18917C137.566 0.611702 137.566 0.611702 137.999 3.55621C138.77 8.03882 139.466 10.9179 143.022 13.8979C146.407 16.1075 148.957 16.6266 152.972 16.196C155.537 15.1372 155.537 15.1372 157.564 13.8979C152.883 3.90166 143.081 -4.89322 133.837 -10.6157C133.081 -11.1095 132.324 -11.6032 131.544 -12.1119C109.982 -25.4316 69.5448 -31.7735 48.8793 -12.9139ZM214.203 -11.3818C217.867 -7.24159 223.918 -5.60801 229.299 -5.22942C236.831 -5.33288 244.806 -8.30497 250.176 -13.6799C253.663 -18.2681 253.663 -18.2681 255.534 -23.6386C240.99 -24.7704 226.491 -18.5921 214.203 -11.3818ZM263.188 -23.6386C265.324 -17.0824 270 -11.6221 276.056 -8.31756C283.167 -5.22185 290.188 -4.51105 297.63 -6.78546C299.782 -7.68629 301.718 -8.69668 303.754 -9.84966C303.754 -10.3553 303.754 -10.8608 303.754 -11.3818C291.318 -18.6143 277.79 -24.1983 263.188 -23.6386ZM259.361 -21.3404C258.887 -20.5213 258.887 -20.5213 258.404 -19.6856C253.471 -11.4974 247.509 -5.63299 238.038 -3.14673C236.219 -2.77654 234.409 -2.45124 232.572 -2.18917C232.747 5.43698 235.387 10.9139 240.492 16.5312C245.662 21.4242 252.288 23.8886 259.361 24.1438C267.89 23.8232 274.854 20.2357 280.648 14.0415C284.692 9.11219 286.457 4.11931 286.915 -2.18917C286.405 -2.24644 285.895 -2.30371 285.369 -2.36272C277.997 -3.41537 271.815 -6.39841 266.25 -11.3818C264.758 -13.4704 264.758 -13.4704 263.427 -15.6908C261.627 -18.6986 261.627 -18.6986 259.361 -21.3404ZM27.3767 3.23602C11.3047 20.4389 5.15404 42.869 5.88039 65.9694C7.18774 88.0639 18.4807 108.255 34.5477 123.063C38.0489 126.102 41.8977 128.641 45.8177 131.103C46.5074 131.543 47.197 131.982 47.9076 132.435C49.5715 133.536 49.5715 133.536 51.4146 133.449C57.8779 130.892 64.9797 124.551 68.7794 118.847C68.0172 118.568 68.0172 118.568 67.2396 118.284C61.0481 115.932 57.4344 113.706 54.2908 107.76C52.9785 104.658 52.4052 101.486 51.9408 98.1633C53.2037 98.1633 54.4666 98.1633 55.7678 98.1633C55.7875 98.6077 55.8072 99.0521 55.8276 99.5099C56.2303 105.061 58.0205 108.276 62.0344 112.144C65.0082 114.615 68.0697 115.286 71.8409 115.782C75.2821 111.275 78.1918 106.545 80.8821 101.563C81.3238 100.764 81.3238 100.764 81.7744 99.9485C83.8139 96.0939 84.8215 92.4937 85.6179 88.2047C89.9118 87.9519 94.2056 87.6991 98.6295 87.4386C97.1058 81.2166 95.5765 74.9959 94.0377 68.7776C93.3231 65.889 92.6109 62.9999 91.9042 60.1094C91.22 57.3115 90.5294 54.5153 89.8347 51.7201C89.5728 50.662 89.3131 49.6033 89.0559 48.544C83.2641 24.7248 71.2775 5.05651 50.548 -8.4597C41.5755 -13.9057 33.5467 -2.90479 27.3767 3.23602ZM199.278 0.970789C196.462 3.85988 194.035 6.95024 191.672 10.2113C191.346 10.6572 191.021 11.1032 190.685 11.5627C188.774 14.2831 187.538 16.8241 186.649 20.0263C194.738 23.8182 202.025 25.3395 210.747 22.4022C219.24 18.6799 224.077 12.7418 227.472 4.31627C228.065 2.0893 228.067 0.105503 227.98 -2.18917C227.333 -2.31063 226.686 -2.43209 226.019 -2.55723C221.118 -3.56614 217.122 -4.59927 213.046 -7.56049C209.001 -10.2487 202.101 -1.71399 199.278 0.970789ZM60.3601 -5.25336C60.7222 -4.94625 61.0843 -4.63915 61.4574 -4.32273C77.3093 9.31614 87.1643 25.6671 91.741 46.072C95.3286 46.3592 97.9015 46.4432 101.165 44.7793C105.179 41.3222 106.609 38.8 107.384 33.5279C108.3 28.2467 109.265 24.6542 113.746 21.3309C117.741 18.9773 121.638 18.6506 126.183 19.2602C131.178 20.8172 134.17 23.1679 136.66 27.7825C137.598 30.1467 137.935 32.451 138.286 34.9642C138.975 39.173 140.489 41.8307 143.787 44.5399C147.039 46.5002 150.032 46.5732 153.737 46.072C156.697 45.0537 158.738 43.3942 160.865 41.0926C162.713 37.2572 163.137 33.4093 163.688 29.2189C163.966 28.0665 163.966 28.0665 164.25 26.8908C164.508 24.0129 163.78 22.8867 162.205 20.5051C161.771 19.8355 161.338 19.166 160.892 18.4762C160.381 17.7267 160.381 17.7267 159.861 16.9621C158.992 17.3413 158.124 17.7205 157.23 18.1111C152.512 19.8515 148.242 20.1041 143.596 18.0154C139.501 15.705 136.647 12.3566 135.368 7.76948C135.281 6.66881 135.202 5.56752 135.129 4.46589C134.749 0.536102 133.352 -2.2768 130.776 -5.25336C127.204 -7.85333 123.576 -8.20847 119.295 -7.55151C115.627 -6.34204 113.245 -4.29729 111.459 -0.803694C110.477 2.02427 110.19 4.96187 109.767 7.9161C108.876 12.4609 106.173 15.1877 102.456 17.7281C98.5856 19.8804 94.3213 19.81 90.0697 18.9041C86.3202 17.7052 83.7697 15.8353 81.791 12.3658C80.318 8.96228 79.4918 5.51677 78.8251 1.88047C78.079 -1.67916 76.7324 -3.48372 74.1371 -6.01941C71.799 -7.46102 69.9812 -7.77839 67.2486 -7.7909C66.6014 -7.80374 65.9541 -7.81658 65.2873 -7.8298C63.0747 -7.49976 62.0223 -6.71292 60.3601 -5.25336ZM302.51 -5.73214C298.667 -3.71189 295.018 -2.79929 290.742 -2.18917C291.398 6.83352 295.29 12.5654 301.744 18.6857C308.121 22.9402 314.512 24.5761 322.123 23.8565C325.284 23.0784 328.344 22.1512 331.308 20.7923C331.686 20.0339 331.686 20.0339 332.073 19.2602C327.218 9.62661 318.346 -1.79581 309.111 -7.55151C305.958 -7.55151 305.139 -7.21511 302.51 -5.73214ZM288.446 7.76948C287.286 9.60936 286.215 11.4953 285.13 13.3802C279.589 22.2779 271.42 25.3902 261.657 27.6868C261.938 34.9921 264.997 41.4743 270.364 46.455C277.858 52.539 285.072 53.7812 294.569 52.9664C302.416 50.9369 308.158 46.7648 312.46 39.9436C314.756 35.8352 316 32.4533 316 27.6868C315.315 27.5189 314.63 27.351 313.925 27.1781C304.977 24.8294 297.732 21.695 292.273 13.8979C291.117 11.886 290.159 9.89341 289.211 7.76948C288.959 7.76948 288.706 7.76948 288.446 7.76948ZM229.511 8.53553C228.811 9.65685 228.167 10.8137 227.55 11.9827C222.966 19.8167 216.23 24.3235 207.545 26.7262C205.947 27.0903 204.335 27.3956 202.722 27.6868C204.472 36.2315 207.218 42.8552 214.203 48.3701C221.873 52.8918 229.195 54.1752 237.993 52.5235C245.094 50.2867 251.105 45.0749 254.799 38.612C256.286 35.1081 257.069 31.4054 257.83 27.6868C257.238 27.5564 256.646 27.4261 256.036 27.2918C246.745 25.1281 239.086 21.6811 233.532 13.449C232.633 11.8333 231.799 10.2219 231.042 8.53553C230.537 8.53553 230.031 8.53553 229.511 8.53553ZM112.981 27.0165C111.382 29.6444 110.999 31.9142 110.481 34.9164C109.531 39.9465 108.045 43.5323 103.987 46.838C100.415 49.0628 97.3836 49.5474 93.2718 49.9022C94.1299 55.4907 95.3808 60.9779 96.7161 66.468C96.9613 67.5038 96.9613 67.5038 97.2114 68.5605C97.3716 69.207 97.5317 69.8536 97.6967 70.5197C97.9106 71.396 97.9106 71.396 98.1287 72.2901C98.5123 73.8096 98.5123 73.8096 100.16 74.4158C105.276 70.6612 106.788 67.1297 107.766 60.9621C108.575 56.1615 110.045 53.4068 113.985 50.4289C118.243 47.9809 122.14 47.9092 126.949 48.3701C130.854 49.4606 133.873 51.523 136.128 54.9683C137.358 57.8838 137.737 60.9704 138.255 64.0741C139.034 68.3243 140.344 71.03 143.787 73.6497C146.846 75.5027 150.239 75.8062 153.737 75.1818C158.174 73.3341 160.298 71.2341 162.157 66.7553C162.539 64.9934 162.872 63.2204 163.161 61.4408C164.138 56.5241 165.366 54.0376 169.045 50.6683C169.55 50.4155 170.056 50.1627 170.576 49.9022C170.748 45.7623 170.185 42.3852 169.045 38.4593C168.899 37.9355 168.753 37.4116 168.603 36.8719C168.246 35.5959 167.881 34.3222 167.514 33.0491C167.009 33.0491 166.504 33.0491 165.984 33.0491C165.909 33.5488 165.834 34.0485 165.756 34.5633C164.825 40.0129 163.616 43.6246 159.047 47.0774C154.796 49.5215 150.887 49.609 146.084 49.1362C142.015 47.8957 139.161 45.8996 136.899 42.2417C135.964 40.0579 135.419 38.0207 135.099 35.6674C134.383 30.5315 133.3 27.2369 129.245 23.8565C123.029 20.0908 117.782 22.4777 112.981 27.0165ZM184.353 23.0905C180.234 31.3684 176.489 40.7926 176.651 50.1895C176.667 51.1059 176.683 52.0222 176.699 52.9664C184.1 50.97 190.861 47.3304 195.068 40.7096C198.201 34.4937 198.201 34.4937 198.895 27.6868C198.038 27.4192 197.181 27.1516 196.297 26.8758C195.17 26.5237 194.043 26.1716 192.916 25.8195C192.351 25.6433 191.786 25.467 191.204 25.2854C188.915 24.5699 186.629 23.8496 184.353 23.0905ZM328.285 25.5412C325.554 26.6085 322.698 27.1328 319.827 27.6868C320.809 34.7157 323.228 40.91 328.246 46.072C334.178 50.6038 334.178 50.6038 341.258 52.2004C341.066 42.1806 338.434 32.9688 334.369 23.8565C331.913 23.8565 330.486 24.5458 328.285 25.5412ZM317.531 36.8794C317.167 37.7326 316.804 38.5857 316.43 39.4648C312.459 47.2749 306.557 52.2424 298.396 55.2646C295.857 55.9488 293.349 56.4618 290.742 56.7967C291.005 63.6293 293.901 70.0074 298.492 75.0861C304.308 80.3878 311.687 83.1234 319.474 83.0069C327.344 82.3193 334.05 78.4699 339.413 72.7849C342.859 68.2081 342.203 62.2489 342.023 56.7967C341.385 56.5824 340.746 56.3681 340.089 56.1473C330.384 52.6871 324.042 47.921 319.157 38.7945C318.873 38.1625 318.589 37.5305 318.296 36.8794C318.043 36.8794 317.791 36.8794 317.531 36.8794ZM200.426 37.6454C199.736 38.7982 199.071 39.9665 198.417 41.1405C193.59 49.2192 187.128 53.6738 178.039 56.3179C177.344 56.4759 176.649 56.6339 175.934 56.7967C175.687 63.6164 175.999 68.3276 180.526 73.7455C186.184 79.7266 192.967 82.4256 201.096 83.0817C208.483 82.8363 215.904 79.6007 221.125 74.3859C225.448 69.1634 228.228 63.653 227.98 56.7967C227.388 56.6663 226.796 56.536 226.186 56.4017C216.13 54.0598 209.167 50.4721 203.536 41.5235C203.102 40.7898 202.669 40.0561 202.223 39.3002C201.883 38.7541 201.542 38.208 201.192 37.6454C200.939 37.6454 200.686 37.6454 200.426 37.6454ZM259.361 37.6454C258.471 39.0414 257.597 40.448 256.73 41.8587C251.109 50.3478 244.24 54.5904 234.342 56.6051C233.758 56.6683 233.174 56.7315 232.572 56.7967C232.937 64.3295 235.606 70.5571 240.992 75.9479C246.537 80.5209 253.399 83.4554 260.718 83.1087C267.5 82.0489 273.485 79.9445 278.496 75.1818C278.919 74.7799 279.342 74.378 279.778 73.9639C284.281 69.2118 286.355 63.2438 286.915 56.7967C286.286 56.6841 285.656 56.5715 285.008 56.4555C276.483 54.7412 269.444 51.4852 263.953 44.5399C262.546 42.3015 261.293 40.0179 260.126 37.6454C259.874 37.6454 259.621 37.6454 259.361 37.6454ZM112.167 56.7967C110.536 59.9863 110.27 63.3939 109.767 66.9019C108.865 71.504 106.138 74.0683 102.456 76.7139C101.699 77.2195 100.941 77.7251 100.16 78.246C101.171 82.5436 102.181 86.8411 103.222 91.2689C98.6754 91.2689 94.129 91.2689 89.4449 91.2689C87.1955 95.7679 87.1955 95.7679 85.014 100.3C78.2179 114.639 68.7665 126.455 55.7678 135.7C58.2257 137.34 60.6475 138.225 63.4217 139.147C64.3688 139.471 65.316 139.795 66.2919 140.128C73.6454 142.362 80.8319 142.87 88.4881 142.834C89.436 142.829 90.3839 142.825 91.3606 142.821C110.605 142.565 127.312 135.469 142.257 123.443C142.815 123.003 143.374 122.562 143.949 122.108C158.354 110.198 166.872 92.3948 170.576 74.4158C170.727 73.7127 170.878 73.0096 171.033 72.2852C171.483 68.6844 171.421 65.1132 171.389 61.4887C171.384 60.3689 171.384 60.3689 171.379 59.2265C171.37 57.3951 171.357 55.5638 171.341 53.7325C167.89 57.053 166.491 59.2499 165.664 63.9933C164.728 69.3349 163.542 72.7905 159.047 76.1873C154.786 78.6374 150.894 78.6259 146.084 78.246C141.559 76.6526 138.646 73.937 136.373 69.7237C135.434 67.3596 135.097 65.0553 134.746 62.542C134.058 58.3332 132.544 55.6755 129.245 52.9664C123.025 49.2161 116.379 51.3275 112.167 56.7967ZM229.511 66.7553C229.132 67.6243 228.753 68.4933 228.363 69.3886C224.477 77.0192 219.048 81.2845 211.142 84.3744C208.359 85.2679 205.574 86.0322 202.722 86.6726C204.518 95.9916 207.953 102.508 215.734 108.122C222.216 112.003 228.102 112.546 235.634 111.952C243.416 109.948 249.3 105.363 254.003 98.9294C256.091 94.9482 257.169 91.1097 257.83 86.6726C257.146 86.5047 256.461 86.3368 255.755 86.1639C244.949 83.3273 237.855 79.0425 231.903 69.4365C231.456 68.6662 231.456 68.6662 231 67.8804C230.761 67.5091 230.522 67.1378 230.276 66.7553C230.024 66.7553 229.771 66.7553 229.511 66.7553ZM288.446 66.7553C288.185 67.2372 287.925 67.7191 287.657 68.2156C282.275 77.7269 275.921 82.8398 265.388 85.7629C264.147 86.0745 262.904 86.3809 261.657 86.6726C262.039 93.5502 264.803 99.5118 269.467 104.6C275.875 110.303 282.789 112.354 291.244 112.189C298.974 111.475 305.474 107.812 310.478 101.916C313.702 97.428 316 92.2699 316 86.6726C315.213 86.4672 314.427 86.2618 313.617 86.0502C303.506 83.2562 296.373 79.5025 291.002 70.0649C290.038 68.2166 290.038 68.2166 288.446 66.7553ZM173.638 76.7139C173.377 77.6777 173.117 78.6415 172.848 79.6345C166.159 103.593 152.618 123.197 130.776 135.7C121.689 140.724 111.881 143.764 101.691 145.658C101.691 145.911 101.691 146.164 101.691 146.424C103.053 146.746 103.053 146.746 104.442 147.074C127.83 152.79 147.808 165.391 160.626 186.259C165.578 194.784 169.599 204.09 171.341 213.837C173.154 213.153 173.154 213.153 173.697 210.692C174 209.65 174.298 208.608 174.594 207.565C178.891 193.3 185.457 181.628 195.834 170.938C196.547 170.153 196.547 170.153 197.275 169.352C209.377 156.429 227.15 149.47 244.053 145.658C244.053 145.406 244.053 145.153 244.053 144.892C243.128 144.669 242.202 144.446 241.249 144.216C217.966 138.451 198.244 126.029 185.579 105.154C180.275 96.1233 176.672 86.9623 174.403 76.7139C174.15 76.7139 173.898 76.7139 173.638 76.7139ZM178.23 76.7139C179.753 86.7924 183.969 95.5219 188.945 104.292C191.217 104.553 191.217 104.553 192.363 103.247C196.074 98.3308 198.895 92.9368 198.895 86.6726C198.082 86.4494 197.269 86.2262 196.432 85.9963C190.304 84.2428 185.345 82.5854 180.526 78.246C179.768 77.7404 179.011 77.2349 178.23 76.7139ZM338.961 78.246C338.429 78.6771 338.429 78.6771 337.885 79.1168C332.36 83.2127 326.361 84.8592 319.827 86.6726C320.705 92.9582 322.234 98.7284 327.226 102.957C328.11 103.618 328.11 103.618 329.011 104.292C333.426 96.4267 337.64 88.6253 339.727 79.7781C339.474 79.2725 339.222 78.767 338.961 78.246ZM200.426 95.8652C200.203 96.356 199.98 96.8467 199.75 97.3524C199.437 98.015 199.123 98.6776 198.8 99.3603C198.498 100.009 198.196 100.658 197.885 101.326C196.237 104.146 194.189 106.472 192.007 108.888C197.383 115.489 202.69 121.459 209.611 126.507C210.423 127.104 211.235 127.7 212.071 128.315C215.905 131.4 215.905 131.4 220.443 132.615C224.016 130.732 225.963 126.103 227.502 122.533C228.016 120.219 228.013 118.145 227.98 115.782C227.397 115.661 226.814 115.54 226.213 115.414C216.864 113.3 209.654 109.696 204.444 101.467C204.006 100.737 203.568 100.007 203.117 99.2555C202.024 97.3493 202.024 97.3493 200.426 95.8652ZM259.361 95.8652C258.634 97.0306 257.938 98.2156 257.256 99.4082C252.177 107.921 245.98 112.487 236.399 115.016C235.13 115.302 233.857 115.575 232.572 115.782C232.981 124.228 236.121 129.997 242.274 135.769C247.938 140.427 254.397 142.11 261.657 141.732C269.217 140.897 275.768 137.452 280.753 131.672C284.304 126.919 286.915 121.827 286.915 115.782C286.054 115.6 286.054 115.6 285.175 115.414C276.587 113.455 269.489 110.664 263.953 103.526C262.498 101.041 261.254 98.5139 260.126 95.8652C259.874 95.8652 259.621 95.8652 259.361 95.8652ZM317.531 95.8652C317.279 96.4024 317.027 96.9396 316.768 97.493C313.05 104.915 307.885 110.637 299.927 113.484C296.885 114.351 293.83 115.103 290.742 115.782C290.962 121.496 292.965 126.327 296.1 131.103C297.681 132.155 297.681 132.155 299.161 132.636C309.676 126.018 318.343 118.736 325.95 108.888C324.856 106.584 323.593 104.492 322.171 102.377C321.785 101.8 321.399 101.223 321.002 100.629C319.882 99.0097 318.722 97.4318 317.531 95.8652ZM288.446 124.975C288.176 125.521 287.907 126.067 287.63 126.63C285.135 131.474 282.57 135.159 278.496 138.764C277.991 139.27 277.485 139.775 276.965 140.296C281.45 139.9 285.085 138.953 289.211 137.184C289.731 136.968 290.251 136.752 290.787 136.53C292.05 136.005 293.31 135.47 294.569 134.934C293.836 133.704 293.102 132.476 292.368 131.247C291.96 130.563 291.552 129.878 291.131 129.173C290.268 127.754 289.367 126.358 288.446 124.975ZM229.511 125.741C229.031 126.682 228.553 127.624 228.076 128.566C227.809 129.09 227.543 129.615 227.269 130.155C226.399 131.974 225.649 133.821 224.919 135.7C230.989 138.23 236.758 140.185 243.288 141.062C242.767 140.683 242.246 140.304 241.709 139.913C236.898 135.815 233.613 131.507 231.042 125.741C230.537 125.741 230.031 125.741 229.511 125.741ZM22.8561 178.599C13.0034 190.917 3.63414 209.114 4.48677 225.328C6.26947 223.599 7.98972 221.886 9.58138 219.977C21.886 205.261 41.4942 195.832 60.5006 194.045C82.7482 192.748 103.29 197.883 120.826 212.305C121.817 213.108 121.817 213.108 122.829 213.927C128.091 218.405 132.097 223.596 136.134 229.158C138.617 226.708 140.998 224.206 143.309 221.593C144.488 220.283 145.668 218.975 146.849 217.667C147.485 216.952 147.485 216.952 148.135 216.222C152.218 211.86 157.209 208.696 162.157 205.41C162.914 204.905 163.672 204.399 164.453 203.878C163.169 194.615 156.487 185.594 150.676 178.599C150.133 177.939 149.591 177.279 149.032 176.6C135.468 160.819 116.19 151.051 95.568 148.723C67.033 146.627 41.7946 157.103 22.8561 178.599ZM221.857 156.383C221.018 156.776 220.18 157.169 219.316 157.574C199.939 167.341 185.551 184.693 178.326 205.027C171.867 226.3 172.531 249.728 182.838 269.744C193.927 290.126 211.061 305.041 233.194 312.131C255.85 318.609 278.691 315.735 299.28 304.294C303.086 302.058 306.501 299.401 309.877 296.57C310.648 295.923 311.42 295.277 312.215 294.61C327.339 281.534 337.19 262.813 339.727 242.947C341.181 221.772 337.988 201.407 325.184 183.961C324.732 183.339 324.279 182.717 323.812 182.076C317.744 174.137 310.718 167.042 302.223 161.745C301.561 161.308 300.899 160.871 300.217 160.42C276.747 145.661 246.735 144.696 221.857 156.383ZM52.7062 198.516C53.6982 201.618 54.8424 204.583 56.1505 207.565C62.2274 222.18 61.3778 238.685 56.0997 253.42C54.5999 256.905 52.711 259.865 50.4101 262.864C49.9049 263.622 49.3997 264.381 48.8793 265.162C68.2019 269.817 87.0313 268.083 104.753 259.034C105.562 258.624 106.371 258.214 107.204 257.792C116.407 252.765 124.15 245.668 130.776 237.584C131.157 237.134 131.538 236.684 131.93 236.22C132.957 234.966 132.957 234.966 133.837 232.988C132.95 229.762 131.256 227.75 129.006 225.328C128.385 224.658 127.765 223.989 127.125 223.299C125.31 221.383 123.504 219.486 121.591 217.667C121.125 217.214 120.66 216.761 120.18 216.294C105.175 202.228 85.2391 196.35 65.0324 196.899C60.8856 197.117 56.7929 197.8 52.7062 198.516ZM15.7882 218.607C9.24094 225.138 9.24094 225.138 4.48677 232.988C5.97626 234.869 7.47121 236.744 8.97445 238.614C9.90553 239.772 10.8319 240.935 11.743 242.109C19.5501 251.825 32.7771 260.935 45.0523 263.63C54.2628 254.358 57.2853 241.981 57.2986 229.158C56.8932 218.943 55.0699 207.951 48.1139 200.048C36.8104 200.048 23.4876 211.145 15.7882 218.607ZM147.614 221.497C142.21 226.858 142.21 226.858 139.96 233.754C141.832 236.889 144.393 239.491 146.849 242.181C147.747 243.175 147.747 243.175 148.664 244.189C153.306 249.078 158.515 253.493 164.453 256.736C165.211 256.483 165.968 256.23 166.749 255.97C167.519 253.864 167.519 253.864 167.993 251.325C168.176 250.479 168.36 249.633 168.549 248.761C170.701 236.834 172.489 218.579 165.984 207.708C160.439 207.708 151.299 217.81 147.614 221.497ZM136.134 236.052C135.069 237.26 134.058 238.514 133.072 239.787C120.971 254.829 105.691 264.162 87.1487 268.992C86.4255 269.181 85.7023 269.37 84.9572 269.564C64.9203 273.772 43.1179 269.373 25.8795 258.595C18.0635 253.457 11.0986 247.197 5.25216 239.883C4.22359 243.249 4.95141 246.058 5.73052 249.41C5.87235 250.027 6.01418 250.643 6.16031 251.278C9.22313 264.085 14.9146 275.948 23.6215 285.845C24.1296 286.464 24.6377 287.082 25.1612 287.719C38.7524 303.761 58.588 313.346 79.3513 315.482C80.674 315.574 81.9975 315.655 83.3218 315.721C83.8476 315.753 84.3735 315.785 84.9153 315.817C106.658 316.483 127.474 307.939 143.402 293.389C152.883 284.452 159.619 274.192 164.453 262.098C164.453 261.592 164.453 261.087 164.453 260.566C163.305 259.783 162.115 259.06 160.913 258.363C152.666 253.222 145.607 247.082 139.975 239.127C139.234 238.081 138.453 237.063 137.664 236.052C137.159 236.052 136.654 236.052 136.134 236.052ZM171.341 250.607C171.136 251.405 170.931 252.203 170.72 253.025C164.649 275.622 150.955 295.23 130.677 307.185C121.803 312.182 112.294 315.507 102.456 318.02C102.456 318.272 102.456 318.525 102.456 318.786C103.245 318.945 104.033 319.104 104.845 319.267C127.754 324.125 147.472 336.541 160.445 356.363C166.446 365.818 170.025 375.39 172.872 386.198C173.377 385.945 173.882 385.692 174.403 385.432C174.999 383.504 175.526 381.591 176.029 379.639C179.88 365.731 187.408 353.686 197.365 343.299C198.121 342.483 198.121 342.483 198.892 341.65C210.777 329.181 227.395 322.04 244.053 318.786C244.053 318.533 244.053 318.28 244.053 318.02C242.609 317.698 242.609 317.698 241.135 317.37C217.099 311.823 197.248 299.307 183.833 278.095C178.559 269.44 175.462 260.367 172.872 250.607C172.367 250.607 171.862 250.607 171.341 250.607ZM29.2692 345.517C28.0327 347.078 28.0327 347.078 28.2407 349.066C29.1189 351.318 30.0923 352.297 31.9451 353.832C32.4798 354.287 33.0146 354.741 33.5655 355.209C37.0087 357.703 40.9759 357.535 45.0523 357.088C49.5474 355.526 52.3766 352.44 54.4284 348.231C55.1525 346.201 55.1525 346.201 55.0024 343.299C56.2653 343.299 57.5282 343.299 58.8293 343.299C58.8609 344.058 58.8925 344.816 58.925 345.597C59.4764 349.421 61.5676 352.051 64.187 354.79C67.9891 357.557 71.8931 357.615 76.4333 357.088C80.659 355.705 83.0396 352.916 85.6179 349.428C86.6546 347.353 86.4331 345.59 86.3833 343.299C87.8988 343.299 89.4143 343.299 90.9756 343.299C90.9125 343.963 90.8493 344.626 90.7843 345.31C91.0936 349.489 93.3146 351.983 96.3812 354.646C100.211 357.501 103.945 357.693 108.58 357.088C112.84 355.403 115.706 352.782 117.764 348.662C118.374 345.802 118.374 345.802 118.53 343.299C119.793 343.299 121.055 343.299 122.357 343.299C122.42 344.089 122.483 344.879 122.548 345.693C123.496 350.598 125.957 353.514 130.01 356.322C134.116 357.692 138.344 357.617 142.448 356.274C145.103 354.402 147.557 352.303 149.145 349.428C149.086 347.167 148.372 346.355 146.867 344.658C128.769 328.254 107.387 320.038 82.9335 320.967C62.5142 322.216 43.927 331.528 29.2692 345.517ZM205.784 340.235C204.861 341.004 203.937 341.77 203.009 342.533C202.11 343.292 202.11 343.292 201.192 344.065C201.697 344.318 202.202 344.571 202.722 344.831C204.354 344.283 205.962 343.665 207.554 343.012C216.897 339.195 229.307 338.398 238.995 341.686C246.015 344.663 252.425 347.731 257.83 353.258C260.643 351.995 262.959 350.246 265.436 348.422C276.622 340.541 289.245 338.24 302.632 340.4C305.932 341.148 309.003 342.206 312.116 343.524C312.64 343.702 313.164 343.881 313.704 344.065C314.461 343.686 314.461 343.686 315.234 343.299C298.926 327.44 277.297 320.636 254.954 320.919C237.004 321.448 219.225 328.312 205.784 340.235ZM190.669 358.941C182.236 369.603 180.07 381.298 181.291 394.624C181.93 397.926 182.925 400.78 184.353 403.817C184.813 404.845 184.813 404.845 185.283 405.894C189.761 414.962 197.128 422.173 204.313 429.136C206.006 430.803 207.571 432.547 209.12 434.348C211.939 437.61 214.955 440.633 218.03 443.652C221.565 447.122 224.943 450.645 228.174 454.4C230.419 456.933 232.836 459.286 235.251 461.654C238.148 464.493 240.979 467.34 243.626 470.416C246.529 473.786 249.646 476.913 252.807 480.039C253.367 480.596 253.927 481.153 254.504 481.727C255.866 483.081 257.23 484.434 258.596 485.784C261.614 483.272 264.456 480.782 267.015 477.789C270.547 473.774 274.303 470.017 278.119 466.273C280.492 463.93 282.773 461.556 284.948 459.027C288.371 455.054 292.121 451.427 295.858 447.754C298.946 444.697 301.871 441.571 304.703 438.276C307.553 435.062 310.67 432.104 313.734 429.097C316.768 426.094 319.659 423.022 322.435 419.778C323.701 418.318 325.011 416.909 326.333 415.499C335.091 405.41 337.556 394.843 336.824 381.83C335.783 370.269 329.738 360.162 321.037 352.685C310.36 344.225 298.718 342.123 285.384 343.299C274.84 345.142 266.419 350.753 259.361 358.62C258.603 357.957 257.846 357.293 257.065 356.609C245.453 346.711 234.326 342.27 218.987 343.141C207.865 344.165 197.824 350.599 190.669 358.941ZM23.7859 352.997C16.7042 360.474 8.31371 373.155 8.31371 383.9C13.371 383.982 16.3991 382.868 20.0517 379.336C22.4802 376.352 23.6215 373.229 23.6215 369.345C24.8844 369.345 26.1473 369.345 27.4484 369.345C27.4514 369.998 27.4514 369.998 27.4544 370.664C27.6682 374.938 28.523 377.425 31.5355 380.497C35.1313 383.622 38.4561 384.371 43.115 384.217C47.4393 383.509 50.2358 381.155 53.0411 377.915C54.5041 374.928 54.7747 372.65 55.0024 369.345C56.2653 369.345 57.5282 369.345 58.8293 369.345C58.8767 370.245 58.9241 371.146 58.9728 372.074C59.4558 375.764 60.7684 378.233 63.4217 380.836C67.4431 383.808 71.5159 384.633 76.4333 383.9C80.573 382.519 83.31 379.884 85.6179 376.239C86.3753 374.175 86.7665 372.291 87.1487 370.111C88.159 370.111 89.1693 370.111 90.2103 370.111C90.3523 370.996 90.4944 371.88 90.6408 372.792C91.8023 377.459 94.8933 380.974 98.9165 383.517C103.892 384.465 108.082 384.402 112.565 381.85C115.433 379.73 117.344 377.267 118.165 373.765C118.357 372.299 118.452 370.821 118.53 369.345C119.793 369.345 121.055 369.345 122.357 369.345C122.42 370.261 122.483 371.178 122.548 372.122C123.066 376.041 124.466 378.565 127.478 381.204C130.897 383.672 133.87 384.511 138.08 384.265C142.699 383.368 145.756 380.885 148.38 377.053C149.874 374.417 150.293 372.407 149.911 369.345C151.173 369.345 152.436 369.345 153.737 369.345C153.821 369.798 153.905 370.251 153.992 370.718C154.934 375.418 155.832 378.618 159.621 381.793C162.679 383.41 164.855 383.663 168.28 383.9C167.848 379.665 166.769 376.132 165.123 372.218C164.885 371.648 164.647 371.078 164.402 370.491C161.369 363.429 157.374 357.402 152.207 351.726C151.638 352.555 151.638 352.555 151.059 353.401C147.841 357.025 143.629 359.89 138.708 360.335C133.598 360.459 129.563 360.287 125.418 357.088C123.737 355.402 122.243 353.638 120.826 351.726C120.273 352.295 119.721 352.863 119.151 353.449C114.548 357.955 111.075 360.361 104.513 360.44C99.4209 360.347 95.7021 359.532 92.052 355.861C91.1308 354.78 90.2797 353.641 89.4449 352.492C87.04 353.047 87.04 353.047 85.8571 355.029C82.9277 358.437 80.0415 359.895 75.5692 360.449C70.4118 360.622 66.0419 360.357 61.8909 357.088C60.2116 355.4 58.7156 353.638 57.2986 351.726C56.746 352.295 56.1935 352.863 55.6243 353.449C51.2423 357.738 47.734 360.345 41.4646 360.487C36.6179 360.398 32.9002 359.193 28.9792 356.322C27.6681 354.836 26.8595 353.488 25.9176 351.726C24.9347 351.639 24.9347 351.639 23.7859 352.997ZM25.1523 378.537C24.9007 378.889 24.6491 379.241 24.3899 379.603C20.6053 384.489 16.2962 386.737 10.1793 387.539C8.87699 387.633 8.87699 387.633 7.54832 387.73C6.25232 391.748 5.69694 395.443 5.49134 399.652C5.45533 400.21 5.41932 400.769 5.38221 401.344C5.20413 404.59 5.34465 407.506 6.01754 410.712C11.1054 411.017 14.7447 410.852 18.7451 407.309C21.9797 403.947 23.0202 400.732 23.6215 396.157C24.8844 396.157 26.1473 396.157 27.4484 396.157C27.3695 396.789 27.2906 397.421 27.2092 398.072C27.536 401.734 28.9692 404.062 31.2754 406.881C34.9581 409.756 37.8948 411.008 42.6127 410.921C46.7823 410.399 50.0555 408.429 52.6584 405.158C54.5476 402.233 54.8215 399.597 55.0024 396.157C56.2653 396.157 57.5282 396.157 58.8293 396.157C58.8925 397.073 58.9556 397.989 59.0207 398.934C59.4482 402.251 60.4764 404.287 62.6563 406.881C66.8514 410.052 70.3952 411.381 75.6679 410.712C80.0605 409.297 83.1554 407.009 85.6179 403.051C86.1221 400.75 86.3259 398.509 86.3833 396.157C87.6462 396.409 88.9091 396.662 90.2103 396.923C90.3139 397.422 90.4174 397.922 90.5242 398.437C91.7834 403.553 93.4029 406.335 97.8641 409.179C101.025 410.964 104.25 411.161 107.814 410.712C112.491 408.968 115.364 406.294 117.621 401.854C118.696 399.202 118.696 399.202 118.53 396.157C119.793 396.157 121.055 396.157 122.357 396.157C122.404 397.057 122.451 397.958 122.5 398.886C122.983 402.574 124.294 405.049 126.949 407.647C130.238 410.032 133.576 411.241 137.652 411.008C141.513 410.267 144.447 408.565 147.136 405.732C149.382 402.274 150.102 400.371 149.911 396.157C151.173 396.157 152.436 396.157 153.737 396.157C153.81 396.796 153.81 396.796 153.884 397.449C154.711 402.605 156.753 405.71 160.626 409.179C163.921 411.262 167.56 410.86 171.341 410.712C171.511 402.857 171.317 395.47 169.811 387.73C169.265 387.655 168.719 387.58 168.157 387.503C160.934 386.374 156.652 384.47 152.207 378.537C151.154 379.525 150.134 380.55 149.145 381.602C149.145 382.107 149.145 382.613 149.145 383.134C148.133 383.661 147.109 384.166 146.084 384.666C145.326 385.077 144.568 385.487 143.787 385.911C139.401 387.752 134.296 387.737 129.75 386.461C125.832 384.715 123.349 381.943 120.826 378.537C120.305 379.09 119.784 379.643 119.247 380.213C114.811 384.64 110.989 387.011 104.657 387.251C99.9231 387.207 96.3897 385.802 92.5064 383.134C90.4973 380.979 90.4973 380.979 89.4449 379.303C87.3261 380.167 86.2137 381.015 84.6133 382.703C80.8704 386.275 77.7015 387.108 72.6542 387.299C67.632 387.149 64.0804 386.096 60.4976 382.502C59.3751 381.214 58.3155 379.91 57.2986 378.537C56.746 379.106 56.1935 379.675 55.6243 380.261C51.1914 384.599 47.7097 387.168 41.3689 387.251C36.9769 387.192 34.2078 386.12 30.51 383.9C29.7522 383.647 28.9945 383.394 28.2138 383.134C27.4006 381.65 27.4006 381.65 26.683 380.07C26.1779 379.564 25.6727 379.058 25.1523 378.537ZM176.699 390.028C172.993 411.356 177.829 433.326 189.711 451.312C191.638 453.975 193.687 456.485 195.834 458.973C196.286 459.536 196.738 460.098 197.203 460.678C209.237 475.183 227.825 484.684 246.349 487.316C248.917 487.463 251.437 487.476 254.003 487.316C252.919 486.046 251.834 484.776 250.744 483.51C249.929 482.558 249.118 481.602 248.317 480.637C244.735 476.403 240.809 472.53 236.854 468.649C234.445 466.27 232.126 463.862 229.918 461.295C227.13 458.059 224.138 455.068 221.092 452.078C217.565 448.616 214.195 445.1 210.971 441.354C208.598 438.68 206.038 436.196 203.488 433.693C199.472 429.751 195.667 425.711 192.007 421.436C191.463 420.828 190.92 420.22 190.36 419.593C182.951 410.896 179.013 401.266 177.465 390.028C177.212 390.028 176.959 390.028 176.699 390.028ZM340.492 394.624C340.24 395.509 339.987 396.394 339.727 397.306C334.896 411.541 326.387 421.258 315.805 431.601C312.86 434.484 310.105 437.455 307.417 440.579C304.559 443.799 301.437 446.766 298.366 449.78C295.865 452.254 293.443 454.748 291.149 457.417C287.737 461.38 283.995 464.996 280.269 468.659C277.142 471.754 274.171 474.918 271.303 478.254C269.587 480.216 267.77 482.038 265.915 483.869C265.253 484.525 264.591 485.181 263.909 485.856C263.418 486.338 262.928 486.82 262.423 487.316C267.949 490.082 279.849 485.619 285.528 483.773C306.753 476.466 323.692 460.772 333.625 440.791C335.893 436.011 337.564 431.14 338.961 426.033C339.205 425.184 339.449 424.336 339.7 423.462C342.017 414.003 341.472 404.296 341.258 394.624C341.005 394.624 340.752 394.624 340.492 394.624ZM25.1523 405.349C24.6629 406.029 24.1735 406.708 23.6693 407.408C20.0418 411.811 14.939 413.828 9.36612 414.398C8.25071 414.462 7.13445 414.516 6.01754 414.542C7.58314 425.617 7.58314 425.617 11.3753 435.991C12.8251 436.796 12.8251 436.796 14.4368 436.757C17.7215 434.976 20.1152 433.04 22.0907 429.863C22.7642 427.588 23.2344 425.308 23.6215 422.968C24.8844 422.968 26.1473 422.968 27.4484 422.968C27.3695 423.6 27.2906 424.232 27.2092 424.883C27.536 428.546 28.9692 430.874 31.2754 433.693C34.9581 436.568 37.8948 437.82 42.6127 437.733C46.7823 437.211 50.0555 435.241 52.6584 431.969C54.5476 429.044 54.8215 426.408 55.0024 422.968C56.2653 422.968 57.5282 422.968 58.8293 422.968C58.8925 423.758 58.9556 424.548 59.0207 425.362C60.049 430.68 63.0275 433.677 67.2486 436.757C68.7083 437.458 68.7083 437.458 70.3102 437.523C71.131 437.602 71.9519 437.681 72.7977 437.763C77.5265 437.368 80.5679 435.579 84.0393 432.4C86.011 429.231 86.2936 426.642 86.3833 422.968C87.8988 422.968 89.4143 422.968 90.9756 422.968C90.9786 423.622 90.9786 423.622 90.9816 424.288C91.1937 428.526 92.0273 431.057 95.0029 434.121C97.8997 436.525 100.675 437.414 104.37 437.811C108.858 437.329 111.931 435.997 114.942 432.64C117.469 429.436 118.53 427.107 118.53 422.968C119.793 422.968 121.055 422.968 122.357 422.968C122.404 423.869 122.451 424.77 122.5 425.697C122.983 429.385 124.294 431.861 126.949 434.459C130.238 436.844 133.576 438.052 137.652 437.82C141.513 437.078 144.447 435.377 147.136 432.544C149.382 429.086 150.102 427.182 149.911 422.968C151.173 422.968 152.436 422.968 153.737 422.968C153.823 423.622 153.823 423.622 153.911 424.288C154.708 428.973 156.235 432.092 159.861 435.225C161.912 436.443 162.78 436.757 165.218 436.757C169.16 425.91 169.16 425.91 170.576 414.542C169.993 414.484 169.41 414.427 168.809 414.368C161.509 413.438 156.359 410.913 151.441 405.349C151.126 405.765 150.81 406.181 150.485 406.609C146.816 411.158 143.919 413.269 138.113 414.012C133.36 414.255 129.41 413.352 125.418 410.712C123.693 409.049 122.219 407.296 120.826 405.349C120.321 405.902 119.815 406.455 119.295 407.025C115.222 411.113 110.518 413.845 104.705 414.063C99.9694 414.013 96.3468 412.716 92.5064 409.945C91.2323 408.47 90.4008 407.063 89.4449 405.349C88.9397 405.349 88.4346 405.349 87.9141 405.349C87.5352 406.029 87.1564 406.708 86.766 407.408C84.4911 410.945 81.0986 412.48 77.1987 413.776C71.1174 414.849 66.1615 413.454 61.1255 409.945C59.607 408.484 58.5115 407.089 57.2986 405.349C56.746 405.918 56.1935 406.487 55.6243 407.073C51.1425 411.459 47.6947 413.79 41.3211 414.015C36.7401 413.885 33.0844 413.257 29.7326 409.96C28.7794 408.865 27.8496 407.748 26.9491 406.609C26.6087 406.193 26.2683 405.777 25.9176 405.349C25.6651 405.349 25.4125 405.349 25.1523 405.349ZM25.1523 432.161C24.6629 432.84 24.1735 433.52 23.6693 434.22C21.0403 437.497 17.443 438.931 13.6714 440.587C16.0991 445.737 18.8187 450.483 22.0907 455.142C23.2086 453.114 23.6215 452.159 23.6215 449.78C24.8844 449.78 26.1473 449.78 27.4484 449.78C27.3537 450.396 27.259 451.012 27.1614 451.647C27.6452 456.247 30.3531 459.769 33.7629 462.803C38.0946 464.379 42.0009 464.784 46.4396 463.473C50.6606 460.988 53.1946 458.181 55.0024 453.61C55.1959 451.503 55.1959 451.503 55.0024 449.78C56.2653 449.78 57.5282 449.78 58.8293 449.78C58.8925 450.57 58.9556 451.36 59.0207 452.174C59.9662 457.063 62.422 460.027 66.4832 462.803C69.5968 464.673 72.4924 464.526 75.9968 464.081C80.3197 462.956 83.184 460.329 85.6179 456.674C86.4313 454.232 86.5658 452.337 86.3833 449.78C87.8988 449.78 89.4143 449.78 90.9756 449.78C90.9786 450.433 90.9786 450.433 90.9816 451.1C91.1919 455.301 91.9948 457.893 94.9581 460.93C98.3413 463.653 101.683 464.57 105.996 464.287C110.174 463.618 112.808 461.729 115.659 458.638C117.766 455.551 118.53 453.543 118.53 449.78C119.793 449.78 121.055 449.78 122.357 449.78C122.42 450.696 122.483 451.613 122.548 452.557C122.983 455.884 123.957 457.925 126.183 460.505C130.045 463.309 133.621 464.548 138.43 464.335C143.411 462.839 146.33 460.334 149.002 455.908C149.896 453.646 150.122 452.181 149.911 449.78C151.173 449.78 152.436 449.78 153.737 449.78C153.99 451.297 154.243 452.814 154.503 454.376C157.971 450.371 161.239 445.64 162.922 440.587C162.414 440.3 161.906 440.013 161.382 439.717C157.583 437.513 154.352 435.463 151.441 432.161C151.064 432.688 151.064 432.688 150.679 433.226C147.246 437.659 143.648 439.964 138.086 440.905C132.933 441.212 128.881 439.656 124.653 436.757C123.132 435.297 122.039 433.902 120.826 432.161C120.321 432.714 119.815 433.267 119.295 433.837C115.125 438.01 110.504 440.651 104.561 440.779C100.115 440.691 96.5112 439.996 93.2838 436.772C92.3465 435.677 91.4335 434.561 90.5511 433.421C90.186 433.005 89.821 432.589 89.4449 432.161C88.9397 432.161 88.4346 432.161 87.9141 432.161C87.0838 433.106 86.2925 434.086 85.5222 435.081C82.3444 438.794 79.5421 440.205 74.7291 440.797C69.6177 441.025 65.4859 439.745 61.3168 436.805C59.6745 435.298 58.0797 433.766 56.5332 432.161C56.2816 432.512 56.03 432.864 55.7708 433.226C52.3476 437.646 48.7279 440.026 43.1508 440.878C38.4454 441.104 34.4544 440.138 30.51 437.523C29.1227 436.161 27.9264 434.777 26.7548 433.226C26.4785 432.875 26.2023 432.523 25.9176 432.161C25.6651 432.161 25.4125 432.161 25.1523 432.161ZM56.5332 458.207C56.1543 458.886 55.7754 459.565 55.3851 460.265C53.1387 463.654 49.6725 465.905 45.8118 467.115C41.7144 467.879 37.6222 467.444 33.5715 466.633C46.5063 480.874 67.4657 486.971 86.0544 488.274C106.278 488.672 125.942 481.836 141.491 468.931C141.744 468.426 141.996 467.92 142.257 467.399C141.395 467.453 141.395 467.453 140.517 467.507C134.565 467.717 128.741 467.403 124.147 463.162C123.122 461.941 123.122 461.941 121.591 459.739C120.833 458.98 120.833 458.98 120.06 458.207C119.539 459.028 119.019 459.85 118.482 460.696C116.038 464.129 113.324 465.685 109.393 467.208C103.616 467.909 98.8186 467.456 94.0193 463.979C90.4607 461.006 90.4607 461.006 89.4449 458.973C88.9397 458.973 88.4346 458.973 87.9141 458.973C86.8671 460.095 86.8671 460.095 85.8093 461.51C83.0976 464.787 79.9221 466.773 75.6679 467.399C70.0999 467.771 65.9577 466.832 61.3168 463.665C59.5198 461.966 58.0151 460.184 56.5332 458.207Z" fill="white" fill-opacity="0.1"/>
</svg>
