<svg width="390" height="210" viewBox="0 0 390 210" fill="none" xmlns="http://www.w3.org/2000/svg">
<path d="M282.14 0.120274C287.249 0.120274 292.359 0.120274 297.624 0.120274C297.624 0.324849 297.624 0.529424 297.624 0.740199C298.155 0.788146 298.155 0.788146 298.697 0.837062C300.138 1.01959 301.408 1.44537 302.754 1.98005C303.116 2.12408 303.116 2.12408 303.486 2.27102C312.491 5.97266 318.988 13.2201 322.762 22.0948C323.401 23.7178 323.85 25.3926 324.258 27.087C324.382 26.7006 324.506 26.3142 324.634 25.9162C327.655 16.7623 332.804 9.03859 341.291 4.14978C341.471 4.04605 341.651 3.94231 341.836 3.83543C345.92 1.53591 350.342 0.0863753 355.031 0.0464161C355.455 0.0426632 355.455 0.0426632 355.887 0.0388344C356.485 0.034554 357.084 0.0312262 357.682 0.0287839C358.285 0.0252345 358.889 0.0189295 359.492 0.00971398C363.243 -0.0474687 366.53 0.116307 370.093 1.36012C370.486 1.49396 370.486 1.49396 370.888 1.63051C371.536 1.86427 372.169 2.11687 372.803 2.38687C373.022 2.4794 373.242 2.57192 373.469 2.66725C376.617 4.03226 379.237 5.99132 381.861 8.17929C382.052 8.32793 382.242 8.47657 382.438 8.62971C384.159 10.0073 385.476 11.7099 386.816 13.4487C387.1 13.8125 387.1 13.8125 387.389 14.1836C392.95 21.7029 394.946 31.3738 393.591 40.551C392.108 49.5243 387.267 57.7983 380.003 63.3526C375.292 66.6721 370.428 68.6098 364.828 69.8618C365.192 69.9673 365.555 70.0728 365.93 70.1814C375.707 73.0933 383.704 78.3848 388.747 87.4375C393.042 95.419 394.671 105.362 392.081 114.186C389.035 124.067 382.934 131.673 373.797 136.559C371.018 137.968 367.903 139.074 364.828 139.603C364.999 139.647 365.17 139.69 365.346 139.735C369.244 140.74 372.791 141.935 376.287 143.943C376.601 144.122 376.916 144.301 377.24 144.485C379.305 145.732 381.053 147.234 382.79 148.902C383.052 149.151 383.314 149.401 383.584 149.658C383.833 149.92 384.082 150.182 384.339 150.452C384.541 150.656 384.744 150.86 384.952 151.071C391.671 158.119 393.835 167.393 393.705 176.861C393.448 186.168 388.901 194.691 382.225 201.024C375.143 207.492 365.881 210.306 356.408 209.926C348.12 209.443 340.539 205.961 334.478 200.356C334.254 200.157 334.029 199.957 333.798 199.752C328.94 195.214 325.707 188.816 324.258 182.378C324.205 182.551 324.153 182.724 324.098 182.902C320.958 193.074 315.21 201.181 305.711 206.233C297.584 210.371 287.983 211.061 279.246 208.495C270.337 205.428 262.7 199.258 258.404 190.797C253.987 181.692 253.505 171.748 256.734 162.174C259.851 153.499 266.563 146.411 274.823 142.451C277.272 141.322 279.849 140.604 282.449 139.913C282.449 139.811 282.449 139.709 282.449 139.603C282.157 139.532 281.865 139.46 281.564 139.387C271.965 136.974 263.998 131.45 258.89 122.931C254.037 114.664 252.834 104.9 255.112 95.6232C256.46 90.6467 258.818 85.7653 262.319 81.9503C262.523 81.7026 262.728 81.4549 262.938 81.1996C268.09 75.096 275.385 71.5596 283.069 69.8618C282.798 69.8011 282.527 69.7403 282.248 69.6777C273.081 67.4465 265.078 62.0054 260.097 53.9096C255.136 45.5815 253.451 35.8028 255.737 26.3351C257.21 20.7724 259.748 15.9121 263.558 11.5889C263.712 11.3935 263.867 11.1981 264.026 10.9968C267.821 6.21958 274.895 1.94232 280.901 0.740199C281.31 0.740199 281.718 0.740199 282.14 0.740199C282.14 0.535624 282.14 0.331049 282.14 0.120274ZM273.778 5.6996C274.257 6.02932 274.742 6.35063 275.229 6.66823C275.634 6.93793 275.634 6.93793 276.046 7.21308C276.862 7.65539 276.862 7.65539 277.694 7.32448C277.934 7.19742 278.175 7.07035 278.423 6.93944C280.079 6.38695 282.063 6.31221 283.74 6.84137C285.014 7.51967 286.153 8.42324 286.785 9.7291C287.063 10.9022 287.269 12.0523 287.444 13.2452C287.791 14.7002 288.342 15.7671 289.54 16.6911C290.942 17.36 292.018 17.7323 293.598 17.4782C295.296 16.7838 296.357 15.8491 297.09 14.1654C297.346 13.3497 297.489 12.5492 297.624 11.7051C297.946 9.72665 298.631 8.50648 300.237 7.28815C301.95 6.30129 303.763 6.33305 305.676 6.62948C307.485 7.30457 308.441 8.36756 309.393 10.0391C309.662 11.1724 309.662 11.1724 309.838 12.3638C310.15 14.1776 310.431 15.3425 311.87 16.5483C313.24 17.4423 314.272 17.6524 315.896 17.4782C316.934 17.0497 316.934 17.0497 317.754 16.5483C315.86 12.5036 311.894 8.94494 308.154 6.62948C307.848 6.4297 307.541 6.22992 307.226 6.02409C298.501 0.634601 282.14 -1.93146 273.778 5.6996ZM340.672 6.31952C342.154 7.99473 344.603 8.65572 346.78 8.8089C349.828 8.76705 353.054 7.56446 355.227 5.38963C356.638 3.53312 356.638 3.53312 357.395 1.36012C351.51 0.902142 345.644 3.40204 340.672 6.31952ZM360.492 1.36012C361.357 4.01292 363.248 6.22229 365.699 7.55937C368.576 8.81197 371.417 9.09957 374.429 8.17929C375.299 7.8148 376.083 7.40597 376.906 6.93944C376.906 6.73487 376.906 6.53029 376.906 6.31952C371.875 3.39306 366.401 1.13365 360.492 1.36012ZM358.944 2.29001C358.752 2.62145 358.752 2.62145 358.557 2.95958C356.561 6.27271 354.148 8.64561 350.316 9.65161C349.58 9.8014 348.848 9.93302 348.104 10.0391C348.175 13.1248 349.243 15.3409 351.309 17.6138C353.401 19.5936 356.082 20.5908 358.944 20.694C362.395 20.5643 365.213 19.1127 367.557 16.6064C369.193 14.6119 369.907 12.5916 370.093 10.0391C369.886 10.0159 369.68 9.99272 369.467 9.96884C366.484 9.54292 363.983 8.3359 361.731 6.31952C361.127 5.47439 361.127 5.47439 360.589 4.57598C359.861 3.35896 359.861 3.35896 358.944 2.29001ZM265.077 12.2342C258.574 19.1949 256.085 28.2707 256.379 37.6177C256.908 46.5576 261.478 54.7273 267.979 60.7193C269.395 61.9489 270.953 62.976 272.539 63.9725C272.818 64.1503 273.097 64.3281 273.385 64.5113C274.058 64.9568 274.058 64.9568 274.804 64.9218C277.419 63.887 280.292 61.3213 281.83 59.0131C281.521 58.9004 281.521 58.9004 281.207 58.7855C278.702 57.8338 277.239 56.9332 275.967 54.5271C275.436 53.2722 275.204 51.9887 275.017 50.6441C275.528 50.6441 276.039 50.6441 276.565 50.6441C276.573 50.8239 276.581 51.0037 276.589 51.189C276.752 53.4351 277.477 54.7358 279.101 56.3009C280.304 57.301 281.543 57.5724 283.069 57.7733C284.461 55.9495 285.638 54.0355 286.727 52.0196C286.906 51.6963 286.906 51.6963 287.088 51.3664C287.913 49.8068 288.321 48.35 288.643 46.6146C290.38 46.5123 292.118 46.41 293.908 46.3047C293.291 43.787 292.673 41.27 292.05 38.7539C291.761 37.5851 291.473 36.4162 291.187 35.2466C290.91 34.1145 290.63 32.9831 290.349 31.8521C290.243 31.4239 290.138 30.9955 290.034 30.5669C287.691 20.9291 282.841 12.9708 274.453 7.50186C270.822 5.29826 267.574 9.74951 265.077 12.2342ZM334.633 11.3177C333.493 12.4867 332.511 13.7371 331.555 15.0566C331.423 15.237 331.292 15.4175 331.156 15.6034C330.382 16.7041 329.882 17.7323 329.523 19.028C332.796 20.5623 335.744 21.1778 339.273 19.9893C342.71 18.4832 344.667 16.0805 346.041 12.6713C346.281 11.7702 346.281 10.9675 346.246 10.0391C345.984 9.98992 345.723 9.94077 345.453 9.89014C343.47 9.48191 341.853 9.06388 340.204 7.8657C338.567 6.778 335.775 10.2313 334.633 11.3177ZM278.423 8.79922C278.57 8.92348 278.716 9.04774 278.867 9.17577C285.281 14.6944 289.269 21.3104 291.121 29.5667C292.572 29.6829 293.613 29.7169 294.934 29.0436C296.558 27.6448 297.137 26.6243 297.45 24.4911C297.821 22.3542 298.211 20.9005 300.024 19.5559C301.641 18.6035 303.217 18.4713 305.057 18.718C307.078 19.348 308.288 20.2992 309.296 22.1663C309.676 23.1229 309.812 24.0553 309.954 25.0722C310.232 26.7752 310.845 27.8506 312.18 28.9468C313.495 29.7399 314.707 29.7695 316.206 29.5667C317.403 29.1547 318.229 28.4832 319.09 27.5519C319.838 26 320.009 24.4431 320.232 22.7475C320.345 22.2812 320.345 22.2812 320.459 21.8055C320.564 20.6411 320.269 20.1854 319.632 19.2217C319.457 18.9508 319.281 18.6799 319.101 18.4008C318.894 18.0975 318.894 18.0975 318.683 17.7881C318.332 17.9416 317.981 18.095 317.619 18.2531C315.71 18.9573 313.982 19.0595 312.102 18.2143C310.446 17.2795 309.291 15.9246 308.773 14.0686C308.738 13.6232 308.706 13.1776 308.676 12.7319C308.523 11.1418 307.957 10.0036 306.915 8.79922C305.47 7.74721 304.002 7.60351 302.27 7.86933C300.785 8.35871 299.822 9.18607 299.099 10.5997C298.702 11.7439 298.586 12.9325 298.414 14.1279C298.054 15.9668 296.96 17.0702 295.456 18.0981C293.89 18.969 292.165 18.9405 290.444 18.5739C288.927 18.0888 287.895 17.3322 287.095 15.9283C286.499 14.5512 286.164 13.1571 285.895 11.6857C285.593 10.2454 285.048 9.51526 283.998 8.48926C283.052 7.90595 282.316 7.77753 281.21 7.77247C280.949 7.76727 280.687 7.76208 280.417 7.75673C279.522 7.89027 279.096 8.20865 278.423 8.79922ZM376.403 8.60549C374.848 9.42293 373.372 9.79219 371.641 10.0391C371.907 13.6899 373.481 16.0091 376.093 18.4855C378.673 20.207 381.259 20.8689 384.339 20.5778C385.618 20.2629 386.856 19.8878 388.055 19.3379C388.208 19.0311 388.208 19.0311 388.365 18.718C386.4 14.82 382.81 10.1982 379.074 7.86933C377.798 7.86933 377.467 8.00545 376.403 8.60549ZM370.712 14.0686C370.243 14.813 369.81 15.5761 369.371 16.3388C367.128 19.939 363.823 21.1984 359.873 22.1276C359.986 25.0835 361.224 27.7064 363.396 29.7217C366.428 32.1834 369.347 32.686 373.19 32.3563C376.365 31.5352 378.688 29.847 380.429 27.087C381.358 25.4246 381.861 24.0562 381.861 22.1276C381.584 22.0597 381.307 21.9917 381.022 21.9218C377.401 20.9714 374.47 19.7032 372.261 16.5483C371.793 15.7342 371.405 14.928 371.022 14.0686C370.92 14.0686 370.817 14.0686 370.712 14.0686ZM346.866 14.3785C346.582 14.8323 346.322 15.3003 346.072 15.7734C344.218 18.9432 341.492 20.7667 337.978 21.7389C337.331 21.8863 336.679 22.0098 336.026 22.1276C336.735 25.585 337.846 28.2651 340.672 30.4966C343.775 32.3262 346.738 32.8455 350.298 32.1772C353.171 31.2721 355.603 29.1633 357.098 26.5482C357.7 25.1304 358.016 23.6322 358.324 22.1276C358.085 22.0749 357.845 22.0221 357.599 21.9678C353.839 21.0923 350.74 19.6976 348.493 16.3667C348.129 15.7129 347.791 15.0609 347.485 14.3785C347.281 14.3785 347.076 14.3785 346.866 14.3785ZM299.715 21.8564C299.068 22.9197 298.913 23.8381 298.703 25.0529C298.319 27.0882 297.718 28.5391 296.076 29.8767C294.63 30.7769 293.404 30.973 291.74 31.1165C292.087 33.3778 292.593 35.598 293.134 37.8194C293.233 38.2385 293.233 38.2385 293.334 38.6661C293.399 38.9277 293.464 39.1893 293.53 39.4588C293.617 39.8134 293.617 39.8134 293.705 40.1752C293.86 40.79 293.86 40.79 294.527 41.0353C296.597 39.5161 297.209 38.0872 297.605 35.5916C297.932 33.6492 298.527 32.5345 300.121 31.3296C301.844 30.3391 303.421 30.3101 305.367 30.4966C306.947 30.9378 308.168 31.7723 309.081 33.1664C309.578 34.3461 309.732 35.595 309.941 36.8508C310.256 38.5705 310.787 39.6653 312.18 40.7253C313.418 41.4751 314.79 41.5979 316.206 41.3453C318.001 40.5976 318.86 39.7479 319.613 37.9357C319.767 37.2228 319.902 36.5054 320.019 35.7853C320.414 33.7959 320.911 32.7898 322.4 31.4265C322.604 31.3242 322.809 31.2219 323.019 31.1165C323.089 29.4414 322.861 28.0749 322.4 26.4864C322.341 26.2745 322.282 26.0625 322.221 25.8441C322.076 25.3278 321.929 24.8125 321.78 24.2973C321.576 24.2973 321.372 24.2973 321.161 24.2973C321.131 24.4995 321.1 24.7017 321.069 24.91C320.692 27.115 320.203 28.5765 318.354 29.9735C316.634 30.9625 315.052 30.9979 313.109 30.8065C311.463 30.3046 310.308 29.4969 309.393 28.0169C309.014 27.1332 308.794 26.3089 308.664 25.3568C308.375 23.2786 307.936 21.9456 306.296 20.5778C303.78 19.0541 301.658 20.0199 299.715 21.8564ZM328.594 20.2678C326.927 23.6173 325.412 27.4305 325.477 31.2327C325.484 31.6035 325.49 31.9743 325.497 32.3563C328.492 31.5486 331.227 30.0759 332.929 27.397C334.197 24.8818 334.197 24.8818 334.478 22.1276C334.131 22.0193 333.784 21.911 333.427 21.7995C332.971 21.657 332.514 21.5145 332.058 21.3721C331.83 21.3007 331.601 21.2294 331.366 21.1559C330.439 20.8664 329.514 20.575 328.594 20.2678ZM386.832 21.2595C385.727 21.6913 384.572 21.9035 383.41 22.1276C383.807 24.9717 384.786 27.4781 386.816 29.5667C389.216 31.4004 389.216 31.4004 392.081 32.0464C392.004 27.9922 390.939 24.2649 389.294 20.5778C388.3 20.5778 387.723 20.8567 386.832 21.2595ZM382.481 25.8471C382.334 26.1924 382.187 26.5376 382.035 26.8933C380.429 30.0534 378.04 32.0634 374.738 33.2862C373.711 33.5631 372.696 33.7707 371.641 33.9062C371.747 36.6708 372.92 39.2516 374.777 41.3065C377.13 43.4517 380.116 44.5586 383.267 44.5115C386.451 44.2332 389.165 42.6757 391.335 40.3754C392.729 38.5235 392.464 36.1123 392.391 33.9062C392.133 33.8195 391.874 33.7328 391.608 33.6434C387.681 32.2433 385.115 30.3149 383.139 26.622C383.024 26.3663 382.909 26.1106 382.79 25.8471C382.688 25.8471 382.586 25.8471 382.481 25.8471ZM335.097 26.1571C334.818 26.6235 334.549 27.0963 334.284 27.5713C332.331 30.8401 329.716 32.6426 326.039 33.7124C325.758 33.7764 325.477 33.8403 325.187 33.9062C325.087 36.6656 325.214 38.5719 327.045 40.7641C329.335 43.1842 332.079 44.2762 335.368 44.5417C338.357 44.4424 341.36 43.1332 343.472 41.0232C345.222 38.91 346.347 36.6804 346.246 33.9062C346.007 33.8534 345.767 33.8007 345.52 33.7463C341.451 32.7988 338.634 31.3471 336.355 27.7263C336.18 27.4294 336.005 27.1325 335.824 26.8267C335.687 26.6057 335.549 26.3848 335.407 26.1571C335.305 26.1571 335.203 26.1571 335.097 26.1571ZM358.944 26.1571C358.584 26.722 358.23 27.2911 357.879 27.8619C355.605 31.2968 352.825 33.0134 348.821 33.8287C348.584 33.8542 348.348 33.8798 348.104 33.9062C348.252 36.9541 349.332 39.474 351.511 41.6552C353.755 43.5056 356.531 44.6929 359.493 44.5526C362.237 44.1238 364.659 43.2723 366.686 41.3453C366.857 41.1826 367.029 41.02 367.205 40.8525C369.027 38.9297 369.866 36.5149 370.093 33.9062C369.838 33.8606 369.583 33.8151 369.321 33.7681C365.872 33.0745 363.023 31.757 360.802 28.9468C360.232 28.0411 359.725 27.1171 359.253 26.1571C359.151 26.1571 359.049 26.1571 358.944 26.1571ZM299.386 33.9062C298.726 35.1968 298.618 36.5756 298.414 37.995C298.049 39.8571 296.946 40.8947 295.456 41.9652C295.15 42.1698 294.843 42.3743 294.527 42.5851C294.936 44.324 295.345 46.0629 295.766 47.8545C293.926 47.8545 292.087 47.8545 290.192 47.8545C289.281 49.6749 289.281 49.6749 288.399 51.5086C285.649 57.3105 281.825 62.0916 276.565 65.8323C277.56 66.4959 278.539 66.8541 279.662 67.2271C280.045 67.3582 280.428 67.4892 280.823 67.6242C283.799 68.5278 286.707 68.7336 289.804 68.7188C290.188 68.717 290.572 68.7153 290.967 68.7135C298.753 68.6101 305.513 65.7391 311.56 60.8729C311.786 60.6947 312.012 60.5165 312.245 60.3329C318.074 55.5137 321.52 48.31 323.019 41.0353C323.08 40.7508 323.141 40.4663 323.204 40.1732C323.386 38.7162 323.361 37.2712 323.348 35.8047C323.346 35.3516 323.346 35.3516 323.344 34.8893C323.34 34.1483 323.335 33.4073 323.329 32.6663C321.932 34.0099 321.366 34.8988 321.032 36.8181C320.653 38.9794 320.173 40.3777 318.354 41.7521C316.63 42.7435 315.055 42.7388 313.109 42.5851C311.278 41.9404 310.1 40.8416 309.18 39.1368C308.8 38.1802 308.664 37.2478 308.522 36.2309C308.243 34.5279 307.63 33.4525 306.296 32.3563C303.779 30.8389 301.09 31.6932 299.386 33.9062ZM346.866 37.9357C346.712 38.2873 346.559 38.6389 346.401 39.0012C344.829 42.0887 342.632 43.8145 339.433 45.0648C338.307 45.4263 337.18 45.7356 336.026 45.9947C336.753 49.7654 338.143 52.4019 341.291 54.6736C343.914 56.244 346.296 56.4639 349.343 56.2234C352.492 55.4125 354.873 53.5574 356.776 50.9541C357.621 49.3432 358.057 47.79 358.324 45.9947C358.047 45.9268 357.77 45.8588 357.485 45.7889C353.112 44.6411 350.242 42.9074 347.833 39.0205C347.653 38.7089 347.653 38.7089 347.468 38.3909C347.372 38.2407 347.275 38.0905 347.175 37.9357C347.073 37.9357 346.971 37.9357 346.866 37.9357ZM370.712 37.9357C370.607 38.1307 370.501 38.3256 370.393 38.5265C368.215 42.375 365.644 44.4439 361.383 45.6266C360.88 45.7527 360.377 45.8766 359.873 45.9947C360.027 48.7776 361.146 51.1898 363.033 53.2485C365.626 55.556 368.423 56.3859 371.844 56.3191C374.972 56.0302 377.602 54.5481 379.627 52.1625C380.931 50.3466 381.861 48.2595 381.861 45.9947C381.543 45.9116 381.225 45.8285 380.897 45.7428C376.806 44.6123 373.92 43.0935 371.747 39.2748C371.356 38.5269 371.356 38.5269 370.712 37.9357ZM324.258 41.9652C324.153 42.3552 324.047 42.7451 323.939 43.1469C321.232 52.841 315.753 60.7734 306.915 65.8323C303.238 67.8653 299.27 69.0952 295.147 69.8618C295.147 69.9641 295.147 70.0664 295.147 70.1717C295.698 70.3018 295.698 70.3018 296.26 70.4345C305.723 72.7473 313.807 77.846 318.993 86.2898C320.997 89.739 322.624 93.5046 323.329 97.4484C324.062 97.1716 324.062 97.1716 324.282 96.1759C324.404 95.7545 324.525 95.3327 324.645 94.9106C326.384 89.1387 329.041 84.4159 333.239 80.0905C333.528 79.7729 333.528 79.7729 333.822 79.4488C338.719 74.2199 345.91 71.4039 352.75 69.8618C352.75 69.7595 352.75 69.6572 352.75 69.5518C352.375 69.4615 352.001 69.3712 351.615 69.2782C342.194 66.9454 334.214 61.9194 329.09 53.4725C326.944 49.8187 325.486 46.1119 324.568 41.9652C324.465 41.9652 324.363 41.9652 324.258 41.9652ZM326.116 41.9652C326.732 46.0432 328.438 49.5753 330.452 53.1238C331.371 53.2294 331.371 53.2294 331.835 52.7013C333.336 50.7119 334.478 48.5293 334.478 45.9947C334.149 45.9044 333.82 45.8141 333.481 45.7211C331.001 45.0115 328.995 44.3409 327.045 42.5851C326.739 42.3805 326.432 42.176 326.116 41.9652ZM391.152 42.5851C390.936 42.7595 390.936 42.7595 390.717 42.9374C388.481 44.5947 386.053 45.2609 383.41 45.9947C383.765 48.538 384.384 50.8727 386.404 52.5838C386.761 52.8511 386.761 52.8511 387.126 53.1238C388.912 49.9414 390.617 46.7848 391.462 43.205C391.36 43.0005 391.257 42.7959 391.152 42.5851ZM335.097 49.7142C335.007 49.9128 334.917 50.1114 334.824 50.316C334.697 50.5841 334.57 50.8522 334.439 51.1284C334.317 51.391 334.195 51.6535 334.069 51.9239C333.402 53.0647 332.574 54.0059 331.691 54.9836C333.866 57.6545 336.013 60.07 338.814 62.1127C339.142 62.3541 339.471 62.5954 339.809 62.844C341.36 64.0923 341.36 64.0923 343.197 64.584C344.642 63.8222 345.43 61.9491 346.053 60.5048C346.261 59.5686 346.26 58.7293 346.246 57.7733C346.01 57.7241 345.774 57.675 345.531 57.6243C341.748 56.7688 338.831 55.3106 336.723 51.9808C336.546 51.6856 336.369 51.3903 336.186 51.0861C335.744 50.3147 335.744 50.3147 335.097 49.7142ZM358.944 49.7142C358.65 50.1858 358.368 50.6653 358.092 51.1478C356.037 54.5925 353.529 56.4399 349.653 57.4633C349.139 57.5787 348.624 57.6894 348.104 57.7733C348.27 61.1903 349.54 63.5247 352.03 65.8601C354.322 67.7452 356.935 68.4262 359.873 68.2732C362.932 67.9352 365.582 66.5412 367.6 64.2026C369.036 62.2793 370.093 60.219 370.093 57.7733C369.744 57.6995 369.744 57.6995 369.389 57.6243C365.914 56.8315 363.042 55.702 360.802 52.8139C360.213 51.8084 359.71 50.786 359.253 49.7142C359.151 49.7142 359.049 49.7142 358.944 49.7142ZM382.481 49.7142C382.379 49.9316 382.277 50.149 382.172 50.3729C380.668 53.3762 378.578 55.6912 375.358 56.8434C374.127 57.1942 372.891 57.4981 371.641 57.7733C371.73 60.085 372.541 62.0398 373.809 63.9725C374.449 64.398 374.449 64.398 375.048 64.5924C379.302 61.9148 382.809 58.9684 385.887 54.9836C385.445 54.0512 384.934 53.205 384.358 52.3489C384.202 52.1156 384.046 51.8822 383.885 51.6418C383.432 50.9866 382.963 50.3481 382.481 49.7142ZM370.712 61.4928C370.603 61.7138 370.494 61.9347 370.382 62.1624C369.372 64.1224 368.335 65.6136 366.686 67.0721C366.482 67.2767 366.277 67.4813 366.067 67.692C367.882 67.5319 369.352 67.1487 371.022 66.4328C371.232 66.3455 371.443 66.2582 371.659 66.1683C372.171 65.9557 372.68 65.7394 373.19 65.5223C372.893 65.0249 372.596 64.5277 372.299 64.0306C372.134 63.7537 371.969 63.4768 371.799 63.1915C371.45 62.6171 371.085 62.0522 370.712 61.4928ZM346.866 61.8028C346.671 62.1833 346.478 62.5644 346.285 62.9458C346.177 63.1579 346.069 63.3701 345.958 63.5887C345.607 64.3249 345.303 65.0719 345.008 65.8323C347.464 66.8563 349.798 67.6469 352.44 68.002C352.229 67.8486 352.019 67.6952 351.801 67.5371C349.855 65.8788 348.526 64.1357 347.485 61.8028C347.281 61.8028 347.076 61.8028 346.866 61.8028ZM263.248 83.1902C259.261 88.1746 255.47 95.5373 255.815 102.098C256.537 101.398 257.233 100.705 257.877 99.933C262.856 93.9786 270.79 90.1631 278.48 89.4403C287.482 88.9154 295.794 90.993 302.889 96.8285C303.29 97.1533 303.29 97.1533 303.7 97.4847C305.829 99.2969 307.45 101.397 309.083 103.648C310.088 102.656 311.051 101.644 311.986 100.587C312.463 100.057 312.941 99.5274 313.419 98.9982C313.676 98.7088 313.676 98.7088 313.939 98.4134C315.591 96.6485 317.611 95.3684 319.613 94.0388C319.919 93.8343 320.226 93.6297 320.542 93.4189C320.022 89.6709 317.318 86.0205 314.967 83.1902C314.748 82.9233 314.528 82.6563 314.302 82.3814C308.814 75.9961 301.013 72.0436 292.669 71.1016C281.123 70.2535 270.911 74.4926 263.248 83.1902ZM343.769 74.2013C343.429 74.3603 343.09 74.5193 342.74 74.6832C334.9 78.6351 329.078 85.6561 326.155 93.8839C323.541 102.491 323.81 111.971 327.981 120.07C332.468 128.317 339.401 134.352 348.356 137.22C357.523 139.842 366.765 138.679 375.096 134.05C376.636 133.145 378.018 132.07 379.384 130.924C379.696 130.663 380.008 130.401 380.33 130.131C386.449 124.84 390.435 117.265 391.462 109.227C392.05 100.659 390.758 92.4189 385.578 85.3599C385.394 85.1082 385.211 84.8565 385.022 84.5971C382.567 81.3848 379.724 78.5139 376.287 76.371C376.019 76.194 375.751 76.017 375.475 75.8346C365.978 69.8629 353.835 69.4722 343.769 74.2013ZM275.326 91.2492C275.728 92.5045 276.191 93.7042 276.72 94.9106C279.179 100.824 278.835 107.503 276.699 113.465C276.092 114.875 275.328 116.073 274.397 117.286C274.193 117.593 273.988 117.9 273.778 118.216C281.596 120.099 289.215 119.398 296.385 115.736C296.713 115.57 297.04 115.405 297.377 115.234C301.101 113.2 304.234 110.328 306.915 107.057C307.069 106.875 307.223 106.693 307.382 106.505C307.798 105.998 307.798 105.998 308.154 105.197C307.795 103.892 307.109 103.078 306.199 102.098C305.948 101.827 305.697 101.556 305.438 101.277C304.703 100.502 303.973 99.7343 303.199 98.9982C303.01 98.8148 302.822 98.6314 302.628 98.4425C296.556 92.7512 288.49 90.373 280.314 90.5949C278.636 90.6833 276.98 90.9596 275.326 91.2492ZM260.388 99.3784C257.739 102.021 257.739 102.021 255.815 105.197C256.418 105.958 257.023 106.717 257.631 107.474C258.008 107.943 258.383 108.413 258.752 108.888C261.91 112.819 267.262 116.505 272.229 117.596C275.956 113.844 277.179 108.836 277.184 103.648C277.02 99.5146 276.283 95.0668 273.468 91.8691C268.894 91.8691 263.504 96.3592 260.388 99.3784ZM313.728 100.548C311.542 102.717 311.542 102.717 310.631 105.507C311.389 106.776 312.425 107.829 313.419 108.917C313.782 109.319 313.782 109.319 314.153 109.729C316.031 111.708 318.139 113.494 320.542 114.806C320.848 114.704 321.155 114.602 321.471 114.496C321.782 113.644 321.782 113.644 321.974 112.617C322.048 112.275 322.122 111.932 322.199 111.58C323.07 106.754 323.793 99.3671 321.161 94.9687C318.917 94.9687 315.219 99.056 313.728 100.548ZM309.083 106.437C308.652 106.926 308.243 107.434 307.844 107.948C302.948 114.035 296.765 117.811 289.262 119.766C288.97 119.842 288.677 119.918 288.376 119.997C280.268 121.7 271.447 119.92 264.471 115.559C261.309 113.48 258.491 110.947 256.125 107.987C255.709 109.349 256.003 110.486 256.319 111.842C256.376 112.092 256.433 112.341 256.493 112.598C257.732 117.78 260.035 122.58 263.558 126.585C263.763 126.835 263.969 127.085 264.181 127.343C269.68 133.834 277.706 137.712 286.107 138.577C286.643 138.614 287.178 138.646 287.714 138.673C287.927 138.686 288.14 138.699 288.359 138.712C297.157 138.982 305.579 135.524 312.024 129.637C315.86 126.021 318.586 121.87 320.542 116.976C320.542 116.771 320.542 116.567 320.542 116.356C320.077 116.039 319.596 115.747 319.109 115.465C315.772 113.385 312.916 110.9 310.637 107.681C310.337 107.258 310.021 106.846 309.702 106.437C309.498 106.437 309.294 106.437 309.083 106.437ZM323.329 112.327C323.246 112.649 323.163 112.972 323.077 113.305C320.621 122.448 315.08 130.382 306.875 135.22C303.284 137.241 299.437 138.587 295.456 139.603C295.456 139.706 295.456 139.808 295.456 139.913C295.775 139.978 296.094 140.042 296.423 140.108C305.693 142.074 313.671 147.098 318.92 155.118C321.348 158.944 322.796 162.817 323.948 167.19C324.153 167.088 324.357 166.985 324.568 166.88C324.809 166.1 325.022 165.326 325.226 164.536C326.784 158.908 329.83 154.035 333.859 149.832C334.165 149.502 334.165 149.502 334.477 149.165C339.286 144.119 346.009 141.23 352.75 139.913C352.75 139.811 352.75 139.709 352.75 139.603C352.165 139.473 352.165 139.473 351.569 139.341C341.843 137.096 333.811 132.032 328.383 123.449C326.249 119.947 324.996 116.275 323.948 112.327C323.744 112.327 323.539 112.327 323.329 112.327ZM265.843 150.729C265.343 151.361 265.343 151.361 265.427 152.165C265.782 153.077 266.176 153.473 266.926 154.094C267.142 154.278 267.359 154.462 267.581 154.651C268.975 155.66 270.58 155.592 272.229 155.411C274.048 154.779 275.193 153.531 276.023 151.827C276.316 151.006 276.316 151.006 276.255 149.832C276.766 149.832 277.277 149.832 277.804 149.832C277.817 150.139 277.829 150.446 277.842 150.762C278.066 152.309 278.912 153.373 279.972 154.481C281.51 155.601 283.09 155.625 284.927 155.411C286.637 154.852 287.6 153.723 288.643 152.312C289.063 151.472 288.973 150.759 288.953 149.832C289.566 149.832 290.179 149.832 290.811 149.832C290.785 150.101 290.76 150.369 290.734 150.646C290.859 152.337 291.757 153.346 292.998 154.423C294.548 155.578 296.059 155.656 297.934 155.411C299.658 154.729 300.817 153.669 301.65 152.002C301.897 150.845 301.897 150.845 301.96 149.832C302.471 149.832 302.982 149.832 303.508 149.832C303.534 150.152 303.56 150.471 303.586 150.801C303.97 152.785 304.965 153.965 306.605 155.101C308.267 155.656 309.977 155.625 311.638 155.082C312.712 154.325 313.705 153.475 314.348 152.312C314.324 151.397 314.035 151.069 313.426 150.382C306.103 143.745 297.451 140.42 287.557 140.796C279.295 141.301 271.774 145.069 265.843 150.729ZM337.265 148.592C336.892 148.903 336.518 149.213 336.143 149.522C335.778 149.829 335.778 149.829 335.407 150.142C335.611 150.244 335.816 150.347 336.026 150.452C336.686 150.23 337.337 149.98 337.981 149.716C341.762 148.171 346.783 147.849 350.703 149.179C353.544 150.384 356.137 151.625 358.324 153.862C359.462 153.351 360.4 152.643 361.402 151.905C365.928 148.716 371.035 147.785 376.452 148.659C377.787 148.962 379.03 149.39 380.29 149.923C380.502 149.995 380.714 150.068 380.932 150.142C381.239 149.989 381.239 149.989 381.551 149.832C374.953 143.415 366.201 140.662 357.161 140.777C349.898 140.991 342.704 143.768 337.265 148.592ZM331.149 156.161C327.737 160.475 326.861 165.207 327.355 170.6C327.613 171.935 328.016 173.09 328.594 174.319C328.78 174.735 328.78 174.735 328.97 175.159C330.782 178.829 333.763 181.746 336.67 184.564C337.355 185.238 337.988 185.944 338.615 186.673C339.756 187.993 340.976 189.216 342.22 190.437C343.651 191.841 345.017 193.267 346.325 194.786C347.233 195.811 348.211 196.763 349.188 197.721C350.36 198.87 351.506 200.022 352.577 201.266C353.752 202.63 355.013 203.895 356.292 205.16C356.519 205.386 356.745 205.611 356.979 205.843C357.53 206.391 358.082 206.938 358.634 207.485C359.855 206.469 361.005 205.461 362.041 204.25C363.47 202.625 364.99 201.105 366.534 199.59C367.494 198.642 368.417 197.682 369.297 196.658C370.682 195.051 372.199 193.583 373.711 192.097C374.961 190.86 376.144 189.595 377.29 188.262C378.443 186.962 379.705 185.765 380.944 184.548C382.172 183.333 383.342 182.09 384.465 180.777C384.977 180.186 385.507 179.616 386.042 179.046C389.586 174.964 390.583 170.688 390.287 165.422C389.866 160.745 387.42 156.655 383.899 153.63C379.579 150.207 374.869 149.356 369.473 149.832C365.207 150.578 361.8 152.848 358.944 156.031C358.637 155.763 358.331 155.494 358.015 155.218C353.316 151.212 348.814 149.415 342.608 149.768C338.107 150.182 334.044 152.786 331.149 156.161ZM263.624 153.756C260.759 156.782 257.364 161.912 257.364 166.26C259.41 166.293 260.635 165.843 262.113 164.414C263.096 163.206 263.558 161.942 263.558 160.371C264.069 160.371 264.58 160.371 265.106 160.371C265.107 160.635 265.107 160.635 265.109 160.905C265.195 162.634 265.541 163.64 266.76 164.883C268.215 166.148 269.56 166.451 271.445 166.388C273.195 166.102 274.327 165.149 275.462 163.838C276.054 162.63 276.163 161.708 276.255 160.371C276.766 160.371 277.277 160.371 277.804 160.371C277.823 160.735 277.842 161.1 277.862 161.475C278.057 162.968 278.588 163.967 279.662 165.02C281.289 166.223 282.937 166.557 284.927 166.26C286.602 165.701 287.709 164.635 288.643 163.16C288.95 162.325 289.108 161.563 289.262 160.681C289.671 160.681 290.08 160.681 290.501 160.681C290.559 161.039 290.616 161.397 290.675 161.766C291.145 163.654 292.396 165.076 294.024 166.105C296.037 166.489 297.733 166.463 299.547 165.431C300.707 164.573 301.48 163.576 301.812 162.159C301.89 161.566 301.929 160.968 301.96 160.371C302.471 160.371 302.982 160.371 303.508 160.371C303.534 160.742 303.56 161.112 303.586 161.494C303.795 163.08 304.362 164.101 305.581 165.169C306.964 166.168 308.167 166.507 309.87 166.408C311.739 166.045 312.977 165.04 314.038 163.49C314.643 162.423 314.812 161.61 314.657 160.371C315.168 160.371 315.679 160.371 316.206 160.371C316.24 160.554 316.274 160.738 316.309 160.927C316.69 162.828 317.053 164.123 318.587 165.408C319.824 166.062 320.704 166.164 322.09 166.26C321.915 164.547 321.479 163.117 320.813 161.533C320.716 161.303 320.62 161.072 320.521 160.835C319.294 157.977 317.677 155.538 315.587 153.242C315.357 153.577 315.357 153.577 315.122 153.92C313.82 155.386 312.116 156.545 310.125 156.725C308.057 156.775 306.424 156.706 304.747 155.411C304.067 154.729 303.462 154.016 302.889 153.242C302.665 153.472 302.442 153.702 302.212 153.939C300.349 155.762 298.944 156.736 296.289 156.767C294.228 156.73 292.723 156.4 291.246 154.915C290.874 154.478 290.529 154.016 290.192 153.552C289.219 153.776 289.219 153.776 288.74 154.578C287.555 155.957 286.387 156.547 284.577 156.771C282.49 156.841 280.722 156.734 279.043 155.411C278.363 154.728 277.758 154.015 277.184 153.242C276.961 153.472 276.737 153.702 276.507 153.939C274.734 155.674 273.314 156.729 270.778 156.787C268.816 156.751 267.312 156.263 265.726 155.101C265.195 154.5 264.868 153.955 264.487 153.242C264.089 153.206 264.089 153.206 263.624 153.756ZM264.177 164.09C264.075 164.233 263.974 164.375 263.869 164.521C262.337 166.498 260.594 167.408 258.119 167.732C257.592 167.771 257.592 167.771 257.054 167.81C256.53 169.436 256.305 170.931 256.222 172.634C256.207 172.86 256.193 173.086 256.178 173.318C256.106 174.632 256.163 175.812 256.435 177.109C258.494 177.232 259.966 177.166 261.585 175.732C262.894 174.372 263.315 173.071 263.558 171.219C264.069 171.219 264.58 171.219 265.106 171.219C265.074 171.475 265.042 171.731 265.01 171.994C265.142 173.476 265.722 174.418 266.655 175.559C268.145 176.722 269.333 177.229 271.242 177.193C272.929 176.982 274.254 176.185 275.307 174.861C276.071 173.678 276.182 172.611 276.255 171.219C276.766 171.219 277.277 171.219 277.804 171.219C277.829 171.59 277.855 171.961 277.881 172.343C278.054 173.685 278.47 174.509 279.352 175.559C281.05 176.842 282.484 177.379 284.617 177.109C286.394 176.536 287.647 175.611 288.643 174.009C288.847 173.078 288.93 172.171 288.953 171.219C289.464 171.322 289.975 171.424 290.501 171.529C290.543 171.732 290.585 171.934 290.628 172.142C291.138 174.212 291.793 175.338 293.598 176.489C294.877 177.211 296.182 177.291 297.624 177.109C299.517 176.403 300.679 175.321 301.592 173.525C302.027 172.452 302.027 172.452 301.96 171.219C302.471 171.219 302.982 171.219 303.508 171.219C303.528 171.584 303.547 171.948 303.566 172.324C303.762 173.816 304.292 174.817 305.367 175.869C306.698 176.834 308.048 177.323 309.697 177.229C311.259 176.929 312.447 176.24 313.535 175.094C314.444 173.695 314.735 172.925 314.657 171.219C315.168 171.219 315.679 171.219 316.206 171.219C316.235 171.478 316.235 171.478 316.265 171.743C316.6 173.829 317.426 175.085 318.993 176.489C320.326 177.332 321.799 177.169 323.329 177.109C323.397 173.931 323.319 170.942 322.709 167.81C322.489 167.779 322.268 167.749 322.041 167.718C319.118 167.261 317.385 166.491 315.587 164.09C315.16 164.49 314.748 164.905 314.348 165.33C314.348 165.535 314.348 165.739 314.348 165.95C313.938 166.163 313.524 166.368 313.109 166.57C312.802 166.736 312.496 166.902 312.18 167.074C310.405 167.819 308.339 167.813 306.5 167.296C304.915 166.59 303.91 165.468 302.889 164.09C302.678 164.314 302.467 164.538 302.25 164.768C300.455 166.56 298.909 167.519 296.347 167.616C294.431 167.598 293.002 167.03 291.43 165.95C290.617 165.078 290.617 165.078 290.192 164.4C289.334 164.75 288.884 165.093 288.237 165.776C286.722 167.221 285.44 167.558 283.398 167.635C281.366 167.575 279.928 167.149 278.479 165.695C278.025 165.173 277.596 164.646 277.184 164.09C276.961 164.32 276.737 164.551 276.507 164.788C274.713 166.543 273.305 167.582 270.739 167.616C268.962 167.592 267.841 167.159 266.345 166.26C266.038 166.158 265.732 166.055 265.416 165.95C265.087 165.35 265.087 165.35 264.797 164.71C264.592 164.506 264.388 164.301 264.177 164.09ZM325.497 168.74C323.997 177.37 325.954 186.259 330.762 193.537C331.542 194.614 332.371 195.63 333.239 196.636C333.422 196.864 333.605 197.092 333.793 197.326C338.663 203.196 346.184 207.04 353.679 208.105C354.718 208.164 355.737 208.17 356.776 208.105C356.337 207.591 355.898 207.077 355.457 206.565C355.127 206.18 354.799 205.793 354.475 205.402C353.026 203.689 351.437 202.122 349.837 200.551C348.862 199.589 347.924 198.615 347.03 197.576C345.902 196.267 344.692 195.057 343.459 193.847C342.032 192.446 340.669 191.023 339.364 189.507C338.404 188.426 337.368 187.421 336.336 186.408C334.711 184.813 333.172 183.178 331.691 181.448C331.471 181.202 331.251 180.956 331.024 180.702C328.026 177.183 326.433 173.287 325.806 168.74C325.704 168.74 325.602 168.74 325.497 168.74ZM391.771 170.6C391.669 170.958 391.567 171.316 391.462 171.684C389.507 177.444 386.064 181.376 381.783 185.561C380.591 186.728 379.476 187.93 378.388 189.194C377.232 190.497 375.969 191.697 374.726 192.917C373.714 193.918 372.734 194.927 371.806 196.007C370.426 197.611 368.911 199.073 367.404 200.556C366.139 201.808 364.936 203.088 363.776 204.438C363.081 205.232 362.346 205.969 361.596 206.71C361.328 206.975 361.06 207.241 360.784 207.514C360.585 207.709 360.387 207.904 360.183 208.105C362.419 209.224 367.234 207.418 369.531 206.671C378.12 203.714 384.974 197.364 388.993 189.28C389.91 187.346 390.586 185.375 391.152 183.308C391.251 182.965 391.349 182.622 391.451 182.268C392.389 178.44 392.168 174.513 392.081 170.6C391.979 170.6 391.877 170.6 391.771 170.6ZM264.177 174.939C263.979 175.214 263.781 175.489 263.577 175.772C262.109 177.553 260.045 178.37 257.79 178.6C257.338 178.626 256.887 178.648 256.435 178.659C257.068 183.14 257.068 183.14 258.603 187.337C259.189 187.663 259.189 187.663 259.841 187.647C261.171 186.927 262.139 186.144 262.938 184.858C263.211 183.937 263.401 183.015 263.558 182.068C264.069 182.068 264.58 182.068 265.106 182.068C265.074 182.324 265.042 182.58 265.01 182.843C265.142 184.325 265.722 185.267 266.655 186.408C268.145 187.571 269.333 188.077 271.242 188.042C272.929 187.831 274.254 187.034 275.307 185.71C276.071 184.527 276.182 183.46 276.255 182.068C276.766 182.068 277.277 182.068 277.804 182.068C277.829 182.388 277.855 182.707 277.881 183.037C278.297 185.188 279.502 186.401 281.21 187.647C281.801 187.931 281.801 187.931 282.449 187.957C282.781 187.989 283.113 188.021 283.456 188.054C285.369 187.895 286.6 187.171 288.004 185.885C288.802 184.602 288.916 183.555 288.953 182.068C289.566 182.068 290.179 182.068 290.811 182.068C290.812 182.332 290.812 182.332 290.813 182.602C290.899 184.317 291.236 185.341 292.44 186.581C293.613 187.554 294.735 187.913 296.231 188.074C298.046 187.879 299.29 187.34 300.508 185.981C301.531 184.685 301.96 183.743 301.96 182.068C302.471 182.068 302.982 182.068 303.508 182.068C303.528 182.433 303.547 182.797 303.566 183.172C303.762 184.665 304.292 185.666 305.367 186.718C306.698 187.683 308.048 188.172 309.697 188.077C311.259 187.777 312.447 187.089 313.535 185.943C314.444 184.543 314.735 183.773 314.657 182.068C315.168 182.068 315.679 182.068 316.206 182.068C316.241 182.332 316.241 182.332 316.276 182.602C316.599 184.498 317.217 185.76 318.683 187.028C319.513 187.52 319.865 187.647 320.851 187.647C322.446 183.259 322.446 183.259 323.019 178.659C322.783 178.635 322.547 178.612 322.304 178.588C319.35 178.212 317.267 177.19 315.277 174.939C315.149 175.107 315.021 175.275 314.89 175.449C313.405 177.289 312.233 178.144 309.884 178.444C307.961 178.543 306.362 178.177 304.747 177.109C304.049 176.436 303.453 175.727 302.889 174.939C302.685 175.163 302.48 175.386 302.27 175.617C300.622 177.271 298.718 178.377 296.366 178.465C294.45 178.444 292.984 177.92 291.43 176.799C290.915 176.202 290.578 175.633 290.192 174.939C289.987 174.939 289.783 174.939 289.572 174.939C289.419 175.214 289.266 175.489 289.108 175.772C288.187 177.203 286.814 177.824 285.236 178.349C282.776 178.783 280.771 178.218 278.733 176.799C278.118 176.207 277.675 175.643 277.184 174.939C276.961 175.169 276.737 175.399 276.507 175.636C274.694 177.411 273.298 178.355 270.72 178.445C268.866 178.393 267.387 178.139 266.031 176.805C265.645 176.362 265.269 175.91 264.904 175.449C264.767 175.281 264.629 175.112 264.487 174.939C264.385 174.939 264.283 174.939 264.177 174.939ZM264.177 185.788C263.979 186.063 263.781 186.337 263.577 186.621C262.513 187.947 261.058 188.527 259.532 189.197C260.514 191.281 261.614 193.201 262.938 195.087C263.391 194.266 263.558 193.879 263.558 192.917C264.069 192.917 264.58 192.917 265.106 192.917C265.068 193.166 265.03 193.415 264.99 193.672C265.186 195.534 266.282 196.959 267.661 198.186C269.414 198.824 270.995 198.988 272.791 198.457C274.498 197.452 275.524 196.316 276.255 194.467C276.334 193.614 276.334 193.614 276.255 192.917C276.766 192.917 277.277 192.917 277.804 192.917C277.829 193.236 277.855 193.556 277.881 193.885C278.264 195.864 279.257 197.063 280.901 198.186C282.161 198.943 283.332 198.883 284.75 198.703C286.499 198.248 287.658 197.185 288.643 195.706C288.972 194.718 289.027 193.951 288.953 192.917C289.566 192.917 290.179 192.917 290.811 192.917C290.812 193.181 290.812 193.181 290.813 193.451C290.898 195.151 291.223 196.2 292.422 197.428C293.791 198.53 295.144 198.901 296.889 198.787C298.579 198.516 299.645 197.752 300.799 196.501C301.651 195.252 301.96 194.439 301.96 192.917C302.471 192.917 302.982 192.917 303.508 192.917C303.534 193.288 303.56 193.658 303.586 194.04C303.762 195.387 304.156 196.212 305.057 197.256C306.619 198.391 308.066 198.892 310.012 198.806C312.028 198.201 313.209 197.187 314.29 195.396C314.652 194.481 314.743 193.888 314.657 192.917C315.168 192.917 315.679 192.917 316.206 192.917C316.308 193.531 316.41 194.144 316.516 194.777C317.919 193.156 319.241 191.242 319.922 189.197C319.717 189.081 319.511 188.965 319.299 188.845C317.762 187.953 316.455 187.124 315.277 185.788C315.124 186.001 315.124 186.001 314.968 186.219C313.579 188.012 312.123 188.945 309.873 189.326C307.788 189.45 306.148 188.82 304.438 187.647C303.822 187.056 303.38 186.492 302.889 185.788C302.685 186.011 302.48 186.235 302.27 186.466C300.582 188.154 298.713 189.223 296.308 189.275C294.509 189.239 293.051 188.958 291.745 187.653C291.366 187.21 290.996 186.759 290.639 186.297C290.491 186.129 290.344 185.961 290.192 185.788C289.987 185.788 289.783 185.788 289.572 185.788C289.236 186.17 288.916 186.567 288.604 186.969C287.319 188.472 286.185 189.043 284.237 189.282C282.169 189.374 280.497 188.856 278.81 187.667C278.146 187.057 277.5 186.437 276.875 185.788C276.773 185.93 276.671 186.072 276.566 186.219C275.181 188.007 273.716 188.97 271.46 189.315C269.556 189.406 267.941 189.015 266.345 187.957C265.784 187.406 265.3 186.846 264.826 186.219C264.714 186.076 264.602 185.934 264.487 185.788C264.385 185.788 264.283 185.788 264.177 185.788ZM276.875 196.326C276.721 196.601 276.568 196.876 276.41 197.159C275.501 198.53 274.099 199.441 272.537 199.931C270.879 200.24 269.223 200.064 267.584 199.736C272.818 205.498 281.298 207.965 288.82 208.492C297.003 208.653 304.959 205.887 311.251 200.666C311.353 200.461 311.455 200.257 311.56 200.046C311.212 200.068 311.212 200.068 310.856 200.09C308.448 200.175 306.092 200.047 304.233 198.331C303.818 197.837 303.818 197.837 303.199 196.946C302.892 196.639 302.892 196.639 302.579 196.326C302.369 196.659 302.158 196.991 301.941 197.334C300.952 198.723 299.854 199.352 298.263 199.968C295.925 200.252 293.984 200.069 292.042 198.662C290.603 197.459 290.603 197.459 290.192 196.636C289.987 196.636 289.783 196.636 289.572 196.636C289.149 197.09 289.149 197.09 288.721 197.663C287.623 198.989 286.338 199.793 284.617 200.046C282.364 200.196 280.688 199.816 278.81 198.535C278.083 197.848 277.474 197.127 276.875 196.326Z" fill="#8B734B" fill-opacity="0.1"/>
<path d="M5.1395 0.120274C10.2495 0.120274 15.3594 0.120274 20.6242 0.120274C20.6242 0.324849 20.6242 0.529424 20.6242 0.740199C21.1554 0.788146 21.1554 0.788146 21.6973 0.837062C23.1382 1.01959 24.408 1.44537 25.7535 1.98005C26.1163 2.12408 26.1163 2.12408 26.4864 2.27102C35.4914 5.97266 41.9884 13.2201 45.7623 22.0948C46.4011 23.7178 46.8502 25.3926 47.258 27.087C47.3821 26.7006 47.5063 26.3142 47.6342 25.9162C50.6545 16.7623 55.804 9.03859 64.2912 4.14978C64.4711 4.04605 64.6511 3.94231 64.8365 3.83543C68.9202 1.53591 73.3417 0.0863753 78.0315 0.0464161C78.455 0.0426632 78.455 0.0426632 78.8871 0.0388344C79.4853 0.034554 80.0835 0.0312262 80.6817 0.0287839C81.2853 0.0252345 81.8889 0.0189295 82.4924 0.00971398C86.2434 -0.0474687 89.5303 0.116307 93.0928 1.36012C93.4864 1.49396 93.4864 1.49396 93.888 1.63051C94.536 1.86427 95.169 2.11687 95.8026 2.38687C96.0224 2.4794 96.2422 2.57192 96.4687 2.66725C99.6171 4.03226 102.237 5.99132 104.861 8.17929C105.052 8.32793 105.242 8.47657 105.438 8.62971C107.159 10.0073 108.476 11.7099 109.816 13.4487C110.1 13.8125 110.1 13.8125 110.389 14.1836C115.95 21.7029 117.946 31.3738 116.591 40.551C115.108 49.5243 110.267 57.7983 103.003 63.3526C98.2923 66.6721 93.4276 68.6098 87.828 69.8618C88.1917 69.9673 88.5553 70.0728 88.9301 70.1814C98.7066 73.0933 106.704 78.3848 111.747 87.4375C116.042 95.419 117.671 105.362 115.081 114.186C112.035 124.067 105.934 131.673 96.7968 136.559C94.0182 137.968 90.9033 139.074 87.828 139.603C87.999 139.647 88.1701 139.69 88.3464 139.735C92.2441 140.74 95.7905 141.935 99.2867 143.943C99.6013 144.122 99.9158 144.301 100.24 144.485C102.305 145.732 104.053 147.234 105.79 148.902C106.052 149.151 106.314 149.401 106.584 149.658C106.833 149.92 107.082 150.182 107.339 150.452C107.541 150.656 107.744 150.86 107.952 151.071C114.671 158.119 116.835 167.393 116.705 176.861C116.448 186.168 111.901 194.691 105.225 201.024C98.1433 207.492 88.881 210.306 79.4081 209.926C71.12 209.443 63.5395 205.961 57.4779 200.356C57.2535 200.157 57.0292 199.957 56.798 199.752C51.9396 195.214 48.7067 188.816 47.258 182.378C47.2053 182.551 47.1526 182.724 47.0983 182.902C43.9579 193.074 38.2101 201.181 28.7114 206.233C20.5845 210.371 10.9825 211.061 2.24579 208.495C-6.66264 205.428 -14.3 199.258 -18.5959 190.797C-23.0126 181.692 -23.495 171.748 -20.2657 162.174C-17.1493 153.499 -10.4369 146.411 -2.17703 142.451C0.272089 141.322 2.84912 140.604 5.4492 139.913C5.4492 139.811 5.4492 139.709 5.4492 139.603C5.15697 139.532 4.86474 139.46 4.56366 139.387C-5.03469 136.974 -13.0016 131.45 -18.1104 122.931C-22.9626 114.664 -24.1659 104.9 -21.8876 95.6232C-20.54 90.6467 -18.182 85.7653 -14.681 81.9503C-14.4766 81.7026 -14.2722 81.4549 -14.0616 81.1996C-8.91018 75.096 -1.61483 71.5596 6.06858 69.8618C5.79792 69.8011 5.52725 69.7403 5.24838 69.6777C-3.91879 67.4465 -11.9215 62.0054 -16.9033 53.9096C-21.8635 45.5815 -23.5492 35.8028 -21.2632 26.3351C-19.79 20.7724 -17.2518 15.9121 -13.4422 11.5889C-13.2877 11.3935 -13.1332 11.1981 -12.974 10.9968C-9.17945 6.21958 -2.10468 1.94232 3.90072 0.740199C4.30952 0.740199 4.71832 0.740199 5.1395 0.740199C5.1395 0.535624 5.1395 0.331049 5.1395 0.120274ZM-3.22226 5.6996C-2.74299 6.02932 -2.25793 6.35063 -1.77056 6.66823C-1.36636 6.93793 -1.36636 6.93793 -0.953983 7.21308C-0.138153 7.65539 -0.138153 7.65539 0.693689 7.32448C0.934416 7.19742 1.17514 7.07035 1.42316 6.93944C3.0792 6.38695 5.06326 6.31221 6.73999 6.84137C8.01388 7.51967 9.15253 8.42324 9.78492 9.7291C10.0626 10.9022 10.2686 12.0523 10.4442 13.2452C10.7906 14.7002 11.3422 15.7671 12.5395 16.6911C13.9417 17.36 15.0181 17.7323 16.5982 17.4782C18.2958 16.7838 19.3568 15.8491 20.0895 14.1654C20.3456 13.3497 20.489 12.5492 20.6242 11.7051C20.9464 9.72665 21.6312 8.50648 23.2373 7.28815C24.95 6.30129 26.7631 6.33305 28.6763 6.62948C30.4854 7.30457 31.4406 8.36756 32.3926 10.0391C32.6624 11.1724 32.6624 11.1724 32.8378 12.3638C33.1497 14.1776 33.4312 15.3425 34.8702 16.5483C36.2399 17.4423 37.2715 17.6524 38.8962 17.4782C39.9342 17.0497 39.9342 17.0497 40.7544 16.5483C38.8601 12.5036 34.8939 8.94494 31.1539 6.62948C30.8476 6.4297 30.5415 6.22992 30.226 6.02409C21.5013 0.634601 5.13952 -1.93146 -3.22226 5.6996ZM63.6718 6.31952C65.1543 7.99473 67.6026 8.65572 69.7798 8.8089C72.8277 8.76705 76.0545 7.56446 78.2274 5.38963C79.6381 3.53312 79.6381 3.53312 80.3953 1.36012C74.5102 0.902142 68.6438 3.40204 63.6718 6.31952ZM83.4922 1.36012C84.3565 4.01292 86.2485 6.22229 88.699 7.55937C91.5761 8.81197 94.4172 9.09957 97.4285 8.17929C98.299 7.8148 99.0826 7.40597 99.9061 6.93944C99.9061 6.73487 99.9061 6.53029 99.9061 6.31952C94.8745 3.39306 89.4007 1.13365 83.4922 1.36012ZM81.9438 2.29001C81.7522 2.62145 81.7522 2.62145 81.5567 2.95958C79.5607 6.27271 77.148 8.64561 73.3159 9.65161C72.5801 9.8014 71.8477 9.93302 71.1045 10.0391C71.1753 13.1248 72.2432 15.3409 74.3091 17.6138C76.401 19.5936 79.0819 20.5908 81.9438 20.694C85.3949 20.5643 88.2126 19.1127 90.5572 16.6064C92.1932 14.6119 92.9073 12.5916 93.0928 10.0391C92.8864 10.0159 92.68 9.99272 92.4673 9.96884C89.4843 9.54292 86.9829 8.3359 84.731 6.31952C84.1274 5.47439 84.1274 5.47439 83.589 4.57598C82.8608 3.35896 82.8608 3.35896 81.9438 2.29001ZM-11.9227 12.2342C-18.4258 19.1949 -20.9145 28.2707 -20.6207 37.6177C-20.0917 46.5576 -15.5222 54.7273 -9.02117 60.7193C-7.60451 61.9489 -6.04719 62.976 -4.46103 63.9725C-4.18198 64.1503 -3.90293 64.3281 -3.61542 64.5113C-2.94218 64.9568 -2.94218 64.9568 -2.19639 64.9218C0.418816 63.887 3.29235 61.3213 4.82981 59.0131C4.52141 58.9004 4.52141 58.9004 4.20679 58.7855C1.70152 57.8338 0.239359 56.9332 -1.03262 54.5271C-1.56363 53.2722 -1.79557 51.9887 -1.98348 50.6441C-1.47248 50.6441 -0.961483 50.6441 -0.435003 50.6441C-0.427019 50.8239 -0.419035 51.0037 -0.410809 51.189C-0.247866 53.4351 0.476509 54.7358 2.10062 56.3009C3.30388 57.301 4.54265 57.5724 6.06858 57.7733C7.46096 55.9495 8.63828 54.0355 9.72685 52.0196C9.90556 51.6963 9.90556 51.6963 10.0879 51.3664C10.9131 49.8068 11.3209 48.35 11.6431 46.6146C13.3805 46.5123 15.1179 46.41 16.9079 46.3047C16.2914 43.787 15.6726 41.27 15.0499 38.7539C14.7608 37.5851 14.4726 36.4162 14.1867 35.2466C13.9098 34.1145 13.6304 32.9831 13.3493 31.8521C13.2433 31.4239 13.1383 30.9955 13.0342 30.5669C10.6907 20.9291 5.84063 12.9708 -2.54707 7.50186C-6.17753 5.29826 -9.42619 9.74951 -11.9227 12.2342ZM57.6327 11.3177C56.4932 12.4867 55.5114 13.7371 54.5552 15.0566C54.4234 15.237 54.2917 15.4175 54.1559 15.6034C53.3825 16.7041 52.8823 17.7323 52.5228 19.028C55.7955 20.5623 58.7443 21.1778 62.2733 19.9893C65.7099 18.4832 67.667 16.0805 69.0406 12.6713C69.2805 11.7702 69.2812 10.9675 69.2463 10.0391C68.9844 9.98992 68.7225 9.94077 68.4527 9.89014C66.4697 9.48191 64.8528 9.06388 63.2036 7.8657C61.567 6.778 58.7752 10.2313 57.6327 11.3177ZM1.42316 8.79922C1.56968 8.92348 1.71619 9.04774 1.86714 9.17577C8.28122 14.6944 12.2688 21.3104 14.1206 29.5667C15.5723 29.6829 16.6133 29.7169 17.9338 29.0436C19.558 27.6448 20.1366 26.6243 20.45 24.4911C20.8207 22.3542 21.2114 20.9005 23.0244 19.5559C24.6407 18.6035 26.2175 18.4713 28.0569 18.718C30.0777 19.348 31.2884 20.2992 32.2958 22.1663C32.6757 23.1229 32.812 24.0553 32.9539 25.0722C33.2325 26.7752 33.8452 27.8506 35.1799 28.9468C36.4954 29.7399 37.7065 29.7695 39.2059 29.5667C40.4034 29.1547 41.2293 28.4832 42.0899 27.5519C42.8375 26 43.0092 24.4431 43.2319 22.7475C43.3445 22.2812 43.3445 22.2812 43.4594 21.8055C43.5637 20.6411 43.2695 20.1854 42.6319 19.2217C42.4566 18.9508 42.2814 18.6799 42.1008 18.4008C41.8942 18.0975 41.8942 18.0975 41.6835 17.7881C41.3322 17.9416 40.9808 18.095 40.6189 18.2531C38.7101 18.9573 36.9821 19.0595 35.1025 18.2143C33.4456 17.2795 32.2908 15.9246 31.7732 14.0686C31.7382 13.6232 31.7062 13.1776 31.6765 12.7319C31.5226 11.1418 30.9574 10.0036 29.9151 8.79922C28.4698 7.74721 27.002 7.60351 25.2696 7.86933C23.7853 8.35871 22.8219 9.18607 22.0989 10.5997C21.7015 11.7439 21.5857 12.9325 21.4142 14.1279C21.0539 15.9668 19.9602 17.0702 18.4564 18.0981C16.8901 18.969 15.1647 18.9405 13.4444 18.5739C11.9272 18.0888 10.8952 17.3322 10.0946 15.9283C9.49863 14.5512 9.16431 13.1571 8.89455 11.6857C8.59265 10.2454 8.04779 9.51526 6.99767 8.48926C6.05161 7.90595 5.31607 7.77753 4.21042 7.77247C3.94853 7.76727 3.68665 7.76208 3.41682 7.75673C2.52156 7.89027 2.09574 8.20865 1.42316 8.79922ZM99.4028 8.60549C97.848 9.42293 96.3716 9.79219 94.6413 10.0391C94.9065 13.6899 96.4814 16.0091 99.0931 18.4855C101.673 20.207 104.259 20.8689 107.339 20.5778C108.618 20.2629 109.856 19.8878 111.055 19.3379C111.208 19.0311 111.208 19.0311 111.365 18.718C109.4 14.82 105.81 10.1982 102.074 7.86933C100.798 7.86933 100.467 8.00545 99.4028 8.60549ZM93.7122 14.0686C93.2428 14.813 92.8097 15.5761 92.3706 16.3388C90.1283 19.939 86.8231 21.1984 82.8729 22.1276C82.9865 25.0835 84.2243 27.7064 86.3956 29.7217C89.428 32.1834 92.3468 32.686 96.1897 32.3563C99.365 31.5352 101.688 29.847 103.429 27.087C104.358 25.4246 104.861 24.0562 104.861 22.1276C104.584 22.0597 104.307 21.9917 104.022 21.9218C100.401 20.9714 97.4695 19.7032 95.2606 16.5483C94.7929 15.7342 94.4052 14.928 94.0219 14.0686C93.9197 14.0686 93.8175 14.0686 93.7122 14.0686ZM69.8657 14.3785C69.5824 14.8323 69.3219 15.3003 69.0721 15.7734C67.2175 18.9432 64.4919 20.7667 60.9777 21.7389C60.331 21.8863 59.679 22.0098 59.0264 22.1276C59.7345 25.585 60.8455 28.2651 63.6718 30.4966C66.7752 32.3262 69.7379 32.8455 73.2977 32.1772C76.1709 31.2721 78.6031 29.1633 80.0977 26.5482C80.6996 25.1304 81.0162 23.6322 81.3244 22.1276C81.0849 22.0749 80.8453 22.0221 80.5985 21.9678C76.8391 21.0923 73.74 19.6976 71.4928 16.3667C71.1291 15.7129 70.7913 15.0609 70.4851 14.3785C70.2807 14.3785 70.0763 14.3785 69.8657 14.3785ZM22.7147 21.8564C22.068 22.9197 21.9128 23.8381 21.7033 25.0529C21.3189 27.0882 20.7176 28.5391 19.0758 29.8767C17.6302 30.7769 16.4038 30.973 14.74 31.1165C15.0872 33.3778 15.5934 35.598 16.1337 37.8194C16.2329 38.2385 16.2329 38.2385 16.3341 38.6661C16.3989 38.9277 16.4637 39.1893 16.5305 39.4588C16.617 39.8134 16.617 39.8134 16.7053 40.1752C16.8605 40.79 16.8605 40.79 17.5273 41.0353C19.5971 39.5161 20.209 38.0872 20.6049 35.5916C20.9319 33.6492 21.5268 32.5345 23.1211 31.3296C24.8439 30.3391 26.4207 30.3101 28.3666 30.4966C29.9468 30.9378 31.1681 31.7723 32.0805 33.1664C32.5782 34.3461 32.7318 35.595 32.9412 36.8508C33.2565 38.5705 33.7867 39.6653 35.1799 40.7253C36.4175 41.4751 37.7903 41.5979 39.2059 41.3453C41.0012 40.5976 41.8605 39.7479 42.6125 37.9357C42.7671 37.2228 42.9022 36.5054 43.019 35.7853C43.414 33.7959 43.9109 32.7898 45.3998 31.4265C45.6042 31.3242 45.8086 31.2219 46.0192 31.1165C46.0888 29.4414 45.8608 28.0749 45.3998 26.4864C45.3407 26.2745 45.2816 26.0625 45.2208 25.8441C45.0765 25.3278 44.9288 24.8125 44.7804 24.2973C44.576 24.2973 44.3716 24.2973 44.161 24.2973C44.1307 24.4995 44.1003 24.7017 44.0691 24.91C43.6921 27.115 43.203 28.5765 41.3544 29.9735C39.6344 30.9625 38.0525 30.9979 36.109 30.8065C34.4627 30.3046 33.3081 29.4969 32.3926 28.0169C32.0143 27.1332 31.7939 26.3089 31.6644 25.3568C31.3746 23.2786 30.9364 21.9456 29.2957 20.5778C26.7804 19.0541 24.6575 20.0199 22.7147 21.8564ZM51.5937 20.2678C49.9272 23.6173 48.4119 27.4305 48.4774 31.2327C48.4838 31.6035 48.4902 31.9743 48.4967 32.3563C51.4915 31.5486 54.227 30.0759 55.9294 27.397C57.1971 24.8818 57.1971 24.8818 57.4779 22.1276C57.131 22.0193 56.7841 21.911 56.4266 21.7995C55.9706 21.657 55.5145 21.5145 55.0584 21.3721C54.8299 21.3007 54.6013 21.2294 54.3658 21.1559C53.4394 20.8664 52.5144 20.575 51.5937 20.2678ZM109.832 21.2595C108.727 21.6913 107.572 21.9035 106.41 22.1276C106.807 24.9717 107.786 27.4781 109.816 29.5667C112.216 31.4004 112.216 31.4004 115.081 32.0464C115.004 27.9922 113.939 24.2649 112.294 20.5778C111.3 20.5778 110.723 20.8567 109.832 21.2595ZM105.481 25.8471C105.334 26.1924 105.187 26.5376 105.035 26.8933C103.429 30.0534 101.04 32.0634 97.7382 33.2862C96.7109 33.5631 95.6962 33.7707 94.6413 33.9062C94.7475 36.6708 95.9195 39.2516 97.7769 41.3065C100.13 43.4517 103.116 44.5586 106.267 44.5115C109.451 44.2332 112.165 42.6757 114.335 40.3754C115.729 38.5235 115.464 36.1123 115.391 33.9062C115.133 33.8195 114.874 33.7328 114.608 33.6434C110.681 32.2433 108.115 30.3149 106.139 26.622C106.024 26.3663 105.909 26.1106 105.79 25.8471C105.688 25.8471 105.586 25.8471 105.481 25.8471ZM58.0973 26.1571C57.8179 26.6235 57.5489 27.0963 57.2843 27.5713C55.3312 30.8401 52.7164 32.6426 49.0387 33.7124C48.7577 33.7764 48.4766 33.8403 48.1871 33.9062C48.0872 36.6656 48.2135 38.5719 50.0452 40.7641C52.3346 43.1842 55.079 44.2762 58.3683 44.5417C61.3571 44.4424 64.3601 43.1332 66.4724 41.0232C68.2218 38.91 69.3466 36.6804 69.2463 33.9062C69.0068 33.8534 68.7672 33.8007 68.5204 33.7463C64.4515 32.7988 61.6339 31.3471 59.3554 27.7263C59.1802 27.4294 59.0049 27.1325 58.8243 26.8267C58.6866 26.6057 58.5489 26.3848 58.407 26.1571C58.3048 26.1571 58.2026 26.1571 58.0973 26.1571ZM81.9438 26.1571C81.5835 26.722 81.23 27.2911 80.8792 27.8619C78.6047 31.2968 75.8254 33.0134 71.8206 33.8287C71.5843 33.8542 71.348 33.8798 71.1045 33.9062C71.2518 36.9541 72.3318 39.474 74.5111 41.6552C76.755 43.5056 79.5314 44.6929 82.493 44.5526C85.2368 44.1238 87.6586 43.2723 89.6861 41.3453C89.8574 41.1826 90.0287 41.02 90.2051 40.8525C92.0268 38.9297 92.8661 36.5149 93.0928 33.9062C92.8381 33.8606 92.5834 33.8151 92.321 33.7681C88.8717 33.0745 86.0234 31.757 83.8019 28.9468C83.2324 28.0411 82.7254 27.1171 82.2535 26.1571C82.1513 26.1571 82.0491 26.1571 81.9438 26.1571ZM22.3856 33.9062C21.7256 35.1968 21.6178 36.5756 21.4142 37.995C21.0493 39.8571 19.9461 40.8947 18.4564 41.9652C18.1498 42.1698 17.8432 42.3743 17.5273 42.5851C17.9361 44.324 18.3449 46.0629 18.7661 47.8545C16.9265 47.8545 15.0869 47.8545 13.1916 47.8545C12.2814 49.6749 12.2814 49.6749 11.3987 51.5086C8.64884 57.3105 4.82461 62.0916 -0.435003 65.8323C0.559546 66.4959 1.53943 66.8541 2.66194 67.2271C3.04519 67.3582 3.42844 67.4892 3.8233 67.6242C6.7987 68.5278 9.70654 68.7336 12.8044 68.7188C13.188 68.717 13.5715 68.7153 13.9667 68.7135C21.7534 68.6101 28.5135 65.7391 34.5605 60.8729C34.7864 60.6947 35.0124 60.5165 35.2452 60.3329C41.0739 55.5137 44.5204 48.31 46.0192 41.0353C46.0803 40.7508 46.1413 40.4663 46.2043 40.1732C46.3862 38.7162 46.3611 37.2712 46.3482 35.8047C46.3461 35.3516 46.3461 35.3516 46.344 34.8893C46.3404 34.1483 46.3353 33.4073 46.3289 32.6663C44.9325 34.0099 44.3663 34.8988 44.0316 36.8181C43.6528 38.9794 43.173 40.3777 41.3544 41.7521C39.6302 42.7435 38.0552 42.7388 36.109 42.5851C34.2781 41.9404 33.0995 40.8416 32.1797 39.1368C31.7999 38.1802 31.6636 37.2478 31.5216 36.2309C31.2431 34.5279 30.6304 33.4525 29.2957 32.3563C26.7789 30.8389 24.09 31.6932 22.3856 33.9062ZM69.8657 37.9357C69.7124 38.2873 69.5591 38.6389 69.4011 39.0012C67.8287 42.0887 65.632 43.8145 62.433 45.0648C61.307 45.4263 60.1801 45.7356 59.0264 45.9947C59.7531 49.7654 61.143 52.4019 64.2912 54.6736C66.9141 56.244 69.2957 56.4639 72.3432 56.2234C75.492 55.4125 77.8728 53.5574 79.7759 50.9541C80.6206 49.3432 81.057 47.79 81.3244 45.9947C81.0473 45.9268 80.7703 45.8588 80.4848 45.7889C76.1122 44.6411 73.2418 42.9074 70.8335 39.0205C70.6526 38.7089 70.6526 38.7089 70.4681 38.3909C70.3715 38.2407 70.2749 38.0905 70.1754 37.9357C70.0732 37.9357 69.971 37.9357 69.8657 37.9357ZM93.7122 37.9357C93.6068 38.1307 93.5014 38.3256 93.3928 38.5265C91.2154 42.375 88.6445 44.4439 84.3826 45.6266C83.8802 45.7527 83.3772 45.8766 82.8729 45.9947C83.0273 48.7776 84.1459 51.1898 86.0327 53.2485C88.6257 55.556 91.4231 56.3859 94.8445 56.3191C97.972 56.0302 100.602 54.5481 102.627 52.1625C103.931 50.3466 104.861 48.2595 104.861 45.9947C104.543 45.9116 104.225 45.8285 103.897 45.7428C99.8061 44.6123 96.9199 43.0935 94.7465 39.2748C94.3563 38.5269 94.3563 38.5269 93.7122 37.9357ZM47.258 41.9652C47.1526 42.3552 47.0472 42.7451 46.9386 43.1469C44.2318 52.841 38.753 60.7734 29.9151 65.8323C26.2383 67.8653 22.2698 69.0952 18.1467 69.8618C18.1467 69.9641 18.1467 70.0664 18.1467 70.1717C18.6976 70.3018 18.6976 70.3018 19.2596 70.4345C28.7231 72.7473 36.8065 77.846 41.9932 86.2898C43.9968 89.739 45.6239 93.5046 46.3289 97.4484C47.0622 97.1716 47.0622 97.1716 47.2822 96.1759C47.4045 95.7545 47.5253 95.3327 47.6451 94.9106C49.3837 89.1387 52.0405 84.4159 56.2391 80.0905C56.5277 79.7729 56.5278 79.7729 56.8222 79.4488C61.7189 74.2199 68.9105 71.4039 75.7499 69.8618C75.7499 69.7595 75.7499 69.6572 75.7499 69.5518C75.3754 69.4615 75.001 69.3712 74.6151 69.2782C65.1944 66.9454 57.2143 61.9194 52.0897 53.4725C49.9437 49.8187 48.4859 46.1119 47.5677 41.9652C47.4655 41.9652 47.3633 41.9652 47.258 41.9652ZM49.1161 41.9652C49.7324 46.0432 51.4383 49.5753 53.4519 53.1238C54.3709 53.2294 54.3709 53.2294 54.8346 52.7013C56.3363 50.7119 57.4779 48.5293 57.4779 45.9947C57.1489 45.9044 56.82 45.8141 56.4811 45.7211C54.0015 45.0115 51.995 44.3409 50.0452 42.5851C49.7386 42.3805 49.432 42.176 49.1161 41.9652ZM114.152 42.5851C113.936 42.7595 113.936 42.7595 113.717 42.9374C111.481 44.5947 109.053 45.2609 106.41 45.9947C106.765 48.538 107.384 50.8727 109.404 52.5838C109.761 52.8511 109.761 52.8511 110.126 53.1238C111.912 49.9414 113.617 46.7848 114.462 43.205C114.36 43.0005 114.257 42.7959 114.152 42.5851ZM58.0973 49.7142C58.0071 49.9128 57.9168 50.1114 57.8239 50.316C57.6969 50.5841 57.57 50.8522 57.4392 51.1284C57.317 51.391 57.1949 51.6535 57.069 51.9239C56.4022 53.0647 55.5737 54.0059 54.6906 54.9836C56.8658 57.6545 59.0132 60.07 61.8136 62.1127C62.1422 62.3541 62.4707 62.5954 62.8092 62.844C64.3604 64.0923 64.3604 64.0923 66.1965 64.584C67.6422 63.8222 68.4302 61.9491 69.0527 60.5048C69.2606 59.5686 69.2595 58.7293 69.2463 57.7733C69.0104 57.7241 68.7744 57.675 68.5313 57.6243C64.7485 56.7688 61.8312 55.3106 59.7232 51.9808C59.5459 51.6856 59.3687 51.3903 59.1861 51.0861C58.7437 50.3147 58.7437 50.3147 58.0973 49.7142ZM81.9438 49.7142C81.6495 50.1858 81.368 50.6653 81.0921 51.1478C79.0368 54.5925 76.5295 56.4399 72.6529 57.4633C72.1393 57.5787 71.6241 57.6894 71.1045 57.7733C71.2697 61.1903 72.5403 63.5247 75.0301 65.8601C77.3218 67.7452 79.9353 68.4262 82.8729 68.2732C85.9319 67.9352 88.5822 66.5412 90.5995 64.2026C92.0362 62.2793 93.0928 60.219 93.0928 57.7733C92.7443 57.6995 92.7443 57.6995 92.3887 57.6243C88.9137 56.8315 86.0419 55.702 83.8019 52.8139C83.213 51.8084 82.7099 50.786 82.2535 49.7142C82.1513 49.7142 82.0491 49.7142 81.9438 49.7142ZM105.481 49.7142C105.379 49.9316 105.277 50.149 105.172 50.3729C103.668 53.3762 101.578 55.6912 98.3576 56.8434C97.127 57.1942 95.8908 57.4981 94.6413 57.7733C94.7301 60.085 95.5406 62.0398 96.8091 63.9725C97.449 64.398 97.449 64.398 98.0479 64.5924C102.302 61.9148 105.809 58.9684 108.887 54.9836C108.445 54.0512 107.934 53.205 107.358 52.3489C107.202 52.1156 107.046 51.8822 106.885 51.6418C106.432 50.9866 105.963 50.3481 105.481 49.7142ZM93.7122 61.4928C93.6032 61.7138 93.4942 61.9347 93.3819 62.1624C92.3724 64.1224 91.3346 65.6136 89.6861 67.0721C89.4817 67.2767 89.2773 67.4813 89.0667 67.692C90.8815 67.5319 92.3523 67.1487 94.0219 66.4328C94.2323 66.3455 94.4426 66.2582 94.6594 66.1683C95.1706 65.9557 95.6804 65.7394 96.1897 65.5223C95.8932 65.0249 95.5964 64.5277 95.2994 64.0306C95.1341 63.7537 94.9688 63.4768 94.7985 63.1915C94.4496 62.6171 94.0848 62.0522 93.7122 61.4928ZM69.8657 61.8028C69.6713 62.1833 69.478 62.5644 69.285 62.9458C69.1772 63.1579 69.0694 63.3701 68.9584 63.5887C68.6066 64.3249 68.3029 65.0719 68.0075 65.8323C70.4637 66.8563 72.798 67.6469 75.4402 68.002C75.2294 67.8486 75.0186 67.6952 74.8014 67.5371C72.8546 65.8788 71.5257 64.1357 70.4851 61.8028C70.2807 61.8028 70.0763 61.8028 69.8657 61.8028ZM-13.7519 83.1902C-17.7385 88.1746 -21.5295 95.5373 -21.1845 102.098C-20.4632 101.398 -19.7672 100.705 -19.1231 99.933C-14.1444 93.9786 -6.21046 90.1631 1.48002 89.4403C10.4819 88.9154 18.7936 90.993 25.889 96.8285C26.2903 97.1533 26.2903 97.1533 26.6996 97.4847C28.8285 99.2969 30.4496 101.397 32.0829 103.648C33.0876 102.656 34.0514 101.644 34.9863 100.587C35.4634 100.057 35.9408 99.5274 36.4187 98.9982C36.6762 98.7088 36.6762 98.7088 36.9388 98.4134C38.5912 96.6485 40.6105 95.3684 42.6125 94.0388C42.9192 93.8343 43.2257 93.6297 43.5416 93.4189C43.0221 89.6709 40.3183 86.0205 37.9671 83.1902C37.7476 82.9233 37.528 82.6563 37.3018 82.3814C31.8136 75.9961 24.0132 72.0436 15.6691 71.1016C4.12319 70.2535 -6.0889 74.4926 -13.7519 83.1902ZM66.7687 74.2013C66.4294 74.3603 66.0901 74.5193 65.7405 74.6832C57.9001 78.6351 52.0783 85.6561 49.1549 93.8839C46.5414 102.491 46.8101 111.971 50.9808 120.07C55.4675 128.317 62.4005 134.352 71.3561 137.22C80.5231 139.842 89.7652 138.679 98.0961 134.05C99.6358 133.145 101.018 132.07 102.384 130.924C102.696 130.663 103.008 130.401 103.33 130.131C109.449 124.84 113.435 117.265 114.462 109.227C115.05 100.659 113.758 92.4189 108.578 85.3599C108.394 85.1082 108.211 84.8565 108.022 84.5971C105.567 81.3848 102.724 78.5139 99.2867 76.371C99.0188 76.194 98.7509 76.017 98.4749 75.8346C88.9784 69.8629 76.835 69.4722 66.7687 74.2013ZM-1.67378 91.2492C-1.27241 92.5045 -0.809425 93.7042 -0.280155 94.9106C2.1787 100.824 1.83494 107.503 -0.30072 113.465C-0.907553 114.875 -1.67185 116.073 -2.60287 117.286C-2.80726 117.593 -3.01166 117.9 -3.22226 118.216C4.59615 120.099 12.215 119.398 19.3855 115.736C19.7128 115.57 20.0402 115.405 20.3774 115.234C24.1011 113.2 27.234 110.328 29.9151 107.057C30.0692 106.875 30.2233 106.693 30.382 106.505C30.7978 105.998 30.7978 105.998 31.1539 105.197C30.7948 103.892 30.1095 103.078 29.1989 102.098C28.9478 101.827 28.6967 101.556 28.438 101.277C27.7033 100.502 26.9729 99.7343 26.1987 98.9982C26.0103 98.8148 25.8219 98.6314 25.6277 98.4425C19.5564 92.7512 11.4898 90.373 3.31369 90.5949C1.63579 90.6833 -0.0202198 90.9596 -1.67378 91.2492ZM-16.6117 99.3784C-19.2609 102.021 -19.2609 102.021 -21.1845 105.197C-20.5819 105.958 -19.977 106.717 -19.3687 107.474C-18.992 107.943 -18.6172 108.413 -18.2485 108.888C-15.0895 112.819 -9.73758 116.505 -4.77073 117.596C-1.04394 113.844 0.179014 108.836 0.184387 103.648C0.0203857 99.5146 -0.717394 95.0668 -3.53195 91.8691C-8.10562 91.8691 -13.4964 96.3592 -16.6117 99.3784ZM36.7284 100.548C34.5418 102.717 34.5418 102.717 33.6314 105.507C34.3886 106.776 35.4248 107.829 36.4187 108.917C36.7821 109.319 36.7821 109.319 37.153 109.729C39.0312 111.708 41.1391 113.494 43.5416 114.806C43.8482 114.704 44.1548 114.602 44.4707 114.496C44.7824 113.644 44.7824 113.644 44.974 112.617C45.0482 112.275 45.1225 111.932 45.199 111.58C46.0699 106.754 46.7932 99.3671 44.161 94.9687C41.9174 94.9687 38.2192 99.056 36.7284 100.548ZM32.0829 106.437C31.6523 106.926 31.2431 107.434 30.8442 107.948C25.9479 114.035 19.7652 117.811 12.2625 119.766C11.9699 119.842 11.6772 119.918 11.3757 119.997C3.26833 121.7 -5.55343 119.92 -12.5285 115.559C-15.6911 113.48 -18.5092 110.947 -20.8749 107.987C-21.291 109.349 -20.9965 110.486 -20.6813 111.842C-20.6239 112.092 -20.5665 112.341 -20.5074 112.598C-19.2681 117.78 -16.9652 122.58 -13.4422 126.585C-13.2366 126.835 -13.031 127.085 -12.8192 127.343C-7.31985 133.834 0.706125 137.712 9.10746 138.577C9.64266 138.614 10.1782 138.646 10.714 138.673C10.9268 138.686 11.1396 138.699 11.3588 138.712C20.1566 138.982 28.5791 135.524 35.0238 129.637C38.8604 126.021 41.5859 121.87 43.5416 116.976C43.5416 116.771 43.5416 116.567 43.5416 116.356C43.0771 116.039 42.5958 115.747 42.1093 115.465C38.7723 113.385 35.9163 110.9 33.6374 107.681C33.3374 107.258 33.0213 106.846 32.7023 106.437C32.4979 106.437 32.2935 106.437 32.0829 106.437ZM46.3289 112.327C46.2458 112.649 46.1628 112.972 46.0773 113.305C43.6209 122.448 38.0801 130.382 29.8749 135.22C26.2844 137.241 22.4368 138.587 18.4564 139.603C18.4564 139.706 18.4564 139.808 18.4564 139.913C18.7753 139.978 19.0943 140.042 19.423 140.108C28.6925 142.074 36.6707 147.098 41.92 155.118C44.348 158.944 45.7961 162.817 46.9483 167.19C47.1527 167.088 47.3571 166.985 47.5677 166.88C47.809 166.1 48.0221 165.326 48.2258 164.536C49.7839 158.908 52.8298 154.035 56.8585 149.832C57.1645 149.502 57.1645 149.502 57.4767 149.165C62.2855 144.119 69.0095 141.23 75.7499 139.913C75.7499 139.811 75.7499 139.709 75.7499 139.603C75.1654 139.473 75.1654 139.473 74.5692 139.341C64.8434 137.096 56.8112 132.032 51.3832 123.449C49.2494 119.947 47.9962 116.275 46.9483 112.327C46.7439 112.327 46.5395 112.327 46.3289 112.327ZM-11.157 150.729C-11.6573 151.361 -11.6573 151.361 -11.5731 152.165C-11.2178 153.077 -10.8239 153.473 -10.0743 154.094C-9.85787 154.278 -9.6415 154.462 -9.41857 154.651C-8.02539 155.66 -6.42017 155.592 -4.77073 155.411C-2.95193 154.779 -1.80717 153.531 -0.976969 151.827C-0.683979 151.006 -0.683979 151.006 -0.744698 149.832C-0.233702 149.832 0.277294 149.832 0.803776 149.832C0.816551 150.139 0.829325 150.446 0.842487 150.762C1.06558 152.309 1.91176 153.373 2.97164 154.481C4.51002 155.601 6.08968 155.625 7.92675 155.411C9.63658 154.852 10.5998 153.723 11.6431 152.312C12.0625 151.472 11.9729 150.759 11.9528 149.832C12.566 149.832 13.1792 149.832 13.811 149.832C13.7854 150.101 13.7598 150.369 13.7335 150.646C13.8587 152.337 14.7574 153.346 15.9982 154.423C17.5477 155.578 19.0585 155.656 20.9339 155.411C22.6578 154.729 23.8173 153.669 24.6503 152.002C24.897 150.845 24.897 150.845 24.96 149.832C25.471 149.832 25.9819 149.832 26.5084 149.832C26.534 150.152 26.5595 150.471 26.5859 150.801C26.9696 152.785 27.9654 153.965 29.6054 155.101C31.2665 155.656 32.9772 155.625 34.6379 155.082C35.7121 154.325 36.7052 153.475 37.3477 152.312C37.3237 151.397 37.035 151.069 36.4259 150.382C29.1032 143.745 20.4513 140.42 10.5569 140.796C2.29478 141.301 -5.22609 145.069 -11.157 150.729ZM60.2652 148.592C59.8918 148.903 59.5177 149.213 59.1425 149.522C58.7784 149.829 58.7784 149.829 58.407 150.142C58.6114 150.244 58.8158 150.347 59.0264 150.452C59.6864 150.23 60.3371 149.98 60.9813 149.716C64.7618 148.171 69.7832 147.849 73.703 149.179C76.5436 150.384 79.1375 151.625 81.3244 153.862C82.4625 153.351 83.3996 152.643 84.402 151.905C88.9278 148.716 94.0355 147.785 99.4524 148.659C100.787 148.962 102.03 149.39 103.29 149.923C103.502 149.995 103.714 150.068 103.932 150.142C104.239 149.989 104.239 149.989 104.551 149.832C97.9525 143.415 89.2009 140.662 80.1606 140.777C72.8977 140.991 65.7037 143.768 60.2652 148.592ZM54.1493 156.161C50.7372 160.475 49.8609 165.207 50.3549 170.6C50.6134 171.935 51.016 173.09 51.5937 174.319C51.7799 174.735 51.7799 174.735 51.9699 175.159C53.782 178.829 56.7629 181.746 59.67 184.564C60.355 185.238 60.9881 185.944 61.6152 186.673C62.7556 187.993 63.9761 189.216 65.2203 190.437C66.6505 191.841 68.0174 193.267 69.3249 194.786C70.233 195.811 71.211 196.763 72.1884 197.721C73.3603 198.87 74.506 200.022 75.5769 201.266C76.7517 202.63 78.0129 203.895 79.292 205.16C79.5186 205.386 79.7451 205.611 79.9785 205.843C80.5297 206.391 81.0815 206.938 81.6341 207.485C82.8553 206.469 84.0054 205.461 85.0407 204.25C86.4698 202.625 87.9896 201.105 89.5337 199.59C90.494 198.642 91.4168 197.682 92.2968 196.658C93.6819 195.051 95.1991 193.583 96.7111 192.097C97.9606 190.86 99.1441 189.595 100.29 188.262C101.443 186.962 102.705 185.765 103.944 184.548C105.172 183.333 106.342 182.09 107.465 180.777C107.977 180.186 108.507 179.616 109.042 179.046C112.586 174.964 113.583 170.688 113.287 165.422C112.866 160.745 110.42 156.655 106.899 153.63C102.579 150.207 97.8686 149.356 92.4734 149.832C88.2069 150.578 84.7996 152.848 81.9438 156.031C81.6372 155.763 81.3306 155.494 81.0147 155.218C76.3162 151.212 71.814 149.415 65.6075 149.768C61.1074 150.182 57.0444 152.786 54.1493 156.161ZM-13.3756 153.756C-16.2411 156.782 -19.6361 161.912 -19.6361 166.26C-17.5898 166.293 -16.3645 165.843 -14.8866 164.414C-13.904 163.206 -13.4422 161.942 -13.4422 160.371C-12.9312 160.371 -12.4202 160.371 -11.8937 160.371C-11.8925 160.635 -11.8925 160.635 -11.8913 160.905C-11.8048 162.634 -11.4589 163.64 -10.24 164.883C-8.78503 166.148 -7.43974 166.451 -5.55464 166.388C-3.80491 166.102 -2.67336 165.149 -1.53829 163.838C-0.946314 162.63 -0.836836 161.708 -0.744698 160.371C-0.233702 160.371 0.277294 160.371 0.803776 160.371C0.822939 160.735 0.8421 161.1 0.861843 161.475C1.05726 162.968 1.58839 163.967 2.66194 165.02C4.28909 166.223 5.93707 166.557 7.92675 166.26C9.60178 165.701 10.7092 164.635 11.6431 163.16C11.9495 162.325 12.1078 161.563 12.2625 160.681C12.6713 160.681 13.0801 160.681 13.5013 160.681C13.5587 161.039 13.6162 161.397 13.6755 161.766C14.1454 163.654 15.3961 165.076 17.024 166.105C19.0373 166.489 20.7328 166.463 22.5465 165.431C23.7072 164.573 24.4801 163.576 24.8124 162.159C24.89 161.566 24.9285 160.968 24.96 160.371C25.471 160.371 25.9819 160.371 26.5084 160.371C26.534 160.742 26.5595 161.112 26.5859 161.494C26.7955 163.08 27.362 164.101 28.5807 165.169C29.9642 166.168 31.167 166.507 32.8705 166.408C34.7393 166.045 35.9765 165.04 37.038 163.49C37.6428 162.423 37.8122 161.61 37.6574 160.371C38.1684 160.371 38.6794 160.371 39.2059 160.371C39.2398 160.554 39.2738 160.738 39.3087 160.927C39.69 162.828 40.0535 164.123 41.5867 165.408C42.8237 166.062 43.7042 166.164 45.0901 166.26C44.9153 164.547 44.4787 163.117 43.8126 161.533C43.7164 161.303 43.6202 161.072 43.5211 160.835C42.2939 157.977 40.6774 155.538 38.5865 153.242C38.3566 153.577 38.3566 153.577 38.122 153.92C36.8199 155.386 35.1157 156.545 33.1245 156.725C31.0569 156.775 29.4242 156.706 27.7472 155.411C27.067 154.729 26.4624 154.016 25.889 153.242C25.6655 153.472 25.4419 153.702 25.2116 153.939C23.3487 155.762 21.9438 156.736 19.2887 156.767C17.2281 156.73 15.7234 156.4 14.2465 154.915C13.8737 154.478 13.5293 154.016 13.1916 153.552C12.2185 153.776 12.2185 153.776 11.7399 154.578C10.5546 155.957 9.38673 156.547 7.57714 156.771C5.49033 156.841 3.72215 156.734 2.04255 155.411C1.36309 154.728 0.757742 154.015 0.184387 153.242C-0.039175 153.472 -0.262735 153.702 -0.493071 153.939C-2.26614 155.674 -3.68565 156.729 -6.22242 156.787C-8.18353 156.751 -9.68776 156.263 -11.2743 155.101C-11.8048 154.5 -12.132 153.955 -12.5131 153.242C-12.9108 153.206 -12.9108 153.206 -13.3756 153.756ZM-12.8228 164.09C-12.9246 164.233 -13.0264 164.375 -13.1313 164.521C-14.6626 166.498 -16.4062 167.408 -18.8812 167.732C-19.4082 167.771 -19.4082 167.771 -19.9458 167.81C-20.4702 169.436 -20.6949 170.931 -20.7781 172.634C-20.7926 172.86 -20.8072 173.086 -20.8222 173.318C-20.8943 174.632 -20.8374 175.812 -20.5652 177.109C-18.5065 177.232 -17.0339 177.166 -15.4153 175.732C-14.1065 174.372 -13.6855 173.071 -13.4422 171.219C-12.9312 171.219 -12.4202 171.219 -11.8937 171.219C-11.9256 171.475 -11.9576 171.731 -11.9905 171.994C-11.8583 173.476 -11.2784 174.418 -10.3452 175.559C-8.85512 176.722 -7.66686 177.229 -5.75788 177.193C-4.07074 176.982 -2.74632 176.185 -1.69314 174.861C-0.928711 173.678 -0.817892 172.611 -0.744698 171.219C-0.233702 171.219 0.277294 171.219 0.803776 171.219C0.829325 171.59 0.854876 171.961 0.881199 172.343C1.05416 173.685 1.47023 174.509 2.35225 175.559C4.04972 176.842 5.48359 177.379 7.61706 177.109C9.3944 176.536 10.6467 175.611 11.6431 174.009C11.8471 173.078 11.9295 172.171 11.9528 171.219C12.4638 171.322 12.9748 171.424 13.5013 171.529C13.5432 171.732 13.5851 171.934 13.6283 172.142C14.1378 174.212 14.7931 175.338 16.5982 176.489C17.8772 177.211 19.1819 177.291 20.6242 177.109C22.5165 176.403 23.6789 175.321 24.5922 173.525C25.0274 172.452 25.0274 172.452 24.96 171.219C25.471 171.219 25.9819 171.219 26.5084 171.219C26.5276 171.584 26.5468 171.948 26.5665 172.324C26.7618 173.816 27.2922 174.817 28.3666 175.869C29.6976 176.834 31.0479 177.323 32.6975 177.229C34.2594 176.929 35.4468 176.24 36.5348 175.094C37.4435 173.695 37.7349 172.925 37.6574 171.219C38.1684 171.219 38.6794 171.219 39.2059 171.219C39.2353 171.478 39.2353 171.478 39.2652 171.743C39.5997 173.829 40.4261 175.085 41.9932 176.489C43.3264 177.332 44.7989 177.169 46.3289 177.109C46.3973 173.931 46.319 170.942 45.7095 167.81C45.4887 167.779 45.268 167.749 45.0405 167.718C42.1178 167.261 40.3854 166.491 38.5865 164.09C38.1605 164.49 37.748 164.905 37.3477 165.33C37.3477 165.535 37.3477 165.739 37.3477 165.95C36.9381 166.163 36.524 166.368 36.109 166.57C35.8024 166.736 35.4958 166.902 35.1799 167.074C33.4052 167.819 31.3394 167.813 29.5001 167.296C27.9148 166.59 26.9101 165.468 25.889 164.09C25.6783 164.314 25.4675 164.538 25.2503 164.768C23.4555 166.56 21.9087 167.519 19.3467 167.616C17.4313 167.598 16.0016 167.03 14.4303 165.95C13.6174 165.078 13.6174 165.078 13.1916 164.4C12.3343 164.75 11.8841 165.093 11.2366 165.776C9.72214 167.221 8.43991 167.558 6.39763 167.635C4.36553 167.575 2.92846 167.149 1.47881 165.695C1.02461 165.173 0.595854 164.646 0.184387 164.09C-0.039175 164.32 -0.262735 164.551 -0.493071 164.788C-2.28671 166.543 -3.69548 167.582 -6.26114 167.616C-8.03825 167.592 -9.15871 167.159 -10.6549 166.26C-10.9615 166.158 -11.2681 166.055 -11.584 165.95C-11.9131 165.35 -11.9131 165.35 -12.2034 164.71C-12.4078 164.506 -12.6122 164.301 -12.8228 164.09ZM48.4967 168.74C46.9972 177.37 48.954 186.259 53.7616 193.537C54.5415 194.614 55.3706 195.63 56.2391 196.636C56.422 196.864 56.6048 197.092 56.7932 197.326C61.6625 203.196 69.1836 207.04 76.679 208.105C77.7179 208.164 78.7375 208.17 79.7759 208.105C79.3372 207.591 78.8981 207.077 78.4573 206.565C78.1272 206.18 77.7992 205.793 77.475 205.402C76.0258 203.689 74.437 202.122 72.8369 200.551C71.8621 199.589 70.924 198.615 70.0302 197.576C68.9023 196.267 67.6915 195.057 66.459 193.847C65.032 192.446 63.6686 191.023 62.3641 189.507C61.4036 188.426 60.3679 187.421 59.3361 186.408C57.7113 184.813 56.1716 183.178 54.6906 181.448C54.4707 181.202 54.2507 180.956 54.0241 180.702C51.0262 177.183 49.4331 173.287 48.8064 168.74C48.7042 168.74 48.602 168.74 48.4967 168.74ZM114.771 170.6C114.669 170.958 114.567 171.316 114.462 171.684C112.507 177.444 109.064 181.376 104.783 185.561C103.591 186.728 102.476 187.93 101.388 189.194C100.232 190.497 98.9686 191.697 97.7261 192.917C96.7141 193.918 95.734 194.927 94.8058 196.007C93.4255 197.611 91.9115 199.073 90.4035 200.556C89.1385 201.808 87.9363 203.088 86.7759 204.438C86.0814 205.232 85.3461 205.969 84.5955 206.71C84.3277 206.975 84.0598 207.241 83.7838 207.514C83.5854 207.709 83.387 207.904 83.1826 208.105C85.4185 209.224 90.2339 207.418 92.5315 206.671C101.12 203.714 107.974 197.364 111.993 189.28C112.91 187.346 113.586 185.375 114.152 183.308C114.251 182.965 114.349 182.622 114.451 182.268C115.389 178.44 115.168 174.513 115.081 170.6C114.979 170.6 114.877 170.6 114.771 170.6ZM-12.8228 174.939C-13.0208 175.214 -13.2188 175.489 -13.4228 175.772C-14.8906 177.553 -16.9553 178.37 -19.2102 178.6C-19.6616 178.626 -20.1132 178.648 -20.5652 178.659C-19.9317 183.14 -19.9317 183.14 -18.3973 187.337C-17.8107 187.663 -17.8107 187.663 -17.1585 187.647C-15.8294 186.927 -14.8609 186.144 -14.0616 184.858C-13.7891 183.937 -13.5988 183.015 -13.4422 182.068C-12.9312 182.068 -12.4202 182.068 -11.8937 182.068C-11.9256 182.324 -11.9576 182.58 -11.9905 182.843C-11.8583 184.325 -11.2784 185.267 -10.3452 186.408C-8.85512 187.571 -7.66686 188.077 -5.75788 188.042C-4.07074 187.831 -2.74632 187.034 -1.69314 185.71C-0.928711 184.527 -0.817892 183.46 -0.744698 182.068C-0.233702 182.068 0.277294 182.068 0.803776 182.068C0.829325 182.388 0.854876 182.707 0.881199 183.037C1.29728 185.188 2.50247 186.401 4.21042 187.647C4.80103 187.931 4.80103 187.931 5.4492 187.957C5.78134 187.989 6.11349 188.021 6.4557 188.054C8.3691 187.895 9.59974 187.171 11.0043 185.885C11.8021 184.602 11.9165 183.555 11.9528 182.068C12.566 182.068 13.1792 182.068 13.811 182.068C13.8121 182.332 13.8121 182.332 13.8134 182.602C13.8992 184.317 14.2365 185.341 15.4405 186.581C16.6126 187.554 17.7355 187.913 19.2306 188.074C21.0465 187.879 22.2901 187.34 23.5083 185.981C24.5307 184.685 24.96 183.743 24.96 182.068C25.471 182.068 25.9819 182.068 26.5084 182.068C26.5276 182.433 26.5468 182.797 26.5665 183.172C26.7618 184.665 27.2922 185.666 28.3666 186.718C29.6976 187.683 31.0479 188.172 32.6975 188.077C34.2594 187.777 35.4468 187.089 36.5348 185.943C37.4435 184.543 37.7349 183.773 37.6574 182.068C38.1684 182.068 38.6794 182.068 39.2059 182.068C39.2406 182.332 39.2406 182.332 39.2761 182.602C39.5986 184.498 40.2166 185.76 41.6835 187.028C42.5134 187.52 42.8648 187.647 43.8513 187.647C45.4464 183.259 45.4464 183.259 46.0192 178.659C45.7833 178.635 45.5473 178.612 45.3042 178.588C42.3504 178.212 40.2666 177.19 38.2768 174.939C38.1491 175.107 38.0213 175.275 37.8897 175.449C36.4053 177.289 35.2329 178.144 32.8838 178.444C30.9607 178.543 29.3623 178.177 27.7472 177.109C27.0492 176.436 26.4528 175.727 25.889 174.939C25.6846 175.163 25.4802 175.386 25.2696 175.617C23.6215 177.271 21.7182 178.377 19.3661 178.465C17.45 178.444 15.9843 177.92 14.4303 176.799C13.9148 176.202 13.5784 175.633 13.1916 174.939C12.9872 174.939 12.7828 174.939 12.5722 174.939C12.4189 175.214 12.2656 175.489 12.1076 175.772C11.1871 177.203 9.81445 177.824 8.23645 178.349C5.77581 178.783 3.77053 178.218 1.73286 176.799C1.11845 176.207 0.675152 175.643 0.184387 174.939C-0.039175 175.169 -0.262735 175.399 -0.493071 175.636C-2.30649 177.411 -3.70157 178.355 -6.28049 178.445C-8.13406 178.393 -9.61327 178.139 -10.9695 176.805C-11.3551 176.362 -11.7314 175.91 -12.0957 175.449C-12.2335 175.281 -12.3712 175.112 -12.5131 174.939C-12.6153 174.939 -12.7175 174.939 -12.8228 174.939ZM-12.8228 185.788C-13.0208 186.063 -13.2188 186.337 -13.4228 186.621C-14.4866 187.947 -15.9421 188.527 -17.4682 189.197C-16.4859 191.281 -15.3855 193.201 -14.0616 195.087C-13.6092 194.266 -13.4422 193.879 -13.4422 192.917C-12.9312 192.917 -12.4202 192.917 -11.8937 192.917C-11.932 193.166 -11.9704 193.415 -12.0098 193.672C-11.8141 195.534 -10.7184 196.959 -9.33873 198.186C-7.58599 198.824 -6.00543 198.988 -4.20941 198.457C-2.5015 197.452 -1.47618 196.316 -0.744698 194.467C-0.666393 193.614 -0.666393 193.614 -0.744698 192.917C-0.233702 192.917 0.277294 192.917 0.803776 192.917C0.829325 193.236 0.854876 193.556 0.881199 193.885C1.26377 195.864 2.25747 197.063 3.90072 198.186C5.16055 198.943 6.3322 198.883 7.75013 198.703C9.49931 198.248 10.6582 197.185 11.6431 195.706C11.9722 194.718 12.0266 193.951 11.9528 192.917C12.566 192.917 13.1792 192.917 13.811 192.917C13.8121 193.181 13.8121 193.181 13.8134 193.451C13.8984 195.151 14.2233 196.2 15.4223 197.428C16.7913 198.53 18.1435 198.901 19.8887 198.787C21.5792 198.516 22.6449 197.752 23.7986 196.501C24.6509 195.252 24.96 194.439 24.96 192.917C25.471 192.917 25.9819 192.917 26.5084 192.917C26.534 193.288 26.5595 193.658 26.5859 194.04C26.7617 195.387 27.1561 196.212 28.0569 197.256C29.6195 198.391 31.0665 198.892 33.012 198.806C35.0276 198.201 36.2088 197.187 37.2897 195.396C37.6517 194.481 37.7431 193.888 37.6574 192.917C38.1684 192.917 38.6794 192.917 39.2059 192.917C39.3081 193.531 39.4103 194.144 39.5156 194.777C40.9188 193.156 42.2414 191.242 42.9222 189.197C42.7167 189.081 42.5111 188.965 42.2992 188.845C40.7621 187.953 39.4547 187.124 38.2768 185.788C38.1241 186.001 38.1241 186.001 37.9683 186.219C36.5792 188.012 35.1233 188.945 32.8729 189.326C30.7879 189.45 29.1485 188.82 27.4375 187.647C26.8221 187.056 26.3801 186.492 25.889 185.788C25.6846 186.011 25.4802 186.235 25.2696 186.466C23.5824 188.154 21.7125 189.223 19.308 189.275C17.5088 189.239 16.0508 188.958 14.7449 187.653C14.3656 187.21 13.9962 186.759 13.6392 186.297C13.4915 186.129 13.3437 185.961 13.1916 185.788C12.9872 185.788 12.7828 185.788 12.5722 185.788C12.2362 186.17 11.916 186.567 11.6044 186.969C10.3185 188.472 9.18465 189.043 7.2372 189.282C5.16902 189.374 3.49717 188.856 1.81028 187.667C1.14575 187.057 0.500443 186.437 -0.125309 185.788C-0.227108 185.93 -0.328909 186.072 -0.433792 186.219C-1.81888 188.007 -3.28351 188.97 -5.54013 189.315C-7.44405 189.406 -9.05892 189.015 -10.6549 187.957C-11.2163 187.406 -11.7003 186.846 -12.1744 186.219C-12.2861 186.076 -12.3979 185.934 -12.5131 185.788C-12.6153 185.788 -12.7175 185.788 -12.8228 185.788ZM-0.125309 196.326C-0.278606 196.601 -0.431906 196.876 -0.589849 197.159C-1.49878 198.53 -2.90129 199.441 -4.46345 199.931C-6.12133 200.24 -7.77716 200.064 -9.41615 199.736C-4.1824 205.498 4.29824 207.965 11.8197 208.492C20.0026 208.653 27.959 205.887 34.2508 200.666C34.353 200.461 34.4552 200.257 34.5605 200.046C34.212 200.068 34.212 200.068 33.8564 200.09C31.4484 200.175 29.0917 200.047 27.2331 198.331C26.8181 197.837 26.8181 197.837 26.1987 196.946C25.8921 196.639 25.8921 196.639 25.5793 196.326C25.3686 196.659 25.1578 196.991 24.9406 197.334C23.9517 198.723 22.8537 199.352 21.263 199.968C18.9254 200.252 16.9844 200.069 15.0425 198.662C13.6026 197.459 13.6026 197.459 13.1916 196.636C12.9872 196.636 12.7828 196.636 12.5722 196.636C12.1485 197.09 12.1485 197.09 11.7205 197.663C10.6233 198.989 9.33841 199.793 7.61706 200.046C5.36413 200.196 3.68807 199.816 1.81028 198.535C1.08315 197.848 0.474321 197.127 -0.125309 196.326Z" fill="#8B734B" fill-opacity="0.1"/>
</svg>
