<svg width="608" height="383" viewBox="0 0 608 383" fill="none" xmlns="http://www.w3.org/2000/svg">
<path d="M51.4551 0.219357C60.799 0.219357 70.1429 0.219357 79.77 0.219357C79.77 0.592463 79.77 0.965569 79.77 1.34998C80.7413 1.43743 80.7413 1.43743 81.7322 1.52664C84.3669 1.85953 86.689 2.63609 89.1493 3.61123C89.8126 3.87391 89.8126 3.87391 90.4893 4.1419C106.956 10.893 118.836 24.1109 125.737 40.2966C126.905 43.2567 127.726 46.3113 128.472 49.4015C128.699 48.6968 128.926 47.9922 129.16 47.2661C134.683 30.5712 144.099 16.4847 159.618 7.56842C159.947 7.37922 160.276 7.19003 160.615 6.9951C168.083 2.8012 176.168 0.157532 184.743 0.084654C185.518 0.0778095 185.518 0.0778095 186.308 0.0708266C187.402 0.06302 188.496 0.0569507 189.589 0.0524964C190.693 0.0460229 191.797 0.0345237 192.9 0.0177165C199.759 -0.0865739 205.77 0.212122 212.284 2.48061C213.004 2.72471 213.004 2.72471 213.738 2.97374C214.923 3.40007 216.08 3.86076 217.239 4.3532C217.641 4.52195 218.043 4.69069 218.457 4.86455C224.214 7.35408 229.005 10.927 233.803 14.9175C234.152 15.1886 234.5 15.4596 234.858 15.7389C238.005 18.2514 240.413 21.3566 242.864 24.5278C243.382 25.1913 243.382 25.1913 243.91 25.8682C254.08 39.5819 257.729 57.2198 255.252 73.9573C252.54 90.3228 243.688 105.413 230.406 115.543C221.792 121.597 212.896 125.131 202.657 127.415C203.322 127.607 203.987 127.799 204.672 127.998C222.549 133.308 237.172 142.959 246.395 159.469C254.248 174.026 257.227 192.161 252.491 208.254C246.922 226.275 235.766 240.147 219.057 249.057C213.976 251.627 208.28 253.645 202.657 254.61C202.97 254.689 203.282 254.768 203.605 254.849C210.732 256.683 217.217 258.863 223.61 262.524C224.185 262.851 224.76 263.177 225.353 263.513C229.13 265.788 232.326 268.526 235.502 271.569C235.981 272.024 236.46 272.479 236.953 272.947C237.409 273.425 237.864 273.903 238.334 274.396C238.704 274.768 239.074 275.141 239.455 275.524C251.74 288.379 255.698 305.292 255.46 322.56C254.99 339.534 246.677 355.08 234.469 366.63C221.519 378.426 204.582 383.558 187.261 382.865C172.105 381.984 158.244 375.633 147.16 365.411C146.749 365.047 146.339 364.684 145.916 364.309C137.032 356.033 131.121 344.365 128.472 332.623C128.375 332.938 128.279 333.253 128.18 333.578C122.437 352.13 111.927 366.915 94.5579 376.13C79.6973 383.676 62.1395 384.935 46.1637 380.255C29.874 374.661 15.9086 363.408 8.05318 347.978C-0.0231153 331.371 -0.905086 313.235 4.99978 295.774C10.6984 279.953 22.9725 267.026 38.0763 259.804C42.5547 257.744 47.267 256.436 52.0214 255.175C52.0214 254.989 52.0214 254.802 52.0214 254.61C51.487 254.479 50.9527 254.349 50.4021 254.215C32.8509 249.815 18.2828 239.741 8.94092 224.202C0.0683047 209.126 -2.13197 191.317 2.03404 174.398C4.49829 165.322 8.80999 156.42 15.212 149.462C15.5857 149.01 15.9595 148.558 16.3446 148.093C25.7642 136.961 39.1043 130.511 53.154 127.415C52.659 127.304 52.1641 127.193 51.6542 127.079C34.8914 123.01 20.2578 113.086 11.1483 98.3209C2.07815 83.132 -1.00427 65.2976 3.1759 48.0302C5.86968 37.8849 10.511 29.0207 17.4772 21.1359C17.7597 20.7796 18.0422 20.4232 18.3332 20.0561C25.2719 11.3433 38.2086 3.54242 49.1899 1.34998C49.9374 1.34998 50.6849 1.34998 51.4551 1.34998C51.4551 0.976876 51.4551 0.60377 51.4551 0.219357ZM36.165 10.395C37.0414 10.9963 37.9284 11.5823 38.8195 12.1616C39.5587 12.6535 39.5587 12.6535 40.3127 13.1553C41.8045 13.962 41.8045 13.962 43.3256 13.3584C43.7658 13.1267 44.206 12.895 44.6595 12.6562C47.6877 11.6486 51.3157 11.5123 54.3817 12.4774C56.7111 13.7145 58.7932 15.3624 59.9496 17.744C60.4574 19.8835 60.834 21.9812 61.1552 24.1568C61.7885 26.8104 62.7972 28.7561 64.9865 30.4415C67.5505 31.6613 69.5188 32.3404 72.4081 31.8768C75.5123 30.6105 77.4524 28.9057 78.7923 25.8351C79.2605 24.3473 79.5228 22.8874 79.77 21.3479C80.3591 17.7396 81.6113 15.5142 84.5482 13.2922C87.68 11.4924 90.9954 11.5503 94.4938 12.0909C97.8019 13.3221 99.5485 15.2608 101.289 18.3093C101.783 20.3763 101.783 20.3763 102.103 22.5492C102.674 25.8572 103.189 27.9818 105.82 30.1809C108.324 31.8115 110.211 32.1946 113.182 31.8768C115.08 31.0955 115.08 31.0955 116.579 30.1809C113.116 22.8041 105.863 16.3139 99.0242 12.0909C98.4643 11.7266 97.9044 11.3622 97.3275 10.9868C81.3738 1.15739 51.4551 -3.52261 36.165 10.395ZM158.486 11.5256C161.196 14.5809 165.673 15.7864 169.654 16.0658C175.228 15.9894 181.128 13.7961 185.102 9.82966C187.681 6.44374 187.681 6.44374 189.066 2.48061C178.304 1.64534 167.577 6.20467 158.486 11.5256ZM194.729 2.48061C196.309 7.31879 199.769 11.3483 204.25 13.7868C209.511 16.0714 214.706 16.5959 220.212 14.9175C221.804 14.2527 223.237 13.5071 224.743 12.6562C224.743 12.2831 224.743 11.91 224.743 11.5256C215.542 6.18829 205.533 2.06756 194.729 2.48061ZM191.897 4.17654C191.547 4.78102 191.547 4.78102 191.189 5.39771C187.54 11.4402 183.128 15.7679 176.12 17.6027C174.775 17.8759 173.436 18.1159 172.077 18.3093C172.206 23.9371 174.159 27.9788 177.937 32.1242C181.762 35.735 186.664 37.5536 191.897 37.742C198.208 37.5053 203.36 34.8579 207.647 30.2869C210.639 26.6493 211.945 22.9647 212.284 18.3093C211.907 18.2671 211.529 18.2248 211.14 18.1813C205.686 17.4045 201.112 15.2031 196.994 11.5256C195.89 9.98424 195.89 9.98424 194.906 8.34572C193.574 6.12611 193.574 6.12611 191.897 4.17654ZM20.2556 22.3129C8.3642 35.0079 3.8134 51.5604 4.35081 68.6075C5.3181 84.9123 13.6736 99.8122 25.5613 110.74C28.1518 112.983 30.9994 114.856 33.8998 116.674C34.4101 116.998 34.9204 117.322 35.4461 117.656C36.6772 118.469 36.6772 118.469 38.0409 118.405C42.823 116.518 48.0774 111.838 50.8888 107.629C50.3249 107.423 50.3249 107.423 49.7496 107.214C45.1685 105.478 42.4948 103.835 40.1689 99.4471C39.1979 97.1583 38.7738 94.8174 38.4302 92.3652C39.3646 92.3652 40.299 92.3652 41.2617 92.3652C41.2763 92.6932 41.2909 93.0211 41.306 93.3589C41.6039 97.4554 42.9285 99.8276 45.8983 102.682C48.0985 104.506 50.3637 105.001 53.154 105.367C55.7 102.041 57.8529 98.5505 59.8434 94.8738C60.1702 94.2842 60.1702 94.2842 60.5036 93.6826C62.0126 90.8381 62.7581 88.1813 63.3474 85.0162C66.5243 84.8296 69.7012 84.6431 72.9744 84.4509C71.8471 79.8592 70.7155 75.2687 69.577 70.6798C69.0483 68.5482 68.5213 66.4161 67.9985 64.2831C67.4923 62.2183 66.9813 60.1549 66.4673 58.0921C66.2735 57.3112 66.0814 56.53 65.8911 55.7483C61.6058 38.1707 52.7371 23.6563 37.3997 13.682C30.7611 9.66302 24.8207 17.7812 20.2556 22.3129ZM147.443 20.6413C145.359 22.7733 143.564 25.0538 141.815 27.4603C141.574 27.7894 141.333 28.1186 141.085 28.4576C139.671 30.4652 138.756 32.3403 138.099 34.7034C144.083 37.5017 149.475 38.6243 155.928 36.4567C162.212 33.7099 165.791 29.3278 168.303 23.1101C168.742 21.4667 168.743 20.0027 168.679 18.3093C168.2 18.2197 167.721 18.1301 167.228 18.0377C163.602 17.2932 160.645 16.5308 157.629 14.3455C154.637 12.3618 149.532 18.66 147.443 20.6413ZM44.6595 16.0481C44.9274 16.2747 45.1953 16.5014 45.4713 16.7349C57.1999 26.7998 64.4915 38.8661 67.8778 53.924C70.5321 54.136 72.4358 54.198 74.8503 52.97C77.8203 50.4189 78.8783 48.5576 79.4515 44.667C80.1293 40.7697 80.8438 38.1186 84.1588 35.6662C87.1144 33.9293 89.9977 33.6882 93.3612 34.1381C97.0564 35.2871 99.2703 37.0218 101.112 40.4272C101.807 42.1718 102.056 43.8723 102.316 45.727C102.825 48.8329 103.945 50.7942 106.386 52.7934C108.792 54.24 111.006 54.2939 113.748 53.924C115.938 53.1726 117.448 51.9479 119.022 50.2495C120.389 47.4191 120.702 44.5795 121.11 41.4871C121.316 40.6367 121.316 40.6367 121.526 39.7691C121.717 37.6454 121.178 36.8142 120.013 35.0567C119.692 34.5626 119.372 34.0686 119.042 33.5595C118.664 33.0064 118.664 33.0064 118.278 32.4422C117.636 32.722 116.994 33.0018 116.332 33.2901C112.841 34.5744 109.682 34.7609 106.244 33.2195C103.215 31.5145 101.103 29.0435 100.157 25.6584C100.093 24.8462 100.034 24.0335 99.9798 23.2205C99.6985 20.3205 98.665 18.2447 96.759 16.0481C94.1162 14.1294 91.4323 13.8674 88.2645 14.3522C85.5503 15.2447 83.7886 16.7536 82.4666 19.3318C81.7399 21.4187 81.5281 23.5865 81.2145 25.7666C80.5557 29.1204 78.5558 31.1328 75.8059 33.0075C72.942 34.5958 69.7868 34.5438 66.6412 33.8753C63.8669 32.9906 61.9799 31.6106 60.5159 29.0503C59.4261 26.5386 58.8147 23.996 58.3215 21.3126C57.7694 18.6857 56.7731 17.354 54.8529 15.4828C53.1229 14.4189 51.778 14.1847 49.7562 14.1755C49.2773 14.166 48.7984 14.1566 48.305 14.1468C46.668 14.3904 45.8894 14.971 44.6595 16.0481ZM223.822 15.6948C220.979 17.1856 218.279 17.8591 215.115 18.3093C215.601 24.9677 218.48 29.1976 223.256 33.7141C227.974 36.8538 232.702 38.061 238.334 37.53C240.673 36.9557 242.937 36.2715 245.129 35.2687C245.41 34.709 245.41 34.709 245.696 34.1381C242.103 27.0289 235.539 18.5996 228.707 14.3522C226.374 14.3522 225.768 14.6004 223.822 15.6948ZM213.417 25.6584C212.558 27.0162 211.766 28.4079 210.963 29.7989C206.863 36.365 200.819 38.6618 193.596 40.3565C193.804 45.7476 196.067 50.5312 200.038 54.2067C205.583 58.6964 210.92 59.6131 217.947 59.0118C223.753 57.5141 228.001 54.4353 231.184 49.4015C232.883 46.3697 233.803 43.874 233.803 40.3565C233.297 40.2326 232.79 40.1088 232.268 39.9811C225.648 38.2479 220.287 35.9348 216.248 30.1809C215.393 28.6962 214.684 27.2258 213.983 25.6584C213.796 25.6584 213.609 25.6584 213.417 25.6584ZM169.812 26.2237C169.293 27.0512 168.817 27.9049 168.36 28.7676C164.969 34.5487 159.985 37.8745 153.559 39.6477C152.377 39.9164 151.185 40.1417 149.991 40.3565C151.286 46.6622 153.318 51.5502 158.486 55.6199C164.16 58.9568 169.578 59.9039 176.087 58.685C181.341 57.0343 185.789 53.1882 188.522 48.4188C189.622 45.8331 190.201 43.1007 190.765 40.3565C190.327 40.2603 189.889 40.1641 189.437 40.065C182.563 38.4683 176.896 35.9246 172.787 29.8497C172.122 28.6573 171.504 27.4682 170.944 26.2237C170.57 26.2237 170.197 26.2237 169.812 26.2237ZM83.5925 39.8619C82.4101 41.8011 82.1263 43.4762 81.7432 45.6917C81.0403 49.4037 79.9408 52.0499 76.9385 54.4893C74.2953 56.1312 72.0526 56.4888 69.0104 56.7506C69.6452 60.8747 70.5707 64.924 71.5587 68.9754C71.7401 69.7398 71.7401 69.7398 71.9252 70.5196C72.0437 70.9967 72.1622 71.4738 72.2843 71.9654C72.4425 72.6121 72.4425 72.6121 72.6039 73.2719C72.8877 74.3932 72.8877 74.3932 74.107 74.8406C77.8919 72.0698 79.0108 69.4637 79.7346 64.9123C80.3326 61.3697 81.4204 59.3368 84.3358 57.1392C87.4859 55.3327 90.3693 55.2798 93.9275 55.6199C96.8171 56.4247 99.0502 57.9467 100.719 60.4891C101.629 62.6407 101.91 64.9184 102.292 67.2088C102.869 70.3453 103.839 72.342 106.386 74.2753C108.649 75.6426 111.159 75.8666 113.748 75.4059C117.031 74.0423 118.602 72.4926 119.977 69.1874C120.26 67.8872 120.507 66.5788 120.721 65.2656C121.443 61.6373 122.351 59.8023 125.074 57.3159C125.448 57.1293 125.821 56.9428 126.207 56.7506C126.334 53.6955 125.917 51.2033 125.074 48.3062C124.966 47.9196 124.858 47.533 124.747 47.1347C124.483 46.1931 124.213 45.2532 123.941 44.3137C123.568 44.3137 123.194 44.3137 122.809 44.3137C122.753 44.6824 122.698 45.0512 122.641 45.4311C121.951 49.4527 121.057 52.118 117.677 54.666C114.531 56.4696 111.639 56.5342 108.085 56.1853C105.075 55.2698 102.963 53.7968 101.289 51.0975C100.597 49.4859 100.195 47.9825 99.9577 46.2459C99.4279 42.4558 98.6266 40.0245 95.6264 37.53C91.0271 34.751 87.1452 36.5125 83.5925 39.8619ZM136.4 36.9646C133.353 43.0734 130.582 50.028 130.702 56.9626C130.713 57.6388 130.725 58.3151 130.737 59.0118C136.213 57.5385 141.215 54.8527 144.328 49.9668C146.646 45.3797 146.646 45.3797 147.16 40.3565C146.525 40.159 145.891 39.9616 145.237 39.7581C144.403 39.4983 143.569 39.2384 142.735 38.9786C142.317 38.8485 141.9 38.7184 141.469 38.5844C139.775 38.0564 138.084 37.5249 136.4 36.9646ZM242.893 38.7732C240.872 39.5608 238.759 39.9477 236.635 40.3565C237.362 45.5436 239.151 50.1147 242.864 53.924C247.253 57.2683 247.253 57.2683 252.491 58.4465C252.349 51.0524 250.402 44.2545 247.394 37.53C245.577 37.53 244.522 38.0386 242.893 38.7732ZM234.936 47.1403C234.667 47.7699 234.399 48.3995 234.122 49.0482C231.184 54.8117 226.817 58.4775 220.778 60.7078C218.9 61.2127 217.044 61.5913 215.115 61.8384C215.31 66.8806 217.453 71.5874 220.849 75.3352C225.153 79.2476 230.612 81.2664 236.374 81.1805C242.197 80.673 247.159 77.8323 251.126 73.6371C253.676 70.2595 253.191 65.8619 253.057 61.8384C252.585 61.6802 252.113 61.5221 251.626 61.3592C244.446 58.8057 239.754 55.2885 236.139 48.5535C235.929 48.0872 235.719 47.6208 235.502 47.1403C235.315 47.1403 235.128 47.1403 234.936 47.1403ZM148.292 47.7056C147.781 48.5563 147.289 49.4184 146.806 50.2848C143.234 56.2465 138.453 59.5338 131.728 61.4851C131.214 61.6017 130.7 61.7183 130.171 61.8384C129.988 66.871 130.219 70.3477 133.568 74.3459C137.755 78.7598 142.773 80.7514 148.788 81.2357C154.253 81.0545 159.744 78.6668 163.607 74.8185C166.806 70.9645 168.862 66.8981 168.679 61.8384C168.241 61.7422 167.803 61.646 167.352 61.5469C159.911 59.8187 154.759 57.1711 150.593 50.5675C150.272 50.026 149.952 49.4846 149.622 48.9267C149.37 48.5238 149.118 48.1208 148.858 47.7056C148.672 47.7056 148.485 47.7056 148.292 47.7056ZM191.897 47.7056C191.238 48.7358 190.592 49.7738 189.951 50.8148C185.792 57.0794 180.709 60.2102 173.386 61.6971C172.954 61.7437 172.522 61.7903 172.077 61.8384C172.346 67.3973 174.321 71.993 178.306 75.9712C182.409 79.3458 187.486 81.5114 192.901 81.2555C197.919 80.4735 202.347 78.9205 206.055 75.4059C206.368 75.1093 206.681 74.8127 207.004 74.5071C210.335 71.0003 211.87 66.5961 212.284 61.8384C211.818 61.7553 211.352 61.6722 210.873 61.5866C204.565 60.3216 199.357 57.9187 195.295 52.7934C194.254 51.1416 193.326 49.4564 192.463 47.7056C192.277 47.7056 192.09 47.7056 191.897 47.7056ZM82.9908 61.8384C81.7839 64.1922 81.5868 66.7069 81.2145 69.2956C80.5474 72.6918 78.53 74.5841 75.8059 76.5365C75.2453 76.9096 74.6847 77.2827 74.107 77.6671C74.8545 80.8385 75.6021 84.0099 76.3722 87.2774C73.0084 87.2774 69.6446 87.2774 66.1789 87.2774C64.5146 90.5975 64.5146 90.5975 62.9005 93.9419C57.8722 104.523 50.8793 113.243 41.2617 120.066C43.0803 121.276 44.8721 121.929 46.9247 122.609C47.6255 122.848 48.3263 123.087 49.0483 123.334C54.489 124.982 59.8062 125.357 65.471 125.33C66.1723 125.327 66.8737 125.324 67.5963 125.32C81.8348 125.132 94.1961 119.896 105.253 111.021C105.667 110.696 106.08 110.371 106.506 110.036C117.164 101.246 123.466 88.1083 126.207 74.8406C126.318 74.3217 126.43 73.8029 126.545 73.2683C126.878 70.6111 126.832 67.9756 126.808 65.3009C126.804 64.4745 126.804 64.4745 126.8 63.6315C126.794 62.28 126.785 60.9286 126.773 59.5771C124.219 62.0276 123.184 63.6488 122.572 67.1492C121.879 71.0911 121.002 73.6412 117.677 76.1479C114.524 77.9559 111.644 77.9475 108.085 77.6671C104.737 76.4912 102.582 74.4872 100.9 71.378C100.206 69.6334 99.9563 67.9329 99.6967 66.0782C99.1874 62.9723 98.067 61.011 95.6264 59.0118C91.0244 56.2442 86.1074 57.8024 82.9908 61.8384ZM169.812 69.1874C169.531 69.8287 169.251 70.47 168.962 71.1307C166.087 76.7617 162.07 79.9094 156.22 82.1896C154.161 82.8489 152.101 83.413 149.991 83.8856C151.32 90.7626 153.861 95.5711 159.618 99.7143C164.414 102.578 168.769 102.979 174.342 102.541C180.1 101.062 184.453 97.6785 187.933 92.9305C189.478 89.9926 190.276 87.1599 190.765 83.8856C190.258 83.7617 189.751 83.6378 189.229 83.5102C181.234 81.4168 175.985 78.2549 171.581 71.166C171.251 70.5976 171.251 70.5976 170.913 70.0177C170.737 69.7437 170.56 69.4697 170.378 69.1874C170.191 69.1874 170.004 69.1874 169.812 69.1874ZM213.417 69.1874C213.224 69.5431 213.031 69.8987 212.833 70.2651C208.851 77.284 204.15 81.0572 196.357 83.2142C195.438 83.4442 194.518 83.6703 193.596 83.8856C193.879 88.961 195.924 93.3604 199.374 97.1152C204.116 101.324 209.231 102.837 215.487 102.715C221.206 102.188 226.015 99.4853 229.718 95.1344C232.103 91.8226 233.803 88.0161 233.803 83.8856C233.221 83.734 232.64 83.5824 232.04 83.4262C224.56 81.3644 219.282 78.5943 215.308 71.6298C214.594 70.2658 214.594 70.2658 213.417 69.1874ZM128.472 76.5365C128.279 77.2477 128.086 77.959 127.888 78.6917C122.938 96.3719 112.92 110.839 96.759 120.066C90.0358 123.773 82.779 126.016 75.2396 127.415C75.2396 127.601 75.2396 127.788 75.2396 127.98C76.247 128.217 76.247 128.217 77.2748 128.459C94.5794 132.677 109.361 141.976 118.845 157.376C122.508 163.667 125.484 170.535 126.773 177.727C128.114 177.223 128.114 177.223 128.516 175.406C128.74 174.638 128.961 173.869 129.18 173.099C132.359 162.572 137.217 153.958 144.894 146.07C145.422 145.491 145.422 145.491 145.961 144.9C154.914 135.363 168.065 130.227 180.571 127.415C180.571 127.228 180.571 127.041 180.571 126.849C179.886 126.685 179.202 126.52 178.496 126.35C161.27 122.096 146.678 112.929 137.307 97.5237C133.383 90.8598 130.717 84.0993 129.038 76.5365C128.851 76.5365 128.664 76.5365 128.472 76.5365ZM131.87 76.5365C132.996 83.974 136.116 90.416 139.798 96.8877C141.478 97.0803 141.478 97.0803 142.326 96.1171C145.072 92.4888 147.16 88.5082 147.16 83.8856C146.558 83.7209 145.957 83.5562 145.337 83.3865C140.803 82.0925 137.134 80.8694 133.568 77.6671C133.008 77.294 132.447 76.9209 131.87 76.5365ZM250.792 77.6671C250.398 77.9852 250.398 77.9852 249.996 78.3097C245.908 81.3323 241.469 82.5473 236.635 83.8856C237.285 88.524 238.416 92.7822 242.11 95.9029C242.763 96.3904 242.763 96.3904 243.43 96.8877C246.697 91.0836 249.814 85.3265 251.359 78.7977C251.172 78.4246 250.985 78.0515 250.792 77.6671ZM148.292 90.6693C148.127 91.0315 147.962 91.3937 147.792 91.7668C147.56 92.2558 147.328 92.7448 147.089 93.2485C146.865 93.7273 146.642 94.2061 146.412 94.6994C145.193 96.7799 143.678 98.4965 142.063 100.28C146.04 105.151 149.967 109.556 155.088 113.282C155.689 113.722 156.289 114.162 156.908 114.616C159.745 116.892 159.745 116.892 163.102 117.789C165.746 116.4 167.187 112.983 168.325 110.349C168.705 108.642 168.703 107.111 168.679 105.367C168.248 105.278 167.816 105.188 167.372 105.096C160.454 103.535 155.12 100.876 151.265 94.8031C150.941 94.2646 150.617 93.7261 150.283 93.1712C149.474 91.7645 149.474 91.7645 148.292 90.6693ZM191.897 90.6693C191.359 91.5293 190.844 92.4038 190.34 93.2839C186.582 99.5663 181.997 102.936 174.908 104.802C173.969 105.013 173.027 105.214 172.077 105.367C172.379 111.6 174.702 115.857 179.255 120.116C183.446 123.554 188.225 124.796 193.596 124.517C199.19 123.901 204.036 121.359 207.725 117.093C210.352 113.586 212.284 109.828 212.284 105.367C211.647 105.233 211.647 105.233 210.997 105.096C204.642 103.65 199.391 101.59 195.295 96.3224C194.218 94.4887 193.298 92.624 192.463 90.6693C192.277 90.6693 192.09 90.6693 191.897 90.6693ZM234.936 90.6693C234.75 91.0657 234.564 91.4622 234.372 91.8706C231.621 97.348 227.799 101.57 221.911 103.671C219.661 104.311 217.4 104.866 215.115 105.367C215.278 109.584 216.76 113.149 219.08 116.674C220.25 117.45 220.25 117.45 221.345 117.804C229.124 112.921 235.537 107.547 241.165 100.28C240.356 98.5791 239.422 97.0358 238.369 95.4745C238.084 95.0489 237.798 94.6233 237.504 94.1848C236.676 92.9898 235.818 91.8254 234.936 90.6693ZM213.417 112.151C213.217 112.554 213.018 112.957 212.813 113.372C210.967 116.947 209.069 119.667 206.055 122.327C205.681 122.7 205.307 123.073 204.922 123.457C208.24 123.165 210.93 122.467 213.983 121.161C214.368 121.002 214.752 120.842 215.149 120.678C216.083 120.291 217.016 119.896 217.947 119.5C217.405 118.593 216.862 117.686 216.319 116.78C216.017 116.275 215.714 115.77 215.403 115.249C214.765 114.202 214.098 113.171 213.417 112.151ZM169.812 112.716C169.456 113.411 169.103 114.106 168.75 114.801C168.553 115.188 168.356 115.575 168.152 115.974C167.509 117.316 166.954 118.679 166.414 120.066C170.905 121.933 175.173 123.375 180.005 124.023C179.619 123.743 179.234 123.463 178.837 123.175C175.277 120.15 172.847 116.971 170.944 112.716C170.57 112.716 170.197 112.716 169.812 112.716ZM16.9109 151.723C9.62099 160.814 2.68885 174.242 3.31969 186.207C4.63868 184.932 5.91147 183.667 7.08912 182.259C16.1931 171.399 30.7009 164.44 44.7635 163.122C61.2241 162.165 76.4226 165.954 89.3971 176.597C90.1307 177.189 90.1307 177.189 90.8792 177.794C94.7722 181.099 97.7363 184.929 100.723 189.034C102.56 187.225 104.323 185.38 106.032 183.451C106.904 182.485 107.777 181.519 108.651 180.554C109.122 180.026 109.122 180.026 109.602 179.487C112.624 176.269 116.316 173.934 119.977 171.509C120.538 171.136 121.099 170.763 121.676 170.378C120.726 163.543 115.782 156.885 111.483 151.723C111.081 151.236 110.68 150.749 110.266 150.248C100.231 138.602 85.9671 131.394 70.7092 129.676C49.5967 128.129 30.9231 135.86 16.9109 151.723ZM164.149 135.329C163.528 135.619 162.908 135.909 162.268 136.208C147.932 143.415 137.286 156.22 131.94 171.226C127.161 186.924 127.653 204.213 135.279 218.984C143.483 234.026 156.161 245.032 172.537 250.264C189.299 255.045 206.199 252.924 221.433 244.481C224.248 242.831 226.775 240.87 229.273 238.781C229.844 238.304 230.415 237.826 231.003 237.335C242.193 227.685 249.482 213.87 251.359 199.209C252.435 183.583 250.072 168.554 240.599 155.68C240.264 155.221 239.929 154.762 239.584 154.289C235.094 148.43 229.895 143.194 223.61 139.286C223.12 138.963 222.63 138.641 222.126 138.308C204.761 127.417 182.555 126.704 164.149 135.329ZM38.9965 166.421C39.7304 168.711 40.577 170.899 41.5449 173.099C46.041 183.884 45.4125 196.064 41.5073 206.938C40.3976 209.51 39 211.695 37.2976 213.907C36.9239 214.467 36.5501 215.027 36.165 215.603C50.4615 219.038 64.3931 217.758 77.5048 211.081C78.1034 210.778 78.702 210.476 79.3188 210.164C86.1277 206.454 91.8564 201.217 96.759 195.252C97.0408 194.92 97.3225 194.587 97.6129 194.245C98.3731 193.32 98.3731 193.32 99.0242 191.86C98.3677 189.48 97.1145 187.995 95.4494 186.207C94.9902 185.713 94.5311 185.219 94.058 184.71C92.7146 183.296 91.379 181.896 89.9634 180.554C89.6188 180.219 89.2743 179.885 88.9193 179.54C77.8174 169.16 63.0671 164.823 48.1165 165.228C45.0483 165.389 42.0202 165.893 38.9965 166.421ZM11.6814 181.247C6.83723 186.067 6.83723 186.067 3.31969 191.86C4.42174 193.248 5.52783 194.632 6.64006 196.012C7.32895 196.867 8.01432 197.724 8.68847 198.591C14.4648 205.761 24.2513 212.483 33.3335 214.473C40.1482 207.631 42.3845 198.497 42.3943 189.034C42.0944 181.496 40.7453 173.384 35.5987 167.552C27.2354 167.552 17.3781 175.741 11.6814 181.247ZM109.218 183.38C105.219 187.336 105.219 187.336 103.555 192.425C104.939 194.739 106.834 196.659 108.651 198.644C109.316 199.377 109.316 199.377 109.994 200.126C113.428 203.734 117.283 206.992 121.676 209.385C122.237 209.198 122.797 209.012 123.375 208.82C123.945 207.265 123.945 207.265 124.295 205.392C124.431 204.768 124.567 204.143 124.707 203.5C126.299 194.699 127.622 181.227 122.809 173.205C118.706 173.205 111.944 180.659 109.218 183.38ZM100.723 194.121C99.9356 195.013 99.1874 195.938 98.4579 196.877C89.5048 207.978 78.1992 214.865 64.48 218.43C63.9449 218.569 63.4098 218.708 62.8585 218.852C48.0335 221.957 31.9023 218.711 19.1479 210.757C13.3649 206.965 8.21167 202.346 3.88599 196.948C3.12497 199.432 3.66347 201.505 4.23993 203.979C4.34486 204.434 4.4498 204.889 4.55792 205.358C6.82405 214.808 11.0351 223.563 17.4772 230.867C17.8531 231.323 18.2291 231.779 18.6164 232.249C28.6723 244.087 43.3483 251.161 58.7108 252.737C59.6894 252.805 60.6687 252.865 61.6485 252.914C62.0376 252.937 62.4266 252.961 62.8275 252.985C78.9148 253.476 94.3161 247.171 106.101 236.434C113.116 229.838 118.1 222.267 121.676 213.342C121.676 212.969 121.676 212.596 121.676 212.211C120.827 211.633 119.947 211.1 119.057 210.586C112.955 206.792 107.733 202.261 103.565 196.39C103.017 195.618 102.439 194.867 101.856 194.121C101.482 194.121 101.108 194.121 100.723 194.121ZM126.773 204.862C126.621 205.451 126.469 206.04 126.313 206.647C121.821 223.322 111.689 237.792 96.6856 246.615C90.12 250.302 83.0845 252.756 75.8059 254.61C75.8059 254.796 75.8059 254.983 75.8059 255.175C76.3892 255.292 76.9725 255.41 77.5734 255.531C94.5235 259.115 109.112 268.278 118.711 282.906C123.151 289.883 125.799 296.947 127.905 304.923C128.279 304.736 128.653 304.549 129.038 304.357C129.479 302.935 129.869 301.523 130.241 300.082C133.09 289.819 138.66 280.93 146.027 273.265C146.587 272.663 146.587 272.663 147.157 272.048C155.951 262.846 168.246 257.577 180.571 255.175C180.571 254.989 180.571 254.802 180.571 254.61C179.503 254.373 179.503 254.373 178.412 254.131C160.628 250.037 145.94 240.801 136.015 225.147C132.113 218.76 129.822 212.064 127.905 204.862C127.532 204.862 127.158 204.862 126.773 204.862ZM21.6558 274.901C20.7409 276.054 20.7409 276.054 20.8949 277.52C21.5447 279.183 22.2648 279.905 23.6357 281.038C24.0313 281.373 24.427 281.709 24.8346 282.054C27.3821 283.894 30.3174 283.77 33.3335 283.441C36.6593 282.288 38.7526 280.011 40.2707 276.904C40.8064 275.406 40.8064 275.406 40.6954 273.265C41.6298 273.265 42.5642 273.265 43.5269 273.265C43.5503 273.825 43.5736 274.384 43.5977 274.961C44.0056 277.783 45.5529 279.724 47.491 281.745C50.304 283.787 53.1926 283.83 56.5518 283.441C59.6783 282.42 61.4397 280.362 63.3474 277.788C64.1144 276.256 63.9505 274.956 63.9137 273.265C65.0349 273.265 66.1562 273.265 67.3115 273.265C67.2647 273.755 67.218 274.245 67.1699 274.749C67.3987 277.833 69.042 279.673 71.3109 281.639C74.1444 283.745 76.907 283.887 80.3363 283.441C83.4885 282.197 85.6087 280.263 87.1319 277.222C87.5832 275.112 87.5832 275.112 87.6982 273.265C88.6326 273.265 89.567 273.265 90.5297 273.265C90.5764 273.848 90.6231 274.431 90.6713 275.032C91.373 278.651 93.1939 280.803 96.1927 282.875C99.2302 283.886 102.358 283.831 105.395 282.84C107.359 281.459 109.175 279.91 110.35 277.788C110.306 276.119 109.778 275.52 108.665 274.268C95.2745 262.163 79.4537 256.1 61.3612 256.785C46.2533 257.707 32.5009 264.579 21.6558 274.901ZM152.256 271.004C151.574 271.571 150.89 272.137 150.203 272.7C149.538 273.259 149.538 273.259 148.858 273.83C149.232 274.017 149.606 274.204 149.991 274.396C151.198 273.991 152.388 273.535 153.566 273.053C160.479 270.236 169.661 269.648 176.828 272.075C182.023 274.272 186.766 276.535 190.765 280.614C192.846 279.683 194.559 278.391 196.392 277.046C204.668 271.229 214.008 269.532 223.913 271.125C226.354 271.678 228.626 272.458 230.93 273.431C231.317 273.563 231.705 273.695 232.104 273.83C232.665 273.551 232.665 273.551 233.237 273.265C221.17 261.562 205.167 256.541 188.637 256.75C175.356 257.14 162.201 262.205 152.256 271.004ZM141.073 284.808C134.834 292.676 133.231 301.307 134.135 311.141C134.607 313.577 135.344 315.684 136.4 317.925C136.74 318.683 136.74 318.683 137.088 319.457C140.401 326.149 145.852 331.471 151.168 336.609C152.421 337.839 153.578 339.126 154.725 340.456C156.81 342.863 159.042 345.094 161.317 347.321C163.932 349.882 166.432 352.482 168.823 355.253C170.483 357.122 172.272 358.859 174.059 360.606C176.202 362.701 178.297 364.802 180.255 367.072C182.403 369.559 184.709 371.866 187.048 374.173C187.463 374.584 187.877 374.995 188.304 375.419C189.311 376.418 190.321 377.416 191.331 378.413C193.564 376.559 195.667 374.721 197.56 372.513C200.173 369.55 202.952 366.777 205.776 364.014C207.532 362.285 209.219 360.534 210.828 358.667C213.361 355.736 216.135 353.059 218.9 350.349C221.185 348.092 223.349 345.785 225.445 343.354C227.554 340.982 229.86 338.799 232.127 336.58C234.372 334.364 236.511 332.097 238.565 329.703C239.501 328.626 240.471 327.586 241.448 326.546C247.929 319.1 249.752 311.302 249.211 301.699C248.441 293.168 243.968 285.709 237.53 280.191C229.63 273.949 221.017 272.397 211.151 273.265C203.35 274.625 197.119 278.766 191.897 284.571C191.337 284.082 190.776 283.592 190.198 283.087C181.607 275.783 173.374 272.505 162.025 273.148C153.796 273.904 146.367 278.652 141.073 284.808ZM17.5988 280.422C12.3592 285.94 6.15118 295.297 6.15118 303.227C9.89301 303.287 12.1334 302.465 14.8359 299.859C16.6328 297.657 17.4772 295.352 17.4772 292.486C18.4116 292.486 19.3459 292.486 20.3087 292.486C20.3108 292.968 20.3108 292.968 20.3131 293.46C20.4713 296.613 21.1037 298.449 23.3326 300.716C25.9931 303.022 28.453 303.575 31.9001 303.461C35.0996 302.938 37.1687 301.201 39.2443 298.81C40.3267 296.606 40.5269 294.924 40.6954 292.486C41.6298 292.486 42.5642 292.486 43.5269 292.486C43.5619 293.15 43.597 293.815 43.6331 294.5C43.9904 297.223 44.9616 299.045 46.9247 300.965C49.9001 303.159 52.9135 303.768 56.5518 303.227C59.6147 302.207 61.6397 300.263 63.3474 297.574C63.9077 296.05 64.1972 294.66 64.48 293.051C65.2275 293.051 65.975 293.051 66.7452 293.051C66.8503 293.704 66.9554 294.357 67.0637 295.03C67.923 298.473 70.2101 301.067 73.1868 302.944C76.8682 303.644 79.9685 303.597 83.2851 301.714C85.4074 300.149 86.8208 298.332 87.4283 295.747C87.5702 294.666 87.6408 293.575 87.6982 292.486C88.6326 292.486 89.567 292.486 90.5297 292.486C90.5764 293.162 90.6231 293.838 90.6713 294.535C91.0546 297.427 92.0905 299.29 94.319 301.237C96.8488 303.058 99.0483 303.678 102.163 303.496C105.58 302.834 107.843 301.002 109.784 298.174C110.89 296.228 111.199 294.746 110.916 292.486C111.851 292.486 112.785 292.486 113.748 292.486C113.81 292.82 113.872 293.155 113.936 293.499C114.633 296.968 115.298 299.329 118.101 301.672C120.363 302.865 121.973 303.052 124.508 303.227C124.188 300.102 123.39 297.495 122.172 294.606C121.996 294.185 121.82 293.765 121.639 293.332C119.395 288.12 116.439 283.672 112.615 279.484C112.195 280.096 112.195 280.096 111.766 280.72C109.385 283.394 106.269 285.508 102.628 285.837C98.8468 285.929 95.8614 285.801 92.7949 283.441C91.551 282.196 90.4456 280.895 89.3971 279.484C88.9883 279.903 88.5795 280.323 88.1583 280.756C84.752 284.08 82.183 285.856 77.3279 285.914C73.56 285.846 70.8085 285.245 68.1078 282.535C67.4263 281.738 66.7965 280.897 66.1789 280.049C64.3996 280.459 64.3996 280.459 63.5243 281.921C61.3569 284.436 59.2215 285.512 55.9125 285.921C52.0966 286.049 48.8634 285.853 45.7921 283.441C44.5497 282.195 43.4427 280.895 42.3943 279.484C41.9855 279.903 41.5767 280.323 41.1555 280.756C37.9133 283.92 35.3177 285.844 30.679 285.949C27.093 285.883 24.3424 284.994 21.4412 282.875C20.4712 281.779 19.8729 280.784 19.1761 279.484C18.4488 279.419 18.4488 279.419 17.5988 280.422ZM18.6098 299.269C18.4236 299.529 18.2375 299.788 18.0457 300.056C15.2455 303.661 12.0573 305.32 7.53154 305.912C6.56794 305.982 6.56794 305.982 5.58488 306.053C4.62599 309.019 4.21508 311.745 4.06296 314.851C4.03631 315.263 4.00967 315.675 3.98221 316.1C3.85045 318.495 3.95442 320.647 4.45229 323.013C8.2167 323.238 10.9094 323.116 13.8692 320.502C16.2624 318.021 17.0323 315.648 17.4772 312.272C18.4116 312.272 19.3459 312.272 20.3087 312.272C20.2503 312.738 20.1919 313.204 20.1317 313.685C20.3734 316.388 21.4338 318.106 23.1401 320.186C25.8649 322.308 28.0377 323.231 31.5284 323.167C34.6135 322.782 37.0353 321.328 38.9611 318.914C40.3589 316.755 40.5616 314.81 40.6954 312.272C41.6298 312.272 42.5642 312.272 43.5269 312.272C43.5736 312.948 43.6203 313.624 43.6685 314.321C43.9848 316.769 44.7456 318.271 46.3584 320.186C49.4623 322.526 52.0843 323.506 55.9855 323.013C59.2355 321.969 61.5254 320.281 63.3474 317.359C63.7204 315.661 63.8712 314.008 63.9137 312.272C64.8481 312.458 65.7824 312.645 66.7452 312.837C66.8218 313.206 66.8985 313.574 66.9774 313.954C67.9091 317.73 69.1073 319.783 72.4081 321.882C74.7468 323.199 77.1326 323.344 79.77 323.013C83.2302 321.726 85.3558 319.753 87.0257 316.476C87.8215 314.519 87.8215 314.519 87.6982 312.272C88.6326 312.272 89.567 312.272 90.5297 312.272C90.5647 312.936 90.5998 313.601 90.6359 314.286C90.993 317.007 91.9628 318.834 93.9275 320.751C96.3614 322.511 98.8305 323.403 101.847 323.231C104.703 322.684 106.874 321.428 108.864 319.338C110.525 316.786 111.058 315.381 110.916 312.272C111.851 312.272 112.785 312.272 113.748 312.272C113.802 312.744 113.802 312.744 113.856 313.226C114.468 317.03 115.979 319.322 118.845 321.882C121.283 323.419 123.975 323.122 126.773 323.013C126.898 317.216 126.755 311.765 125.64 306.053C125.237 305.998 124.833 305.942 124.417 305.885C119.072 305.052 115.905 303.648 112.615 299.269C111.836 299.999 111.082 300.754 110.35 301.531C110.35 301.904 110.35 302.277 110.35 302.661C109.601 303.05 108.844 303.423 108.085 303.792C107.524 304.095 106.964 304.398 106.386 304.711C103.141 306.069 99.3635 306.059 96.0002 305.117C93.1014 303.828 91.2641 301.783 89.3971 299.269C89.0117 299.678 88.6262 300.086 88.2291 300.506C84.9472 303.773 82.1188 305.523 77.434 305.7C73.9316 305.667 71.3172 304.63 68.4441 302.661C66.9575 301.071 66.9575 301.071 66.1789 299.835C64.6112 300.472 63.7881 301.097 62.6041 302.343C59.8348 304.979 57.4901 305.594 53.7557 305.735C50.0398 305.624 47.412 304.847 44.7613 302.195C43.9307 301.245 43.1467 300.282 42.3943 299.269C41.9855 299.689 41.5767 300.109 41.1555 300.541C37.8757 303.743 35.2997 305.639 30.6082 305.7C27.3586 305.656 25.3098 304.865 22.5738 303.227C22.0132 303.04 21.4526 302.854 20.875 302.661C20.2733 301.566 20.2733 301.566 19.7424 300.4C19.3686 300.027 18.9948 299.654 18.6098 299.269ZM130.737 307.749C127.995 323.488 131.573 339.701 140.364 352.974C141.79 354.939 143.306 356.791 144.894 358.627C145.229 359.043 145.563 359.458 145.908 359.886C154.812 370.59 168.564 377.601 182.27 379.544C184.17 379.652 186.034 379.662 187.933 379.544C187.131 378.606 186.328 377.669 185.522 376.735C184.918 376.032 184.319 375.327 183.726 374.615C181.076 371.49 178.171 368.632 175.245 365.768C173.462 364.013 171.747 362.235 170.112 360.341C168.05 357.953 165.836 355.746 163.582 353.539C160.973 350.984 158.48 348.39 156.094 345.625C154.338 343.652 152.444 341.819 150.557 339.972C147.586 337.063 144.771 334.082 142.063 330.927C141.661 330.478 141.258 330.029 140.844 329.567C135.362 323.149 132.449 316.042 131.303 307.749C131.116 307.749 130.929 307.749 130.737 307.749ZM251.925 311.141C251.738 311.794 251.551 312.447 251.359 313.12C247.785 323.625 241.489 330.796 233.66 338.428C231.48 340.556 229.442 342.748 227.453 345.054C225.339 347.43 223.028 349.619 220.756 351.844C218.906 353.669 217.114 355.51 215.416 357.479C212.892 360.404 210.124 363.072 207.366 365.775C205.053 368.059 202.855 370.394 200.733 372.856C199.463 374.304 198.119 375.649 196.746 377C196.256 377.484 195.766 377.968 195.262 378.466C194.899 378.822 194.536 379.177 194.162 379.544C198.251 381.585 207.056 378.291 211.258 376.929C226.961 371.536 239.495 359.955 246.844 345.21C248.522 341.682 249.758 338.088 250.792 334.319C250.973 333.693 251.153 333.067 251.339 332.422C253.053 325.441 252.65 318.278 252.491 311.141C252.304 311.141 252.117 311.141 251.925 311.141ZM18.6098 319.055C18.2477 319.557 17.8856 320.058 17.5126 320.575C14.8286 323.824 11.0531 325.313 6.92984 325.733C6.10457 325.78 5.27867 325.82 4.45229 325.839C5.61065 334.012 5.61065 334.012 8.41638 341.668C9.48906 342.262 9.48906 342.262 10.6816 342.233C13.1119 340.919 14.8829 339.49 16.3446 337.145C16.8428 335.467 17.1908 333.784 17.4772 332.058C18.4116 332.058 19.3459 332.058 20.3087 332.058C20.2503 332.524 20.1919 332.99 20.1317 333.471C20.3734 336.174 21.4338 337.892 23.1401 339.972C25.8649 342.094 28.0377 343.017 31.5284 342.953C34.6135 342.568 37.0353 341.114 38.9611 338.7C40.3589 336.541 40.5616 334.596 40.6954 332.058C41.6298 332.058 42.5642 332.058 43.5269 332.058C43.5736 332.641 43.6203 333.224 43.6685 333.824C44.4293 337.748 46.6331 339.96 49.7562 342.233C50.8362 342.75 50.8362 342.75 52.0214 342.798C52.6287 342.857 53.2361 342.915 53.8619 342.975C57.3606 342.684 59.611 341.364 62.1794 339.018C63.6382 336.679 63.8473 334.769 63.9137 332.058C65.0349 332.058 66.1562 332.058 67.3115 332.058C67.3136 332.54 67.3136 332.54 67.3159 333.031C67.4728 336.159 68.0895 338.027 70.2912 340.288C72.4345 342.062 74.4877 342.718 77.2217 343.01C80.5421 342.655 82.8161 341.672 85.0437 339.195C86.9133 336.831 87.6982 335.112 87.6982 332.058C88.6326 332.058 89.567 332.058 90.5297 332.058C90.5647 332.722 90.5998 333.387 90.6359 334.072C90.993 336.793 91.9628 338.62 93.9275 340.537C96.3614 342.297 98.8305 343.189 101.847 343.017C104.703 342.47 106.874 341.214 108.864 339.124C110.525 336.572 111.058 335.167 110.916 332.058C111.851 332.058 112.785 332.058 113.748 332.058C113.811 332.54 113.811 332.54 113.876 333.031C114.466 336.489 115.596 338.79 118.278 341.103C119.796 342.002 120.438 342.233 122.242 342.233C125.159 334.229 125.159 334.229 126.207 325.839C125.775 325.797 125.344 325.755 124.899 325.711C119.498 325.024 115.688 323.161 112.049 319.055C111.815 319.362 111.582 319.669 111.341 319.985C108.627 323.342 106.483 324.9 102.187 325.448C98.671 325.628 95.7483 324.961 92.7949 323.013C91.5186 321.786 90.4281 320.492 89.3971 319.055C89.0233 319.463 88.6496 319.872 88.2645 320.292C85.2507 323.309 81.7704 325.325 77.4694 325.486C73.9658 325.449 71.2855 324.491 68.4441 322.447C67.5014 321.358 66.8862 320.32 66.1789 319.055C65.8051 319.055 65.4313 319.055 65.0463 319.055C64.7659 319.557 64.4856 320.058 64.1968 320.575C62.5136 323.185 60.0036 324.318 57.1181 325.274C52.6186 326.066 48.9518 325.036 45.2258 322.447C44.1023 321.369 43.2917 320.339 42.3943 319.055C41.9855 319.475 41.5767 319.895 41.1555 320.327C37.8396 323.564 35.2886 325.285 30.5728 325.451C27.1834 325.354 24.4786 324.891 21.9987 322.458C21.2934 321.65 20.6055 320.826 19.9392 319.985C19.6874 319.678 19.4355 319.371 19.1761 319.055C18.9892 319.055 18.8023 319.055 18.6098 319.055ZM18.6098 338.841C18.2477 339.343 17.8856 339.844 17.5126 340.361C15.5674 342.779 12.9058 343.837 10.1153 345.06C11.9115 348.86 13.9236 352.362 16.3446 355.801C17.1717 354.304 17.4772 353.599 17.4772 351.844C18.4116 351.844 19.3459 351.844 20.3087 351.844C20.2386 352.298 20.1685 352.753 20.0963 353.221C20.4542 356.616 22.4578 359.215 24.9806 361.454C28.1856 362.617 31.0758 362.916 34.3599 361.948C37.483 360.115 39.3578 358.043 40.6954 354.67C40.8386 353.115 40.8386 353.115 40.6954 351.844C41.6298 351.844 42.5642 351.844 43.5269 351.844C43.5736 352.426 43.6203 353.009 43.6685 353.61C44.368 357.218 46.1851 359.405 49.1899 361.454C51.4936 362.834 53.636 362.725 56.2288 362.397C59.4273 361.567 61.5465 359.628 63.3474 356.931C63.9492 355.129 64.0487 353.73 63.9137 351.844C65.0349 351.844 66.1562 351.844 67.3115 351.844C67.3136 352.326 67.3136 352.326 67.3159 352.817C67.4714 355.918 68.0655 357.831 70.258 360.071C72.7612 362.081 75.2339 362.758 78.4251 362.549C81.5162 362.055 83.465 360.661 85.5746 358.38C87.133 356.102 87.6982 354.62 87.6982 351.844C88.6326 351.844 89.567 351.844 90.5297 351.844C90.5764 352.52 90.6231 353.196 90.6713 353.893C90.9929 356.348 91.714 357.854 93.3612 359.758C96.2184 361.827 98.8644 362.742 102.422 362.584C106.108 361.481 108.268 359.632 110.244 356.366C110.906 354.696 111.073 353.615 110.916 351.844C111.851 351.844 112.785 351.844 113.748 351.844C113.935 352.963 114.122 354.082 114.314 355.235C116.88 352.28 119.298 348.788 120.544 345.06C120.168 344.848 119.792 344.636 119.404 344.417C116.593 342.791 114.203 341.278 112.049 338.841C111.77 339.23 111.77 339.23 111.485 339.627C108.945 342.899 106.283 344.599 102.168 345.294C98.355 345.521 95.3572 344.372 92.2286 342.233C91.1033 341.155 90.295 340.126 89.3971 338.841C89.0233 339.249 88.6496 339.658 88.2645 340.078C85.1792 343.158 81.76 345.106 77.3633 345.201C74.0732 345.136 71.4071 344.623 69.0192 342.244C68.3257 341.436 67.6502 340.612 66.9973 339.771C66.7272 339.464 66.4571 339.157 66.1789 338.841C65.8051 338.841 65.4313 338.841 65.0463 338.841C64.432 339.539 63.8465 340.262 63.2766 340.997C60.9253 343.737 58.8519 344.778 55.2909 345.214C51.5091 345.383 48.452 344.438 45.3674 342.269C44.1522 341.157 42.9722 340.026 41.828 338.841C41.6419 339.101 41.4557 339.36 41.2639 339.627C38.7312 342.889 36.053 344.646 31.9266 345.274C28.4452 345.441 25.4923 344.728 22.5738 342.798C21.5474 341.793 20.6623 340.772 19.7954 339.627C19.591 339.368 19.3866 339.109 19.1761 338.841C18.9892 338.841 18.8023 338.841 18.6098 338.841ZM41.828 358.062C41.5477 358.563 41.2674 359.065 40.9786 359.581C39.3165 362.082 36.7519 363.743 33.8954 364.636C30.8639 365.2 27.8361 364.879 24.839 364.28C34.4093 374.789 49.9168 379.289 63.6703 380.25C78.6332 380.544 93.1822 375.499 104.687 365.976C104.874 365.603 105.061 365.23 105.253 364.846C104.616 364.885 104.616 364.885 103.966 364.925C99.5628 365.08 95.2535 364.848 91.8548 361.719C91.096 360.818 91.096 360.818 89.9634 359.193C89.4028 358.633 89.4028 358.633 88.8308 358.062C88.4454 358.668 88.0599 359.275 87.6628 359.899C85.8545 362.433 83.8468 363.58 80.938 364.704C76.6635 365.222 73.1143 364.888 69.5634 362.322C66.9304 360.128 66.9304 360.128 66.1789 358.627C65.8051 358.627 65.4313 358.627 65.0463 358.627C64.2716 359.455 64.2716 359.455 63.4889 360.5C61.4826 362.918 59.1331 364.384 55.9855 364.846C51.8658 365.12 48.801 364.427 45.3674 362.09C44.0378 360.836 42.9245 359.521 41.828 358.062Z" fill="#8B734B" fill-opacity="0.1"/>
<path d="M403.455 0.219357C412.799 0.219357 422.143 0.219357 431.77 0.219357C431.77 0.592463 431.77 0.965569 431.77 1.34998C432.741 1.43743 432.741 1.43743 433.732 1.52664C436.367 1.85953 438.689 2.63609 441.149 3.61123C441.813 3.87391 441.813 3.87391 442.489 4.1419C458.956 10.893 470.836 24.1109 477.737 40.2966C478.905 43.2567 479.726 46.3113 480.472 49.4015C480.699 48.6968 480.926 47.9922 481.16 47.2661C486.683 30.5712 496.099 16.4847 511.618 7.56842C511.947 7.37922 512.276 7.19003 512.615 6.9951C520.083 2.8012 528.168 0.157532 536.743 0.084654C537.518 0.0778095 537.518 0.0778095 538.308 0.0708266C539.402 0.06302 540.496 0.0569507 541.589 0.0524964C542.693 0.0460229 543.797 0.0345237 544.9 0.0177165C551.759 -0.0865739 557.77 0.212122 564.284 2.48061C565.004 2.72471 565.004 2.72471 565.738 2.97374C566.923 3.40007 568.08 3.86076 569.239 4.3532C569.641 4.52195 570.043 4.69069 570.457 4.86455C576.214 7.35408 581.005 10.927 585.803 14.9175C586.152 15.1886 586.5 15.4596 586.858 15.7389C590.005 18.2514 592.413 21.3566 594.864 24.5278C595.382 25.1913 595.382 25.1913 595.91 25.8682C606.08 39.5819 609.729 57.2198 607.252 73.9573C604.54 90.3228 595.688 105.413 582.406 115.543C573.792 121.597 564.896 125.131 554.657 127.415C555.322 127.607 555.987 127.799 556.672 127.998C574.549 133.308 589.172 142.959 598.395 159.469C606.248 174.026 609.227 192.161 604.491 208.254C598.922 226.275 587.766 240.147 571.057 249.057C565.976 251.627 560.28 253.645 554.657 254.61C554.97 254.689 555.282 254.768 555.605 254.849C562.732 256.683 569.217 258.863 575.61 262.524C576.185 262.851 576.76 263.177 577.353 263.513C581.13 265.788 584.326 268.526 587.502 271.569C587.981 272.024 588.46 272.479 588.953 272.947C589.409 273.425 589.864 273.903 590.334 274.396C590.704 274.768 591.074 275.141 591.455 275.524C603.74 288.379 607.698 305.292 607.46 322.56C606.99 339.534 598.677 355.08 586.469 366.63C573.519 378.426 556.582 383.558 539.261 382.865C524.105 381.984 510.244 375.633 499.16 365.411C498.749 365.047 498.339 364.684 497.916 364.309C489.032 356.033 483.121 344.365 480.472 332.623C480.375 332.938 480.279 333.253 480.18 333.578C474.437 352.13 463.927 366.915 446.558 376.13C431.697 383.676 414.139 384.935 398.164 380.255C381.874 374.661 367.909 363.408 360.053 347.978C351.977 331.371 351.095 313.235 357 295.774C362.698 279.953 374.973 267.026 390.076 259.804C394.555 257.744 399.267 256.436 404.021 255.175C404.021 254.989 404.021 254.802 404.021 254.61C403.487 254.479 402.953 254.349 402.402 254.215C384.851 249.815 370.283 239.741 360.941 224.202C352.068 209.126 349.868 191.317 354.034 174.398C356.498 165.322 360.81 156.42 367.212 149.462C367.586 149.01 367.959 148.558 368.345 148.093C377.764 136.961 391.104 130.511 405.154 127.415C404.659 127.304 404.164 127.193 403.654 127.079C386.891 123.01 372.258 113.086 363.148 98.3209C354.078 83.132 350.996 65.2976 355.176 48.0302C357.87 37.8849 362.511 29.0207 369.477 21.1359C369.76 20.7796 370.042 20.4232 370.333 20.0561C377.272 11.3433 390.209 3.54242 401.19 1.34998C401.937 1.34998 402.685 1.34998 403.455 1.34998C403.455 0.976876 403.455 0.60377 403.455 0.219357ZM388.165 10.395C389.041 10.9963 389.928 11.5823 390.82 12.1616C391.559 12.6535 391.559 12.6535 392.313 13.1553C393.805 13.962 393.805 13.962 395.326 13.3584C395.766 13.1267 396.206 12.895 396.66 12.6562C399.688 11.6486 403.316 11.5123 406.382 12.4774C408.711 13.7145 410.793 15.3624 411.95 17.744C412.457 19.8835 412.834 21.9812 413.155 24.1568C413.788 26.8104 414.797 28.7561 416.987 30.4415C419.551 31.6613 421.519 32.3404 424.408 31.8768C427.512 30.6105 429.452 28.9057 430.792 25.8351C431.261 24.3473 431.523 22.8874 431.77 21.3479C432.359 17.7396 433.611 15.5142 436.548 13.2922C439.68 11.4924 442.995 11.5503 446.494 12.0909C449.802 13.3221 451.548 15.2608 453.289 18.3093C453.783 20.3763 453.783 20.3763 454.103 22.5492C454.674 25.8572 455.189 27.9818 457.82 30.1809C460.324 31.8115 462.211 32.1946 465.182 31.8768C467.08 31.0955 467.08 31.0955 468.579 30.1809C465.116 22.8041 457.863 16.3139 451.024 12.0909C450.464 11.7266 449.904 11.3622 449.327 10.9868C433.374 1.15739 403.455 -3.52261 388.165 10.395ZM510.486 11.5256C513.196 14.5809 517.673 15.7864 521.654 16.0658C527.228 15.9894 533.128 13.7961 537.102 9.82966C539.681 6.44374 539.681 6.44374 541.066 2.48061C530.304 1.64534 519.577 6.20467 510.486 11.5256ZM546.729 2.48061C548.309 7.31879 551.769 11.3483 556.25 13.7868C561.511 16.0714 566.706 16.5959 572.212 14.9175C573.804 14.2527 575.237 13.5071 576.743 12.6562C576.743 12.2831 576.743 11.91 576.743 11.5256C567.542 6.18829 557.533 2.06756 546.729 2.48061ZM543.897 4.17654C543.547 4.78102 543.547 4.78102 543.189 5.39771C539.54 11.4402 535.128 15.7679 528.12 17.6027C526.775 17.8759 525.436 18.1159 524.077 18.3093C524.206 23.9371 526.159 27.9788 529.937 32.1242C533.762 35.735 538.664 37.5536 543.897 37.742C550.208 37.5053 555.36 34.8579 559.647 30.2869C562.639 26.6493 563.945 22.9647 564.284 18.3093C563.907 18.2671 563.529 18.2248 563.14 18.1813C557.686 17.4045 553.112 15.2031 548.994 11.5256C547.89 9.98424 547.89 9.98424 546.906 8.34572C545.574 6.12611 545.574 6.12611 543.897 4.17654ZM372.256 22.3129C360.364 35.0079 355.813 51.5604 356.351 68.6075C357.318 84.9123 365.674 99.8122 377.561 110.74C380.152 112.983 382.999 114.856 385.9 116.674C386.41 116.998 386.92 117.322 387.446 117.656C388.677 118.469 388.677 118.469 390.041 118.405C394.823 116.518 400.077 111.838 402.889 107.629C402.325 107.423 402.325 107.423 401.75 107.214C397.169 105.478 394.495 103.835 392.169 99.4471C391.198 97.1583 390.774 94.8174 390.43 92.3652C391.365 92.3652 392.299 92.3652 393.262 92.3652C393.276 92.6932 393.291 93.0211 393.306 93.3589C393.604 97.4554 394.928 99.8276 397.898 102.682C400.099 104.506 402.364 105.001 405.154 105.367C407.7 102.041 409.853 98.5505 411.843 94.8738C412.17 94.2842 412.17 94.2842 412.504 93.6826C414.013 90.8381 414.758 88.1813 415.347 85.0162C418.524 84.8296 421.701 84.6431 424.974 84.4509C423.847 79.8592 422.716 75.2687 421.577 70.6798C421.048 68.5482 420.521 66.4161 419.998 64.2831C419.492 62.2183 418.981 60.1549 418.467 58.0921C418.274 57.3112 418.081 56.53 417.891 55.7483C413.606 38.1707 404.737 23.6563 389.4 13.682C382.761 9.66302 376.821 17.7812 372.256 22.3129ZM499.443 20.6413C497.359 22.7733 495.564 25.0538 493.815 27.4603C493.574 27.7894 493.333 28.1186 493.085 28.4576C491.671 30.4652 490.756 32.3403 490.099 34.7034C496.083 37.5017 501.475 38.6243 507.928 36.4567C514.212 33.7099 517.791 29.3278 520.303 23.1101C520.742 21.4667 520.743 20.0027 520.679 18.3093C520.2 18.2197 519.721 18.1301 519.228 18.0377C515.602 17.2932 512.645 16.5308 509.629 14.3455C506.637 12.3618 501.532 18.66 499.443 20.6413ZM396.66 16.0481C396.927 16.2747 397.195 16.5014 397.471 16.7349C409.2 26.7998 416.491 38.8661 419.878 53.924C422.532 54.136 424.436 54.198 426.85 52.97C429.82 50.4189 430.878 48.5576 431.451 44.667C432.129 40.7697 432.844 38.1186 436.159 35.6662C439.114 33.9293 441.998 33.6882 445.361 34.1381C449.056 35.2871 451.27 37.0218 453.112 40.4272C453.807 42.1718 454.056 43.8723 454.316 45.727C454.825 48.8329 455.945 50.7942 458.386 52.7934C460.792 54.24 463.006 54.2939 465.748 53.924C467.938 53.1726 469.448 51.9479 471.022 50.2495C472.389 47.4191 472.702 44.5795 473.11 41.4871C473.316 40.6367 473.316 40.6367 473.526 39.7691C473.717 37.6454 473.178 36.8142 472.013 35.0567C471.692 34.5626 471.372 34.0686 471.042 33.5595C470.664 33.0064 470.664 33.0064 470.278 32.4422C469.636 32.722 468.994 33.0018 468.332 33.2901C464.841 34.5744 461.682 34.7609 458.244 33.2195C455.215 31.5145 453.103 29.0435 452.157 25.6584C452.093 24.8462 452.034 24.0335 451.98 23.2205C451.699 20.3205 450.665 18.2447 448.759 16.0481C446.116 14.1294 443.432 13.8674 440.265 14.3522C437.55 15.2447 435.789 16.7536 434.467 19.3318C433.74 21.4187 433.528 23.5865 433.215 25.7666C432.556 29.1204 430.556 31.1328 427.806 33.0075C424.942 34.5958 421.787 34.5438 418.641 33.8753C415.867 32.9906 413.98 31.6106 412.516 29.0503C411.426 26.5386 410.815 23.996 410.321 21.3126C409.769 18.6857 408.773 17.354 406.853 15.4828C405.123 14.4189 403.778 14.1847 401.756 14.1755C401.277 14.166 400.798 14.1566 400.305 14.1468C398.668 14.3904 397.889 14.971 396.66 16.0481ZM575.822 15.6948C572.979 17.1856 570.279 17.8591 567.115 18.3093C567.601 24.9677 570.48 29.1976 575.256 33.7141C579.974 36.8538 584.702 38.061 590.334 37.53C592.673 36.9557 594.937 36.2715 597.129 35.2687C597.41 34.709 597.41 34.709 597.696 34.1381C594.103 27.0289 587.539 18.5996 580.707 14.3522C578.374 14.3522 577.768 14.6004 575.822 15.6948ZM565.417 25.6584C564.558 27.0162 563.766 28.4079 562.963 29.7989C558.863 36.365 552.819 38.6618 545.596 40.3565C545.804 45.7476 548.067 50.5312 552.038 54.2067C557.583 58.6964 562.92 59.6131 569.947 59.0118C575.753 57.5141 580.001 54.4353 583.184 49.4015C584.883 46.3697 585.803 43.874 585.803 40.3565C585.297 40.2326 584.79 40.1088 584.268 39.9811C577.648 38.2479 572.287 35.9348 568.248 30.1809C567.393 28.6962 566.684 27.2258 565.983 25.6584C565.796 25.6584 565.609 25.6584 565.417 25.6584ZM521.812 26.2237C521.293 27.0512 520.817 27.9049 520.36 28.7676C516.969 34.5487 511.985 37.8745 505.559 39.6477C504.377 39.9164 503.185 40.1417 501.991 40.3565C503.286 46.6622 505.318 51.5502 510.486 55.6199C516.16 58.9568 521.578 59.9039 528.087 58.685C533.341 57.0343 537.789 53.1882 540.522 48.4188C541.622 45.8331 542.201 43.1007 542.765 40.3565C542.327 40.2603 541.889 40.1641 541.437 40.065C534.563 38.4683 528.896 35.9246 524.787 29.8497C524.122 28.6573 523.504 27.4682 522.944 26.2237C522.57 26.2237 522.197 26.2237 521.812 26.2237ZM435.593 39.8619C434.41 41.8011 434.126 43.4762 433.743 45.6917C433.04 49.4037 431.941 52.0499 428.939 54.4893C426.295 56.1312 424.053 56.4888 421.01 56.7506C421.645 60.8747 422.571 64.924 423.559 68.9754C423.74 69.7398 423.74 69.7398 423.925 70.5196C424.044 70.9967 424.162 71.4738 424.284 71.9654C424.442 72.6121 424.442 72.6121 424.604 73.2719C424.888 74.3932 424.888 74.3932 426.107 74.8406C429.892 72.0698 431.011 69.4637 431.735 64.9123C432.333 61.3697 433.42 59.3368 436.336 57.1392C439.486 55.3327 442.369 55.2798 445.927 55.6199C448.817 56.4247 451.05 57.9467 452.719 60.4891C453.629 62.6407 453.91 64.9184 454.292 67.2088C454.869 70.3453 455.839 72.342 458.386 74.2753C460.649 75.6426 463.159 75.8666 465.748 75.4059C469.031 74.0423 470.602 72.4926 471.977 69.1874C472.26 67.8872 472.507 66.5788 472.721 65.2656C473.443 61.6373 474.351 59.8023 477.074 57.3159C477.448 57.1293 477.821 56.9428 478.207 56.7506C478.334 53.6955 477.917 51.2033 477.074 48.3062C476.966 47.9196 476.858 47.533 476.747 47.1347C476.483 46.1931 476.213 45.2532 475.941 44.3137C475.568 44.3137 475.194 44.3137 474.809 44.3137C474.753 44.6824 474.698 45.0512 474.641 45.4311C473.951 49.4527 473.057 52.118 469.677 54.666C466.531 56.4696 463.639 56.5342 460.085 56.1853C457.075 55.2698 454.963 53.7968 453.289 51.0975C452.597 49.4859 452.195 47.9825 451.958 46.2459C451.428 42.4558 450.627 40.0245 447.626 37.53C443.027 34.751 439.145 36.5125 435.593 39.8619ZM488.4 36.9646C485.353 43.0734 482.582 50.028 482.702 56.9626C482.713 57.6388 482.725 58.3151 482.737 59.0118C488.213 57.5385 493.215 54.8527 496.328 49.9668C498.646 45.3797 498.646 45.3797 499.16 40.3565C498.525 40.159 497.891 39.9616 497.237 39.7581C496.403 39.4983 495.569 39.2384 494.735 38.9786C494.317 38.8485 493.9 38.7184 493.469 38.5844C491.775 38.0564 490.084 37.5249 488.4 36.9646ZM594.893 38.7732C592.872 39.5608 590.759 39.9477 588.635 40.3565C589.362 45.5436 591.151 50.1147 594.864 53.924C599.253 57.2683 599.253 57.2683 604.491 58.4465C604.349 51.0524 602.402 44.2545 599.394 37.53C597.577 37.53 596.522 38.0386 594.893 38.7732ZM586.936 47.1403C586.667 47.7699 586.399 48.3995 586.122 49.0482C583.184 54.8117 578.817 58.4775 572.778 60.7078C570.9 61.2127 569.044 61.5913 567.115 61.8384C567.31 66.8806 569.453 71.5874 572.849 75.3352C577.153 79.2476 582.612 81.2664 588.374 81.1805C594.197 80.673 599.159 77.8323 603.126 73.6371C605.676 70.2595 605.191 65.8619 605.057 61.8384C604.585 61.6802 604.113 61.5221 603.626 61.3592C596.446 58.8057 591.754 55.2885 588.139 48.5535C587.929 48.0872 587.719 47.6208 587.502 47.1403C587.315 47.1403 587.128 47.1403 586.936 47.1403ZM500.292 47.7056C499.781 48.5563 499.289 49.4184 498.806 50.2848C495.234 56.2465 490.453 59.5338 483.728 61.4851C483.214 61.6017 482.7 61.7183 482.171 61.8384C481.988 66.871 482.219 70.3477 485.568 74.3459C489.755 78.7598 494.773 80.7514 500.788 81.2357C506.253 81.0545 511.744 78.6668 515.607 74.8185C518.806 70.9645 520.862 66.8981 520.679 61.8384C520.241 61.7422 519.803 61.646 519.352 61.5469C511.911 59.8187 506.759 57.1711 502.593 50.5675C502.272 50.026 501.952 49.4846 501.622 48.9267C501.37 48.5238 501.118 48.1208 500.858 47.7056C500.672 47.7056 500.485 47.7056 500.292 47.7056ZM543.897 47.7056C543.238 48.7358 542.592 49.7738 541.951 50.8148C537.792 57.0794 532.709 60.2102 525.386 61.6971C524.954 61.7437 524.522 61.7903 524.077 61.8384C524.346 67.3973 526.321 71.993 530.306 75.9712C534.409 79.3458 539.486 81.5114 544.901 81.2555C549.919 80.4735 554.347 78.9205 558.055 75.4059C558.368 75.1093 558.681 74.8127 559.004 74.5071C562.335 71.0003 563.87 66.5961 564.284 61.8384C563.818 61.7553 563.352 61.6722 562.873 61.5866C556.565 60.3216 551.357 57.9187 547.295 52.7934C546.254 51.1416 545.326 49.4564 544.463 47.7056C544.277 47.7056 544.09 47.7056 543.897 47.7056ZM434.991 61.8384C433.784 64.1922 433.587 66.7069 433.215 69.2956C432.547 72.6918 430.53 74.5841 427.806 76.5365C427.245 76.9096 426.685 77.2827 426.107 77.6671C426.855 80.8385 427.602 84.0099 428.372 87.2774C425.008 87.2774 421.645 87.2774 418.179 87.2774C416.515 90.5975 416.515 90.5975 414.901 93.9419C409.872 104.523 402.879 113.243 393.262 120.066C395.08 121.276 396.872 121.929 398.925 122.609C399.625 122.848 400.326 123.087 401.048 123.334C406.489 124.982 411.806 125.357 417.471 125.33C418.172 125.327 418.874 125.324 419.596 125.32C433.835 125.132 446.196 119.896 457.253 111.021C457.667 110.696 458.08 110.371 458.506 110.036C469.164 101.246 475.466 88.1083 478.207 74.8406C478.318 74.3217 478.43 73.8029 478.545 73.2683C478.878 70.6111 478.832 67.9756 478.808 65.3009C478.804 64.4745 478.804 64.4745 478.8 63.6315C478.794 62.28 478.785 60.9286 478.773 59.5771C476.219 62.0276 475.184 63.6488 474.572 67.1492C473.879 71.0911 473.002 73.6412 469.677 76.1479C466.524 77.9559 463.644 77.9475 460.085 77.6671C456.737 76.4912 454.582 74.4872 452.9 71.378C452.206 69.6334 451.956 67.9329 451.697 66.0782C451.187 62.9723 450.067 61.011 447.626 59.0118C443.024 56.2442 438.107 57.8024 434.991 61.8384ZM521.812 69.1874C521.531 69.8287 521.251 70.47 520.962 71.1307C518.087 76.7617 514.07 79.9094 508.22 82.1896C506.161 82.8489 504.101 83.413 501.991 83.8856C503.32 90.7626 505.861 95.5711 511.618 99.7143C516.414 102.578 520.769 102.979 526.342 102.541C532.1 101.062 536.453 97.6785 539.933 92.9305C541.478 89.9926 542.276 87.1599 542.765 83.8856C542.258 83.7617 541.751 83.6378 541.229 83.5102C533.234 81.4168 527.985 78.2549 523.581 71.166C523.251 70.5976 523.251 70.5976 522.913 70.0177C522.737 69.7437 522.56 69.4697 522.378 69.1874C522.191 69.1874 522.004 69.1874 521.812 69.1874ZM565.417 69.1874C565.224 69.5431 565.031 69.8987 564.833 70.2651C560.851 77.284 556.15 81.0572 548.357 83.2142C547.438 83.4442 546.518 83.6703 545.596 83.8856C545.879 88.961 547.924 93.3604 551.374 97.1152C556.116 101.324 561.231 102.837 567.487 102.715C573.206 102.188 578.015 99.4853 581.718 95.1344C584.103 91.8226 585.803 88.0161 585.803 83.8856C585.221 83.734 584.64 83.5824 584.04 83.4262C576.56 81.3644 571.282 78.5943 567.308 71.6298C566.594 70.2658 566.594 70.2658 565.417 69.1874ZM480.472 76.5365C480.279 77.2477 480.086 77.959 479.888 78.6917C474.938 96.3719 464.92 110.839 448.759 120.066C442.036 123.773 434.779 126.016 427.24 127.415C427.24 127.601 427.24 127.788 427.24 127.98C428.247 128.217 428.247 128.217 429.275 128.459C446.579 132.677 461.361 141.976 470.845 157.376C474.508 163.667 477.484 170.535 478.773 177.727C480.114 177.223 480.114 177.223 480.516 175.406C480.74 174.638 480.961 173.869 481.18 173.099C484.359 162.572 489.217 153.958 496.894 146.07C497.422 145.491 497.422 145.491 497.961 144.9C506.914 135.363 520.065 130.227 532.571 127.415C532.571 127.228 532.571 127.041 532.571 126.849C531.886 126.685 531.202 126.52 530.496 126.35C513.27 122.096 498.678 112.929 489.307 97.5237C485.383 90.8598 482.717 84.0993 481.038 76.5365C480.851 76.5365 480.664 76.5365 480.472 76.5365ZM483.87 76.5365C484.996 83.974 488.116 90.416 491.798 96.8877C493.478 97.0803 493.478 97.0803 494.326 96.1171C497.072 92.4888 499.16 88.5082 499.16 83.8856C498.558 83.7209 497.957 83.5562 497.337 83.3865C492.803 82.0925 489.134 80.8694 485.568 77.6671C485.008 77.294 484.447 76.9209 483.87 76.5365ZM602.792 77.6671C602.398 77.9852 602.398 77.9852 601.996 78.3097C597.908 81.3323 593.469 82.5473 588.635 83.8856C589.285 88.524 590.416 92.7822 594.11 95.9029C594.763 96.3904 594.763 96.3904 595.43 96.8877C598.697 91.0836 601.814 85.3265 603.359 78.7977C603.172 78.4246 602.985 78.0515 602.792 77.6671ZM500.292 90.6693C500.127 91.0315 499.962 91.3937 499.792 91.7668C499.56 92.2558 499.328 92.7448 499.089 93.2485C498.865 93.7273 498.642 94.2061 498.412 94.6994C497.193 96.7799 495.678 98.4965 494.063 100.28C498.04 105.151 501.967 109.556 507.088 113.282C507.689 113.722 508.289 114.162 508.908 114.616C511.745 116.892 511.745 116.892 515.102 117.789C517.746 116.4 519.187 112.983 520.325 110.349C520.705 108.642 520.703 107.111 520.679 105.367C520.248 105.278 519.816 105.188 519.372 105.096C512.454 103.535 507.12 100.876 503.265 94.8031C502.941 94.2646 502.617 93.7261 502.283 93.1712C501.474 91.7645 501.474 91.7645 500.292 90.6693ZM543.897 90.6693C543.359 91.5293 542.844 92.4038 542.34 93.2839C538.582 99.5663 533.997 102.936 526.908 104.802C525.969 105.013 525.027 105.214 524.077 105.367C524.379 111.6 526.702 115.857 531.255 120.116C535.446 123.554 540.225 124.796 545.596 124.517C551.19 123.901 556.036 121.359 559.725 117.093C562.352 113.586 564.284 109.828 564.284 105.367C563.647 105.233 563.647 105.233 562.997 105.096C556.642 103.65 551.391 101.59 547.295 96.3224C546.218 94.4887 545.298 92.624 544.463 90.6693C544.277 90.6693 544.09 90.6693 543.897 90.6693ZM586.936 90.6693C586.75 91.0657 586.564 91.4622 586.372 91.8706C583.621 97.348 579.799 101.57 573.911 103.671C571.661 104.311 569.4 104.866 567.115 105.367C567.278 109.584 568.76 113.149 571.08 116.674C572.25 117.45 572.25 117.45 573.345 117.804C581.124 112.921 587.537 107.547 593.165 100.28C592.356 98.5791 591.422 97.0358 590.369 95.4745C590.084 95.0489 589.798 94.6233 589.504 94.1848C588.676 92.9898 587.818 91.8254 586.936 90.6693ZM565.417 112.151C565.217 112.554 565.018 112.957 564.813 113.372C562.967 116.947 561.069 119.667 558.055 122.327C557.681 122.7 557.307 123.073 556.922 123.457C560.24 123.165 562.93 122.467 565.983 121.161C566.368 121.002 566.752 120.842 567.149 120.678C568.083 120.291 569.016 119.896 569.947 119.5C569.405 118.593 568.862 117.686 568.319 116.78C568.017 116.275 567.714 115.77 567.403 115.249C566.765 114.202 566.098 113.171 565.417 112.151ZM521.812 112.716C521.456 113.411 521.103 114.106 520.75 114.801C520.553 115.188 520.356 115.575 520.152 115.974C519.509 117.316 518.954 118.679 518.414 120.066C522.905 121.933 527.173 123.375 532.005 124.023C531.619 123.743 531.234 123.463 530.837 123.175C527.277 120.15 524.847 116.971 522.944 112.716C522.57 112.716 522.197 112.716 521.812 112.716ZM368.911 151.723C361.621 160.814 354.689 174.242 355.32 186.207C356.639 184.932 357.911 183.667 359.089 182.259C368.193 171.399 382.701 164.44 396.763 163.122C413.224 162.165 428.423 165.954 441.397 176.597C442.131 177.189 442.131 177.189 442.879 177.794C446.772 181.099 449.736 184.929 452.723 189.034C454.56 187.225 456.323 185.38 458.032 183.451C458.904 182.485 459.777 181.519 460.651 180.554C461.122 180.026 461.122 180.026 461.602 179.487C464.624 176.269 468.316 173.934 471.977 171.509C472.538 171.136 473.099 170.763 473.676 170.378C472.726 163.543 467.782 156.885 463.483 151.723C463.081 151.236 462.68 150.749 462.266 150.248C452.231 138.602 437.967 131.394 422.709 129.676C401.597 128.129 382.923 135.86 368.911 151.723ZM516.149 135.329C515.528 135.619 514.908 135.909 514.268 136.208C499.932 143.415 489.286 156.22 483.94 171.226C479.161 186.924 479.653 204.213 487.279 218.984C495.483 234.026 508.161 245.032 524.537 250.264C541.299 255.045 558.199 252.924 573.433 244.481C576.248 242.831 578.775 240.87 581.273 238.781C581.844 238.304 582.415 237.826 583.003 237.335C594.193 227.685 601.482 213.87 603.359 199.209C604.435 183.583 602.072 168.554 592.599 155.68C592.264 155.221 591.929 154.762 591.584 154.289C587.094 148.43 581.895 143.194 575.61 139.286C575.12 138.963 574.63 138.641 574.126 138.308C556.761 127.417 534.555 126.704 516.149 135.329ZM390.997 166.421C391.73 168.711 392.577 170.899 393.545 173.099C398.041 183.884 397.412 196.064 393.507 206.938C392.398 209.51 391 211.695 389.298 213.907C388.924 214.467 388.55 215.027 388.165 215.603C402.462 219.038 416.393 217.758 429.505 211.081C430.103 210.778 430.702 210.476 431.319 210.164C438.128 206.454 443.856 201.217 448.759 195.252C449.041 194.92 449.323 194.587 449.613 194.245C450.373 193.32 450.373 193.32 451.024 191.86C450.368 189.48 449.114 187.995 447.449 186.207C446.99 185.713 446.531 185.219 446.058 184.71C444.715 183.296 443.379 181.896 441.963 180.554C441.619 180.219 441.274 179.885 440.919 179.54C429.817 169.16 415.067 164.823 400.116 165.228C397.048 165.389 394.02 165.893 390.997 166.421ZM363.681 181.247C358.837 186.067 358.837 186.067 355.32 191.86C356.422 193.248 357.528 194.632 358.64 196.012C359.329 196.867 360.014 197.724 360.688 198.591C366.465 205.761 376.251 212.483 385.334 214.473C392.148 207.631 394.384 198.497 394.394 189.034C394.094 181.496 392.745 173.384 387.599 167.552C379.235 167.552 369.378 175.741 363.681 181.247ZM461.218 183.38C457.219 187.336 457.219 187.336 455.555 192.425C456.939 194.739 458.834 196.659 460.651 198.644C461.316 199.377 461.316 199.377 461.994 200.126C465.428 203.734 469.283 206.992 473.676 209.385C474.237 209.198 474.797 209.012 475.375 208.82C475.945 207.265 475.945 207.265 476.295 205.392C476.431 204.768 476.567 204.143 476.707 203.5C478.299 194.699 479.622 181.227 474.809 173.205C470.706 173.205 463.944 180.659 461.218 183.38ZM452.723 194.121C451.936 195.013 451.187 195.938 450.458 196.877C441.505 207.978 430.199 214.865 416.48 218.43C415.945 218.569 415.41 218.708 414.858 218.852C400.034 221.957 383.902 218.711 371.148 210.757C365.365 206.965 360.212 202.346 355.886 196.948C355.125 199.432 355.663 201.505 356.24 203.979C356.345 204.434 356.45 204.889 356.558 205.358C358.824 214.808 363.035 223.563 369.477 230.867C369.853 231.323 370.229 231.779 370.616 232.249C380.672 244.087 395.348 251.161 410.711 252.737C411.689 252.805 412.669 252.865 413.648 252.914C414.038 252.937 414.427 252.961 414.828 252.985C430.915 253.476 446.316 247.171 458.101 236.434C465.116 229.838 470.1 222.267 473.676 213.342C473.676 212.969 473.676 212.596 473.676 212.211C472.827 211.633 471.947 211.1 471.057 210.586C464.955 206.792 459.733 202.261 455.565 196.39C455.017 195.618 454.439 194.867 453.856 194.121C453.482 194.121 453.108 194.121 452.723 194.121ZM478.773 204.862C478.621 205.451 478.469 206.04 478.313 206.647C473.821 223.322 463.689 237.792 448.686 246.615C442.12 250.302 435.085 252.756 427.806 254.61C427.806 254.796 427.806 254.983 427.806 255.175C428.389 255.292 428.972 255.41 429.573 255.531C446.523 259.115 461.112 268.278 470.711 282.906C475.151 289.883 477.799 296.947 479.905 304.923C480.279 304.736 480.653 304.549 481.038 304.357C481.479 302.935 481.869 301.523 482.241 300.082C485.09 289.819 490.66 280.93 498.027 273.265C498.587 272.663 498.587 272.663 499.157 272.048C507.951 262.846 520.246 257.577 532.571 255.175C532.571 254.989 532.571 254.802 532.571 254.61C531.503 254.373 531.503 254.373 530.412 254.131C512.628 250.037 497.94 240.801 488.015 225.147C484.113 218.76 481.822 212.064 479.905 204.862C479.532 204.862 479.158 204.862 478.773 204.862ZM373.656 274.901C372.741 276.054 372.741 276.054 372.895 277.52C373.545 279.183 374.265 279.905 375.636 281.038C376.031 281.373 376.427 281.709 376.835 282.054C379.382 283.894 382.317 283.77 385.334 283.441C388.659 282.288 390.753 280.011 392.271 276.904C392.806 275.406 392.806 275.406 392.695 273.265C393.63 273.265 394.564 273.265 395.527 273.265C395.55 273.825 395.574 274.384 395.598 274.961C396.006 277.783 397.553 279.724 399.491 281.745C402.304 283.787 405.193 283.83 408.552 283.441C411.678 282.42 413.44 280.362 415.347 277.788C416.114 276.256 415.95 274.956 415.914 273.265C417.035 273.265 418.156 273.265 419.311 273.265C419.265 273.755 419.218 274.245 419.17 274.749C419.399 277.833 421.042 279.673 423.311 281.639C426.144 283.745 428.907 283.887 432.336 283.441C435.488 282.197 437.609 280.263 439.132 277.222C439.583 275.112 439.583 275.112 439.698 273.265C440.633 273.265 441.567 273.265 442.53 273.265C442.576 273.848 442.623 274.431 442.671 275.032C443.373 278.651 445.194 280.803 448.193 282.875C451.23 283.886 454.358 283.831 457.395 282.84C459.359 281.459 461.175 279.91 462.35 277.788C462.306 276.119 461.778 275.52 460.665 274.268C447.275 262.163 431.454 256.1 413.361 256.785C398.253 257.707 384.501 264.579 373.656 274.901ZM504.256 271.004C503.574 271.571 502.89 272.137 502.203 272.7C501.538 273.259 501.538 273.259 500.858 273.83C501.232 274.017 501.606 274.204 501.991 274.396C503.198 273.991 504.388 273.535 505.566 273.053C512.479 270.236 521.661 269.648 528.828 272.075C534.023 274.272 538.766 276.535 542.765 280.614C544.846 279.683 546.559 278.391 548.392 277.046C556.668 271.229 566.008 269.532 575.913 271.125C578.354 271.678 580.626 272.458 582.93 273.431C583.317 273.563 583.705 273.695 584.104 273.83C584.665 273.551 584.665 273.551 585.237 273.265C573.17 261.562 557.167 256.541 540.637 256.75C527.356 257.14 514.201 262.205 504.256 271.004ZM493.073 284.808C486.834 292.676 485.231 301.307 486.135 311.141C486.607 313.577 487.344 315.684 488.4 317.925C488.74 318.683 488.74 318.683 489.088 319.457C492.401 326.149 497.852 331.471 503.168 336.609C504.421 337.839 505.578 339.126 506.725 340.456C508.81 342.863 511.042 345.094 513.317 347.321C515.932 349.882 518.432 352.482 520.823 355.253C522.483 357.122 524.272 358.859 526.059 360.606C528.202 362.701 530.297 364.802 532.255 367.072C534.403 369.559 536.709 371.866 539.048 374.173C539.463 374.584 539.877 374.995 540.304 375.419C541.311 376.418 542.321 377.416 543.331 378.413C545.564 376.559 547.667 374.721 549.56 372.513C552.173 369.55 554.952 366.777 557.776 364.014C559.532 362.285 561.219 360.534 562.828 358.667C565.361 355.736 568.135 353.059 570.9 350.349C573.185 348.092 575.349 345.785 577.445 343.354C579.554 340.982 581.86 338.799 584.127 336.58C586.372 334.364 588.511 332.097 590.565 329.703C591.501 328.626 592.471 327.586 593.448 326.546C599.929 319.1 601.752 311.302 601.211 301.699C600.441 293.168 595.968 285.709 589.53 280.191C581.63 273.949 573.017 272.397 563.151 273.265C555.35 274.625 549.119 278.766 543.897 284.571C543.337 284.082 542.776 283.592 542.198 283.087C533.607 275.783 525.374 272.505 514.025 273.148C505.796 273.904 498.367 278.652 493.073 284.808ZM369.599 280.422C364.359 285.94 358.151 295.297 358.151 303.227C361.893 303.287 364.133 302.465 366.836 299.859C368.633 297.657 369.477 295.352 369.477 292.486C370.412 292.486 371.346 292.486 372.309 292.486C372.311 292.968 372.311 292.968 372.313 293.46C372.471 296.613 373.104 298.449 375.333 300.716C377.993 303.022 380.453 303.575 383.9 303.461C387.1 302.938 389.169 301.201 391.244 298.81C392.327 296.606 392.527 294.924 392.695 292.486C393.63 292.486 394.564 292.486 395.527 292.486C395.562 293.15 395.597 293.815 395.633 294.5C395.99 297.223 396.962 299.045 398.925 300.965C401.9 303.159 404.913 303.768 408.552 303.227C411.615 302.207 413.64 300.263 415.347 297.574C415.908 296.05 416.197 294.66 416.48 293.051C417.227 293.051 417.975 293.051 418.745 293.051C418.85 293.704 418.955 294.357 419.064 295.03C419.923 298.473 422.21 301.067 425.187 302.944C428.868 303.644 431.969 303.597 435.285 301.714C437.407 300.149 438.821 298.332 439.428 295.747C439.57 294.666 439.641 293.575 439.698 292.486C440.633 292.486 441.567 292.486 442.53 292.486C442.576 293.162 442.623 293.838 442.671 294.535C443.055 297.427 444.091 299.29 446.319 301.237C448.849 303.058 451.048 303.678 454.163 303.496C457.58 302.834 459.843 301.002 461.784 298.174C462.89 296.228 463.199 294.746 462.916 292.486C463.851 292.486 464.785 292.486 465.748 292.486C465.81 292.82 465.872 293.155 465.936 293.499C466.633 296.968 467.298 299.329 470.101 301.672C472.363 302.865 473.973 303.052 476.508 303.227C476.188 300.102 475.39 297.495 474.172 294.606C473.996 294.185 473.82 293.765 473.639 293.332C471.395 288.12 468.439 283.672 464.615 279.484C464.195 280.096 464.195 280.096 463.766 280.72C461.385 283.394 458.269 285.508 454.628 285.837C450.847 285.929 447.861 285.801 444.795 283.441C443.551 282.196 442.446 280.895 441.397 279.484C440.988 279.903 440.58 280.323 440.158 280.756C436.752 284.08 434.183 285.856 429.328 285.914C425.56 285.846 422.808 285.245 420.108 282.535C419.426 281.738 418.797 280.897 418.179 280.049C416.4 280.459 416.4 280.459 415.524 281.921C413.357 284.436 411.221 285.512 407.912 285.921C404.097 286.049 400.863 285.853 397.792 283.441C396.55 282.195 395.443 280.895 394.394 279.484C393.986 279.903 393.577 280.323 393.156 280.756C389.913 283.92 387.318 285.844 382.679 285.949C379.093 285.883 376.342 284.994 373.441 282.875C372.471 281.779 371.873 280.784 371.176 279.484C370.449 279.419 370.449 279.419 369.599 280.422ZM370.61 299.269C370.424 299.529 370.237 299.788 370.046 300.056C367.246 303.661 364.057 305.32 359.532 305.912C358.568 305.982 358.568 305.982 357.585 306.053C356.626 309.019 356.215 311.745 356.063 314.851C356.036 315.263 356.01 315.675 355.982 316.1C355.85 318.495 355.954 320.647 356.452 323.013C360.217 323.238 362.909 323.116 365.869 320.502C368.262 318.021 369.032 315.648 369.477 312.272C370.412 312.272 371.346 312.272 372.309 312.272C372.25 312.738 372.192 313.204 372.132 313.685C372.373 316.388 373.434 318.106 375.14 320.186C377.865 322.308 380.038 323.231 383.528 323.167C386.614 322.782 389.035 321.328 390.961 318.914C392.359 316.755 392.562 314.81 392.695 312.272C393.63 312.272 394.564 312.272 395.527 312.272C395.574 312.948 395.62 313.624 395.668 314.321C395.985 316.769 396.746 318.271 398.358 320.186C401.462 322.526 404.084 323.506 407.985 323.013C411.235 321.969 413.525 320.281 415.347 317.359C415.72 315.661 415.871 314.008 415.914 312.272C416.848 312.458 417.782 312.645 418.745 312.837C418.822 313.206 418.898 313.574 418.977 313.954C419.909 317.73 421.107 319.783 424.408 321.882C426.747 323.199 429.133 323.344 431.77 323.013C435.23 321.726 437.356 319.753 439.026 316.476C439.821 314.519 439.821 314.519 439.698 312.272C440.633 312.272 441.567 312.272 442.53 312.272C442.565 312.936 442.6 313.601 442.636 314.286C442.993 317.007 443.963 318.834 445.927 320.751C448.361 322.511 450.831 323.403 453.847 323.231C456.703 322.684 458.874 321.428 460.864 319.338C462.525 316.786 463.058 315.381 462.916 312.272C463.851 312.272 464.785 312.272 465.748 312.272C465.802 312.744 465.802 312.744 465.856 313.226C466.468 317.03 467.979 319.322 470.845 321.882C473.283 323.419 475.975 323.122 478.773 323.013C478.898 317.216 478.755 311.765 477.64 306.053C477.237 305.998 476.833 305.942 476.417 305.885C471.072 305.052 467.905 303.648 464.615 299.269C463.836 299.999 463.082 300.754 462.35 301.531C462.35 301.904 462.35 302.277 462.35 302.661C461.601 303.05 460.844 303.423 460.085 303.792C459.524 304.095 458.964 304.398 458.386 304.711C455.141 306.069 451.363 306.059 448 305.117C445.101 303.828 443.264 301.783 441.397 299.269C441.012 299.678 440.626 300.086 440.229 300.506C436.947 303.773 434.119 305.523 429.434 305.7C425.932 305.667 423.317 304.63 420.444 302.661C418.958 301.071 418.958 301.071 418.179 299.835C416.611 300.472 415.788 301.097 414.604 302.343C411.835 304.979 409.49 305.594 405.756 305.735C402.04 305.624 399.412 304.847 396.761 302.195C395.931 301.245 395.147 300.282 394.394 299.269C393.986 299.689 393.577 300.109 393.156 300.541C389.876 303.743 387.3 305.639 382.608 305.7C379.359 305.656 377.31 304.865 374.574 303.227C374.013 303.04 373.453 302.854 372.875 302.661C372.273 301.566 372.273 301.566 371.742 300.4C371.369 300.027 370.995 299.654 370.61 299.269ZM482.737 307.749C479.995 323.488 483.573 339.701 492.364 352.974C493.79 354.939 495.306 356.791 496.894 358.627C497.229 359.043 497.563 359.458 497.908 359.886C506.812 370.59 520.564 377.601 534.27 379.544C536.17 379.652 538.034 379.662 539.933 379.544C539.131 378.606 538.328 377.669 537.522 376.735C536.918 376.032 536.319 375.327 535.726 374.615C533.076 371.49 530.171 368.632 527.245 365.768C525.462 364.013 523.747 362.235 522.112 360.341C520.05 357.953 517.836 355.746 515.582 353.539C512.973 350.984 510.48 348.39 508.094 345.625C506.338 343.652 504.444 341.819 502.557 339.972C499.586 337.063 496.771 334.082 494.063 330.927C493.661 330.478 493.258 330.029 492.844 329.567C487.362 323.149 484.449 316.042 483.303 307.749C483.116 307.749 482.929 307.749 482.737 307.749ZM603.925 311.141C603.738 311.794 603.551 312.447 603.359 313.12C599.785 323.625 593.489 330.796 585.66 338.428C583.48 340.556 581.442 342.748 579.453 345.054C577.339 347.43 575.028 349.619 572.756 351.844C570.906 353.669 569.114 355.51 567.416 357.479C564.892 360.404 562.124 363.072 559.366 365.775C557.053 368.059 554.855 370.394 552.733 372.856C551.463 374.304 550.119 375.649 548.746 377C548.256 377.484 547.766 377.968 547.262 378.466C546.899 378.822 546.536 379.177 546.162 379.544C550.251 381.585 559.056 378.291 563.258 376.929C578.961 371.536 591.495 359.955 598.844 345.21C600.522 341.682 601.758 338.088 602.792 334.319C602.973 333.693 603.153 333.067 603.339 332.422C605.053 325.441 604.65 318.278 604.491 311.141C604.304 311.141 604.117 311.141 603.925 311.141ZM370.61 319.055C370.248 319.557 369.886 320.058 369.513 320.575C366.829 323.824 363.053 325.313 358.93 325.733C358.105 325.78 357.279 325.82 356.452 325.839C357.611 334.012 357.611 334.012 360.416 341.668C361.489 342.262 361.489 342.262 362.682 342.233C365.112 340.919 366.883 339.49 368.345 337.145C368.843 335.467 369.191 333.784 369.477 332.058C370.412 332.058 371.346 332.058 372.309 332.058C372.25 332.524 372.192 332.99 372.132 333.471C372.373 336.174 373.434 337.892 375.14 339.972C377.865 342.094 380.038 343.017 383.528 342.953C386.614 342.568 389.035 341.114 390.961 338.7C392.359 336.541 392.562 334.596 392.695 332.058C393.63 332.058 394.564 332.058 395.527 332.058C395.574 332.641 395.62 333.224 395.668 333.824C396.429 337.748 398.633 339.96 401.756 342.233C402.836 342.75 402.836 342.75 404.021 342.798C404.629 342.857 405.236 342.915 405.862 342.975C409.361 342.684 411.611 341.364 414.179 339.018C415.638 336.679 415.847 334.769 415.914 332.058C417.035 332.058 418.156 332.058 419.311 332.058C419.314 332.54 419.314 332.54 419.316 333.031C419.473 336.159 420.09 338.027 422.291 340.288C424.434 342.062 426.488 342.718 429.222 343.01C432.542 342.655 434.816 341.672 437.044 339.195C438.913 336.831 439.698 335.112 439.698 332.058C440.633 332.058 441.567 332.058 442.53 332.058C442.565 332.722 442.6 333.387 442.636 334.072C442.993 336.793 443.963 338.62 445.927 340.537C448.361 342.297 450.831 343.189 453.847 343.017C456.703 342.47 458.874 341.214 460.864 339.124C462.525 336.572 463.058 335.167 462.916 332.058C463.851 332.058 464.785 332.058 465.748 332.058C465.811 332.54 465.811 332.54 465.876 333.031C466.466 336.489 467.596 338.79 470.278 341.103C471.796 342.002 472.438 342.233 474.242 342.233C477.159 334.229 477.159 334.229 478.207 325.839C477.775 325.797 477.344 325.755 476.899 325.711C471.498 325.024 467.688 323.161 464.049 319.055C463.815 319.362 463.582 319.669 463.341 319.985C460.627 323.342 458.483 324.9 454.187 325.448C450.671 325.628 447.748 324.961 444.795 323.013C443.519 321.786 442.428 320.492 441.397 319.055C441.023 319.463 440.65 319.872 440.265 320.292C437.251 323.309 433.77 325.325 429.469 325.486C425.966 325.449 423.285 324.491 420.444 322.447C419.501 321.358 418.886 320.32 418.179 319.055C417.805 319.055 417.431 319.055 417.046 319.055C416.766 319.557 416.486 320.058 416.197 320.575C414.514 323.185 412.004 324.318 409.118 325.274C404.619 326.066 400.952 325.036 397.226 322.447C396.102 321.369 395.292 320.339 394.394 319.055C393.986 319.475 393.577 319.895 393.156 320.327C389.84 323.564 387.289 325.285 382.573 325.451C379.183 325.354 376.479 324.891 373.999 322.458C373.293 321.65 372.605 320.826 371.939 319.985C371.687 319.678 371.436 319.371 371.176 319.055C370.989 319.055 370.802 319.055 370.61 319.055ZM370.61 338.841C370.248 339.343 369.886 339.844 369.513 340.361C367.567 342.779 364.906 343.837 362.115 345.06C363.911 348.86 365.924 352.362 368.345 355.801C369.172 354.304 369.477 353.599 369.477 351.844C370.412 351.844 371.346 351.844 372.309 351.844C372.239 352.298 372.168 352.753 372.096 353.221C372.454 356.616 374.458 359.215 376.981 361.454C380.186 362.617 383.076 362.916 386.36 361.948C389.483 360.115 391.358 358.043 392.695 354.67C392.839 353.115 392.839 353.115 392.695 351.844C393.63 351.844 394.564 351.844 395.527 351.844C395.574 352.426 395.62 353.009 395.668 353.61C396.368 357.218 398.185 359.405 401.19 361.454C403.494 362.834 405.636 362.725 408.229 362.397C411.427 361.567 413.547 359.628 415.347 356.931C415.949 355.129 416.049 353.73 415.914 351.844C417.035 351.844 418.156 351.844 419.311 351.844C419.314 352.326 419.314 352.326 419.316 352.817C419.471 355.918 420.065 357.831 422.258 360.071C424.761 362.081 427.234 362.758 430.425 362.549C433.516 362.055 435.465 360.661 437.575 358.38C439.133 356.102 439.698 354.62 439.698 351.844C440.633 351.844 441.567 351.844 442.53 351.844C442.576 352.52 442.623 353.196 442.671 353.893C442.993 356.348 443.714 357.854 445.361 359.758C448.218 361.827 450.864 362.742 454.422 362.584C458.108 361.481 460.268 359.632 462.244 356.366C462.906 354.696 463.073 353.615 462.916 351.844C463.851 351.844 464.785 351.844 465.748 351.844C465.935 352.963 466.122 354.082 466.314 355.235C468.88 352.28 471.298 348.788 472.544 345.06C472.168 344.848 471.792 344.636 471.404 344.417C468.593 342.791 466.203 341.278 464.049 338.841C463.77 339.23 463.77 339.23 463.485 339.627C460.945 342.899 458.283 344.599 454.168 345.294C450.355 345.521 447.357 344.372 444.229 342.233C443.103 341.155 442.295 340.126 441.397 338.841C441.023 339.249 440.65 339.658 440.265 340.078C437.179 343.158 433.76 345.106 429.363 345.201C426.073 345.136 423.407 344.623 421.019 342.244C420.326 341.436 419.65 340.612 418.997 339.771C418.727 339.464 418.457 339.157 418.179 338.841C417.805 338.841 417.431 338.841 417.046 338.841C416.432 339.539 415.846 340.262 415.277 340.997C412.925 343.737 410.852 344.778 407.291 345.214C403.509 345.383 400.452 344.438 397.367 342.269C396.152 341.157 394.972 340.026 393.828 338.841C393.642 339.101 393.456 339.36 393.264 339.627C390.731 342.889 388.053 344.646 383.927 345.274C380.445 345.441 377.492 344.728 374.574 342.798C373.547 341.793 372.662 340.772 371.795 339.627C371.591 339.368 371.387 339.109 371.176 338.841C370.989 338.841 370.802 338.841 370.61 338.841ZM393.828 358.062C393.548 358.563 393.267 359.065 392.979 359.581C391.317 362.082 388.752 363.743 385.895 364.636C382.864 365.2 379.836 364.879 376.839 364.28C386.409 374.789 401.917 379.289 415.67 380.25C430.633 380.544 445.182 375.499 456.687 365.976C456.874 365.603 457.061 365.23 457.253 364.846C456.616 364.885 456.616 364.885 455.966 364.925C451.563 365.08 447.253 364.848 443.855 361.719C443.096 360.818 443.096 360.818 441.963 359.193C441.403 358.633 441.403 358.633 440.831 358.062C440.445 358.668 440.06 359.275 439.663 359.899C437.854 362.433 435.847 363.58 432.938 364.704C428.664 365.222 425.114 364.888 421.563 362.322C418.93 360.128 418.93 360.128 418.179 358.627C417.805 358.627 417.431 358.627 417.046 358.627C416.272 359.455 416.272 359.455 415.489 360.5C413.483 362.918 411.133 364.384 407.985 364.846C403.866 365.12 400.801 364.427 397.367 362.09C396.038 360.836 394.924 359.521 393.828 358.062Z" fill="#8B734B" fill-opacity="0.1"/>
<path d="M195.618 141.072C198.572 142.752 200.633 145.512 201.7 148.685C202.101 152.714 201.918 156.088 199.424 159.4C197.256 161.736 195.182 163.149 192.026 163.912C191.838 164.842 191.65 165.773 191.457 166.731C195.588 166.731 199.72 166.731 203.977 166.731C203.977 167.662 203.977 168.593 203.977 169.551C199.845 169.551 195.714 169.551 191.457 169.551C191.457 187.045 191.457 204.539 191.457 222.562C204.014 220.366 213.978 216.816 221.796 206.525C223.75 203.725 225.381 200.875 226.74 197.749C226.983 197.192 226.983 197.192 227.231 196.625C228.947 192.143 229.431 187.238 230.155 182.522C231.094 182.522 232.033 182.522 233 182.522C232.632 194.343 228.984 205.011 220.48 213.539C212.247 221.154 202.829 225.382 191.457 225.382C191.738 233.478 191.738 233.478 192.026 241.737C195.218 238.573 198.411 235.409 201.7 232.149C202.827 232.708 202.827 232.708 203.977 233.277C203.57 236.612 200.427 238.78 198.141 241.035C197.255 241.912 196.383 242.8 195.51 243.689C194.951 244.247 194.39 244.804 193.829 245.36C193.32 245.869 192.811 246.377 192.286 246.901C190.888 247.94 190.888 247.94 189.759 248C188.086 247.09 186.841 245.829 185.526 244.484C185.095 244.053 185.095 244.053 184.655 243.614C183.741 242.698 182.833 241.777 181.925 240.855C181.305 240.233 180.685 239.61 180.064 238.988C178.546 237.465 177.033 235.937 175.522 234.405C176.649 233.289 176.649 233.289 177.799 232.149C181.179 235.499 184.559 238.849 188.042 242.3C188.23 236.717 188.418 231.134 188.611 225.382C186.733 225.382 184.855 225.382 182.921 225.382C172.221 223.547 161.856 217.77 155.464 208.957C150.026 201.028 146.456 192.275 147.068 182.522C148.007 182.522 148.946 182.522 149.914 182.522C150.059 183.574 150.059 183.574 150.207 184.648C150.948 189.784 151.673 194.695 153.897 199.44C154.136 199.953 154.375 200.465 154.622 200.994C156.653 204.992 159.258 208.121 162.433 211.283C162.812 211.678 163.191 212.073 163.581 212.48C170.405 219.101 179.374 221.545 188.611 222.562C188.611 205.069 188.611 187.575 188.611 169.551C184.48 169.551 180.348 169.551 176.091 169.551C176.279 168.621 176.467 167.69 176.661 166.731C180.604 166.731 184.548 166.731 188.611 166.731C188.424 165.801 188.236 164.87 188.042 163.912C187.094 163.289 187.094 163.289 185.908 163.031C182.531 161.949 180.497 160.316 178.819 157.133C177.426 153.687 177.555 150.51 178.895 147.073C180.309 144.279 182.046 142.445 184.734 140.825C188.393 139.815 192.062 139.553 195.618 141.072ZM182.138 146.888C180.709 149.666 180.287 151.931 181.213 154.924C182.32 157.464 183.902 159.171 186.335 160.528C189.065 161.436 191.29 161.354 193.911 160.176C196.424 158.742 197.931 157.072 198.855 154.325C199.163 151.693 199.122 149.769 197.895 147.381C196.172 145.397 194.247 143.249 191.503 142.911C187.344 142.777 184.91 143.634 182.138 146.888Z" fill="#8B734B" fill-opacity="0.1"/>
<path d="M547.618 141.072C550.572 142.752 552.633 145.512 553.7 148.685C554.101 152.714 553.918 156.088 551.424 159.4C549.256 161.736 547.182 163.149 544.026 163.912C543.838 164.842 543.65 165.773 543.457 166.731C547.588 166.731 551.72 166.731 555.977 166.731C555.977 167.662 555.977 168.593 555.977 169.551C551.845 169.551 547.714 169.551 543.457 169.551C543.457 187.045 543.457 204.539 543.457 222.562C556.014 220.366 565.978 216.816 573.796 206.525C575.75 203.725 577.381 200.875 578.74 197.749C578.983 197.192 578.983 197.192 579.231 196.625C580.947 192.143 581.431 187.238 582.155 182.522C583.094 182.522 584.033 182.522 585 182.522C584.632 194.343 580.984 205.011 572.48 213.539C564.247 221.154 554.829 225.382 543.457 225.382C543.738 233.478 543.738 233.478 544.026 241.737C547.218 238.573 550.411 235.409 553.7 232.149C554.827 232.708 554.827 232.708 555.977 233.277C555.57 236.612 552.427 238.78 550.141 241.035C549.255 241.912 548.383 242.8 547.51 243.689C546.951 244.247 546.39 244.804 545.829 245.36C545.32 245.869 544.811 246.377 544.286 246.901C542.888 247.94 542.888 247.94 541.759 248C540.086 247.09 538.841 245.829 537.526 244.484C537.095 244.053 537.095 244.053 536.655 243.614C535.741 242.698 534.833 241.777 533.925 240.855C533.305 240.233 532.685 239.61 532.064 238.988C530.546 237.465 529.033 235.937 527.522 234.405C528.649 233.289 528.649 233.289 529.799 232.149C533.179 235.499 536.559 238.849 540.042 242.3C540.23 236.717 540.418 231.134 540.611 225.382C538.733 225.382 536.855 225.382 534.921 225.382C524.221 223.547 513.856 217.77 507.464 208.957C502.026 201.028 498.456 192.275 499.068 182.522C500.007 182.522 500.946 182.522 501.914 182.522C502.059 183.574 502.059 183.574 502.207 184.648C502.948 189.784 503.673 194.695 505.897 199.44C506.136 199.953 506.375 200.465 506.622 200.994C508.653 204.992 511.258 208.121 514.433 211.283C514.812 211.678 515.191 212.073 515.581 212.48C522.405 219.101 531.374 221.545 540.611 222.562C540.611 205.069 540.611 187.575 540.611 169.551C536.48 169.551 532.348 169.551 528.091 169.551C528.279 168.621 528.467 167.69 528.661 166.731C532.604 166.731 536.548 166.731 540.611 166.731C540.424 165.801 540.236 164.87 540.042 163.912C539.094 163.289 539.094 163.289 537.908 163.031C534.531 161.949 532.497 160.316 530.819 157.133C529.426 153.687 529.555 150.51 530.895 147.073C532.309 144.279 534.046 142.445 536.734 140.825C540.393 139.815 544.062 139.553 547.618 141.072ZM534.138 146.888C532.709 149.666 532.287 151.931 533.213 154.924C534.32 157.464 535.902 159.171 538.335 160.528C541.065 161.436 543.29 161.354 545.911 160.176C548.424 158.742 549.931 157.072 550.855 154.325C551.163 151.693 551.122 149.769 549.895 147.381C548.172 145.397 546.247 143.249 543.503 142.911C539.344 142.777 536.91 143.634 534.138 146.888Z" fill="#8B734B" fill-opacity="0.1"/>
<path d="M26.0529 45C26.9833 45 27.9137 45 28.8723 45C28.9276 45.3315 28.9828 45.6629 29.0397 46.0045C29.8622 50.3586 31.3734 53.2954 35.0751 55.8571C38.3742 57.4165 41.8939 57.6627 45.4036 56.6071C48.5923 55.1356 50.5588 53.0473 52.1328 49.8571C52.609 48.2485 52.8907 46.6622 53.1196 45C54.05 45 54.9805 45 55.9391 45C56.2046 48.1614 55.5998 50.1166 54.1769 52.9353C53.5397 54.277 53.5397 54.277 53.6835 56.4286C54.4824 57.4292 54.4824 57.4292 55.3752 58.1429C55.003 58.8971 54.6308 59.6514 54.2474 60.4286C53.1901 60.25 53.1901 60.25 51.9918 59.8571C51.6197 59.2914 51.2475 58.7257 50.8641 58.1429C49.9336 58.3314 49.0032 58.52 48.0446 58.7143C48.4168 60.0343 48.7889 61.3543 49.1724 62.7143C48.242 63.0914 47.3115 63.4686 46.3529 63.8571C45.7947 62.7257 45.2364 61.5943 44.6613 60.4286C43.9169 60.4286 43.1726 60.4286 42.4057 60.4286C42.4057 61.9371 42.4057 63.4457 42.4057 65C41.4753 65 40.5449 65 39.5862 65C39.5862 63.4914 39.5862 61.9829 39.5862 60.4286C38.8419 60.4286 38.0976 60.4286 37.3307 60.4286C36.7724 61.56 36.2142 62.6914 35.639 63.8571C34.7086 63.48 33.7782 63.1029 32.8196 62.7143C33.3778 60.7343 33.3778 60.7343 33.9473 58.7143C33.0169 58.5257 32.0865 58.3371 31.1279 58.1429C30.5696 58.8971 30.0114 59.6514 29.4362 60.4286C28.3437 60.2143 28.3437 60.2143 27.1807 59.8571C26.9946 59.48 26.8085 59.1029 26.6168 58.7143C27.3611 57.7714 28.1054 56.8286 28.8723 55.8571C28.2391 54.2282 27.5785 52.6505 26.8282 51.0714C26.0111 48.8884 25.9132 47.3123 26.0529 45Z" fill="#8B734B" fill-opacity="0.1"/>
<path d="M378.053 45C378.983 45 379.914 45 380.872 45C380.928 45.3315 380.983 45.6629 381.04 46.0045C381.862 50.3586 383.373 53.2954 387.075 55.8571C390.374 57.4165 393.894 57.6627 397.404 56.6071C400.592 55.1356 402.559 53.0473 404.133 49.8571C404.609 48.2485 404.891 46.6622 405.12 45C406.05 45 406.98 45 407.939 45C408.205 48.1614 407.6 50.1166 406.177 52.9353C405.54 54.277 405.54 54.277 405.684 56.4286C406.482 57.4292 406.482 57.4292 407.375 58.1429C407.003 58.8971 406.631 59.6514 406.247 60.4286C405.19 60.25 405.19 60.25 403.992 59.8571C403.62 59.2914 403.247 58.7257 402.864 58.1429C401.934 58.3314 401.003 58.52 400.045 58.7143C400.417 60.0343 400.789 61.3543 401.172 62.7143C400.242 63.0914 399.312 63.4686 398.353 63.8571C397.795 62.7257 397.236 61.5943 396.661 60.4286C395.917 60.4286 395.173 60.4286 394.406 60.4286C394.406 61.9371 394.406 63.4457 394.406 65C393.475 65 392.545 65 391.586 65C391.586 63.4914 391.586 61.9829 391.586 60.4286C390.842 60.4286 390.098 60.4286 389.331 60.4286C388.772 61.56 388.214 62.6914 387.639 63.8571C386.709 63.48 385.778 63.1029 384.82 62.7143C385.378 60.7343 385.378 60.7343 385.947 58.7143C385.017 58.5257 384.087 58.3371 383.128 58.1429C382.57 58.8971 382.011 59.6514 381.436 60.4286C380.344 60.2143 380.344 60.2143 379.181 59.8571C378.995 59.48 378.808 59.1029 378.617 58.7143C379.361 57.7714 380.105 56.8286 380.872 55.8571C380.239 54.2282 379.578 52.6505 378.828 51.0714C378.011 48.8884 377.913 47.3123 378.053 45Z" fill="#8B734B" fill-opacity="0.1"/>
<path d="M29.44 182.147C32.0425 183.398 33.7193 184.637 34.8128 187.216C35.1497 189.64 35.098 191.634 34.1039 193.905C32.4646 195.718 31.1992 196.641 28.6424 196.971C25.235 197.116 23.112 196.769 20.4852 194.538C18.865 192.038 18.7497 189.5 19.2912 186.653C21.6405 182.766 24.719 181.54 29.44 182.147ZM22.2762 187.78C21.9031 190.009 21.912 191.164 23.1716 193.095C24.9816 194.162 26.1929 194.336 28.302 194.228C29.6093 194.023 29.6093 194.023 30.9324 192.778C31.9939 190.859 32.2515 189.911 31.8279 187.78C30.3618 185.908 29.4844 185.09 27.052 184.611C24.6002 185.093 23.7364 185.875 22.2762 187.78Z" fill="#8B734B" fill-opacity="0.1"/>
<path d="M381.44 182.147C384.042 183.398 385.719 184.637 386.813 187.216C387.15 189.64 387.098 191.634 386.104 193.905C384.465 195.718 383.199 196.641 380.642 196.971C377.235 197.116 375.112 196.769 372.485 194.538C370.865 192.038 370.75 189.5 371.291 186.653C373.641 182.766 376.719 181.54 381.44 182.147ZM374.276 187.78C373.903 190.009 373.912 191.164 375.172 193.095C376.982 194.162 378.193 194.336 380.302 194.228C381.609 194.023 381.609 194.023 382.932 192.778C383.994 190.859 384.252 189.911 383.828 187.78C382.362 185.908 381.484 185.09 379.052 184.611C376.6 185.093 375.736 185.875 374.276 187.78Z" fill="#8B734B" fill-opacity="0.1"/>
</svg>
