<svg width="16" height="24" viewBox="0 0 16 24" fill="none" xmlns="http://www.w3.org/2000/svg">
<path d="M6.06659 0.626221C5.91786 0.626221 5.77522 0.688454 5.67005 0.799231C5.56488 0.910007 5.5058 1.06025 5.5058 1.21691V5.39453H1.12159V1.21691C1.12159 1.06025 1.06251 0.910007 0.957336 0.799231C0.852167 0.688454 0.709527 0.626221 0.560795 0.626221C0.412064 0.626221 0.269424 0.688454 0.164254 0.799231C0.0590853 0.910007 1.92643e-06 1.06025 1.92643e-06 1.21691V6.5443C-0.00070784 7.22857 0.194725 7.89712 0.560722 8.46246C0.810802 8.85557 1.13404 9.19113 1.51085 9.4488C1.88766 9.70646 2.31021 9.88089 2.7529 9.9615V12.6565C2.27372 12.7594 1.82769 12.9903 1.4576 13.327C1.39638 13.3824 1.34725 13.4512 1.31357 13.5285C1.27989 13.6058 1.26245 13.6898 1.26244 13.7749V21.8358C1.262 22.1198 1.31472 22.4012 1.41761 22.6637C1.5205 22.9263 1.67152 23.1649 1.86204 23.3659C2.05256 23.5669 2.27884 23.7264 2.52793 23.8352C2.77702 23.944 3.04403 24 3.31369 24C3.58335 24 3.85037 23.944 4.09946 23.8352C4.34855 23.7264 4.57483 23.5669 4.76535 23.3659C4.95587 23.1649 5.10689 22.9263 5.20978 22.6637C5.31266 22.4012 5.36539 22.1198 5.36494 21.8358V13.7748C5.36494 13.6898 5.3475 13.6057 5.31382 13.5284C5.28014 13.4511 5.23101 13.3824 5.16979 13.327C4.7997 12.9902 4.35367 12.7594 3.87449 12.6565V9.96147C4.31718 9.88086 4.73973 9.70644 5.11654 9.44877C5.49335 9.1911 5.81659 8.85554 6.06666 8.46243C6.43266 7.89709 6.6281 7.22854 6.62738 6.54427V1.21691C6.62738 1.13934 6.61288 1.06253 6.5847 0.990865C6.55651 0.919199 6.51521 0.854081 6.46313 0.799231C6.41106 0.74438 6.34924 0.700869 6.2812 0.671184C6.21316 0.641499 6.14023 0.626221 6.06659 0.626221Z" fill="#285484"/>
<path d="M3.31372 5.02912C3.46245 5.02912 3.60509 4.96689 3.71026 4.85612C3.81543 4.74534 3.87452 4.59509 3.87452 4.43843V1.21691C3.87452 1.06025 3.81543 0.910007 3.71026 0.799231C3.60509 0.688454 3.46245 0.626221 3.31372 0.626221C3.16499 0.626221 3.02235 0.688454 2.91718 0.799231C2.81201 0.910007 2.75293 1.06025 2.75293 1.21691V4.43846C2.75294 4.59512 2.81202 4.74536 2.91719 4.85613C3.02236 4.9669 3.165 5.02912 3.31372 5.02912Z" fill="#285484"/>
<path d="M15.9995 4.98102C15.9995 2.23447 14.2333 0 12.0623 0C9.89128 0 8.125 2.23447 8.125 4.98102C8.125 7.48662 9.59524 9.56512 11.5015 9.91064V12.6565C11.0223 12.7594 10.5763 12.9903 10.2062 13.327C10.145 13.3824 10.0958 13.4511 10.0621 13.5284C10.0285 13.6057 10.011 13.6898 10.011 13.7749V21.8358C10.0106 22.1198 10.0633 22.4012 10.1662 22.6637C10.2691 22.9263 10.4201 23.1649 10.6106 23.3659C10.8011 23.5669 11.0274 23.7264 11.2765 23.8352C11.5256 23.944 11.7926 24 12.0623 24C12.3319 24 12.5989 23.944 12.848 23.8352C13.0971 23.7264 13.3234 23.5669 13.5139 23.3659C13.7044 23.1649 13.8555 22.9263 13.9583 22.6637C14.0612 22.4012 14.114 22.1198 14.1135 21.8358V13.7749C14.1135 13.6898 14.0961 13.6057 14.0624 13.5284C14.0287 13.4511 13.9796 13.3824 13.9183 13.327C13.5483 12.9902 13.1023 12.7594 12.6231 12.6565V9.91064C14.5293 9.56512 15.9995 7.48662 15.9995 4.98102ZM12.0062 8.86923C11.8798 8.86923 11.7585 8.81633 11.6691 8.72217C11.5797 8.62801 11.5295 8.50031 11.5295 8.36714C11.5295 8.23398 11.5797 8.10627 11.6691 8.01211C11.7585 7.91795 11.8798 7.86506 12.0062 7.86506C13.1413 7.86506 14.0648 6.51828 14.0648 4.86288C14.0648 4.72972 14.115 4.60201 14.2044 4.50785C14.2938 4.41369 14.415 4.36079 14.5414 4.36079C14.6678 4.36079 14.7891 4.41369 14.8785 4.50785C14.9679 4.60201 15.0181 4.72972 15.0181 4.86288C15.0181 7.07198 13.6669 8.86923 12.0062 8.86923Z" fill="#285484"/>
</svg>
