<svg width="345" height="258" viewBox="0 0 345 258" fill="none" xmlns="http://www.w3.org/2000/svg">
<path fill-rule="evenodd" clip-rule="evenodd" d="M53.479 0.147766H34.4962V0.909387H32.9776C25.6156 2.38628 16.9426 7.6412 12.2909 13.5104L11.7169 14.2378C7.04674 19.5492 3.93511 25.5204 2.12917 32.3545C-0.673276 43.9863 1.39322 56.0002 7.474 66.2318C13.5811 76.1781 23.3917 82.8628 34.6297 85.6041L35.6352 85.8302C26.2161 87.9161 17.2727 92.2608 10.9576 99.7595L10.1983 100.682C5.90635 105.369 3.01572 111.366 1.36365 117.48C-1.42931 128.877 0.0457924 140.874 5.99412 151.029C12.257 161.496 22.0237 168.283 33.7903 171.246L34.8759 171.513V171.893C31.6884 172.743 28.5293 173.624 25.5269 175.011C15.4011 179.877 7.17234 188.585 3.35193 199.242C-0.606782 211.004 -0.0154968 223.221 5.39897 234.408C10.6653 244.802 20.028 252.382 30.9488 256.151C41.6592 259.304 53.4302 258.455 63.393 253.372C75.0375 247.165 82.0838 237.205 85.9335 224.708L86.1293 224.064C87.9052 231.974 91.8685 239.834 97.8244 245.409L98.6579 246.152C106.089 253.037 115.382 257.316 125.542 257.909C137.155 258.376 148.51 254.919 157.191 246.973C165.376 239.192 170.949 228.72 171.264 217.286C171.423 205.654 168.77 194.261 160.534 185.601L159.782 184.841L158.857 183.865L157.884 182.937C155.755 180.887 153.612 179.043 151.08 177.51L149.911 176.844C145.625 174.378 141.278 172.909 136.5 171.674L135.864 171.513C139.634 170.862 143.453 169.503 146.859 167.772C158.061 161.77 165.54 152.425 169.274 140.286C172.449 129.445 170.451 117.229 165.186 107.423C159.004 96.3013 149.2 89.8003 137.215 86.2229L135.864 85.8302C142.729 84.2921 148.692 81.9114 154.467 77.8332C163.372 71.0093 169.306 60.8441 171.125 49.8198C172.785 38.5449 170.339 26.6635 163.521 17.4256L162.82 16.5226C161.176 14.3864 159.562 12.2947 157.452 10.6022L156.745 10.0488C153.528 7.36077 150.316 4.95392 146.457 3.2769L145.64 2.93244C144.863 2.60072 144.087 2.29038 143.293 2.0032L142.318 1.67101C137.951 0.142892 133.922 -0.0583187 129.323 0.0119343C128.583 0.0232562 127.843 0.0310024 127.103 0.0353631C126.37 0.0383636 125.637 0.0424521 124.904 0.0477109L123.855 0.0570254C118.105 0.106118 112.685 1.88697 107.679 4.7121L107.01 5.09831C96.6058 11.1046 90.2931 20.5937 86.5905 31.8398L86.1293 33.2783C85.6294 31.1966 85.0788 29.139 84.2957 27.145C79.6693 16.2418 71.7047 7.33784 60.6653 2.79011L59.767 2.43263C58.1175 1.77575 56.5608 1.25263 54.7944 1.02839L53.479 0.909387V0.147766ZM26.0252 8.19239C25.4277 7.8022 24.8331 7.40745 24.2455 7.00236C34.4963 -2.37294 54.5542 0.779653 65.2498 7.40102L66.3872 8.14479C70.9722 10.9895 75.8343 15.3615 78.1565 20.3307C77.6925 20.6151 77.4426 20.7682 77.1829 20.9024C76.88 21.059 76.5638 21.1898 75.8786 21.4732C73.8869 21.6872 72.6222 21.4291 70.9431 20.3307C69.1791 18.8494 68.834 17.4181 68.4516 15.1898C68.3423 14.4458 68.2886 14.0799 68.2187 13.7172C68.1511 13.3663 68.0685 13.0183 67.9059 12.3337C66.7387 10.2801 65.5678 8.97418 63.35 8.14479C61.0046 7.78061 58.7819 7.74159 56.6823 8.95401C54.7134 10.4508 53.8739 11.9499 53.479 14.3806C53.3132 15.4176 53.1374 16.401 52.8235 17.4033C51.9252 19.4717 50.6245 20.6201 48.5435 21.4732C46.6064 21.7854 45.2868 21.328 43.5679 20.5063C42.1001 19.371 41.4239 18.0603 40.9993 16.2727C40.784 14.8072 40.5315 13.3941 40.1911 11.9529C39.4158 10.3485 38.0199 9.23846 36.4583 8.40511C34.4028 7.75501 31.9705 7.84683 29.9404 8.5256L29.0461 8.99864C28.544 9.1988 28.2892 9.30042 28.0404 9.28715C27.7839 9.27347 27.5339 9.13765 27.0262 8.86179L26.0252 8.19239ZM113.739 10.8224C111.07 10.6342 108.068 9.8221 106.251 7.76398C112.346 4.17965 119.538 1.10835 126.752 1.67101C126.291 2.99764 126.059 3.66504 125.73 4.28067C125.397 4.90391 124.965 5.47411 124.095 6.62155C121.431 9.29348 117.475 10.7709 113.739 10.8224ZM136.932 9.28722C133.928 7.64452 131.608 4.93015 130.549 1.67101C137.792 1.39277 144.502 4.16861 150.671 7.76398V8.5256C149.661 9.09876 148.7 9.60104 147.633 10.0488C143.942 11.1795 140.459 10.8261 136.932 9.28722ZM128.176 3.63605L128.651 2.81344C129.211 3.4677 129.492 3.79602 129.743 4.14564C129.996 4.49782 130.22 4.87161 130.668 5.62192C130.999 6.17616 131.164 6.45209 131.34 6.72093C131.514 6.98748 131.699 7.24705 132.068 7.76398C134.828 10.2413 137.895 11.7242 141.551 12.2474L142.318 12.3337C142.091 15.4697 141.215 17.9517 139.21 20.4021C136.336 23.4813 132.881 25.2647 128.651 25.4241C125.142 25.2972 121.856 24.0722 119.291 21.6398C116.759 18.8474 115.45 16.1247 115.363 12.3337C116.274 12.2034 117.172 12.0417 118.074 11.8577C122.771 10.6217 125.729 7.70647 128.176 3.63605ZM2.91684 46.216C2.55655 34.7326 5.60748 23.5823 13.5796 15.0306C14.0141 14.5973 14.4671 14.1153 14.9374 13.6149C17.7802 10.5901 21.2544 6.8936 25.0733 9.21657C35.3557 15.9356 41.3014 25.7129 44.1743 37.5537C44.3019 38.0802 44.4307 38.6065 44.5606 39.1325C44.9052 40.5221 45.2478 41.9121 45.5871 43.3029C45.9377 44.7398 46.291 46.176 46.6454 47.612C47.4087 50.7032 48.1673 53.7955 48.9231 56.8886L42.469 57.2694C42.074 59.4015 41.5741 61.1912 40.5625 63.1073L40.1199 63.9098C38.7854 66.3865 37.3421 68.738 35.6352 70.9786C33.7646 70.7318 32.2459 70.3984 30.7709 69.1697C28.7799 67.2468 27.8919 65.6488 27.6921 62.8893L27.6624 62.2199H25.7642C25.9945 63.8718 26.2789 65.4487 26.9298 66.9905C28.4891 69.9464 30.2816 71.0529 33.3528 72.2222L34.1166 72.5018C32.2318 75.3376 28.7091 78.4897 25.5032 79.761C24.5889 79.8041 24.5889 79.8041 23.7636 79.2567L22.7269 78.5948C20.7825 77.3705 18.8733 76.1086 17.1367 74.5979C9.16698 67.2364 3.56533 57.1994 2.91684 46.216ZM95.0749 18.4981C96.2472 16.877 97.4508 15.3408 98.8477 13.9046C99.0752 13.6878 99.3559 13.3944 99.6753 13.0606C101.322 11.3391 103.997 8.54427 105.677 9.66357C107.699 11.1356 109.681 11.6492 112.112 12.1507L113.085 12.3337C113.128 13.4744 113.127 14.4606 112.833 15.5676C111.149 19.7561 108.75 22.7079 104.537 24.5583C100.21 26.0185 96.5955 25.2622 92.5834 23.3772C93.0241 21.7854 93.6373 20.5222 94.5855 19.1699L95.0749 18.4981ZM30.4846 11.2731L29.9404 10.8105C30.7649 10.0849 31.2869 9.69376 32.3844 9.52969L33.3573 9.54903C34.7127 9.55525 35.6144 9.71302 36.7742 10.4297C38.0615 11.6902 38.7294 12.5872 39.0995 14.3568C39.4302 16.1644 39.8401 17.8772 40.5707 19.5691C41.5522 21.2938 42.8173 22.2234 44.6772 22.8194C46.7861 23.2697 48.9013 23.3047 50.8214 22.2348C52.6649 20.9719 54.0057 19.6164 54.4474 17.3571C54.481 17.1224 54.5128 16.8879 54.5446 16.6539C54.7118 15.4232 54.8775 14.2036 55.2868 13.0224C56.1731 11.2857 57.3541 10.2693 59.1738 9.66803C61.2975 9.34146 63.0969 9.518 64.8686 10.8105C66.1464 12.2901 66.8393 13.6885 67.0279 15.642C67.0644 16.1896 67.1035 16.7371 67.1465 17.2843C67.781 19.5645 69.1967 21.2291 71.2278 22.3776C73.5321 23.4159 75.6505 23.2903 77.9904 22.4252L79.2955 21.854L79.8071 22.6067L80.4582 23.6152C81.2398 24.7991 81.6005 25.359 81.4726 26.7896L81.1938 27.947C81.1789 28.0601 81.1643 28.1727 81.1497 28.2849C80.8957 30.2378 80.6605 32.0464 79.7938 33.8495C78.7387 34.9936 77.7263 35.8186 76.2583 36.3248C74.4202 36.5739 72.9354 36.5376 71.3227 35.5632C69.6865 34.2164 68.9354 32.8953 68.594 30.803C68.4199 29.5537 68.2528 28.4082 67.7872 27.2329C66.5522 24.939 65.068 23.7704 62.5907 22.9964C60.3358 22.6934 58.4027 22.8558 56.4213 24.0258C54.1988 25.6778 53.7198 27.4637 53.2654 30.089C52.8812 32.7098 52.1719 33.9637 50.1807 35.6822C48.562 36.5093 47.2857 36.4676 45.5062 36.3248C43.236 26.1813 38.3477 18.0531 30.4846 11.2731ZM144.216 12.3337C146.338 12.0304 148.148 11.5767 150.054 10.5725C151.358 9.83527 151.764 9.66803 153.328 9.66803C157.909 12.5293 162.31 18.2074 164.718 22.9964L164.338 23.758C162.868 24.4335 161.351 24.8944 159.782 25.2813C156.007 25.639 152.837 24.8258 149.674 22.7108C146.472 19.6684 144.542 16.819 144.216 12.3337ZM141.624 19.7403C142.098 18.9146 142.57 18.0905 143.078 17.2843H143.457C143.927 18.3401 144.402 19.3306 144.976 20.3307C147.684 24.2067 151.277 25.7649 155.716 26.9324L156.745 27.1853C156.745 29.5548 156.128 31.236 154.989 33.2783C152.855 36.6692 150.007 38.7432 146.115 39.7521C141.404 40.1571 137.826 39.5396 134.108 36.5152C131.446 34.0393 129.929 30.8169 129.79 27.1853C134.632 26.0437 138.684 24.4965 141.433 20.0734C141.497 19.9624 141.56 19.8513 141.624 19.7403ZM112.871 19.3787C113.177 18.7976 113.497 18.2225 113.844 17.6651H114.603C114.979 18.5034 115.393 19.3044 115.839 20.1076C118.594 24.1999 122.393 25.9134 127.002 26.989L127.891 27.1853C127.514 29.0339 127.125 30.8745 126.388 32.6163C124.555 35.8292 121.574 38.42 118.051 39.5319C113.687 40.353 110.055 39.715 106.251 37.4672C102.786 34.7257 101.424 31.433 100.556 27.1853C101.356 27.0406 102.156 26.8888 102.948 26.7078C107.256 25.5134 110.598 23.273 112.871 19.3787ZM54.8071 30.7484C55.0613 29.2713 55.2544 28.1495 56.0416 26.8521C58.4234 24.5959 61.0259 23.4093 64.1093 25.2813C66.1207 26.9617 66.6579 28.5995 67.0131 31.1526C67.1719 32.3224 67.442 33.3351 67.9059 34.4207C69.0281 36.2391 70.4436 37.2314 72.4617 37.848C74.8442 38.0831 76.7836 38.0396 78.8921 36.8246C81.1583 35.1082 81.7579 33.3128 82.22 30.6037L82.3327 29.851H83.092C83.2739 30.4839 83.455 31.117 83.6319 31.7513L83.8514 32.5405C84.4165 34.492 84.696 36.1709 84.6107 38.2288L83.8514 38.6097C82.0262 40.2846 81.417 41.5207 80.9328 43.9648C80.7895 44.8495 80.6239 45.7308 80.4345 46.6067C79.5125 48.8331 78.4592 49.8771 76.2583 50.7956C74.5229 51.106 72.84 50.9551 71.3227 50.034C69.6149 48.7317 68.9648 47.3867 68.5783 45.2738C68.5441 45.068 68.511 44.8623 68.4781 44.6569C68.2639 43.323 68.052 42.0032 67.5232 40.7473C66.4047 39.0346 64.9076 38.0093 62.9703 37.4672C60.5849 37.2381 58.6518 37.2737 56.5399 38.4907C54.5854 39.971 53.8561 41.3404 53.4552 43.7268C52.97 46.7928 52.2199 48.5483 49.6824 50.4148C49.2549 50.2572 49.051 50.182 48.9265 50.0381C48.813 49.9069 48.7655 49.7184 48.6747 49.3581L48.4604 48.478L48.2197 47.504L47.974 46.4639C47.3116 43.7347 46.6911 41.007 46.2655 38.2288C48.3051 38.0525 49.8086 37.8116 51.5807 36.7056C53.5935 35.0623 54.3306 33.2798 54.8018 30.7792L54.8071 30.7484ZM87.6242 38.3716C87.5439 33.7003 89.4016 29.0155 91.4445 24.9005C92.5732 25.2779 93.7071 25.6359 94.8428 25.9916L95.6918 26.2571L97.3692 26.7822L98.6579 27.1853C98.3137 30.5691 98.3137 30.5691 96.7596 33.6591L96.7596 33.6591C94.6726 36.9504 91.3192 38.7596 87.6479 39.7521L87.6242 38.3716ZM158.835 27.1484C160.194 26.8861 161.545 26.6255 162.839 26.1188C162.879 26.1004 162.919 26.0822 162.959 26.0643C163.984 25.599 164.684 25.2813 165.857 25.2813C167.873 29.8111 169.179 34.3904 169.274 39.3713C167.542 38.9799 166.664 38.7815 165.867 38.4109C165.046 38.0298 164.311 37.4667 162.82 36.3248C160.33 33.7588 159.131 30.6795 158.643 27.1853L158.835 27.1484ZM156.959 33.0403L157.504 31.7551H157.884L158.311 32.7071C160.734 37.244 163.88 39.6133 168.694 41.3333L169.653 41.6561C169.662 41.9301 169.674 42.2066 169.685 42.4847C169.788 44.9583 169.895 47.5588 168.359 49.6041C165.699 52.4301 162.372 54.3437 158.468 54.6855C154.606 54.7434 150.946 53.3835 148.06 50.748C145.783 48.2234 144.347 45.0527 144.216 41.6561C145.51 41.4897 146.754 41.2347 148.013 40.8945C152.061 39.3922 154.989 36.9228 156.959 33.0403ZM98.4206 33.8733C98.7449 33.2897 99.0747 32.7089 99.4172 32.1359H99.7969L100.309 32.9585L100.96 34.0637C103.753 38.5121 107.207 40.2956 112.195 41.4598L113.085 41.6561C113.208 45.0645 111.829 47.8038 109.684 50.3999C107.095 52.9922 103.413 54.6007 99.7494 54.7227C95.717 54.3965 92.3528 53.0549 89.5462 50.0816C87.3007 47.3883 87.1458 45.0463 87.2682 41.6561L88.3123 41.4181C92.8208 40.1037 96.0262 37.8893 98.4206 33.8733ZM127.346 34.2303C127.776 33.5291 128.209 32.8298 128.651 32.1359H129.03C129.609 33.3153 130.23 34.4504 130.929 35.5632C133.652 39.0157 137.144 40.6344 141.372 41.4866L142.318 41.6561C142.04 44.8611 141.011 47.8279 138.778 50.1902L138.142 50.7956C135.656 53.1632 132.688 54.2093 129.324 54.7361C125.693 54.9084 122.29 53.4497 119.539 51.1764C116.867 48.4966 115.543 45.4008 115.363 41.6561L116.241 41.5609C121.15 40.5594 124.557 38.4503 127.346 34.2303ZM54.5462 45.9601C54.7464 44.4699 54.9408 43.0228 55.6383 41.6561C57.7276 38.9374 61.024 37.8878 64.1093 39.7521C65.7455 41.0988 66.4966 42.42 66.8381 44.5122C67.0121 45.7616 67.1792 46.9071 67.6448 48.0823C68.7724 50.1768 70.2172 51.5267 72.4617 52.3188C74.8476 52.5077 76.7784 52.5134 78.8921 51.2954C81.1215 49.6069 81.7097 47.889 82.1741 45.2337C82.5844 42.8757 83.2785 41.7836 84.9903 40.1329C84.9982 41.0433 85.0044 41.9536 85.0089 42.864L85.0141 43.9886C85.0149 44.0902 85.0159 44.1918 85.0168 44.2933C85.0325 45.9907 85.0481 47.6666 84.8376 49.3557L84.6107 50.4148C82.7733 59.3523 78.5482 68.2025 71.4028 74.1232L70.5634 74.7867C63.1504 80.7651 54.8632 84.2924 45.3175 84.4194L43.8927 84.4259C40.095 84.4441 36.5302 84.1913 32.8827 83.0812L31.459 82.5933C30.0829 82.1351 28.8817 81.6949 27.6624 80.8796C34.1102 76.284 38.7983 70.41 42.1694 63.282C42.7105 62.1556 42.981 61.5924 43.2557 61.0312C43.5304 60.47 43.8094 59.9109 44.3673 58.7926H51.201L49.6824 52.3188L50.8214 51.5572C52.6477 50.2421 54.0001 48.9673 54.4474 46.6796C54.4819 46.4388 54.5141 46.1989 54.5462 45.9601ZM113.275 47.9157L113.844 46.6067H114.224L114.583 47.166L115.031 47.9395C117.983 52.7148 121.502 54.8448 126.862 56.2549L127.891 56.5078C127.564 58.7135 127.029 60.6217 125.993 62.6007C123.66 65.7991 120.741 68.0782 116.881 69.0745C113.145 69.3699 110.226 69.0997 107.01 67.1705C103.151 64.3795 101.447 61.1403 100.556 56.5078C101.97 56.1894 103.352 55.8095 104.732 55.3653C108.654 53.8293 111.347 51.7089 113.275 47.9157ZM142.686 47.3326L143.078 46.6067C143.479 46.9761 143.676 47.1576 143.836 47.3677C143.991 47.5707 144.11 47.8004 144.346 48.2519C147.01 52.9434 150.548 54.8094 155.563 56.1984L156.745 56.5078C156.745 59.2902 155.605 61.8544 154.006 64.0853C151.524 67.0162 148.3 68.8371 144.466 69.192C140.271 69.274 136.842 68.2545 133.663 65.4196C131.35 62.8903 129.979 59.9267 129.79 56.5078C130.408 56.3627 131.025 56.2104 131.64 56.0555C136.865 54.6025 140.017 52.0608 142.686 47.3326ZM85.7378 53.0091L86.1293 51.5572H86.5089C87.6346 56.6518 89.4218 61.2058 92.0525 65.6948C98.3348 76.0724 108.118 82.2472 119.666 85.1132L121.058 85.4494V85.8302C112.673 87.7247 103.857 91.1844 97.8541 97.6085L97.1393 98.3969C91.9922 103.711 88.7353 109.513 86.6039 116.604C86.457 117.123 86.3089 117.641 86.159 118.159C86.0096 118.836 85.943 119.139 85.7605 119.331C85.6136 119.487 85.3914 119.571 84.9903 119.722C84.1261 114.877 82.1315 110.251 79.6752 106.013C73.3169 95.6394 63.4074 89.3752 51.8061 86.5338L50.4417 86.211V85.8302C55.4962 84.8884 60.3613 83.3774 64.8686 80.8796C75.703 74.6644 82.4196 64.9189 85.7378 53.0091ZM93.7224 65.2664C91.254 60.9068 89.1627 56.5673 88.4072 51.5572L89.5462 52.3188C91.9364 54.476 94.3962 55.2999 97.4359 56.1716L98.6579 56.5078C98.6579 59.6217 97.2584 62.3032 95.4175 64.7473C95.1651 65.0353 95.0248 65.1955 94.8482 65.2732C94.627 65.3706 94.3488 65.3385 93.7224 65.2664ZM167.601 52.7517L168.135 52.3188L168.514 53.0805C167.479 57.4785 165.389 61.3566 163.199 65.2664L162.314 64.603C159.837 62.5008 159.079 59.6324 158.643 56.5078L158.713 56.4885C161.927 55.5945 164.88 54.7733 167.601 52.7517ZM99.082 61.8168L99.4172 61.0775C99.8118 61.4449 100.01 61.6293 100.176 61.8389C100.344 62.0502 100.48 62.2871 100.752 62.7629L101.41 63.8622C103.995 67.953 107.571 69.7445 112.208 70.7956L113.085 70.9786C113.101 72.1532 113.102 73.1842 112.848 74.3345L112.809 74.4234C112.052 76.1851 111.089 78.4257 109.346 79.346C108.246 79.0508 107.684 78.8999 107.174 78.6437C106.641 78.3757 106.166 77.9925 105.194 77.2084L103.973 76.3099C100.54 73.8003 97.9075 70.8327 95.241 67.5513C96.3236 66.3501 97.3392 65.1938 98.1566 63.7923L98.6105 62.8149L99.082 61.8168ZM127.607 62.8387C127.945 62.2459 128.29 61.6568 128.651 61.0775H129.03C129.59 62.3942 130.207 63.6504 130.929 64.8856C133.675 68.4339 137.195 69.8215 141.455 70.7956L142.318 70.9786C142.318 73.9833 141.023 76.5145 139.262 78.8774C136.789 81.7506 133.54 83.4632 129.79 83.8785C126.188 84.0665 122.985 83.2298 120.175 80.9139C117.123 78.0446 115.565 75.1767 115.363 70.9786C116 70.8755 116.631 70.7395 117.261 70.5978C122.013 69.3404 125.087 67.0708 127.607 62.8387ZM157.126 61.8867L157.504 61.0775C158.096 61.8563 158.671 62.6407 159.226 63.4457L159.806 64.3144C160.512 65.3661 161.138 66.4058 161.681 67.5513C157.907 72.4469 153.608 76.0668 148.393 79.3564C147.659 79.1176 147.659 79.1176 146.874 78.5948C145.319 76.2203 144.325 73.8186 144.216 70.9786C145.748 70.6406 147.264 70.2671 148.772 69.8361C152.72 68.4206 155.282 65.5764 157.126 61.8867ZM142.673 76.3709L143.078 75.5483C143.534 76.2355 143.982 76.9295 144.409 77.6353L145.023 78.6662C145.387 79.2769 145.751 79.8877 146.115 80.4988C145.49 80.7655 144.865 81.0312 144.239 81.2924L143.457 81.6175C141.41 82.497 139.607 82.9678 137.383 83.1645L138.142 82.4029C140.163 80.6109 141.435 78.779 142.673 76.3709ZM113.132 77.3334C113.369 76.8649 113.606 76.3967 113.844 75.9291H114.603C115.879 78.7953 117.508 80.9368 119.895 82.9741L120.678 83.5453C117.439 83.1091 114.577 82.1377 111.566 80.8796C111.928 79.9455 112.301 79.0277 112.732 78.1232L113.132 77.3334ZM2.22557 125.435C1.80264 117.374 6.45005 108.329 11.3373 102.205C20.7313 91.5194 33.2503 86.3115 47.4045 87.3534C57.6336 88.5107 67.196 93.3666 73.924 101.211L74.7396 102.205C77.622 105.682 80.9366 110.167 81.5734 114.772L80.4345 115.533C80.2453 115.659 80.0559 115.785 79.8667 115.91C77.6012 117.413 75.3486 118.907 73.4791 120.908L72.8414 121.626C72.2555 122.276 71.6703 122.927 71.0855 123.578C69.9393 124.877 68.7578 126.121 67.5262 127.339C65.5238 124.574 63.5366 121.993 60.9267 119.767L59.9331 118.961C51.2348 111.791 41.0455 109.239 30.0101 109.884C20.5823 110.772 10.8561 115.459 4.75265 122.775C3.96314 123.724 3.10984 124.575 2.22557 125.435ZM108.787 91.7536L110.048 91.1615C122.388 85.3516 137.274 85.8315 148.916 93.1682L149.911 93.8272C154.125 96.46 157.61 99.987 160.62 103.934L161.301 104.871C167.652 113.543 169.236 123.667 168.514 134.193C167.256 144.069 162.37 153.375 154.868 159.876L153.708 160.85C152.033 162.257 150.339 163.578 148.452 164.689C138.239 170.377 126.909 171.806 115.671 168.585C104.693 165.061 96.1934 157.647 90.6931 147.514C85.5803 137.564 85.2509 125.918 88.4547 115.343C92.0386 105.235 99.1754 96.6088 108.787 91.7536ZM27.8523 116.604C27.2034 115.122 26.6359 113.648 26.1438 112.106C28.1709 111.75 30.201 111.411 32.258 111.302C42.2811 111.03 52.1699 113.951 59.6128 120.944L60.3128 121.626C61.2618 122.531 62.1572 123.474 63.0578 124.426L63.9907 125.435C65.1069 126.639 65.9471 127.639 66.3872 129.243C66.1381 129.804 66.0312 130.045 65.8905 130.264C65.7847 130.429 65.6599 130.582 65.4411 130.849L64.8686 131.527C61.5818 135.546 57.7413 139.074 53.1764 141.573L51.9604 142.19C43.17 146.688 33.8301 147.551 24.2455 145.237L25.0049 144.094C26.1462 142.604 27.0831 141.132 27.8271 139.4C30.4452 132.075 30.8666 123.87 27.8523 116.604ZM2.22557 129.243C4.58378 125.34 4.58378 125.34 7.83141 122.093C11.6505 118.384 18.259 112.868 23.8659 112.868C27.3163 116.796 28.2207 122.261 28.4218 127.339C28.4152 133.713 26.9159 139.866 22.3473 144.475C16.2584 143.135 9.69744 138.606 5.82487 133.777C5.37291 133.193 4.91343 132.615 4.45159 132.039C3.70594 131.11 2.9644 130.177 2.22557 129.243ZM70.7045 126.342C71.181 125.558 71.8508 124.893 73.221 123.53C73.4275 123.323 73.6685 123.076 73.9376 122.799C76.0503 120.627 79.893 116.676 82.3327 116.676C85.5595 122.08 84.6729 131.155 83.6052 137.083L83.3293 138.358C83.2037 139.033 83.1453 139.347 83.0596 139.653C82.9851 139.92 82.8901 140.18 82.7124 140.667L81.5734 141.048C78.6281 139.436 76.044 137.241 73.7416 134.81L72.8414 133.812C72.6756 133.63 72.509 133.449 72.3423 133.268C71.2838 132.118 70.2265 130.97 69.4245 129.623C69.97 127.948 70.2489 127.091 70.7045 126.342ZM66.0076 132.622C66.4967 131.99 66.9983 131.366 67.5262 130.766H68.2855C68.6766 131.268 69.0641 131.774 69.4318 132.294C72.2255 136.249 75.7268 139.301 79.8175 141.857C80.4139 142.203 81.004 142.562 81.5734 142.952V143.713C79.1759 149.726 75.8347 154.826 71.1314 159.269C63.2309 166.501 52.9056 170.749 42.1205 170.418L41.33 170.37C40.6732 170.337 40.0167 170.297 39.3606 170.251C29.0614 169.189 19.2223 164.424 12.4807 156.45L11.7169 155.519C7.39807 150.598 4.57494 144.701 3.05569 138.335L2.84251 137.406C2.82763 137.342 2.81279 137.278 2.79804 137.215C2.42954 135.632 2.11467 134.279 2.60522 132.67C5.50522 136.306 8.96002 139.418 12.837 141.972C21.3878 147.33 32.2024 149.517 42.1412 147.425L43.2283 147.141C52.4259 144.74 60.0053 140.1 66.0076 132.622ZM84.6819 139.203L84.9903 138.001H85.7496C87.0343 142.853 88.5706 147.363 91.1864 151.666C97.8406 162.21 107.687 168.432 119.61 171.19L121.058 171.513V171.893C112.794 173.511 104.552 177.061 98.6564 183.26L97.8986 184.079C92.9598 189.243 89.2258 195.23 87.3157 202.144C87.066 203.114 86.8048 204.066 86.5089 205.024L85.7496 205.405C84.3371 200.032 82.5619 195.274 79.5854 190.574C73.1503 180.72 63.3699 174.548 52.0063 172.133L50.8214 171.893V171.513C55.701 170.264 60.4178 168.611 64.8194 166.127C74.8782 160.184 81.6706 150.437 84.6819 139.203ZM13.9949 185.983C14.0589 185.763 14.2122 185.569 14.5184 185.182C21.789 178.228 31.0089 173.599 41.1374 172.978C53.2669 172.516 63.8734 176.6 72.8503 184.755C73.597 185.598 73.9509 186.002 73.9803 187.126C73.1926 188.555 71.9752 189.599 70.6584 190.529C68.6225 191.197 66.5254 191.234 64.489 190.553C62.4785 189.157 61.2578 187.707 60.7873 185.269L60.6924 184.079H58.7941C58.7585 184.654 58.7393 184.964 58.6992 185.27C58.6524 185.627 58.5772 185.98 58.4145 186.745C57.3933 188.794 55.9719 190.096 53.8586 190.934C51.5596 191.235 49.7075 191.139 47.8079 189.72C46.2868 188.396 45.1851 187.157 45.0317 185.079L45.1266 184.079H42.8486C42.8518 184.227 42.8565 184.37 42.861 184.51C42.8913 185.448 42.9165 186.228 42.469 187.126C41.19 188.86 40.0092 190.247 37.9131 190.934C35.6611 191.196 33.7245 191.167 31.8386 189.792C30.5393 188.43 29.502 187.123 29.2285 185.222L29.1811 184.079H27.2828C27.3253 184.904 27.3436 185.257 27.2843 185.597C27.2399 185.851 27.1519 186.099 26.998 186.531C25.9803 188.624 24.5769 190.158 22.3473 190.934C20.3252 191.156 18.3574 191.24 16.6495 190L15.8457 189.316C14.9267 188.552 14.4438 188.066 14.0082 186.946C13.9565 186.451 13.9307 186.204 13.9949 185.983ZM100.699 183.699C101.159 183.319 101.617 182.938 102.075 182.556C108.742 176.629 117.561 173.217 126.465 172.954C137.547 172.813 148.276 176.196 156.365 184.079L155.606 184.46L154.819 184.191C153.274 183.536 151.751 183.01 150.114 182.638C143.474 181.565 137.212 182.708 131.664 186.626C131.603 186.671 131.541 186.717 131.48 186.762C130.32 187.619 129.217 188.434 127.891 189.03C125.21 186.282 122.031 184.757 118.548 183.278C113.743 181.643 107.587 182.039 102.953 183.937C102.163 184.261 101.365 184.569 100.556 184.841L99.7969 184.46L100.699 183.699ZM89.9258 209.594C89.3202 202.969 90.3945 197.155 94.5773 191.855C98.1264 187.708 103.107 184.51 108.624 184.001C116.233 183.568 121.752 185.775 127.512 190.696L128.651 191.696C132.152 187.785 136.329 184.996 141.559 184.079C148.173 183.495 153.948 184.54 159.244 188.745C163.56 192.462 166.558 197.486 167.074 203.233C167.437 209.702 166.215 214.955 161.87 219.971C161.215 220.671 160.565 221.372 159.937 222.098C158.56 223.71 157.126 225.238 155.621 226.73C155.371 226.976 155.121 227.221 154.87 227.466C153.597 228.712 152.323 229.958 151.141 231.293C149.737 232.931 148.286 234.485 146.754 236.005C146.603 236.154 146.452 236.302 146.301 236.451C144.599 238.126 142.902 239.795 141.342 241.609C140.264 242.866 139.132 244.046 137.955 245.211C136.062 247.072 134.199 248.94 132.447 250.935C131.178 252.423 129.768 253.661 128.271 254.91C127.594 254.239 126.917 253.566 126.241 252.893L125.4 252.054C123.832 250.5 122.286 248.946 120.845 247.27C119.533 245.741 118.128 244.326 116.692 242.915L116.532 242.758C115.387 241.634 114.245 240.512 113.181 239.309C111.578 237.442 109.903 235.691 108.149 233.966C106.624 232.465 105.128 230.962 103.73 229.341C102.961 228.445 102.185 227.578 101.345 226.749C97.7814 223.288 94.1271 219.704 91.9057 215.196L91.4445 214.163C90.7363 212.654 90.2427 211.235 89.9258 209.594ZM4.12384 204.262C4.12384 198.921 8.28577 192.617 11.7985 188.9C12.1516 188.482 12.2859 188.323 12.453 188.273C12.5555 188.242 12.6704 188.252 12.8559 188.268C13.3231 189.144 13.7242 189.814 14.3745 190.553C16.3195 191.98 18.1635 192.579 20.5676 192.624C23.6775 192.553 25.4177 191.257 27.5913 189.125L28.4218 188.268C29.1246 189.219 29.8667 190.095 30.6997 190.934C32.7587 192.559 34.9263 192.691 37.4845 192.604C39.7029 192.329 41.1346 191.604 42.5876 189.911C42.8727 189.432 43.0193 189.186 43.2314 189.028C43.4559 188.86 43.7539 188.791 44.3673 188.649C44.7813 189.22 45.2035 189.787 45.6605 190.324C47.471 192.149 49.3157 192.554 51.8417 192.6C55.0966 192.561 56.819 191.365 59.1026 189.125L59.9331 188.268C60.636 189.219 61.3771 190.096 62.211 190.934C64.2669 192.524 66.2683 192.61 68.8031 192.548C71.2441 192.327 73.3332 190.903 74.9295 189.101L75.499 188.268C78.0621 191.09 80.0438 194.086 81.5483 197.597L81.9056 198.455C82.7222 200.401 83.2574 202.157 83.4717 204.262C81.7728 204.145 80.6933 204.019 79.1769 203.215C77.2973 201.637 76.8517 200.046 76.3843 197.71L76.2583 197.027H74.36C74.5497 198.549 74.342 199.548 73.6007 200.859C72.2993 202.764 70.7827 203.998 68.4917 204.444C66.4034 204.566 64.9288 204.149 63.2328 202.922C61.7388 201.61 61.0443 200.356 60.7873 198.407L60.6924 197.027H58.7941C58.7556 197.761 58.7084 198.495 58.6132 199.224C58.2059 200.965 57.2584 202.189 55.8355 203.243C53.612 204.512 51.5336 204.543 49.0655 204.072C47.0698 202.808 45.5366 201.06 44.9605 198.741L44.7469 197.408H43.2283C43.0387 198.492 42.8447 199.428 42.469 200.454C41.3242 202.266 39.9665 203.576 37.9131 204.262C35.474 204.627 33.4537 204.217 31.459 202.739C30.1429 201.445 29.4918 200.218 29.2522 198.384L29.1811 197.027H27.2828C27.1698 198.67 27.0356 199.802 26.3099 201.287C24.9184 202.898 23.5313 204.068 21.3863 204.42C19.0753 204.497 17.4261 204.124 15.6425 202.571C14.1482 201.044 13.7242 199.807 13.6182 197.683L13.6152 197.027H11.7169C11.7169 198.958 11.1508 200.51 9.94621 201.994C8.13443 203.75 6.63242 204.303 4.12384 204.262ZM12.0981 202.126L12.4762 201.597L13.2356 202.358C13.4158 202.756 13.5047 202.952 13.601 203.145C13.6949 203.333 13.7957 203.517 13.9949 203.882L15.1338 204.262C16.968 205.366 18.3416 205.899 20.5202 205.928C23.6654 205.887 25.3924 204.61 27.5913 202.453L28.4218 201.597C28.9262 202.279 29.4518 202.927 30.0086 203.568C31.7857 205.354 33.5474 205.877 36.0386 205.952C38.5422 205.857 40.1141 205.443 41.9707 203.667C42.7645 202.828 43.3163 202.407 44.3673 201.977C44.5775 202.313 44.7031 202.513 44.8432 202.703C45.0509 202.984 45.2907 203.242 45.8859 203.882C47.8121 205.208 49.5648 205.906 51.9129 205.928C55.0536 205.809 56.9498 204.63 59.1501 202.43L59.9331 201.597C61.1848 203.29 62.4165 204.668 64.3599 205.536C66.6147 206.17 69.1471 206.177 71.3227 205.262L72.4617 204.643C72.9705 204.395 73.4782 204.143 73.9803 203.882V203.12C74.471 202.597 74.9767 202.088 75.499 201.597C77.7042 204.546 79.8279 205.492 83.4109 206.053L84.231 206.166C84.9782 210.014 85.0742 213.686 84.9903 217.591C84.8114 217.598 84.6331 217.606 84.4556 217.614C82.7719 217.691 81.1536 217.766 79.6752 216.829C77.7541 215.105 76.741 213.561 76.3309 210.998L76.2583 210.355H74.36C74.4549 212.45 74.0978 213.396 72.9837 215.115C71.65 216.524 70.1944 217.369 68.2796 217.738C66.2574 217.854 64.6021 217.253 62.9703 216.067C61.6532 214.776 61.003 213.545 60.7636 211.712L60.6924 210.355H58.7941C58.8367 211.136 58.8574 211.514 58.7944 211.877C58.7351 212.219 58.6019 212.549 58.3433 213.188C57.2237 215.395 55.7987 216.724 53.479 217.591C51.7108 217.814 50.1114 217.716 48.5435 216.829C46.3306 215.415 45.5272 214.032 44.9026 211.489L44.7469 210.736L42.8486 210.355C42.8201 211.525 42.7191 212.639 42.469 213.783C41.2475 215.75 39.7123 216.888 37.5335 217.591C34.918 217.923 33.1603 217.263 31.0793 215.687C29.9981 214.397 29.488 213.385 29.276 211.736L29.1811 210.355H27.2828C27.1931 212.065 27.0572 213.376 26.1201 214.83C24.829 216.456 23.2054 217.436 21.1371 217.695C18.7969 217.738 17.3402 217.116 15.5135 215.687C14.3696 214.285 13.6586 213.128 13.4966 211.307L13.6152 210.355H11.7169C11.4187 212.63 10.9025 214.228 9.29812 215.899C7.31381 217.661 5.50859 217.743 2.98488 217.591C2.6511 215.997 2.5814 214.548 2.66973 212.934L2.72386 212.093C2.82585 210 3.10133 208.164 3.74419 206.166L5.04925 206.071C8.08338 205.673 10.2208 204.555 12.0981 202.126ZM94.102 237.774C88.2085 228.833 85.8096 217.911 87.6479 207.309H88.0276C88.7958 212.895 90.7488 217.682 94.4239 222.006L95.241 222.922C97.0565 225.047 98.944 227.055 100.936 229.015C101.027 229.105 101.119 229.195 101.211 229.285C102.384 230.439 103.556 231.59 104.648 232.823C106.247 234.686 107.918 236.433 109.668 238.154C111.179 239.641 112.663 241.128 114.046 242.736C115.141 244.012 116.291 245.209 117.487 246.392C119.448 248.321 121.396 250.247 123.172 252.352C123.57 252.831 123.972 253.306 124.377 253.78C124.917 254.409 125.455 255.04 125.993 255.672C124.72 255.751 123.47 255.744 122.197 255.672C113.008 254.363 103.788 249.64 97.8185 242.43L97.1393 241.582C96.0746 240.345 95.0582 239.097 94.102 237.774ZM168.514 210.927L168.894 209.594H169.274C169.285 210.092 169.298 210.591 169.31 211.09C169.421 215.401 169.531 219.715 168.501 223.929L168.135 225.207C167.441 227.746 166.613 230.167 165.488 232.543C160.561 242.476 152.158 250.278 141.63 253.911C141.361 253.998 141.065 254.097 140.745 254.204C137.716 255.219 132.649 256.915 130.169 255.672L130.906 254.946L131.901 253.958C132.822 253.048 133.723 252.142 134.574 251.167C135.997 249.508 137.471 247.936 139.021 246.397C139.179 246.241 139.337 246.086 139.495 245.931C141.186 244.268 142.871 242.611 144.418 240.808C145.556 239.482 146.758 238.242 147.998 237.012C148.244 236.77 148.491 236.528 148.738 236.287C150.018 235.034 151.299 233.78 152.488 232.438C153.821 230.885 155.188 229.408 156.649 227.975C161.898 222.834 166.118 218.003 168.514 210.927ZM11.7407 215.948L12.4762 214.925H12.8559L13.3675 215.551C13.8142 216.118 14.2754 216.673 14.7482 217.217C16.4108 218.856 18.2242 219.168 20.4965 219.233C23.658 219.121 25.3682 217.962 27.5913 215.782L28.4218 214.925C29.0234 215.79 29.5668 216.483 30.32 217.21C32.818 218.954 35.2763 219.648 38.2928 219.114C40.2273 218.47 41.91 217.707 43.0385 215.948L43.6079 214.925H44.3673C44.8415 215.777 45.2539 216.476 45.8859 217.21C47.7908 218.587 49.5877 219.232 51.9366 219.257C54.8201 219.149 57.1533 217.79 59.1738 215.758L59.9331 214.925C60.6243 215.893 61.3554 216.764 62.211 217.591C64.191 218.903 66.1505 219.352 68.508 219.231C71.3878 218.862 72.825 217.813 74.6447 215.551L75.1193 214.925C77.5586 217.691 80.1131 218.946 83.7342 219.408L84.6107 219.495C84.2608 222.311 84.0853 223.723 83.7553 225.099C83.423 226.485 82.9342 227.833 81.9531 230.538C80.7437 230.538 80.3129 230.382 79.2955 229.777C77.4973 228.219 76.7397 226.669 76.3443 224.34L76.2583 223.684H74.36C74.4549 225.779 74.0978 226.725 72.9837 228.444C71.65 229.852 70.1944 230.698 68.2796 231.066C66.2574 231.182 64.6021 230.581 62.9703 229.396C61.6532 228.104 61.003 226.874 60.7636 225.04L60.6924 223.684H58.7941C58.7941 225.741 58.2679 226.899 57.0145 228.491C55.5211 230.16 53.9966 230.823 51.7705 231.062C49.9376 230.865 48.5611 230.423 47.1242 229.228C45.6482 227.705 45.2347 226.446 45.1295 224.34L45.1266 223.684H42.8486C42.8041 225.51 42.664 226.797 41.6859 228.372C39.964 229.953 38.4554 230.842 36.1098 231.038L34.8759 230.919C34.4805 230.903 34.2819 230.895 34.0929 230.848C33.9021 230.8 33.7211 230.713 33.3573 230.538C31.2635 229.007 29.7861 227.517 29.276 224.874L29.1811 223.684H27.2828C27.1931 225.394 27.0572 226.704 26.1201 228.158C24.829 229.784 23.2054 230.764 21.1371 231.023C18.7969 231.066 17.3402 230.444 15.5135 229.015C14.3696 227.614 13.6586 226.456 13.4966 224.636L13.6152 223.684H11.7169C11.525 224.847 11.2917 225.98 10.9576 227.111C9.97774 228.691 8.7904 229.653 7.16108 230.538C6.76669 230.548 6.56685 230.553 6.37927 230.507C6.18659 230.46 6.00684 230.36 5.64246 230.157C3.76146 225 3.76146 225 2.98488 219.495C3.5389 219.482 4.09259 219.455 4.64587 219.423C7.41019 219.14 9.94134 218.137 11.7407 215.948ZM11.7407 229.277L12.4762 228.253H12.8559L13.2712 228.783C13.8523 229.554 14.4457 230.242 15.1338 230.919C17.0904 232.219 19.0701 232.699 21.4041 232.587C24.1705 232.163 25.966 230.98 27.6639 228.783L28.0421 228.253C28.8092 229.051 29.6003 229.813 30.4149 230.562C32.4829 232.023 34.5324 232.66 37.0678 232.546C39.4552 232.252 40.8452 231.551 42.4215 229.705C42.8036 229.211 43.1961 228.723 43.6079 228.253H44.3673L44.916 228.88C45.3537 229.446 45.8065 230.001 46.2715 230.546C47.8724 232.148 49.6598 232.494 51.8654 232.538C54.8131 232.474 57.1054 231.161 59.1738 229.086L59.9331 228.253C60.535 229.119 61.077 229.812 61.8314 230.538C63.9289 231.979 65.9386 232.753 68.4946 232.6C71.2534 232.132 73.0381 230.986 74.7411 228.783L75.1193 228.253C76.5633 229.895 78.1659 230.914 80.0504 232.009L80.8141 232.442C79.9794 234.954 78.3581 237.306 76.6379 239.297L76.2583 237.012H74.36C74.465 238.205 74.353 238.934 73.9091 240.059C72.5841 242.258 71.1361 243.504 68.6652 244.247C66.2801 244.354 64.5062 243.737 62.5907 242.343C61.4864 241.061 61.0029 240.047 60.7873 238.392L60.6924 237.012H58.7941C58.7941 238.882 58.4152 239.881 57.3704 241.415C55.9561 242.952 54.6496 243.891 52.5773 244.224C50.4379 244.364 48.7801 243.909 47.102 242.555C45.6321 241.045 45.2338 239.757 45.1295 237.668L45.1266 237.012H42.8486C42.9392 238.283 42.8725 239.225 42.469 240.439C41.2617 242.256 39.8409 243.562 37.6966 244.121C35.9584 244.342 34.522 244.415 32.9776 243.486C30.9631 242.106 29.745 240.633 29.276 238.202L29.1811 237.012H27.2828C27.3261 237.398 27.3498 237.61 27.3541 237.822C27.3593 238.081 27.3355 238.341 27.2828 238.916C26.3861 241.188 25.1291 242.584 23.0354 243.819C20.8337 244.471 18.896 244.27 16.7474 243.486C15.056 241.978 13.7128 240.227 13.4728 237.94L13.6152 237.012H11.7169C11.7169 238.195 11.5122 238.67 10.9576 239.678C9.33461 237.362 7.98562 235.002 6.78143 232.442C6.89504 232.392 7.00834 232.343 7.12123 232.293C8.86719 231.529 10.5158 230.807 11.7407 229.277ZM27.4726 242.224L28.0421 241.201C28.7772 242.184 29.5235 243.07 30.4149 243.914C32.7169 245.489 34.7716 245.955 37.5335 245.771C39.6437 245.459 41.2188 244.472 42.5639 242.843C42.8447 242.467 42.9752 242.292 43.1155 242.125C43.2373 241.98 43.3665 241.841 43.6079 241.582H44.3673C44.5362 241.921 44.6485 242.146 44.7896 242.351C45.0695 242.759 45.4629 243.088 46.6363 244.07C49.0169 245.799 51.3963 246.024 54.262 245.675C56.2121 244.918 57.5581 244.145 58.7704 242.439L59.5534 241.201L60.3128 241.963C60.7888 242.649 60.9664 242.905 61.158 243.15C61.272 243.296 61.391 243.438 61.5807 243.664C63.8593 245.772 66.7483 245.929 69.7003 245.824L70.5634 245.771L70.1838 246.532C62.4707 252.947 52.7169 256.346 42.6855 256.148C33.4649 255.5 23.0685 252.469 16.6525 245.39C18.6617 245.793 20.6916 246.009 22.724 245.629C24.639 245.028 26.3584 243.909 27.4726 242.224ZM226.226 0.147766H207.243V0.909387H205.725C198.363 2.38628 189.69 7.6412 185.038 13.5104L184.464 14.2378C179.794 19.5492 176.682 25.5204 174.876 32.3545C172.074 43.9863 174.14 56.0002 180.221 66.2318C186.328 76.1781 196.139 82.8628 207.377 85.6041L208.382 85.8302C198.963 87.9161 190.02 92.2608 183.705 99.7595L182.945 100.682C178.653 105.369 175.763 111.366 174.111 117.48C171.318 128.877 172.793 140.874 178.741 151.029C185.004 161.496 194.771 168.283 206.537 171.246L207.623 171.513V171.893C204.436 172.743 201.276 173.624 198.274 175.011C188.148 179.877 179.919 188.585 176.099 199.242C172.14 211.004 172.732 223.221 178.146 234.408C183.412 244.802 192.775 252.382 203.696 256.151C214.406 259.304 226.177 258.455 236.14 253.372C247.785 247.165 254.831 237.205 258.681 224.708L258.876 224.064C260.652 231.974 264.616 239.834 270.572 245.409L271.405 246.152C278.836 253.037 288.129 257.316 298.289 257.909C309.902 258.376 321.257 254.919 329.939 246.973C338.123 239.192 343.696 228.72 344.011 217.286C344.17 205.654 341.518 194.261 333.281 185.601L332.529 184.841L331.604 183.865L330.631 182.937C328.502 180.887 326.359 179.043 323.827 177.51L322.658 176.844C318.372 174.378 314.025 172.909 309.247 171.674L308.611 171.513C312.381 170.862 316.2 169.503 319.606 167.772C330.808 161.77 338.287 152.425 342.021 140.286C345.196 129.445 343.199 117.229 337.934 107.423C331.751 96.3013 321.947 89.8003 309.962 86.2229L308.611 85.8302C315.476 84.2921 321.439 81.9114 327.214 77.8332C336.119 71.0093 342.053 60.8441 343.872 49.8198C345.532 38.5449 343.086 26.6635 336.268 17.4256L335.567 16.5226C333.923 14.3864 332.309 12.2947 330.2 10.6022L329.492 10.0488C326.275 7.36077 323.063 4.95392 319.204 3.2769L318.387 2.93244C317.611 2.60072 316.835 2.29038 316.04 2.0032L315.065 1.67101C310.698 0.142892 306.669 -0.0583187 302.07 0.0119343C301.33 0.0232562 300.59 0.0310024 299.851 0.0353631C299.117 0.0383636 298.384 0.0424521 297.651 0.0477109L296.602 0.0570254C290.852 0.106118 285.432 1.88697 280.426 4.7121L279.757 5.09831C269.353 11.1046 263.04 20.5937 259.338 31.8398L258.876 33.2783C258.376 31.1966 257.826 29.139 257.043 27.145C252.416 16.2418 244.452 7.33784 233.412 2.79011L232.514 2.43263C230.865 1.77575 229.308 1.25263 227.541 1.02839L226.226 0.909387V0.147766ZM198.772 8.19239C198.175 7.8022 197.58 7.40745 196.993 7.00236C207.243 -2.37294 227.301 0.779653 237.997 7.40102L239.134 8.14479C243.719 10.9895 248.581 15.3615 250.904 20.3307C250.44 20.6151 250.19 20.7682 249.93 20.9024C249.627 21.059 249.311 21.1898 248.626 21.4732C246.634 21.6872 245.369 21.4291 243.69 20.3307C241.926 18.8494 241.581 17.4181 241.199 15.1898C241.089 14.4458 241.036 14.0799 240.966 13.7172C240.898 13.3663 240.816 13.0183 240.653 12.3337C239.486 10.2801 238.315 8.97418 236.097 8.14479C233.752 7.78061 231.529 7.74159 229.429 8.95401C227.46 10.4508 226.621 11.9499 226.226 14.3806C226.06 15.4176 225.884 16.401 225.571 17.4033C224.672 19.4717 223.372 20.6201 221.291 21.4732C219.354 21.7854 218.034 21.328 216.315 20.5063C214.847 19.371 214.171 18.0603 213.746 16.2727C213.531 14.8072 213.279 13.3941 212.938 11.9529C212.163 10.3485 210.767 9.23846 209.205 8.40511C207.15 7.75501 204.718 7.84683 202.687 8.5256L201.793 8.99864C201.291 9.1988 201.036 9.30042 200.787 9.28715C200.531 9.27347 200.281 9.13765 199.773 8.86179L198.772 8.19239ZM286.486 10.8224C283.817 10.6342 280.815 9.8221 278.998 7.76398C285.093 4.17965 292.285 1.10835 299.499 1.67101C299.038 2.99765 298.806 3.66504 298.477 4.28067C298.144 4.90392 297.712 5.47411 296.842 6.62155C294.178 9.29348 290.222 10.7709 286.486 10.8224ZM309.679 9.28722C306.675 7.64452 304.356 4.93015 303.296 1.67101C310.539 1.39277 317.25 4.16861 323.418 7.76398V8.5256C322.408 9.09876 321.448 9.60104 320.38 10.0488C316.689 11.1795 313.206 10.8261 309.679 9.28722ZM300.923 3.63605L301.398 2.81344C301.958 3.4677 302.239 3.79602 302.49 4.14565C302.743 4.49782 302.967 4.87161 303.415 5.62192C303.746 6.17616 303.911 6.4521 304.087 6.72093C304.261 6.98748 304.446 7.24705 304.815 7.76398C307.575 10.2413 310.642 11.7242 314.299 12.2474L315.065 12.3337C314.838 15.4697 313.962 17.9517 311.957 20.4021C309.083 23.4813 305.628 25.2647 301.398 25.4241C297.889 25.2972 294.603 24.0722 292.038 21.6398C289.506 18.8474 288.197 16.1247 288.11 12.3337C289.021 12.2034 289.919 12.0417 290.821 11.8577C295.518 10.6217 298.476 7.70647 300.923 3.63605ZM175.664 46.216C175.304 34.7326 178.355 23.5823 186.327 15.0306C186.761 14.5973 187.214 14.1153 187.684 13.6149C190.527 10.5901 194.002 6.8936 197.82 9.21657C208.103 15.9356 214.048 25.7129 216.921 37.5537C217.049 38.0802 217.178 38.6065 217.308 39.1325C217.652 40.5221 217.995 41.9121 218.334 43.3029C218.685 44.7398 219.038 46.176 219.393 47.612C220.156 50.7032 220.914 53.7955 221.67 56.8886L215.216 57.2694C214.821 59.4015 214.321 61.1912 213.31 63.1073L212.867 63.9098C211.532 66.3865 210.089 68.738 208.382 70.9786C206.512 70.7318 204.993 70.3984 203.518 69.1697C201.527 67.2468 200.639 65.6488 200.439 62.8893L200.41 62.2199H198.511C198.742 63.8718 199.026 65.4487 199.677 66.9905C201.236 69.9464 203.029 71.0529 206.1 72.2222L206.864 72.5018C204.979 75.3376 201.456 78.4897 198.25 79.761C197.81 79.7818 197.581 79.7925 197.371 79.7368C197.144 79.6769 196.938 79.5403 196.511 79.2567L195.474 78.5948C193.53 77.3705 191.62 76.1086 189.884 74.5979C181.914 67.2364 176.312 57.1994 175.664 46.216ZM267.822 18.4981C268.994 16.877 270.198 15.3408 271.595 13.9046C271.822 13.6878 272.103 13.3944 272.422 13.0606C274.07 11.3391 276.744 8.54427 278.424 9.66357C280.446 11.1356 282.428 11.6492 284.859 12.1507L285.832 12.3337C285.875 13.4744 285.874 14.4606 285.58 15.5676C283.896 19.7561 281.497 22.7079 277.284 24.5583C272.957 26.0185 269.343 25.2622 265.331 23.3772C265.771 21.7854 266.384 20.5222 267.333 19.1699L267.822 18.4981ZM203.232 11.2731L202.687 10.8105C203.512 10.0849 204.034 9.69376 205.131 9.52969L206.104 9.54903C207.46 9.55525 208.361 9.71302 209.521 10.4297C210.809 11.6902 211.477 12.5872 211.847 14.3568C212.177 16.1644 212.587 17.8772 213.318 19.5691C214.299 21.2938 215.564 22.2234 217.424 22.8194C219.533 23.2697 221.648 23.3047 223.568 22.2348C225.412 20.9719 226.753 19.6164 227.194 17.3571C227.228 17.1224 227.26 16.888 227.292 16.6539C227.459 15.4232 227.625 14.2036 228.034 13.0224C228.92 11.2857 230.101 10.2693 231.921 9.66803C234.045 9.34146 235.844 9.518 237.616 10.8105C238.893 12.2901 239.586 13.6885 239.775 15.642C239.811 16.1896 239.851 16.7371 239.894 17.2843C240.528 19.5645 241.944 21.2291 243.975 22.3776C246.279 23.4159 248.398 23.2903 250.738 22.4252L252.043 21.854L252.554 22.6067L253.205 23.6152C253.987 24.7991 254.348 25.359 254.22 26.7896L253.941 27.947C253.926 28.0601 253.911 28.1728 253.897 28.285C253.643 30.2379 253.408 32.0465 252.541 33.8495C251.486 34.9936 250.473 35.8186 249.005 36.3248C247.167 36.5739 245.682 36.5376 244.07 35.5632C242.434 34.2164 241.682 32.8953 241.341 30.803C241.167 29.5537 241 28.4082 240.534 27.2329C239.299 24.939 237.815 23.7704 235.338 22.9964C233.083 22.6934 231.15 22.8558 229.168 24.0258C226.946 25.6778 226.467 27.4637 226.012 30.089C225.628 32.7098 224.919 33.9637 222.928 35.6822C221.309 36.5093 220.033 36.4676 218.253 36.3248C215.983 26.1813 211.095 18.0531 203.232 11.2731ZM316.964 12.3337C319.085 12.0304 320.895 11.5767 322.801 10.5725C324.105 9.83527 324.511 9.66803 326.075 9.66803C330.656 12.5293 335.057 18.2074 337.465 22.9964L337.085 23.758C335.615 24.4335 334.098 24.8944 332.529 25.2813C328.754 25.639 325.584 24.8258 322.421 22.7108C319.219 19.6684 317.289 16.819 316.964 12.3337ZM314.371 19.7404C314.845 18.9146 315.317 18.0905 315.825 17.2843H316.204C316.674 18.3401 317.149 19.3306 317.723 20.3307C320.431 24.2067 324.025 25.7649 328.463 26.9324L329.492 27.1853C329.492 29.5548 328.875 31.236 327.736 33.2783C325.602 36.6692 322.754 38.7432 318.862 39.7521C314.151 40.1571 310.573 39.5396 306.855 36.5152C304.193 34.0393 302.676 30.8169 302.537 27.1853C307.379 26.0437 311.431 24.4965 314.18 20.0734C314.244 19.9624 314.307 19.8514 314.371 19.7404ZM285.618 19.3787C285.925 18.7976 286.244 18.2225 286.591 17.6651H287.35C287.726 18.5034 288.14 19.3044 288.586 20.1076C291.341 24.1999 295.14 25.9134 299.749 26.989L300.638 27.1853C300.261 29.0339 299.872 30.8745 299.135 32.6163C297.302 35.8292 294.321 38.42 290.799 39.5319C286.435 40.353 282.803 39.715 278.998 37.4672C275.533 34.7257 274.171 31.433 273.303 27.1853C274.103 27.0406 274.903 26.8888 275.695 26.7078C280.003 25.5134 283.345 23.273 285.618 19.3787ZM227.554 30.7484C227.808 29.2712 228.001 28.1494 228.789 26.8521C231.17 24.5959 233.773 23.4093 236.856 25.2813C238.868 26.9617 239.405 28.5995 239.76 31.1526C239.919 32.3224 240.189 33.3351 240.653 34.4207C241.775 36.2391 243.191 37.2314 245.209 37.848C247.591 38.0831 249.531 38.0396 251.639 36.8246C253.905 35.1082 254.505 33.3128 254.967 30.6037L255.08 29.851H255.839C256.021 30.4839 256.202 31.117 256.379 31.7513L256.598 32.5405C257.164 34.492 257.443 36.1709 257.358 38.2288L256.598 38.6097C254.773 40.2846 254.164 41.5207 253.68 43.9648C253.537 44.8495 253.371 45.7308 253.182 46.6067C252.26 48.8331 251.206 49.8771 249.005 50.7956C247.27 51.106 245.587 50.9551 244.07 50.034C242.362 48.7317 241.712 47.3867 241.325 45.2738C241.291 45.068 241.258 44.8623 241.225 44.6569C241.011 43.323 240.799 42.0032 240.27 40.7473C239.152 39.0346 237.655 38.0093 235.717 37.4672C233.332 37.2381 231.399 37.2737 229.287 38.4907C227.333 39.971 226.603 41.3404 226.202 43.7268C225.717 46.7928 224.967 48.5483 222.429 50.4148C222.002 50.2572 221.798 50.182 221.674 50.0381C221.56 49.9069 221.513 49.7184 221.422 49.3581L221.207 48.478L220.967 47.504L220.721 46.4639C220.059 43.7347 219.438 41.007 219.013 38.2288C221.052 38.0525 222.556 37.8116 224.328 36.7056C226.341 35.0623 227.078 33.2798 227.549 30.7792L227.554 30.7484ZM260.371 38.3716C260.291 33.7003 262.149 29.0155 264.192 24.9005C265.32 25.2779 266.454 25.6359 267.59 25.9916L268.439 26.2571L270.116 26.7822L271.405 27.1853C271.234 28.8635 271.148 29.7094 270.915 30.5127C270.679 31.3291 270.29 32.1016 269.507 33.6591C267.42 36.9504 264.066 38.7596 260.395 39.7521L260.371 38.3716ZM331.582 27.1484C332.941 26.8861 334.292 26.6256 335.586 26.1188L335.706 26.0644C336.731 25.599 337.431 25.2813 338.604 25.2813C340.62 29.8111 341.926 34.3904 342.021 39.3713C340.289 38.9799 339.411 38.7815 338.614 38.4109C337.794 38.0298 337.058 37.4667 335.567 36.3248C333.078 33.7588 331.878 30.6795 331.39 27.1853L331.582 27.1484ZM329.706 33.0403L330.251 31.7551H330.631L331.058 32.7071C333.481 37.244 336.627 39.6133 341.441 41.3333L342.4 41.6561C342.409 41.9301 342.421 42.2066 342.432 42.4847C342.535 44.9583 342.642 47.5588 341.106 49.6041C338.446 52.4301 335.119 54.3437 331.215 54.6855C327.353 54.7434 323.693 53.3835 320.808 50.748C318.531 48.2234 317.094 45.0527 316.964 41.6561C318.257 41.4897 319.501 41.2347 320.76 40.8945C324.808 39.3922 327.736 36.9228 329.706 33.0403ZM271.168 33.8733C271.492 33.2897 271.822 32.7089 272.164 32.1359H272.544L273.056 32.9585L273.707 34.0637C276.5 38.5121 279.954 40.2956 284.942 41.4598L285.832 41.6561C285.955 45.0645 284.576 47.8038 282.431 50.3999C279.842 52.9922 276.16 54.6007 272.496 54.7227C268.464 54.3965 265.1 53.0549 262.293 50.0816C260.048 47.3883 259.893 45.0463 260.015 41.6561L261.059 41.4181C265.568 40.1037 268.773 37.8893 271.168 33.8733ZM300.093 34.2303C300.523 33.5291 300.956 32.8298 301.398 32.1359H301.777C302.356 33.3153 302.977 34.4504 303.676 35.5632C306.399 39.0157 309.891 40.6344 314.119 41.4866L315.065 41.6561C314.787 44.8611 313.759 47.8279 311.525 50.1902L310.889 50.7956C308.404 53.1632 305.435 54.2093 302.071 54.7361C298.44 54.9084 295.037 53.4497 292.286 51.1764C289.614 48.4966 288.29 45.4008 288.11 41.6561L288.988 41.5609C293.897 40.5594 297.304 38.4503 300.093 34.2303ZM227.293 45.9602C227.493 44.47 227.688 43.0228 228.385 41.6561C230.475 38.9374 233.771 37.8878 236.856 39.7521C238.493 41.0988 239.244 42.42 239.585 44.5122C239.759 45.7616 239.926 46.9071 240.392 48.0823C241.519 50.1768 242.964 51.5267 245.209 52.3188C247.595 52.5077 249.525 52.5134 251.639 51.2954C253.869 49.6069 254.457 47.889 254.921 45.2337C255.331 42.8757 256.026 41.7836 257.737 40.1329C257.745 41.0433 257.751 41.9536 257.756 42.864L257.761 43.9886C257.762 44.0902 257.763 44.1916 257.764 44.293C257.78 45.9905 257.795 47.6666 257.585 49.3557L257.358 50.4148C255.52 59.3523 251.295 68.2025 244.15 74.1232L243.311 74.7867C235.897 80.7651 227.61 84.2924 218.065 84.4194L216.64 84.4259C212.842 84.4441 209.277 84.1913 205.63 83.0812L204.206 82.5933C202.83 82.1351 201.629 81.6949 200.41 80.8796C206.857 76.284 211.545 70.41 214.916 63.282C215.458 62.1556 215.728 61.5924 216.003 61.0312C216.278 60.47 216.556 59.9109 217.114 58.7926H223.948L222.429 52.3188L223.568 51.5572C225.395 50.2421 226.747 48.9673 227.194 46.6796C227.229 46.4388 227.261 46.199 227.293 45.9602ZM286.022 47.9157L286.591 46.6067H286.971L287.33 47.166L287.778 47.9395C290.73 52.7148 294.249 54.8448 299.609 56.2549L300.638 56.5078C300.311 58.7135 299.776 60.6217 298.74 62.6007C296.407 65.7991 293.488 68.0782 289.628 69.0745C285.892 69.3699 282.973 69.0997 279.757 67.1705C275.898 64.3795 274.194 61.1403 273.303 56.5078C274.718 56.1894 276.099 55.8095 277.479 55.3653C281.401 53.8293 284.094 51.7089 286.022 47.9157ZM315.433 47.3326L315.825 46.6067C316.226 46.9761 316.424 47.1576 316.583 47.3677C316.738 47.5707 316.858 47.8004 317.093 48.2519C319.757 52.9434 323.295 54.8094 328.31 56.1984L329.492 56.5078C329.492 59.2902 328.352 61.8544 326.753 64.0853C324.271 67.0162 321.047 68.8371 317.213 69.192C313.018 69.274 309.589 68.2545 306.41 65.4196C304.097 62.8903 302.726 59.9267 302.537 56.5078C303.155 56.3627 303.772 56.2104 304.388 56.0555C309.612 54.6025 312.764 52.0608 315.433 47.3326ZM258.485 53.0091L258.876 51.5572H259.256C260.382 56.6518 262.169 61.2058 264.8 65.6948C271.082 76.0724 280.865 82.2472 292.414 85.1132L293.805 85.4494V85.8302C285.42 87.7247 276.604 91.1844 270.601 97.6085L269.886 98.3969C264.739 103.711 261.482 109.513 259.351 116.604C259.204 117.123 259.056 117.641 258.906 118.159C258.757 118.836 258.69 119.139 258.508 119.331C258.361 119.487 258.138 119.571 257.737 119.722C256.873 114.877 254.879 110.251 252.422 106.013C246.064 95.6394 236.154 89.3752 224.553 86.5338L223.189 86.211V85.8302C228.243 84.8884 233.108 83.3774 237.616 80.8796C248.45 74.6644 255.167 64.9189 258.485 53.0091ZM266.469 65.2664C264.001 60.9068 261.91 56.5673 261.154 51.5572L262.293 52.3188C264.684 54.476 267.143 55.2999 270.183 56.1716L271.405 56.5078C271.405 59.6217 270.005 62.3032 268.165 64.7473C267.912 65.0353 267.772 65.1955 267.595 65.2732C267.374 65.3706 267.096 65.3385 266.469 65.2664ZM340.348 52.7517L340.882 52.3188L341.261 53.0805C340.226 57.4785 338.136 61.3566 335.946 65.2664L335.061 64.603C332.584 62.5008 331.826 59.6324 331.39 56.5078L331.46 56.4885C334.674 55.5945 337.627 54.7733 340.348 52.7517ZM271.829 61.8168L272.164 61.0775C272.559 61.4448 272.757 61.6293 272.923 61.8389C273.091 62.0502 273.227 62.2871 273.499 62.7629L274.157 63.8622C276.742 67.953 280.318 69.7445 284.955 70.7956L285.832 70.9786C285.848 72.1532 285.849 73.1842 285.595 74.3345L285.556 74.4236C284.799 76.1852 283.836 78.4258 282.093 79.346C280.993 79.0508 280.431 78.8999 279.921 78.6437C279.388 78.3757 278.913 77.9925 277.941 77.2084L276.72 76.3099C273.287 73.8003 270.655 70.8327 267.988 67.5513C269.071 66.3501 270.086 65.1938 270.904 63.7923L271.358 62.8149L271.829 61.8168ZM300.354 62.8387C300.692 62.2459 301.037 61.6568 301.398 61.0775H301.777C302.337 62.3942 302.954 63.6504 303.676 64.8856C306.422 68.4339 309.942 69.8215 314.202 70.7956L315.065 70.9786C315.065 73.9833 313.77 76.5145 312.009 78.8774C309.536 81.7506 306.287 83.4632 302.537 83.8785C298.936 84.0665 295.732 83.2298 292.922 80.9139C289.87 78.0446 288.312 75.1767 288.11 70.9786C288.747 70.8755 289.378 70.7395 290.008 70.5978C294.76 69.3404 297.834 67.0708 300.354 62.8387ZM329.873 61.8867L330.251 61.0775C330.843 61.8563 331.418 62.6407 331.973 63.4457L332.553 64.3144C333.259 65.3661 333.885 66.4058 334.428 67.5513C330.654 72.4469 326.355 76.0668 321.14 79.3564C320.406 79.1176 320.406 79.1176 319.621 78.5948C318.066 76.2203 317.072 73.8186 316.964 70.9786C318.495 70.6406 320.011 70.2671 321.519 69.8361C325.467 68.4206 328.029 65.5764 329.873 61.8867ZM315.42 76.3709L315.825 75.5483C316.281 76.2355 316.729 76.9295 317.156 77.6353L317.77 78.6662C318.134 79.2769 318.498 79.8877 318.862 80.4988C318.237 80.7655 317.613 81.0312 316.986 81.2924L316.204 81.6175C314.158 82.497 312.354 82.9678 310.13 83.1645L310.889 82.4029C312.91 80.6109 314.182 78.779 315.42 76.3709ZM285.879 77.3334C286.116 76.8649 286.353 76.3967 286.591 75.9291H287.35C288.626 78.7953 290.255 80.9368 292.642 82.9741L293.425 83.5453C290.186 83.1091 287.324 82.1377 284.313 80.8796C284.675 79.9455 285.048 79.0277 285.479 78.1232L285.879 77.3334ZM174.973 125.435C174.55 117.374 179.197 108.329 184.084 102.205C193.478 91.5194 205.997 86.3115 220.152 87.3534C230.381 88.5107 239.943 93.3666 246.671 101.211L247.487 102.205C250.369 105.682 253.684 110.167 254.32 114.772L253.182 115.533C252.992 115.659 252.803 115.785 252.614 115.91C250.348 117.413 248.096 118.907 246.226 120.908L245.588 121.626C245.003 122.276 244.417 122.927 243.833 123.578C242.686 124.877 241.505 126.121 240.273 127.339C238.271 124.574 236.284 121.993 233.674 119.767L232.68 118.961C223.982 111.791 213.793 109.239 202.757 109.884C193.329 110.772 183.603 115.459 177.5 122.775C176.71 123.724 175.857 124.575 174.973 125.435ZM281.534 91.7536L282.795 91.1615C295.135 85.3516 310.022 85.8315 321.663 93.1682L322.658 93.8272C326.872 96.46 330.357 99.987 333.367 103.934L334.048 104.871C340.399 113.543 341.983 123.667 341.261 134.193C340.003 144.069 335.117 153.375 327.615 159.876L326.455 160.85C324.781 162.257 323.086 163.578 321.199 164.689C310.986 170.377 299.656 171.806 288.418 168.585C277.44 165.061 268.94 157.647 263.44 147.514C258.327 137.564 257.998 125.918 261.202 115.343C264.786 105.235 271.922 96.6088 281.534 91.7536ZM200.599 116.604C199.951 115.122 199.383 113.648 198.891 112.106C200.918 111.75 202.948 111.411 205.005 111.302C215.028 111.03 224.917 113.951 232.36 120.944L233.06 121.626C234.009 122.531 234.904 123.474 235.805 124.426L236.738 125.435C237.854 126.639 238.694 127.639 239.134 129.243C238.885 129.804 238.778 130.045 238.638 130.264C238.532 130.429 238.407 130.582 238.188 130.849L237.616 131.527C234.329 135.546 230.488 139.074 225.924 141.573L224.707 142.19C215.917 146.688 206.577 147.551 196.993 145.237L197.752 144.094C198.893 142.604 199.83 141.132 200.574 139.4C203.192 132.075 203.614 123.87 200.599 116.604ZM177.435 125.432C178.137 124.534 178.949 123.723 180.578 122.093C184.398 118.384 191.006 112.868 196.613 112.868C200.063 116.796 200.968 122.261 201.169 127.339C201.162 133.713 199.663 139.866 195.094 144.475C189.005 143.135 182.445 138.606 178.572 133.777C178.12 133.193 177.661 132.615 177.199 132.039C176.453 131.11 175.711 130.177 174.973 129.243C176.148 127.298 176.737 126.323 177.435 125.432ZM243.452 126.342C243.928 125.558 244.598 124.893 245.968 123.53C246.175 123.323 246.416 123.076 246.685 122.799C248.797 120.627 252.64 116.676 255.08 116.676C258.307 122.08 257.42 131.155 256.352 137.083L256.076 138.358C255.951 139.033 255.892 139.347 255.807 139.653C255.732 139.92 255.637 140.18 255.459 140.667L254.32 141.048C251.375 139.436 248.791 137.241 246.489 134.81L245.588 133.812C245.423 133.63 245.256 133.449 245.089 133.268C244.031 132.118 242.974 130.97 242.172 129.623C242.717 127.948 242.996 127.091 243.452 126.342ZM238.755 132.622C239.244 131.99 239.745 131.366 240.273 130.766H241.033C241.424 131.268 241.811 131.774 242.179 132.294C244.973 136.249 248.474 139.301 252.565 141.857C253.161 142.203 253.751 142.562 254.32 142.952V143.713C251.923 149.726 248.582 154.826 243.879 159.269C235.978 166.501 225.653 170.749 214.868 170.418L214.077 170.37C213.42 170.337 212.764 170.297 212.108 170.251C201.808 169.189 191.969 164.424 185.228 156.45L184.464 155.519C180.145 150.598 177.322 144.701 175.803 138.335L175.59 137.406C175.575 137.342 175.56 137.278 175.545 137.215C175.177 135.632 174.862 134.279 175.352 132.67C178.252 136.306 181.707 139.418 185.584 141.972C194.135 147.33 204.949 149.517 214.888 147.425L215.975 147.141C225.173 144.74 232.752 140.1 238.755 132.622ZM257.429 139.203L257.737 138.001H258.497C259.781 142.853 261.318 147.363 263.933 151.666C270.588 162.21 280.434 168.432 292.357 171.19L293.805 171.513V171.893C285.542 173.511 277.299 177.061 271.404 183.26L270.646 184.079C265.707 189.243 261.973 195.23 260.063 202.144C259.813 203.114 259.552 204.066 259.256 205.024L258.497 205.405C257.084 200.032 255.309 195.274 252.333 190.574C245.897 180.72 236.117 174.548 224.753 172.133L223.568 171.893V171.513C228.448 170.264 233.165 168.611 237.566 166.127C247.625 160.184 254.418 150.437 257.429 139.203ZM186.742 185.983C186.806 185.763 186.959 185.569 187.265 185.182C194.536 178.228 203.756 173.599 213.884 172.978C226.014 172.516 236.62 176.6 245.597 184.755C246.344 185.598 246.698 186.002 246.727 187.126C245.94 188.555 244.722 189.599 243.405 190.529C241.37 191.197 239.272 191.234 237.236 190.553C235.226 189.157 234.005 187.707 233.534 185.269L233.439 184.079H231.541C231.506 184.654 231.486 184.964 231.446 185.27C231.4 185.627 231.324 185.98 231.162 186.745C230.14 188.794 228.719 190.096 226.606 190.934C224.307 191.235 222.455 191.139 220.555 189.72C219.034 188.396 217.932 187.157 217.779 185.079L217.874 184.079H215.596C215.599 184.227 215.604 184.37 215.608 184.51C215.638 185.448 215.664 186.228 215.216 187.126C213.937 188.86 212.756 190.247 210.66 190.934C208.408 191.196 206.472 191.167 204.586 189.792C203.286 188.43 202.249 187.123 201.976 185.222L201.928 184.079H200.03C200.072 184.904 200.091 185.257 200.031 185.597C199.987 185.851 199.899 186.099 199.745 186.531C198.727 188.624 197.324 190.158 195.094 190.934C193.072 191.156 191.104 191.24 189.397 190L188.593 189.316C187.674 188.552 187.191 188.066 186.755 186.946C186.704 186.451 186.678 186.204 186.742 185.983ZM273.446 183.699C273.906 183.319 274.364 182.938 274.822 182.556C281.489 176.629 290.308 173.217 299.212 172.954C310.294 172.813 321.023 176.196 329.113 184.079L328.353 184.46L327.566 184.191C326.022 183.536 324.498 183.01 322.862 182.638C316.221 181.565 309.959 182.708 304.411 186.626L304.227 186.762C303.067 187.619 301.964 188.434 300.638 189.03C297.957 186.282 294.778 184.757 291.295 183.278C286.49 181.643 280.334 182.039 275.7 183.937C274.91 184.261 274.112 184.569 273.303 184.841L272.544 184.46L273.446 183.699ZM262.673 209.594C262.067 202.969 263.142 197.155 267.324 191.855C270.874 187.708 275.854 184.51 281.371 184.001C288.98 183.568 294.499 185.775 300.259 190.696L301.398 191.696C304.899 187.785 309.076 184.996 314.306 184.079C320.92 183.495 326.695 184.54 331.991 188.745C336.307 192.462 339.305 197.486 339.821 203.233C340.185 209.702 338.962 214.955 334.617 219.971C333.962 220.671 333.312 221.372 332.684 222.098C331.307 223.71 329.873 225.238 328.368 226.73C328.118 226.976 327.868 227.221 327.617 227.466C326.344 228.712 325.07 229.958 323.889 231.293C322.484 232.931 321.033 234.485 319.501 236.005C319.35 236.154 319.199 236.302 319.048 236.451C317.346 238.126 315.649 239.795 314.089 241.609C313.011 242.866 311.879 244.046 310.702 245.211C308.809 247.072 306.946 248.94 305.194 250.935C303.925 252.423 302.515 253.661 301.018 254.91C300.341 254.239 299.664 253.566 298.989 252.893L298.147 252.054C296.579 250.5 295.033 248.946 293.593 247.27C292.28 245.741 290.875 244.326 289.439 242.915L289.281 242.76C288.135 241.635 286.993 240.513 285.928 239.309C284.325 237.442 282.65 235.691 280.896 233.966C279.371 232.465 277.875 230.962 276.477 229.341C275.708 228.445 274.932 227.578 274.092 226.749C270.528 223.288 266.874 219.704 264.653 215.196L264.192 214.163C263.483 212.654 262.99 211.235 262.673 209.594ZM176.871 204.262C176.871 198.921 181.033 192.617 184.546 188.9C184.899 188.482 185.033 188.323 185.2 188.273C185.303 188.242 185.418 188.252 185.603 188.268C186.07 189.144 186.471 189.814 187.122 190.553C189.067 191.98 190.911 192.579 193.315 192.624C196.425 192.553 198.165 191.257 200.338 189.125L201.169 188.268C201.872 189.219 202.614 190.095 203.447 190.934C205.506 192.559 207.673 192.691 210.232 192.604C212.45 192.329 213.882 191.604 215.335 189.911C215.62 189.432 215.766 189.186 215.978 189.028C216.203 188.86 216.501 188.791 217.114 188.649C217.528 189.22 217.951 189.787 218.408 190.324C220.218 192.149 222.063 192.554 224.589 192.6C227.844 192.561 229.566 191.365 231.85 189.125L232.68 188.268C233.383 189.219 234.124 190.096 234.958 190.934C237.014 192.524 239.015 192.61 241.55 192.548C243.991 192.327 246.08 190.903 247.677 189.101L248.246 188.268C250.809 191.09 252.791 194.086 254.295 197.597L254.653 198.455C255.469 200.401 256.005 202.157 256.219 204.262C254.52 204.145 253.44 204.019 251.924 203.215C250.044 201.637 249.599 200.046 249.131 197.71L249.005 197.027H247.107C247.297 198.549 247.089 199.548 246.348 200.859C245.046 202.764 243.53 203.998 241.239 204.444C239.15 204.566 237.676 204.149 235.98 202.922C234.486 201.61 233.791 200.356 233.534 198.407L233.439 197.027H231.541C231.503 197.761 231.455 198.495 231.36 199.224C230.953 200.965 230.005 202.189 228.583 203.243C226.359 204.512 224.281 204.543 221.813 204.072C219.817 202.808 218.284 201.06 217.708 198.741L217.494 197.408H215.975C215.786 198.492 215.592 199.428 215.216 200.454C214.071 202.266 212.714 203.576 210.66 204.262C208.221 204.627 206.201 204.217 204.206 202.739C202.89 201.445 202.239 200.218 201.999 198.384L201.928 197.027H200.03C199.917 198.67 199.783 199.802 199.057 201.287C197.666 202.898 196.278 204.068 194.133 204.42C191.822 204.497 190.173 204.124 188.39 202.571C186.895 201.044 186.471 199.807 186.365 197.683L186.362 197.027H184.464C184.464 198.958 183.898 200.51 182.693 201.994C180.882 203.75 179.379 204.303 176.871 204.262ZM184.845 202.126L185.223 201.597L185.983 202.358C186.163 202.756 186.252 202.952 186.348 203.145C186.442 203.333 186.543 203.517 186.742 203.882L187.881 204.262C189.715 205.366 191.089 205.899 193.267 205.928C196.412 205.887 198.14 204.61 200.338 202.453L201.169 201.597C201.673 202.279 202.199 202.927 202.756 203.568C204.533 205.354 206.294 205.877 208.786 205.952C211.289 205.857 212.861 205.443 214.718 203.667C215.512 202.828 216.063 202.407 217.114 201.977C217.325 202.313 217.45 202.513 217.59 202.703C217.798 202.984 218.038 203.242 218.633 203.882C220.559 205.208 222.312 205.906 224.66 205.928C227.801 205.809 229.697 204.63 231.897 202.43L232.68 201.597C233.932 203.29 235.164 204.668 237.107 205.536C239.362 206.17 241.894 206.177 244.07 205.262L245.209 204.643C245.718 204.395 246.225 204.143 246.727 203.882V203.12C247.218 202.597 247.724 202.088 248.246 201.597C250.451 204.546 252.575 205.492 256.158 206.053L256.978 206.166C257.725 210.014 257.821 213.686 257.737 217.591C257.558 217.598 257.38 217.606 257.203 217.614C255.519 217.691 253.901 217.766 252.422 216.829C250.501 215.105 249.488 213.561 249.078 210.998L249.005 210.355H247.107C247.202 212.45 246.845 213.396 245.731 215.115C244.397 216.524 242.941 217.369 241.027 217.738C239.004 217.854 237.349 217.253 235.717 216.067C234.4 214.776 233.75 213.545 233.511 211.712L233.439 210.355H231.541C231.584 211.136 231.604 211.514 231.541 211.877C231.482 212.219 231.349 212.549 231.09 213.188C229.971 215.395 228.546 216.724 226.226 217.591C224.458 217.814 222.858 217.716 221.291 216.829C219.078 215.415 218.274 214.032 217.65 211.489L217.494 210.736L215.596 210.355C215.567 211.525 215.466 212.639 215.216 213.783C213.995 215.75 212.459 216.888 210.281 217.591C207.665 217.923 205.907 217.263 203.826 215.687C202.745 214.397 202.235 213.385 202.023 211.736L201.928 210.355H200.03C199.94 212.065 199.804 213.376 198.867 214.83C197.576 216.456 195.952 217.436 193.884 217.695C191.544 217.738 190.087 217.116 188.261 215.687C187.117 214.285 186.406 213.128 186.244 211.307L186.362 210.355H184.464C184.166 212.63 183.65 214.228 182.045 215.899C180.061 217.661 178.256 217.743 175.732 217.591C175.398 215.997 175.328 214.548 175.417 212.934L175.471 212.093C175.573 210 175.848 208.164 176.491 206.166L177.796 206.071C180.83 205.673 182.968 204.555 184.845 202.126ZM266.849 237.774C260.956 228.833 258.557 217.911 260.395 207.309H260.775C261.543 212.895 263.496 217.682 267.171 222.006L267.988 222.922C269.804 225.047 271.691 227.055 273.683 229.015L273.958 229.285C275.131 230.439 276.303 231.59 277.395 232.823C278.994 234.686 280.665 236.433 282.415 238.154C283.926 239.641 285.41 241.128 286.793 242.736C287.889 244.012 289.039 245.209 290.234 246.392C292.195 248.321 294.143 250.247 295.919 252.352C296.317 252.831 296.719 253.306 297.124 253.78C297.664 254.409 298.202 255.04 298.74 255.672C297.467 255.751 296.217 255.744 294.944 255.672C285.755 254.363 276.535 249.64 270.566 242.43L269.886 241.582C268.822 240.345 267.805 239.097 266.849 237.774ZM341.261 210.927L341.641 209.594H342.021C342.032 210.092 342.045 210.591 342.057 211.09C342.168 215.401 342.278 219.715 341.248 223.929L340.882 225.207C340.188 227.746 339.36 230.167 338.235 232.543C333.308 242.476 324.905 250.278 314.377 253.911C314.108 253.998 313.812 254.097 313.492 254.204C310.463 255.219 305.396 256.915 302.916 255.672L303.653 254.946L304.648 253.958C305.569 253.048 306.47 252.142 307.321 251.167C308.744 249.508 310.218 247.936 311.768 246.397C311.926 246.242 312.084 246.086 312.242 245.931C313.933 244.268 315.618 242.611 317.165 240.808C318.303 239.482 319.505 238.242 320.745 237.012C320.991 236.77 321.238 236.528 321.485 236.287C322.766 235.034 324.046 233.78 325.235 232.438C326.568 230.885 327.935 229.408 329.396 227.975C334.645 222.834 338.865 218.003 341.261 210.927ZM184.488 215.948L185.223 214.925H185.603L186.115 215.551C186.561 216.118 187.023 216.673 187.495 217.217C189.158 218.856 190.971 219.168 193.244 219.233C196.405 219.121 198.115 217.962 200.338 215.782L201.169 214.925C201.77 215.79 202.314 216.483 203.067 217.21C205.565 218.954 208.023 219.648 211.04 219.114C212.974 218.47 214.657 217.707 215.786 215.948L216.355 214.925H217.114C217.589 215.777 218.001 216.476 218.633 217.21C220.538 218.587 222.335 219.232 224.684 219.257C227.567 219.149 229.9 217.79 231.921 215.758L232.68 214.925C233.371 215.893 234.102 216.764 234.958 217.591C236.938 218.903 238.898 219.352 241.255 219.231C244.135 218.862 245.572 217.813 247.392 215.551L247.866 214.925C250.306 217.691 252.86 218.946 256.481 219.408L257.358 219.495C257.008 222.311 256.832 223.723 256.502 225.099C256.17 226.485 255.681 227.833 254.7 230.538C253.491 230.538 253.06 230.382 252.043 229.777C250.244 228.219 249.487 226.669 249.091 224.34L249.005 223.684H247.107C247.202 225.779 246.845 226.725 245.731 228.444C244.397 229.852 242.941 230.698 241.027 231.066C239.004 231.182 237.349 230.581 235.717 229.396C234.4 228.104 233.75 226.874 233.511 225.04L233.439 223.684H231.541C231.541 225.741 231.015 226.899 229.762 228.491C228.268 230.16 226.744 230.823 224.518 231.062C222.685 230.865 221.308 230.423 219.871 229.228C218.395 227.705 217.982 226.446 217.877 224.34L217.874 223.684H215.596C215.551 225.51 215.411 226.797 214.433 228.372C212.711 229.953 211.202 230.842 208.857 231.038L207.623 230.919C207.228 230.903 207.029 230.895 206.84 230.848C206.649 230.8 206.468 230.713 206.104 230.538C204.011 229.007 202.533 227.517 202.023 224.874L201.928 223.684H200.03C199.94 225.394 199.804 226.704 198.867 228.158C197.576 229.784 195.952 230.764 193.884 231.023C191.544 231.066 190.087 230.444 188.261 229.015C187.117 227.614 186.406 226.456 186.244 224.636L186.362 223.684H184.464C184.272 224.847 184.039 225.98 183.705 227.111C182.725 228.691 181.537 229.653 179.908 230.538C179.514 230.548 179.314 230.553 179.126 230.507C178.934 230.46 178.754 230.36 178.39 230.157C177.455 227.595 176.985 226.306 176.653 224.982C176.317 223.641 176.123 222.265 175.732 219.495C176.286 219.482 176.84 219.455 177.393 219.423C180.157 219.14 182.688 218.137 184.488 215.948ZM184.488 229.277L185.223 228.253H185.603L186.018 228.783C186.599 229.554 187.193 230.242 187.881 230.919C189.837 232.219 191.817 232.699 194.151 232.587C196.918 232.163 198.713 230.98 200.411 228.783L200.789 228.253C201.556 229.051 202.347 229.813 203.162 230.562C205.23 232.023 207.279 232.66 209.815 232.546C212.202 232.252 213.592 231.551 215.169 229.705C215.551 229.211 215.943 228.723 216.355 228.253H217.114L217.663 228.88C218.101 229.446 218.554 230.001 219.019 230.546C220.619 232.148 222.407 232.494 224.613 232.538C227.56 232.474 229.852 231.161 231.921 229.086L232.68 228.253C233.282 229.119 233.824 229.812 234.578 230.538C236.676 231.979 238.686 232.753 241.242 232.6C244 232.132 245.785 230.986 247.488 228.783L247.866 228.253C249.31 229.895 250.913 230.914 252.797 232.009L253.561 232.442C252.727 234.954 251.105 237.306 249.385 239.297L249.005 237.012H247.107C247.212 238.205 247.1 238.934 246.656 240.059C245.331 242.258 243.883 243.504 241.412 244.247C239.027 244.354 237.253 243.737 235.338 242.343C234.233 241.061 233.75 240.047 233.534 238.392L233.439 237.012H231.541C231.541 238.882 231.162 239.881 230.118 241.415C228.703 242.952 227.397 243.891 225.324 244.224C223.185 244.364 221.527 243.909 219.849 242.555C218.379 241.045 217.981 239.757 217.877 237.668L217.874 237.012H215.596C215.686 238.283 215.62 239.225 215.216 240.439C214.009 242.256 212.588 243.562 210.444 244.121C208.705 244.342 207.269 244.415 205.725 243.486C203.71 242.106 202.492 240.633 202.023 238.202L201.928 237.012H200.03C200.073 237.398 200.097 237.61 200.101 237.822C200.106 238.081 200.083 238.341 200.03 238.916C199.133 241.188 197.876 242.584 195.782 243.819C193.581 244.471 191.643 244.27 189.494 243.486C187.803 241.978 186.46 240.227 186.22 237.94L186.362 237.012H184.464C184.464 238.195 184.259 238.67 183.705 239.678C182.082 237.362 180.733 235.002 179.529 232.442C179.642 232.392 179.755 232.343 179.868 232.293C181.614 231.529 183.263 230.807 184.488 229.277ZM200.22 242.224L200.789 241.201C201.524 242.184 202.271 243.07 203.162 243.914C205.464 245.489 207.519 245.955 210.281 245.771C212.391 245.459 213.966 244.472 215.311 242.843C215.592 242.467 215.722 242.292 215.863 242.125C215.984 241.98 216.114 241.841 216.355 241.582H217.114C217.283 241.921 217.396 242.146 217.537 242.351C217.817 242.759 218.21 243.088 219.383 244.07C221.764 245.799 224.143 246.024 227.009 245.675C228.959 244.918 230.305 244.145 231.517 242.439L232.301 241.201L233.06 241.963C233.536 242.649 233.713 242.905 233.905 243.15C234.019 243.296 234.138 243.438 234.328 243.664C236.606 245.772 239.495 245.929 242.447 245.824L243.311 245.771L242.931 246.532C235.218 252.947 225.464 256.346 215.433 256.148C206.212 255.5 195.816 252.469 189.4 245.39C191.409 245.793 193.439 246.009 195.471 245.629C197.386 245.028 199.105 243.909 200.22 242.224Z" fill="#8B734B" fill-opacity="0.1"/>
</svg>
